<?xml version="1.0" encoding="UTF-8"?>
<!-- Generated by SVGo -->
<svg width="86.202mm" height="124.302mm" viewBox="0.000 0.000 86.202 124.302" xmlns="http://www.w3.org/2000/svg" xmlns:xlink="http://www.w3.org/1999/xlink">
<polygon points="78.202,5.001 78.437,5.010 78.671,5.037 78.902,5.083 79.129,5.147 79.350,5.229 79.563,5.327 79.769,5.443 79.965,5.573 80.150,5.719 80.323,5.879 80.483,6.052 80.629,6.237 80.759,6.433 80.875,6.639 80.973,6.852 81.055,7.073 81.119,7.300 81.165,7.531 81.192,7.765 81.202,8.001 81.202,116.302 81.192,116.537 81.165,116.771 81.119,117.002 81.055,117.229 80.973,117.450 80.875,117.663 80.759,117.869 80.629,118.065 80.483,118.250 80.323,118.423 80.150,118.583 79.965,118.729 79.769,118.859 79.563,118.975 79.350,119.073 79.129,119.155 78.902,119.219 78.671,119.265 78.437,119.292 78.201,119.302 8.001,119.302 7.765,119.292 7.531,119.265 7.300,119.219 7.073,119.155 6.852,119.073 6.639,118.975 6.433,118.859 6.237,118.729 6.052,118.583 5.879,118.423 5.719,118.250 5.573,118.065 5.443,117.869 5.327,117.663 5.229,117.450 5.147,117.229 5.083,117.002 5.037,116.771 5.010,116.537 5.000,116.301 5.001,8.001 5.010,7.765 5.037,7.531 5.083,7.300 5.147,7.073 5.229,6.852 5.327,6.639 5.443,6.433 5.573,6.237 5.719,6.052 5.879,5.879 6.052,5.719 6.237,5.573 6.433,5.443 6.639,5.327 6.852,5.229 7.073,5.147 7.300,5.083 7.531,5.037 7.765,5.010 8.001,5.000" style="fill:none;stroke-width:0.050000mm;stroke:black"/>
<polygon points="17.051,102.775 17.051,107.476 15.526,107.476 15.526,104.245 8.776,104.245 8.776,107.476 7.950,107.476 7.950,110.275 8.776,110.275 8.776,116.545 10.501,116.545 10.501,117.745 13.801,117.745 13.801,116.545 15.526,116.545 15.526,112.075 17.051,112.075 17.051,116.775 31.051,116.775 31.051,112.075 32.576,112.075 32.576,116.545 34.301,116.545 34.301,117.745 37.601,117.745 37.601,116.545 39.326,116.545 39.326,110.275 40.151,110.275 40.151,107.476 39.326,107.476 39.326,104.245 32.576,104.245 32.576,107.476 31.051,107.476 31.051,102.775" style="fill:none;stroke-width:0.050000mm;stroke:black"/>
<polygon points="45.626,102.775 45.626,116.775 59.626,116.775 59.626,102.775" style="fill:none;stroke-width:0.050000mm;stroke:black"/>
<polygon points="71.176,84.151 71.176,84.976 64.906,84.976 64.906,86.701 63.706,86.701 63.706,90.001 64.906,90.001 64.906,91.726 69.376,91.726 69.376,93.251 64.676,93.251 64.676,107.251 69.376,107.251 69.376,108.776 64.906,108.776 64.906,110.501 63.706,110.501 63.706,113.801 64.906,113.801 64.906,115.526 71.176,115.526 71.176,116.351 73.976,116.351 73.976,115.526 77.206,115.526 77.206,108.776 73.976,108.776 73.976,107.251 78.676,107.251 78.676,93.251 73.976,93.251 73.976,91.726 77.206,91.726 77.206,84.976 73.976,84.976 73.976,84.151" style="fill:none;stroke-width:0.050000mm;stroke:black"/>
<polygon points="7.526,83.726 7.526,97.726 21.526,97.726 21.526,83.726" style="fill:none;stroke-width:0.050000mm;stroke:black"/>
<polygon points="26.576,83.726 26.576,97.726 40.576,97.726 40.576,83.726" style="fill:none;stroke-width:0.050000mm;stroke:black"/>
<polygon points="45.626,83.726 45.626,97.726 59.626,97.726 59.626,83.726" style="fill:none;stroke-width:0.050000mm;stroke:black"/>
<polygon points="7.526,64.676 7.526,78.676 21.526,78.676 21.526,64.676" style="fill:none;stroke-width:0.050000mm;stroke:black"/>
<polygon points="26.576,64.676 26.576,78.676 40.576,78.676 40.576,64.676" style="fill:none;stroke-width:0.050000mm;stroke:black"/>
<polygon points="45.626,64.676 45.626,78.676 59.626,78.676 59.626,64.676" style="fill:none;stroke-width:0.050000mm;stroke:black"/>
<polygon points="71.176,46.051 71.176,46.876 64.906,46.876 64.906,48.600 63.706,48.600 63.706,51.901 64.906,51.901 64.906,53.626 69.376,53.626 69.376,55.151 64.676,55.151 64.676,69.151 69.376,69.151 69.376,70.676 64.906,70.676 64.906,72.401 63.706,72.401 63.706,75.701 64.906,75.701 64.906,77.426 71.176,77.426 71.176,78.251 73.976,78.251 73.976,77.426 77.206,77.426 77.206,70.676 73.976,70.676 73.976,69.151 78.676,69.151 78.676,55.151 73.976,55.151 73.976,53.626 77.206,53.626 77.206,46.876 73.976,46.876 73.976,46.051" style="fill:none;stroke-width:0.050000mm;stroke:black"/>
<polygon points="7.526,45.626 7.526,59.626 21.526,59.626 21.526,45.626" style="fill:none;stroke-width:0.050000mm;stroke:black"/>
<polygon points="26.576,45.626 26.576,59.626 40.576,59.626 40.576,45.626" style="fill:none;stroke-width:0.050000mm;stroke:black"/>
<polygon points="45.626,45.626 45.626,59.626 59.626,59.626 59.626,45.626" style="fill:none;stroke-width:0.050000mm;stroke:black"/>
<polygon points="7.526,26.576 7.526,40.576 21.526,40.576 21.526,26.576" style="fill:none;stroke-width:0.050000mm;stroke:black"/>
<polygon points="26.576,26.576 26.576,40.576 40.576,40.576 40.576,26.576" style="fill:none;stroke-width:0.050000mm;stroke:black"/>
<polygon points="45.626,26.576 45.626,40.576 59.626,40.576 59.626,26.576" style="fill:none;stroke-width:0.050000mm;stroke:black"/>
<polygon points="64.676,26.576 64.676,40.576 78.676,40.576 78.676,26.576" style="fill:none;stroke-width:0.050000mm;stroke:black"/>
<polygon points="64.676,7.526 64.676,21.526 78.676,21.526 78.676,7.526" style="fill:none;stroke-width:0.050000mm;stroke:black"/>
</svg>