  0
SECTION
  2
HEADER
  9
$ACADVER
  1
AC1009
  9
$FILLMODE
 70
 0
  9
$SPLFRAME
 70
 1
  9
$EXTMIN
 10
0
 20
0
 30
0.0
  9
$EXTMAX
 10
1058.33
 20
1058.33
 30
0.0
  0
ENDSEC
  0
SECTION
  2
TABLES
  0
TABLE
  2
LAYER
 70
1
  0
LAYER
  2
0
 70
     0
 62
     7
  6
CONTINUOUS
  0
ENDTAB
  0
ENDSEC
  0
SECTION
  2
ENTITIES
  0
LINE
  8
0
 62
     0
 10
73.2966
 20
114.558
 30
0.0
 11
73.5323
 21
114.548
 31
0.0
  0
LINE
  8
0
 62
     0
 10
73.5323
 20
114.548
 30
0.0
 11
73.7651
 21
114.522
 31
0.0
  0
LINE
  8
0
 62
     0
 10
73.7651
 20
114.522
 30
0.0
 11
73.9965
 21
114.475
 31
0.0
  0
LINE
  8
0
 62
     0
 10
73.9965
 20
114.475
 30
0.0
 11
74.2237
 21
114.411
 31
0.0
  0
LINE
  8
0
 62
     0
 10
74.2237
 20
114.411
 30
0.0
 11
74.4442
 21
114.329
 31
0.0
  0
LINE
  8
0
 62
     0
 10
74.4442
 20
114.329
 30
0.0
 11
74.658
 21
114.231
 31
0.0
  0
LINE
  8
0
 62
     0
 10
74.658
 20
114.231
 30
0.0
 11
74.8633
 21
114.115
 31
0.0
  0
LINE
  8
0
 62
     0
 10
74.8633
 20
114.115
 30
0.0
 11
75.0591
 21
113.986
 31
0.0
  0
LINE
  8
0
 62
     0
 10
75.0591
 20
113.986
 30
0.0
 11
75.245
 21
113.84
 31
0.0
  0
LINE
  8
0
 62
     0
 10
75.245
 20
113.84
 30
0.0
 11
75.4172
 21
113.68
 31
0.0
  0
LINE
  8
0
 62
     0
 10
75.4172
 20
113.68
 30
0.0
 11
75.577
 21
113.506
 31
0.0
  0
LINE
  8
0
 62
     0
 10
75.577
 20
113.506
 30
0.0
 11
75.723
 21
113.322
 31
0.0
  0
LINE
  8
0
 62
     0
 10
75.723
 20
113.322
 30
0.0
 11
75.8543
 21
113.126
 31
0.0
  0
LINE
  8
0
 62
     0
 10
75.8543
 20
113.126
 30
0.0
 11
75.97
 21
112.919
 31
0.0
  0
LINE
  8
0
 62
     0
 10
75.97
 20
112.919
 30
0.0
 11
76.0677
 21
112.705
 31
0.0
  0
LINE
  8
0
 62
     0
 10
76.0677
 20
112.705
 30
0.0
 11
76.1488
 21
112.485
 31
0.0
  0
LINE
  8
0
 62
     0
 10
76.1488
 20
112.485
 30
0.0
 11
76.2138
 21
112.258
 31
0.0
  0
LINE
  8
0
 62
     0
 10
76.2138
 20
112.258
 30
0.0
 11
76.2593
 21
112.028
 31
0.0
  0
LINE
  8
0
 62
     0
 10
76.2593
 20
112.028
 30
0.0
 11
76.2868
 21
111.794
 31
0.0
  0
LINE
  8
0
 62
     0
 10
76.2868
 20
111.794
 30
0.0
 11
76.2963
 21
111.558
 31
0.0
  0
LINE
  8
0
 62
     0
 10
76.2963
 20
111.558
 30
0.0
 11
76.2963
 21
3.2563
 31
0.0
  0
LINE
  8
0
 62
     0
 10
76.2963
 20
3.2563
 30
0.0
 11
76.2868
 21
3.02066
 31
0.0
  0
LINE
  8
0
 62
     0
 10
76.2868
 20
3.02066
 30
0.0
 11
76.2593
 21
2.78777
 31
0.0
  0
LINE
  8
0
 62
     0
 10
76.2593
 20
2.78777
 30
0.0
 11
76.2138
 21
2.55626
 31
0.0
  0
LINE
  8
0
 62
     0
 10
76.2138
 20
2.55626
 30
0.0
 11
76.1488
 21
2.32888
 31
0.0
  0
LINE
  8
0
 62
     0
 10
76.1488
 20
2.32888
 30
0.0
 11
76.0677
 21
2.1084
 31
0.0
  0
LINE
  8
0
 62
     0
 10
76.0677
 20
2.1084
 30
0.0
 11
75.97
 21
1.8948
 31
0.0
  0
LINE
  8
0
 62
     0
 10
75.97
 20
1.8948
 30
0.0
 11
75.8543
 21
1.68947
 31
0.0
  0
LINE
  8
0
 62
     0
 10
75.8543
 20
1.68947
 30
0.0
 11
75.723
 21
1.4938
 31
0.0
  0
LINE
  8
0
 62
     0
 10
75.723
 20
1.4938
 30
0.0
 11
75.577
 21
1.30776
 31
0.0
  0
LINE
  8
0
 62
     0
 10
75.577
 20
1.30776
 30
0.0
 11
75.4172
 21
1.1355
 31
0.0
  0
LINE
  8
0
 62
     0
 10
75.4172
 20
1.1355
 30
0.0
 11
75.245
 21
0.975653
 31
0.0
  0
LINE
  8
0
 62
     0
 10
75.245
 20
0.975653
 30
0.0
 11
75.0591
 21
0.829578
 31
0.0
  0
LINE
  8
0
 62
     0
 10
75.0591
 20
0.829578
 30
0.0
 11
74.8633
 21
0.698666
 31
0.0
  0
LINE
  8
0
 62
     0
 10
74.8633
 20
0.698666
 30
0.0
 11
74.658
 21
0.582909
 31
0.0
  0
LINE
  8
0
 62
     0
 10
74.658
 20
0.582909
 30
0.0
 11
74.4442
 21
0.485069
 31
0.0
  0
LINE
  8
0
 62
     0
 10
74.4442
 20
0.485069
 30
0.0
 11
74.2237
 21
0.403765
 31
0.0
  0
LINE
  8
0
 62
     0
 10
74.2237
 20
0.403765
 30
0.0
 11
73.9965
 21
0.338998
 31
0.0
  0
LINE
  8
0
 62
     0
 10
73.9965
 20
0.338998
 30
0.0
 11
73.7651
 21
0.293522
 31
0.0
  0
LINE
  8
0
 62
     0
 10
73.7651
 20
0.293522
 30
0.0
 11
73.5323
 21
0.265961
 31
0.0
  0
LINE
  8
0
 62
     0
 10
73.5323
 20
0.265961
 30
0.0
 11
73.2952
 21
0.256315
 31
0.0
  0
LINE
  8
0
 62
     0
 10
73.2952
 20
0.256315
 30
0.0
 11
3.09507
 21
0.256315
 31
0.0
  0
LINE
  8
0
 62
     0
 10
3.09507
 20
0.256315
 30
0.0
 11
2.85943
 21
0.265961
 31
0.0
  0
LINE
  8
0
 62
     0
 10
2.85943
 20
0.265961
 30
0.0
 11
2.62516
 21
0.293522
 31
0.0
  0
LINE
  8
0
 62
     0
 10
2.62516
 20
0.293522
 30
0.0
 11
2.39503
 21
0.338998
 31
0.0
  0
LINE
  8
0
 62
     0
 10
2.39503
 20
0.338998
 30
0.0
 11
2.16765
 21
0.403765
 31
0.0
  0
LINE
  8
0
 62
     0
 10
2.16765
 20
0.403765
 30
0.0
 11
1.94717
 21
0.485069
 31
0.0
  0
LINE
  8
0
 62
     0
 10
1.94717
 20
0.485069
 30
0.0
 11
1.73357
 21
0.582909
 31
0.0
  0
LINE
  8
0
 62
     0
 10
1.73357
 20
0.582909
 30
0.0
 11
1.52687
 21
0.698666
 31
0.0
  0
LINE
  8
0
 62
     0
 10
1.52687
 20
0.698666
 30
0.0
 11
1.33119
 21
0.829578
 31
0.0
  0
LINE
  8
0
 62
     0
 10
1.33119
 20
0.829578
 30
0.0
 11
1.14653
 21
0.975653
 31
0.0
  0
LINE
  8
0
 62
     0
 10
1.14653
 20
0.975653
 30
0.0
 11
0.972894
 21
1.1355
 31
0.0
  0
LINE
  8
0
 62
     0
 10
0.972894
 20
1.1355
 30
0.0
 11
0.813043
 21
1.30776
 31
0.0
  0
LINE
  8
0
 62
     0
 10
0.813043
 20
1.30776
 30
0.0
 11
0.666972
 21
1.4938
 31
0.0
  0
LINE
  8
0
 62
     0
 10
0.666972
 20
1.4938
 30
0.0
 11
0.537436
 21
1.68947
 31
0.0
  0
LINE
  8
0
 62
     0
 10
0.537436
 20
1.68947
 30
0.0
 11
0.421679
 21
1.8948
 31
0.0
  0
LINE
  8
0
 62
     0
 10
0.421679
 20
1.8948
 30
0.0
 11
0.323839
 21
2.1084
 31
0.0
  0
LINE
  8
0
 62
     0
 10
0.323839
 20
2.1084
 30
0.0
 11
0.241157
 21
2.32888
 31
0.0
  0
LINE
  8
0
 62
     0
 10
0.241157
 20
2.32888
 30
0.0
 11
0.177767
 21
2.55626
 31
0.0
  0
LINE
  8
0
 62
     0
 10
0.177767
 20
2.55626
 30
0.0
 11
0.130914
 21
2.78777
 31
0.0
  0
LINE
  8
0
 62
     0
 10
0.130914
 20
2.78777
 30
0.0
 11
0.104731
 21
3.02066
 31
0.0
  0
LINE
  8
0
 62
     0
 10
0.104731
 20
3.02066
 30
0.0
 11
0.0950846
 21
3.25768
 31
0.0
  0
LINE
  8
0
 62
     0
 10
0.0950846
 20
3.25768
 30
0.0
 11
0.0950846
 21
111.558
 31
0.0
  0
LINE
  8
0
 62
     0
 10
0.0950846
 20
111.558
 30
0.0
 11
0.104731
 21
111.794
 31
0.0
  0
LINE
  8
0
 62
     0
 10
0.104731
 20
111.794
 30
0.0
 11
0.130914
 21
112.028
 31
0.0
  0
LINE
  8
0
 62
     0
 10
0.130914
 20
112.028
 30
0.0
 11
0.177767
 21
112.258
 31
0.0
  0
LINE
  8
0
 62
     0
 10
0.177767
 20
112.258
 30
0.0
 11
0.241157
 21
112.485
 31
0.0
  0
LINE
  8
0
 62
     0
 10
0.241157
 20
112.485
 30
0.0
 11
0.323839
 21
112.705
 31
0.0
  0
LINE
  8
0
 62
     0
 10
0.323839
 20
112.705
 30
0.0
 11
0.421679
 21
112.919
 31
0.0
  0
LINE
  8
0
 62
     0
 10
0.421679
 20
112.919
 30
0.0
 11
0.537436
 21
113.126
 31
0.0
  0
LINE
  8
0
 62
     0
 10
0.537436
 20
113.126
 30
0.0
 11
0.666972
 21
113.322
 31
0.0
  0
LINE
  8
0
 62
     0
 10
0.666972
 20
113.322
 30
0.0
 11
0.813043
 21
113.506
 31
0.0
  0
LINE
  8
0
 62
     0
 10
0.813043
 20
113.506
 30
0.0
 11
0.972894
 21
113.68
 31
0.0
  0
LINE
  8
0
 62
     0
 10
0.972894
 20
113.68
 30
0.0
 11
1.14653
 21
113.84
 31
0.0
  0
LINE
  8
0
 62
     0
 10
1.14653
 20
113.84
 30
0.0
 11
1.33119
 21
113.986
 31
0.0
  0
LINE
  8
0
 62
     0
 10
1.33119
 20
113.986
 30
0.0
 11
1.52687
 21
114.115
 31
0.0
  0
LINE
  8
0
 62
     0
 10
1.52687
 20
114.115
 30
0.0
 11
1.73357
 21
114.231
 31
0.0
  0
LINE
  8
0
 62
     0
 10
1.73357
 20
114.231
 30
0.0
 11
1.94717
 21
114.329
 31
0.0
  0
LINE
  8
0
 62
     0
 10
1.94717
 20
114.329
 30
0.0
 11
2.16765
 21
114.411
 31
0.0
  0
LINE
  8
0
 62
     0
 10
2.16765
 20
114.411
 30
0.0
 11
2.39503
 21
114.475
 31
0.0
  0
LINE
  8
0
 62
     0
 10
2.39503
 20
114.475
 30
0.0
 11
2.62516
 21
114.522
 31
0.0
  0
LINE
  8
0
 62
     0
 10
2.62516
 20
114.522
 30
0.0
 11
2.85943
 21
114.548
 31
0.0
  0
LINE
  8
0
 62
     0
 10
2.85943
 20
114.548
 30
0.0
 11
3.09507
 21
114.558
 31
0.0
  0
LINE
  8
0
 62
     0
 10
3.09507
 20
114.558
 30
0.0
 11
73.2966
 21
114.558
 31
0.0
  0
LINE
  8
0
 62
     0
 10
12.146
 20
16.7831
 30
0.0
 11
12.146
 21
12.0826
 31
0.0
  0
LINE
  8
0
 62
     0
 10
12.146
 20
12.0826
 30
0.0
 11
10.6206
 21
12.0826
 31
0.0
  0
LINE
  8
0
 62
     0
 10
10.6206
 20
12.0826
 30
0.0
 11
10.6206
 21
15.3128
 31
0.0
  0
LINE
  8
0
 62
     0
 10
10.6206
 20
15.3128
 30
0.0
 11
3.87092
 21
15.3128
 31
0.0
  0
LINE
  8
0
 62
     0
 10
3.87092
 20
15.3128
 30
0.0
 11
3.87092
 21
12.0826
 31
0.0
  0
LINE
  8
0
 62
     0
 10
3.87092
 20
12.0826
 30
0.0
 11
3.04409
 21
12.0826
 31
0.0
  0
LINE
  8
0
 62
     0
 10
3.04409
 20
12.0826
 30
0.0
 11
3.04409
 21
9.28384
 31
0.0
  0
LINE
  8
0
 62
     0
 10
3.04409
 20
9.28384
 30
0.0
 11
3.87092
 21
9.28384
 31
0.0
  0
LINE
  8
0
 62
     0
 10
3.87092
 20
9.28384
 30
0.0
 11
3.87092
 21
3.01377
 31
0.0
  0
LINE
  8
0
 62
     0
 10
3.87092
 20
3.01377
 30
0.0
 11
5.59484
 21
3.01377
 31
0.0
  0
LINE
  8
0
 62
     0
 10
5.59484
 20
3.01377
 30
0.0
 11
5.59484
 21
1.8135
 31
0.0
  0
LINE
  8
0
 62
     0
 10
5.59484
 20
1.8135
 30
0.0
 11
8.89522
 21
1.8135
 31
0.0
  0
LINE
  8
0
 62
     0
 10
8.89522
 20
1.8135
 30
0.0
 11
8.89522
 21
3.01377
 31
0.0
  0
LINE
  8
0
 62
     0
 10
8.89522
 20
3.01377
 30
0.0
 11
10.6206
 21
3.01377
 31
0.0
  0
LINE
  8
0
 62
     0
 10
10.6206
 20
3.01377
 30
0.0
 11
10.6206
 21
7.48273
 31
0.0
  0
LINE
  8
0
 62
     0
 10
10.6206
 20
7.48273
 30
0.0
 11
12.146
 21
7.48273
 31
0.0
  0
LINE
  8
0
 62
     0
 10
12.146
 20
7.48273
 30
0.0
 11
12.146
 21
2.78364
 31
0.0
  0
LINE
  8
0
 62
     0
 10
12.146
 20
2.78364
 30
0.0
 11
26.1455
 21
2.78364
 31
0.0
  0
LINE
  8
0
 62
     0
 10
26.1455
 20
2.78364
 30
0.0
 11
26.1455
 21
7.48273
 31
0.0
  0
LINE
  8
0
 62
     0
 10
26.1455
 20
7.48273
 30
0.0
 11
27.671
 21
7.48273
 31
0.0
  0
LINE
  8
0
 62
     0
 10
27.671
 20
7.48273
 30
0.0
 11
27.671
 21
3.01377
 31
0.0
  0
LINE
  8
0
 62
     0
 10
27.671
 20
3.01377
 30
0.0
 11
29.3949
 21
3.01377
 31
0.0
  0
LINE
  8
0
 62
     0
 10
29.3949
 20
3.01377
 30
0.0
 11
29.3949
 21
1.8135
 31
0.0
  0
LINE
  8
0
 62
     0
 10
29.3949
 20
1.8135
 30
0.0
 11
32.6953
 21
1.8135
 31
0.0
  0
LINE
  8
0
 62
     0
 10
32.6953
 20
1.8135
 30
0.0
 11
32.6953
 21
3.01377
 31
0.0
  0
LINE
  8
0
 62
     0
 10
32.6953
 20
3.01377
 30
0.0
 11
34.4206
 21
3.01377
 31
0.0
  0
LINE
  8
0
 62
     0
 10
34.4206
 20
3.01377
 30
0.0
 11
34.4206
 21
9.28384
 31
0.0
  0
LINE
  8
0
 62
     0
 10
34.4206
 20
9.28384
 30
0.0
 11
35.2461
 21
9.28384
 31
0.0
  0
LINE
  8
0
 62
     0
 10
35.2461
 20
9.28384
 30
0.0
 11
35.2461
 21
12.0826
 31
0.0
  0
LINE
  8
0
 62
     0
 10
35.2461
 20
12.0826
 30
0.0
 11
34.4206
 21
12.0826
 31
0.0
  0
LINE
  8
0
 62
     0
 10
34.4206
 20
12.0826
 30
0.0
 11
34.4206
 21
15.3128
 31
0.0
  0
LINE
  8
0
 62
     0
 10
34.4206
 20
15.3128
 30
0.0
 11
27.671
 21
15.3128
 31
0.0
  0
LINE
  8
0
 62
     0
 10
27.671
 20
15.3128
 30
0.0
 11
27.671
 21
12.0826
 31
0.0
  0
LINE
  8
0
 62
     0
 10
27.671
 20
12.0826
 30
0.0
 11
26.1455
 21
12.0826
 31
0.0
  0
LINE
  8
0
 62
     0
 10
26.1455
 20
12.0826
 30
0.0
 11
26.1455
 21
16.7831
 31
0.0
  0
LINE
  8
0
 62
     0
 10
26.1455
 20
16.7831
 30
0.0
 11
12.146
 21
16.7831
 31
0.0
  0
LINE
  8
0
 62
     0
 10
40.7211
 20
16.7831
 30
0.0
 11
54.7204
 21
16.7831
 31
0.0
  0
LINE
  8
0
 62
     0
 10
54.7204
 20
16.7831
 30
0.0
 11
54.7204
 21
2.78364
 31
0.0
  0
LINE
  8
0
 62
     0
 10
54.7204
 20
2.78364
 30
0.0
 11
40.7211
 21
2.78364
 31
0.0
  0
LINE
  8
0
 62
     0
 10
40.7211
 20
2.78364
 30
0.0
 11
40.7211
 21
16.7831
 31
0.0
  0
LINE
  8
0
 62
     0
 10
66.27
 20
35.4072
 30
0.0
 11
66.27
 21
34.5819
 31
0.0
  0
LINE
  8
0
 62
     0
 10
66.27
 20
34.5819
 30
0.0
 11
60.0012
 21
34.5819
 31
0.0
  0
LINE
  8
0
 62
     0
 10
60.0012
 20
34.5819
 30
0.0
 11
60.0012
 21
32.8579
 31
0.0
  0
LINE
  8
0
 62
     0
 10
60.0012
 20
32.8579
 30
0.0
 11
58.801
 21
32.8579
 31
0.0
  0
LINE
  8
0
 62
     0
 10
58.801
 20
32.8579
 30
0.0
 11
58.801
 21
29.5576
 31
0.0
  0
LINE
  8
0
 62
     0
 10
58.801
 20
29.5576
 30
0.0
 11
60.0012
 21
29.5576
 31
0.0
  0
LINE
  8
0
 62
     0
 10
60.0012
 20
29.5576
 30
0.0
 11
60.0012
 21
27.8322
 31
0.0
  0
LINE
  8
0
 62
     0
 10
60.0012
 20
27.8322
 30
0.0
 11
64.4701
 21
27.8322
 31
0.0
  0
LINE
  8
0
 62
     0
 10
64.4701
 20
27.8322
 30
0.0
 11
64.4701
 21
26.3067
 31
0.0
  0
LINE
  8
0
 62
     0
 10
64.4701
 20
26.3067
 30
0.0
 11
59.7711
 21
26.3067
 31
0.0
  0
LINE
  8
0
 62
     0
 10
59.7711
 20
26.3067
 30
0.0
 11
59.7711
 21
12.3073
 31
0.0
  0
LINE
  8
0
 62
     0
 10
59.7711
 20
12.3073
 30
0.0
 11
64.4701
 21
12.3073
 31
0.0
  0
LINE
  8
0
 62
     0
 10
64.4701
 20
12.3073
 30
0.0
 11
64.4701
 21
10.7818
 31
0.0
  0
LINE
  8
0
 62
     0
 10
64.4701
 20
10.7818
 30
0.0
 11
60.0012
 21
10.7818
 31
0.0
  0
LINE
  8
0
 62
     0
 10
60.0012
 20
10.7818
 30
0.0
 11
60.0012
 21
9.05785
 31
0.0
  0
LINE
  8
0
 62
     0
 10
60.0012
 20
9.05785
 30
0.0
 11
58.801
 21
9.05785
 31
0.0
  0
LINE
  8
0
 62
     0
 10
58.801
 20
9.05785
 30
0.0
 11
58.801
 21
5.75744
 31
0.0
  0
LINE
  8
0
 62
     0
 10
58.801
 20
5.75744
 30
0.0
 11
60.0012
 21
5.75744
 31
0.0
  0
LINE
  8
0
 62
     0
 10
60.0012
 20
5.75744
 30
0.0
 11
60.0012
 21
4.03214
 31
0.0
  0
LINE
  8
0
 62
     0
 10
60.0012
 20
4.03214
 30
0.0
 11
66.27
 21
4.03214
 31
0.0
  0
LINE
  8
0
 62
     0
 10
66.27
 20
4.03214
 30
0.0
 11
66.27
 21
3.20669
 31
0.0
  0
LINE
  8
0
 62
     0
 10
66.27
 20
3.20669
 30
0.0
 11
69.07
 21
3.20669
 31
0.0
  0
LINE
  8
0
 62
     0
 10
69.07
 20
3.20669
 30
0.0
 11
69.07
 21
4.03214
 31
0.0
  0
LINE
  8
0
 62
     0
 10
69.07
 20
4.03214
 30
0.0
 11
72.3
 21
4.03214
 31
0.0
  0
LINE
  8
0
 62
     0
 10
72.3
 20
4.03214
 30
0.0
 11
72.3
 21
10.7818
 31
0.0
  0
LINE
  8
0
 62
     0
 10
72.3
 20
10.7818
 30
0.0
 11
69.07
 21
10.7818
 31
0.0
  0
LINE
  8
0
 62
     0
 10
69.07
 20
10.7818
 30
0.0
 11
69.07
 21
12.3073
 31
0.0
  0
LINE
  8
0
 62
     0
 10
69.07
 20
12.3073
 30
0.0
 11
73.7704
 21
12.3073
 31
0.0
  0
LINE
  8
0
 62
     0
 10
73.7704
 20
12.3073
 30
0.0
 11
73.7704
 21
26.3067
 31
0.0
  0
LINE
  8
0
 62
     0
 10
73.7704
 20
26.3067
 30
0.0
 11
69.07
 21
26.3067
 31
0.0
  0
LINE
  8
0
 62
     0
 10
69.07
 20
26.3067
 30
0.0
 11
69.07
 21
27.8322
 31
0.0
  0
LINE
  8
0
 62
     0
 10
69.07
 20
27.8322
 30
0.0
 11
72.3
 21
27.8322
 31
0.0
  0
LINE
  8
0
 62
     0
 10
72.3
 20
27.8322
 30
0.0
 11
72.3
 21
34.5819
 31
0.0
  0
LINE
  8
0
 62
     0
 10
72.3
 20
34.5819
 30
0.0
 11
69.07
 21
34.5819
 31
0.0
  0
LINE
  8
0
 62
     0
 10
69.07
 20
34.5819
 30
0.0
 11
69.07
 21
35.4072
 31
0.0
  0
LINE
  8
0
 62
     0
 10
69.07
 20
35.4072
 30
0.0
 11
66.27
 21
35.4072
 31
0.0
  0
LINE
  8
0
 62
     0
 10
2.62103
 20
35.8316
 30
0.0
 11
16.6205
 21
35.8316
 31
0.0
  0
LINE
  8
0
 62
     0
 10
16.6205
 20
35.8316
 30
0.0
 11
16.6205
 21
21.8323
 31
0.0
  0
LINE
  8
0
 62
     0
 10
16.6205
 20
21.8323
 30
0.0
 11
2.62103
 21
21.8323
 31
0.0
  0
LINE
  8
0
 62
     0
 10
2.62103
 20
21.8323
 30
0.0
 11
2.62103
 21
35.8316
 31
0.0
  0
LINE
  8
0
 62
     0
 10
21.671
 20
35.8316
 30
0.0
 11
35.6704
 21
35.8316
 31
0.0
  0
LINE
  8
0
 62
     0
 10
35.6704
 20
35.8316
 30
0.0
 11
35.6704
 21
21.8323
 31
0.0
  0
LINE
  8
0
 62
     0
 10
35.6704
 20
21.8323
 30
0.0
 11
21.671
 21
21.8323
 31
0.0
  0
LINE
  8
0
 62
     0
 10
21.671
 20
21.8323
 30
0.0
 11
21.671
 21
35.8316
 31
0.0
  0
LINE
  8
0
 62
     0
 10
40.7211
 20
35.8316
 30
0.0
 11
54.7204
 21
35.8316
 31
0.0
  0
LINE
  8
0
 62
     0
 10
54.7204
 20
35.8316
 30
0.0
 11
54.7204
 21
21.8323
 31
0.0
  0
LINE
  8
0
 62
     0
 10
54.7204
 20
21.8323
 30
0.0
 11
40.7211
 21
21.8323
 31
0.0
  0
LINE
  8
0
 62
     0
 10
40.7211
 20
21.8323
 30
0.0
 11
40.7211
 21
35.8316
 31
0.0
  0
LINE
  8
0
 62
     0
 10
2.62103
 20
54.8816
 30
0.0
 11
16.6205
 21
54.8816
 31
0.0
  0
LINE
  8
0
 62
     0
 10
16.6205
 20
54.8816
 30
0.0
 11
16.6205
 21
40.8824
 31
0.0
  0
LINE
  8
0
 62
     0
 10
16.6205
 20
40.8824
 30
0.0
 11
2.62103
 21
40.8824
 31
0.0
  0
LINE
  8
0
 62
     0
 10
2.62103
 20
40.8824
 30
0.0
 11
2.62103
 21
54.8816
 31
0.0
  0
LINE
  8
0
 62
     0
 10
21.671
 20
54.8816
 30
0.0
 11
35.6704
 21
54.8816
 31
0.0
  0
LINE
  8
0
 62
     0
 10
35.6704
 20
54.8816
 30
0.0
 11
35.6704
 21
40.8824
 31
0.0
  0
LINE
  8
0
 62
     0
 10
35.6704
 20
40.8824
 30
0.0
 11
21.671
 21
40.8824
 31
0.0
  0
LINE
  8
0
 62
     0
 10
21.671
 20
40.8824
 30
0.0
 11
21.671
 21
54.8816
 31
0.0
  0
LINE
  8
0
 62
     0
 10
40.7211
 20
54.8816
 30
0.0
 11
54.7204
 21
54.8816
 31
0.0
  0
LINE
  8
0
 62
     0
 10
54.7204
 20
54.8816
 30
0.0
 11
54.7204
 21
40.8824
 31
0.0
  0
LINE
  8
0
 62
     0
 10
54.7204
 20
40.8824
 30
0.0
 11
40.7211
 21
40.8824
 31
0.0
  0
LINE
  8
0
 62
     0
 10
40.7211
 20
40.8824
 30
0.0
 11
40.7211
 21
54.8816
 31
0.0
  0
LINE
  8
0
 62
     0
 10
66.27
 20
73.5072
 30
0.0
 11
66.27
 21
72.6817
 31
0.0
  0
LINE
  8
0
 62
     0
 10
66.27
 20
72.6817
 30
0.0
 11
60.0012
 21
72.6817
 31
0.0
  0
LINE
  8
0
 62
     0
 10
60.0012
 20
72.6817
 30
0.0
 11
60.0012
 21
70.9581
 31
0.0
  0
LINE
  8
0
 62
     0
 10
60.0012
 20
70.9581
 30
0.0
 11
58.801
 21
70.9581
 31
0.0
  0
LINE
  8
0
 62
     0
 10
58.801
 20
70.9581
 30
0.0
 11
58.801
 21
67.6575
 31
0.0
  0
LINE
  8
0
 62
     0
 10
58.801
 20
67.6575
 30
0.0
 11
60.0012
 21
67.6575
 31
0.0
  0
LINE
  8
0
 62
     0
 10
60.0012
 20
67.6575
 30
0.0
 11
60.0012
 21
65.9324
 31
0.0
  0
LINE
  8
0
 62
     0
 10
60.0012
 20
65.9324
 30
0.0
 11
64.4701
 21
65.9324
 31
0.0
  0
LINE
  8
0
 62
     0
 10
64.4701
 20
65.9324
 30
0.0
 11
64.4701
 21
64.4066
 31
0.0
  0
LINE
  8
0
 62
     0
 10
64.4701
 20
64.4066
 30
0.0
 11
59.7711
 21
64.4066
 31
0.0
  0
LINE
  8
0
 62
     0
 10
59.7711
 20
64.4066
 30
0.0
 11
59.7711
 21
50.4074
 31
0.0
  0
LINE
  8
0
 62
     0
 10
59.7711
 20
50.4074
 30
0.0
 11
64.4701
 21
50.4074
 31
0.0
  0
LINE
  8
0
 62
     0
 10
64.4701
 20
50.4074
 30
0.0
 11
64.4701
 21
48.8819
 31
0.0
  0
LINE
  8
0
 62
     0
 10
64.4701
 20
48.8819
 30
0.0
 11
60.0012
 21
48.8819
 31
0.0
  0
LINE
  8
0
 62
     0
 10
60.0012
 20
48.8819
 30
0.0
 11
60.0012
 21
47.1579
 31
0.0
  0
LINE
  8
0
 62
     0
 10
60.0012
 20
47.1579
 30
0.0
 11
58.801
 21
47.1579
 31
0.0
  0
LINE
  8
0
 62
     0
 10
58.801
 20
47.1579
 30
0.0
 11
58.801
 21
43.8573
 31
0.0
  0
LINE
  8
0
 62
     0
 10
58.801
 20
43.8573
 30
0.0
 11
60.0012
 21
43.8573
 31
0.0
  0
LINE
  8
0
 62
     0
 10
60.0012
 20
43.8573
 30
0.0
 11
60.0012
 21
42.1323
 31
0.0
  0
LINE
  8
0
 62
     0
 10
60.0012
 20
42.1323
 30
0.0
 11
66.27
 21
42.1323
 31
0.0
  0
LINE
  8
0
 62
     0
 10
66.27
 20
42.1323
 30
0.0
 11
66.27
 21
41.3067
 31
0.0
  0
LINE
  8
0
 62
     0
 10
66.27
 20
41.3067
 30
0.0
 11
69.07
 21
41.3067
 31
0.0
  0
LINE
  8
0
 62
     0
 10
69.07
 20
41.3067
 30
0.0
 11
69.07
 21
42.1323
 31
0.0
  0
LINE
  8
0
 62
     0
 10
69.07
 20
42.1323
 30
0.0
 11
72.3
 21
42.1323
 31
0.0
  0
LINE
  8
0
 62
     0
 10
72.3
 20
42.1323
 30
0.0
 11
72.3
 21
48.8819
 31
0.0
  0
LINE
  8
0
 62
     0
 10
72.3
 20
48.8819
 30
0.0
 11
69.07
 21
48.8819
 31
0.0
  0
LINE
  8
0
 62
     0
 10
69.07
 20
48.8819
 30
0.0
 11
69.07
 21
50.4074
 31
0.0
  0
LINE
  8
0
 62
     0
 10
69.07
 20
50.4074
 30
0.0
 11
73.7704
 21
50.4074
 31
0.0
  0
LINE
  8
0
 62
     0
 10
73.7704
 20
50.4074
 30
0.0
 11
73.7704
 21
64.4066
 31
0.0
  0
LINE
  8
0
 62
     0
 10
73.7704
 20
64.4066
 30
0.0
 11
69.07
 21
64.4066
 31
0.0
  0
LINE
  8
0
 62
     0
 10
69.07
 20
64.4066
 30
0.0
 11
69.07
 21
65.9324
 31
0.0
  0
LINE
  8
0
 62
     0
 10
69.07
 20
65.9324
 30
0.0
 11
72.3
 21
65.9324
 31
0.0
  0
LINE
  8
0
 62
     0
 10
72.3
 20
65.9324
 30
0.0
 11
72.3
 21
72.6817
 31
0.0
  0
LINE
  8
0
 62
     0
 10
72.3
 20
72.6817
 30
0.0
 11
69.07
 21
72.6817
 31
0.0
  0
LINE
  8
0
 62
     0
 10
69.07
 20
72.6817
 30
0.0
 11
69.07
 21
73.5072
 31
0.0
  0
LINE
  8
0
 62
     0
 10
69.07
 20
73.5072
 30
0.0
 11
66.27
 21
73.5072
 31
0.0
  0
LINE
  8
0
 62
     0
 10
2.62103
 20
73.9316
 30
0.0
 11
16.6205
 21
73.9316
 31
0.0
  0
LINE
  8
0
 62
     0
 10
16.6205
 20
73.9316
 30
0.0
 11
16.6205
 21
59.9324
 31
0.0
  0
LINE
  8
0
 62
     0
 10
16.6205
 20
59.9324
 30
0.0
 11
2.62103
 21
59.9324
 31
0.0
  0
LINE
  8
0
 62
     0
 10
2.62103
 20
59.9324
 30
0.0
 11
2.62103
 21
73.9316
 31
0.0
  0
LINE
  8
0
 62
     0
 10
21.671
 20
73.9316
 30
0.0
 11
35.6704
 21
73.9316
 31
0.0
  0
LINE
  8
0
 62
     0
 10
35.6704
 20
73.9316
 30
0.0
 11
35.6704
 21
59.9324
 31
0.0
  0
LINE
  8
0
 62
     0
 10
35.6704
 20
59.9324
 30
0.0
 11
21.671
 21
59.9324
 31
0.0
  0
LINE
  8
0
 62
     0
 10
21.671
 20
59.9324
 30
0.0
 11
21.671
 21
73.9316
 31
0.0
  0
LINE
  8
0
 62
     0
 10
40.7211
 20
73.9316
 30
0.0
 11
54.7204
 21
73.9316
 31
0.0
  0
LINE
  8
0
 62
     0
 10
54.7204
 20
73.9316
 30
0.0
 11
54.7204
 21
59.9324
 31
0.0
  0
LINE
  8
0
 62
     0
 10
54.7204
 20
59.9324
 30
0.0
 11
40.7211
 21
59.9324
 31
0.0
  0
LINE
  8
0
 62
     0
 10
40.7211
 20
59.9324
 30
0.0
 11
40.7211
 21
73.9316
 31
0.0
  0
LINE
  8
0
 62
     0
 10
2.62103
 20
92.9816
 30
0.0
 11
16.6205
 21
92.9816
 31
0.0
  0
LINE
  8
0
 62
     0
 10
16.6205
 20
92.9816
 30
0.0
 11
16.6205
 21
78.9824
 31
0.0
  0
LINE
  8
0
 62
     0
 10
16.6205
 20
78.9824
 30
0.0
 11
2.62103
 21
78.9824
 31
0.0
  0
LINE
  8
0
 62
     0
 10
2.62103
 20
78.9824
 30
0.0
 11
2.62103
 21
92.9816
 31
0.0
  0
LINE
  8
0
 62
     0
 10
21.671
 20
92.9816
 30
0.0
 11
35.6704
 21
92.9816
 31
0.0
  0
LINE
  8
0
 62
     0
 10
35.6704
 20
92.9816
 30
0.0
 11
35.6704
 21
78.9824
 31
0.0
  0
LINE
  8
0
 62
     0
 10
35.6704
 20
78.9824
 30
0.0
 11
21.671
 21
78.9824
 31
0.0
  0
LINE
  8
0
 62
     0
 10
21.671
 20
78.9824
 30
0.0
 11
21.671
 21
92.9816
 31
0.0
  0
LINE
  8
0
 62
     0
 10
40.7211
 20
92.9816
 30
0.0
 11
54.7204
 21
92.9816
 31
0.0
  0
LINE
  8
0
 62
     0
 10
54.7204
 20
92.9816
 30
0.0
 11
54.7204
 21
78.9824
 31
0.0
  0
LINE
  8
0
 62
     0
 10
54.7204
 20
78.9824
 30
0.0
 11
40.7211
 21
78.9824
 31
0.0
  0
LINE
  8
0
 62
     0
 10
40.7211
 20
78.9824
 30
0.0
 11
40.7211
 21
92.9816
 31
0.0
  0
LINE
  8
0
 62
     0
 10
59.7711
 20
92.9816
 30
0.0
 11
73.7704
 21
92.9816
 31
0.0
  0
LINE
  8
0
 62
     0
 10
73.7704
 20
92.9816
 30
0.0
 11
73.7704
 21
78.9824
 31
0.0
  0
LINE
  8
0
 62
     0
 10
73.7704
 20
78.9824
 30
0.0
 11
59.7711
 21
78.9824
 31
0.0
  0
LINE
  8
0
 62
     0
 10
59.7711
 20
78.9824
 30
0.0
 11
59.7711
 21
92.9816
 31
0.0
  0
LINE
  8
0
 62
     0
 10
59.7711
 20
112.032
 30
0.0
 11
73.7704
 21
112.032
 31
0.0
  0
LINE
  8
0
 62
     0
 10
73.7704
 20
112.032
 30
0.0
 11
73.7704
 21
98.0324
 31
0.0
  0
LINE
  8
0
 62
     0
 10
73.7704
 20
98.0324
 30
0.0
 11
59.7711
 21
98.0324
 31
0.0
  0
LINE
  8
0
 62
     0
 10
59.7711
 20
98.0324
 30
0.0
 11
59.7711
 21
112.032
 31
0.0
  0
ENDSEC
  0
EOF
