<svg width="73.555mm" height="73.555mm" viewBox="0 0 73.555 73.555" xmlns="http://www.w3.org/2000/svg"><g id="svgGroup" stroke-linecap="round" fill-rule="evenodd" font-size="9pt" stroke="#000" stroke-width="0.25mm" fill="none" style="stroke:#000;stroke-width:0.25mm;fill:none"><path d="M 23.86 73.555 L 30.86 73.555 L 30.86 57.555 L 23.86 57.555 L 23.86 73.555 Z M 73.555 47.1 L 73.555 40.1 L 57.555 40.1 L 57.555 47.1 L 73.555 47.1 Z M 73.555 7 L 73.555 0 L 57.555 0 L 57.555 7 L 73.555 7 Z M 0 73.555 L 7 73.555 L 7 57.555 L 0 57.555 L 0 73.555 Z M 73.555 70.96 L 73.555 63.96 L 57.555 63.96 L 57.555 70.96 L 73.555 70.96 Z M 73.555 30.86 L 73.555 23.86 L 57.555 23.86 L 57.555 30.86 L 73.555 30.86 Z" vector-effect="non-scaling-stroke"/></g></svg>