0
SECTION
2
HEADER
9
$INSUNITS
70
4
0
ENDSEC
0
SECTION
2
TABLES
0
TABLE
2
LTYPE
0
LTYPE
72
65
70
64
2
CONTINUOUS
3
______
73
0
40
0
0
ENDTAB
0
TABLE
2
LAYER
0
ENDTAB
0
ENDSEC
0
SECTION
2
ENTITIES
0
LINE
8
0
10
27.475
20
-207.525
11
27.475
21
-79.75
0
LINE
8
0
10
32.475
20
-74.75
11
107.675
21
-74.75
0
LINE
8
0
10
112.675
20
-79.75
11
112.675
21
-207.525
0
LINE
8
0
10
107.675
20
-212.525
11
32.475
21
-212.525
0
ARC
8
0
10
32.475
20
-79.75
40
5
50
90
51
180
0
ARC
8
0
10
107.675
20
-79.75
40
5
50
0
51
90
0
ARC
8
0
10
107.675
20
-207.525
40
5
50
270
51
0
0
ARC
8
0
10
32.475
20
-207.525
40
5
50
180
51
270
0
LINE
8
0
10
29.24
20
-99.8775
11
62.26
21
-99.8775
0
LINE
8
0
10
62.26
20
-99.8775
11
62.26
21
-82.0975
0
LINE
8
0
10
62.26
20
-82.0975
11
29.24
21
-82.0975
0
LINE
8
0
10
29.24
20
-82.0975
11
29.24
21
-99.8775
0
LINE
8
0
10
40.75
20
-209.275
11
59.3
21
-209.275
0
LINE
8
0
10
59.3
20
-209.275
11
59.3
21
-190.725
0
LINE
8
0
10
59.3
20
-190.725
11
40.75
21
-190.725
0
LINE
8
0
10
40.75
20
-190.725
11
40.75
21
-209.275
0
LINE
8
0
10
30.725
20
-189.225
11
49.275
21
-189.225
0
LINE
8
0
10
49.275
20
-189.225
11
49.275
21
-170.675
0
LINE
8
0
10
49.275
20
-170.675
11
30.725
21
-170.675
0
LINE
8
0
10
30.725
20
-170.675
11
30.725
21
-189.225
0
LINE
8
0
10
30.725
20
-169.175
11
49.275
21
-169.175
0
LINE
8
0
10
49.275
20
-169.175
11
49.275
21
-150.625
0
LINE
8
0
10
49.275
20
-150.625
11
30.725
21
-150.625
0
LINE
8
0
10
30.725
20
-150.625
11
30.725
21
-169.175
0
LINE
8
0
10
30.725
20
-149.125
11
49.275
21
-149.125
0
LINE
8
0
10
49.275
20
-149.125
11
49.275
21
-130.575
0
LINE
8
0
10
49.275
20
-130.575
11
30.725
21
-130.575
0
LINE
8
0
10
30.725
20
-130.575
11
30.725
21
-149.125
0
LINE
8
0
10
30.725
20
-129.075
11
49.275
21
-129.075
0
LINE
8
0
10
49.275
20
-129.075
11
49.275
21
-110.525
0
LINE
8
0
10
49.275
20
-110.525
11
30.725
21
-110.525
0
LINE
8
0
10
30.725
20
-110.525
11
30.725
21
-129.075
0
LINE
8
0
10
50.775
20
-189.225
11
69.325
21
-189.225
0
LINE
8
0
10
69.325
20
-189.225
11
69.325
21
-170.675
0
LINE
8
0
10
69.325
20
-170.675
11
50.775
21
-170.675
0
LINE
8
0
10
50.775
20
-170.675
11
50.775
21
-189.225
0
LINE
8
0
10
50.775
20
-169.175
11
69.325
21
-169.175
0
LINE
8
0
10
69.325
20
-169.175
11
69.325
21
-150.625
0
LINE
8
0
10
69.325
20
-150.625
11
50.775
21
-150.625
0
LINE
8
0
10
50.775
20
-150.625
11
50.775
21
-169.175
0
LINE
8
0
10
50.775
20
-149.125
11
69.325
21
-149.125
0
LINE
8
0
10
69.325
20
-149.125
11
69.325
21
-130.575
0
LINE
8
0
10
69.325
20
-130.575
11
50.775
21
-130.575
0
LINE
8
0
10
50.775
20
-130.575
11
50.775
21
-149.125
0
LINE
8
0
10
50.775
20
-129.075
11
69.325
21
-129.075
0
LINE
8
0
10
69.325
20
-129.075
11
69.325
21
-110.525
0
LINE
8
0
10
69.325
20
-110.525
11
50.775
21
-110.525
0
LINE
8
0
10
50.775
20
-110.525
11
50.775
21
-129.075
0
LINE
8
0
10
70.825
20
-209.275
11
89.375
21
-209.275
0
LINE
8
0
10
89.375
20
-209.275
11
89.375
21
-190.725
0
LINE
8
0
10
89.375
20
-190.725
11
70.825
21
-190.725
0
LINE
8
0
10
70.825
20
-190.725
11
70.825
21
-209.275
0
LINE
8
0
10
70.825
20
-189.225
11
89.375
21
-189.225
0
LINE
8
0
10
89.375
20
-189.225
11
89.375
21
-170.675
0
LINE
8
0
10
89.375
20
-170.675
11
70.825
21
-170.675
0
LINE
8
0
10
70.825
20
-170.675
11
70.825
21
-189.225
0
LINE
8
0
10
70.825
20
-169.175
11
89.375
21
-169.175
0
LINE
8
0
10
89.375
20
-169.175
11
89.375
21
-150.625
0
LINE
8
0
10
89.375
20
-150.625
11
70.825
21
-150.625
0
LINE
8
0
10
70.825
20
-150.625
11
70.825
21
-169.175
0
LINE
8
0
10
70.825
20
-149.125
11
89.375
21
-149.125
0
LINE
8
0
10
89.375
20
-149.125
11
89.375
21
-130.575
0
LINE
8
0
10
89.375
20
-130.575
11
70.825
21
-130.575
0
LINE
8
0
10
70.825
20
-130.575
11
70.825
21
-149.125
0
LINE
8
0
10
70.825
20
-129.075
11
89.375
21
-129.075
0
LINE
8
0
10
89.375
20
-129.075
11
89.375
21
-110.525
0
LINE
8
0
10
89.375
20
-110.525
11
70.825
21
-110.525
0
LINE
8
0
10
70.825
20
-110.525
11
70.825
21
-129.075
0
LINE
8
0
10
109.425
20
-199.25
11
109.425
21
-180.7
0
LINE
8
0
10
109.425
20
-180.7
11
90.875
21
-180.7
0
LINE
8
0
10
90.875
20
-180.7
11
90.875
21
-199.25
0
LINE
8
0
10
90.875
20
-199.25
11
109.425
21
-199.25
0
LINE
8
0
10
109.425
20
-159.15
11
109.425
21
-140.6
0
LINE
8
0
10
109.425
20
-140.6
11
90.875
21
-140.6
0
LINE
8
0
10
90.875
20
-140.6
11
90.875
21
-159.15
0
LINE
8
0
10
90.875
20
-159.15
11
109.425
21
-159.15
0
LINE
8
0
10
90.875
20
-129.075
11
109.425
21
-129.075
0
LINE
8
0
10
109.425
20
-129.075
11
109.425
21
-110.525
0
LINE
8
0
10
109.425
20
-110.525
11
90.875
21
-110.525
0
LINE
8
0
10
90.875
20
-110.525
11
90.875
21
-129.075
0
LINE
8
0
10
38.4
20
-104.8875
11
41.6
21
-104.8875
0
LINE
8
0
10
41.6
20
-104.8875
11
41.6
21
-102.0875
0
LINE
8
0
10
41.6
20
-102.0875
11
38.4
21
-102.0875
0
LINE
8
0
10
38.4
20
-102.0875
11
38.4
21
-104.8875
0
LINE
8
0
10
58.45
20
-104.8875
11
61.65
21
-104.8875
0
LINE
8
0
10
61.65
20
-104.8875
11
61.65
21
-102.0875
0
LINE
8
0
10
61.65
20
-102.0875
11
58.45
21
-102.0875
0
LINE
8
0
10
58.45
20
-102.0875
11
58.45
21
-104.8875
0
LINE
8
0
10
78.5
20
-104.8875
11
81.7
21
-104.8875
0
LINE
8
0
10
81.7
20
-104.8875
11
81.7
21
-102.0875
0
LINE
8
0
10
81.7
20
-102.0875
11
78.5
21
-102.0875
0
LINE
8
0
10
78.5
20
-102.0875
11
78.5
21
-104.8875
0
LINE
8
0
10
98.55
20
-104.8875
11
101.75
21
-104.8875
0
LINE
8
0
10
101.75
20
-104.8875
11
101.75
21
-102.0875
0
LINE
8
0
10
101.75
20
-102.0875
11
98.55
21
-102.0875
0
LINE
8
0
10
98.55
20
-102.0875
11
98.55
21
-104.8875
0
ENDSEC
0
EOF