<svg width="85.2mm" height="132.775mm" viewBox="0 0 85.2 132.775" xmlns="http://www.w3.org/2000/svg"><g id="svgGroup" stroke-linecap="round" fill-rule="evenodd" font-size="9pt" stroke="#000" stroke-width="0.25mm" fill="none" style="stroke:#000;stroke-width:0.25mm;fill:none"><path d="M 0 127.775 L 0 5 A 5 5 0 0 1 5 0 L 80.2 0 A 5 5 0 0 1 85.2 5 L 85.2 127.775 A 5 5 0 0 1 80.2 132.775 L 5 132.775 A 5 5 0 0 1 0 127.775 Z M 1.765 23.89 L 34.785 23.89 L 34.785 6.11 L 1.765 6.11 L 1.765 23.89 Z M 3.25 109.475 L 21.8 109.475 L 21.8 90.925 L 3.25 90.925 L 3.25 109.475 Z M 3.25 89.425 L 21.8 89.425 L 21.8 70.875 L 3.25 70.875 L 3.25 89.425 Z M 3.25 69.375 L 21.8 69.375 L 21.8 50.825 L 3.25 50.825 L 3.25 69.375 Z M 23.3 109.475 L 41.85 109.475 L 41.85 90.925 L 23.3 90.925 L 23.3 109.475 Z M 23.3 89.425 L 41.85 89.425 L 41.85 70.875 L 23.3 70.875 L 23.3 89.425 Z M 23.3 69.375 L 41.85 69.375 L 41.85 50.825 L 23.3 50.825 L 23.3 69.375 Z M 13.275 129.525 L 31.825 129.525 L 31.825 110.975 L 13.275 110.975 L 13.275 129.525 Z M 43.35 129.525 L 61.9 129.525 L 61.9 110.975 L 43.35 110.975 L 43.35 129.525 Z M 43.35 109.475 L 61.9 109.475 L 61.9 90.925 L 43.35 90.925 L 43.35 109.475 Z M 43.35 89.425 L 61.9 89.425 L 61.9 70.875 L 43.35 70.875 L 43.35 89.425 Z M 43.35 69.375 L 61.9 69.375 L 61.9 50.825 L 43.35 50.825 L 43.35 69.375 Z M 81.95 119.5 L 81.95 100.95 L 63.4 100.95 L 63.4 119.5 L 81.95 119.5 Z M 81.95 79.4 L 81.95 60.85 L 63.4 60.85 L 63.4 79.4 L 81.95 79.4 Z M 3.25 49.325 L 21.8 49.325 L 21.8 30.775 L 3.25 30.775 L 3.25 49.325 Z M 23.3 49.325 L 41.85 49.325 L 41.85 30.775 L 23.3 30.775 L 23.3 49.325 Z M 43.35 49.325 L 61.9 49.325 L 61.9 30.775 L 43.35 30.775 L 43.35 49.325 Z M 63.4 49.325 L 81.95 49.325 L 81.95 30.775 L 63.4 30.775 L 63.4 49.325 Z M 10.925 28.9 L 14.125 28.9 L 14.125 26.1 L 10.925 26.1 L 10.925 28.9 Z M 30.975 28.9 L 34.175 28.9 L 34.175 26.1 L 30.975 26.1 L 30.975 28.9 Z M 51.025 28.9 L 54.225 28.9 L 54.225 26.1 L 51.025 26.1 L 51.025 28.9 Z M 71.075 28.9 L 74.275 28.9 L 74.275 26.1 L 71.075 26.1 L 71.075 28.9 Z" vector-effect="non-scaling-stroke"/></g></svg>