<svg width="85.2mm" height="137.775mm" viewBox="0 0 85.2 137.775" xmlns="http://www.w3.org/2000/svg"><g id="svgGroup" stroke-linecap="round" fill-rule="evenodd" font-size="9pt" stroke="#000" stroke-width="0.25mm" fill="none" style="stroke:#000;stroke-width:0.25mm;fill:none"><path d="M 0 132.775 L 0 5 A 5 5 0 0 1 5 0 L 80.2 0 A 5 5 0 0 1 85.2 5 L 85.2 132.775 A 5 5 0 0 1 80.2 137.775 L 5 137.775 A 5 5 0 0 1 0 132.775 Z M 1.765 25.127 L 34.785 25.127 L 34.785 7.347 L 1.765 7.347 L 1.765 25.127 Z M 3.25 114.475 L 21.8 114.475 L 21.8 95.925 L 3.25 95.925 L 3.25 114.475 Z M 3.25 94.425 L 21.8 94.425 L 21.8 75.875 L 3.25 75.875 L 3.25 94.425 Z M 3.25 74.375 L 21.8 74.375 L 21.8 55.825 L 3.25 55.825 L 3.25 74.375 Z M 23.3 114.475 L 41.85 114.475 L 41.85 95.925 L 23.3 95.925 L 23.3 114.475 Z M 23.3 94.425 L 41.85 94.425 L 41.85 75.875 L 23.3 75.875 L 23.3 94.425 Z M 23.3 74.375 L 41.85 74.375 L 41.85 55.825 L 23.3 55.825 L 23.3 74.375 Z M 13.275 134.525 L 31.825 134.525 L 31.825 115.975 L 13.275 115.975 L 13.275 134.525 Z M 43.35 134.525 L 61.9 134.525 L 61.9 115.975 L 43.35 115.975 L 43.35 134.525 Z M 43.35 114.475 L 61.9 114.475 L 61.9 95.925 L 43.35 95.925 L 43.35 114.475 Z M 43.35 94.425 L 61.9 94.425 L 61.9 75.875 L 43.35 75.875 L 43.35 94.425 Z M 43.35 74.375 L 61.9 74.375 L 61.9 55.825 L 43.35 55.825 L 43.35 74.375 Z M 81.95 124.5 L 81.95 105.95 L 63.4 105.95 L 63.4 124.5 L 81.95 124.5 Z M 81.95 84.4 L 81.95 65.85 L 63.4 65.85 L 63.4 84.4 L 81.95 84.4 Z M 3.25 54.325 L 21.8 54.325 L 21.8 35.775 L 3.25 35.775 L 3.25 54.325 Z M 23.3 54.325 L 41.85 54.325 L 41.85 35.775 L 23.3 35.775 L 23.3 54.325 Z M 43.35 54.325 L 61.9 54.325 L 61.9 35.775 L 43.35 35.775 L 43.35 54.325 Z M 63.4 54.325 L 81.95 54.325 L 81.95 35.775 L 63.4 35.775 L 63.4 54.325 Z M 10.925 30.138 L 14.125 30.138 L 14.125 27.338 L 10.925 27.338 L 10.925 30.138 Z M 30.975 30.138 L 34.175 30.138 L 34.175 27.338 L 30.975 27.338 L 30.975 30.138 Z M 51.025 30.138 L 54.225 30.138 L 54.225 27.338 L 51.025 27.338 L 51.025 30.138 Z M 71.075 30.138 L 74.275 30.138 L 74.275 27.338 L 71.075 27.338 L 71.075 30.138 Z" vector-effect="non-scaling-stroke"/></g></svg>