<svg width="74.15mm" height="94.2mm" viewBox="0 0 74.15 94.2" xmlns="http://www.w3.org/2000/svg"><g id="svgGroup" stroke-linecap="round" fill-rule="evenodd" font-size="9pt" stroke="#000" stroke-width="0.25mm" fill="none" style="stroke:#000;stroke-width:0.25mm;fill:none"><path d="M 10.025 94.2 L 24.025 94.2 L 24.025 80.2 L 10.025 80.2 L 10.025 94.2 Z M 0 74.15 L 14 74.15 L 14 60.15 L 0 60.15 L 0 74.15 Z M 0 54.1 L 14 54.1 L 14 40.1 L 0 40.1 L 0 54.1 Z M 0 34.05 L 14 34.05 L 14 20.05 L 0 20.05 L 0 34.05 Z M 0 14 L 14 14 L 14 0 L 0 0 L 0 14 Z M 20.05 74.15 L 34.05 74.15 L 34.05 60.15 L 20.05 60.15 L 20.05 74.15 Z M 20.05 54.1 L 34.05 54.1 L 34.05 40.1 L 20.05 40.1 L 20.05 54.1 Z M 20.05 34.05 L 34.05 34.05 L 34.05 20.05 L 20.05 20.05 L 20.05 34.05 Z M 20.05 14 L 34.05 14 L 34.05 0 L 20.05 0 L 20.05 14 Z M 40.1 94.2 L 54.1 94.2 L 54.1 80.2 L 40.1 80.2 L 40.1 94.2 Z M 40.1 74.15 L 54.1 74.15 L 54.1 60.15 L 40.1 60.15 L 40.1 74.15 Z M 40.1 54.1 L 54.1 54.1 L 54.1 40.1 L 40.1 40.1 L 40.1 54.1 Z M 40.1 34.05 L 54.1 34.05 L 54.1 20.05 L 40.1 20.05 L 40.1 34.05 Z M 40.1 14 L 54.1 14 L 54.1 0 L 40.1 0 L 40.1 14 Z M 74.15 84.175 L 74.15 70.175 L 60.15 70.175 L 60.15 84.175 L 74.15 84.175 Z M 74.15 44.075 L 74.15 30.075 L 60.15 30.075 L 60.15 44.075 L 74.15 44.075 Z M 60.15 14 L 74.15 14 L 74.15 0 L 60.15 0 L 60.15 14 Z" vector-effect="non-scaling-stroke"/></g></svg>