<svg width="78.7mm" height="98.75mm" viewBox="0 0 78.7 98.75" xmlns="http://www.w3.org/2000/svg"><g id="svgGroup" stroke-linecap="round" fill-rule="evenodd" font-size="9pt" stroke="#000" stroke-width="0.25mm" fill="none" style="stroke:#000;stroke-width:0.25mm;fill:none"><path d="M 0 78.7 L 18.55 78.7 L 18.55 60.15 L 0 60.15 L 0 78.7 Z M 0 58.65 L 18.55 58.65 L 18.55 40.1 L 0 40.1 L 0 58.65 Z M 0 38.6 L 18.55 38.6 L 18.55 20.05 L 0 20.05 L 0 38.6 Z M 20.05 78.7 L 38.6 78.7 L 38.6 60.15 L 20.05 60.15 L 20.05 78.7 Z M 20.05 58.65 L 38.6 58.65 L 38.6 40.1 L 20.05 40.1 L 20.05 58.65 Z M 20.05 38.6 L 38.6 38.6 L 38.6 20.05 L 20.05 20.05 L 20.05 38.6 Z M 10.025 98.75 L 28.575 98.75 L 28.575 80.2 L 10.025 80.2 L 10.025 98.75 Z M 40.1 98.75 L 58.65 98.75 L 58.65 80.2 L 40.1 80.2 L 40.1 98.75 Z M 40.1 78.7 L 58.65 78.7 L 58.65 60.15 L 40.1 60.15 L 40.1 78.7 Z M 40.1 58.65 L 58.65 58.65 L 58.65 40.1 L 40.1 40.1 L 40.1 58.65 Z M 40.1 38.6 L 58.65 38.6 L 58.65 20.05 L 40.1 20.05 L 40.1 38.6 Z M 78.7 88.725 L 78.7 70.175 L 60.15 70.175 L 60.15 88.725 L 78.7 88.725 Z M 78.7 48.625 L 78.7 30.075 L 60.15 30.075 L 60.15 48.625 L 78.7 48.625 Z M 0 18.55 L 18.55 18.55 L 18.55 0 L 0 0 L 0 18.55 Z M 20.05 18.55 L 38.6 18.55 L 38.6 0 L 20.05 0 L 20.05 18.55 Z M 40.1 18.55 L 58.65 18.55 L 58.65 0 L 40.1 0 L 40.1 18.55 Z M 60.15 18.55 L 78.7 18.55 L 78.7 0 L 60.15 0 L 60.15 18.55 Z" vector-effect="non-scaling-stroke"/></g></svg>