0
SECTION
2
HEADER
9
$INSUNITS
70
4
0
ENDSEC
0
SECTION
2
TABLES
0
TABLE
2
LTYPE
0
LTYPE
72
65
70
64
2
CONTINUOUS
3
______
73
0
40
0
0
ENDTAB
0
TABLE
2
LAYER
0
ENDTAB
0
ENDSEC
0
SECTION
2
ENTITIES
0
LINE
8
0
10
31.8
20
-187.8667185
11
31.8
21
-112.8
0
LINE
8
0
10
33
20
-111.6
11
107.15
21
-111.6
0
LINE
8
0
10
108.35
20
-112.8
11
108.35
21
-197.4333592
0
LINE
8
0
10
107.6866563
20
-198.5066718
11
88.5533748
21
-208.0733126
0
LINE
8
0
10
88.0167185
20
-208.2
11
42.5666408
21
-208.2
0
LINE
8
0
10
41.4933282
20
-207.5366563
11
31.9266874
21
-188.4033748
0
ARC
8
0
10
33
20
-112.8
40
1.2
50
90
51
180
0
ARC
8
0
10
107.15
20
-112.8
40
1.2
50
0
51
90
0
ARC
8
0
10
107.15
20
-197.4333592
40
1.2
50
296.5650512
51
0
0
ARC
8
0
10
88.0167185
20
-207
40
1.2
50
270
51
296.5650512
0
ARC
8
0
10
42.5666408
20
-207
40
1.2
50
206.5650512
51
270
0
ARC
8
0
10
33
20
-187.8667185
40
1.2
50
180
51
206.5650512
0
LINE
8
0
10
43.025
20
-207
11
57.025
21
-207
0
LINE
8
0
10
57.025
20
-207
11
57.025
21
-193
0
LINE
8
0
10
57.025
20
-193
11
43.025
21
-193
0
LINE
8
0
10
43.025
20
-193
11
43.025
21
-207
0
LINE
8
0
10
33
20
-186.95
11
47
21
-186.95
0
LINE
8
0
10
47
20
-186.95
11
47
21
-172.95
0
LINE
8
0
10
47
20
-172.95
11
33
21
-172.95
0
LINE
8
0
10
33
20
-172.95
11
33
21
-186.95
0
LINE
8
0
10
33
20
-166.9
11
47
21
-166.9
0
LINE
8
0
10
47
20
-166.9
11
47
21
-152.9
0
LINE
8
0
10
47
20
-152.9
11
33
21
-152.9
0
LINE
8
0
10
33
20
-152.9
11
33
21
-166.9
0
LINE
8
0
10
33
20
-146.85
11
47
21
-146.85
0
LINE
8
0
10
47
20
-146.85
11
47
21
-132.85
0
LINE
8
0
10
47
20
-132.85
11
33
21
-132.85
0
LINE
8
0
10
33
20
-132.85
11
33
21
-146.85
0
LINE
8
0
10
33
20
-126.8
11
47
21
-126.8
0
LINE
8
0
10
47
20
-126.8
11
47
21
-112.8
0
LINE
8
0
10
47
20
-112.8
11
33
21
-112.8
0
LINE
8
0
10
33
20
-112.8
11
33
21
-126.8
0
LINE
8
0
10
53.05
20
-186.95
11
67.05
21
-186.95
0
LINE
8
0
10
67.05
20
-186.95
11
67.05
21
-172.95
0
LINE
8
0
10
67.05
20
-172.95
11
53.05
21
-172.95
0
LINE
8
0
10
53.05
20
-172.95
11
53.05
21
-186.95
0
LINE
8
0
10
53.05
20
-166.9
11
67.05
21
-166.9
0
LINE
8
0
10
67.05
20
-166.9
11
67.05
21
-152.9
0
LINE
8
0
10
67.05
20
-152.9
11
53.05
21
-152.9
0
LINE
8
0
10
53.05
20
-152.9
11
53.05
21
-166.9
0
LINE
8
0
10
53.05
20
-146.85
11
67.05
21
-146.85
0
LINE
8
0
10
67.05
20
-146.85
11
67.05
21
-132.85
0
LINE
8
0
10
67.05
20
-132.85
11
53.05
21
-132.85
0
LINE
8
0
10
53.05
20
-132.85
11
53.05
21
-146.85
0
LINE
8
0
10
53.05
20
-126.8
11
67.05
21
-126.8
0
LINE
8
0
10
67.05
20
-126.8
11
67.05
21
-112.8
0
LINE
8
0
10
67.05
20
-112.8
11
53.05
21
-112.8
0
LINE
8
0
10
53.05
20
-112.8
11
53.05
21
-126.8
0
LINE
8
0
10
73.1
20
-207
11
87.1
21
-207
0
LINE
8
0
10
87.1
20
-207
11
87.1
21
-193
0
LINE
8
0
10
87.1
20
-193
11
73.1
21
-193
0
LINE
8
0
10
73.1
20
-193
11
73.1
21
-207
0
LINE
8
0
10
73.1
20
-186.95
11
87.1
21
-186.95
0
LINE
8
0
10
87.1
20
-186.95
11
87.1
21
-172.95
0
LINE
8
0
10
87.1
20
-172.95
11
73.1
21
-172.95
0
LINE
8
0
10
73.1
20
-172.95
11
73.1
21
-186.95
0
LINE
8
0
10
73.1
20
-166.9
11
87.1
21
-166.9
0
LINE
8
0
10
87.1
20
-166.9
11
87.1
21
-152.9
0
LINE
8
0
10
87.1
20
-152.9
11
73.1
21
-152.9
0
LINE
8
0
10
73.1
20
-152.9
11
73.1
21
-166.9
0
LINE
8
0
10
73.1
20
-146.85
11
87.1
21
-146.85
0
LINE
8
0
10
87.1
20
-146.85
11
87.1
21
-132.85
0
LINE
8
0
10
87.1
20
-132.85
11
73.1
21
-132.85
0
LINE
8
0
10
73.1
20
-132.85
11
73.1
21
-146.85
0
LINE
8
0
10
73.1
20
-126.8
11
87.1
21
-126.8
0
LINE
8
0
10
87.1
20
-126.8
11
87.1
21
-112.8
0
LINE
8
0
10
87.1
20
-112.8
11
73.1
21
-112.8
0
LINE
8
0
10
73.1
20
-112.8
11
73.1
21
-126.8
0
LINE
8
0
10
107.15
20
-196.975
11
107.15
21
-182.975
0
LINE
8
0
10
107.15
20
-182.975
11
93.15
21
-182.975
0
LINE
8
0
10
93.15
20
-182.975
11
93.15
21
-196.975
0
LINE
8
0
10
93.15
20
-196.975
11
107.15
21
-196.975
0
LINE
8
0
10
107.15
20
-156.875
11
107.15
21
-142.875
0
LINE
8
0
10
107.15
20
-142.875
11
93.15
21
-142.875
0
LINE
8
0
10
93.15
20
-142.875
11
93.15
21
-156.875
0
LINE
8
0
10
93.15
20
-156.875
11
107.15
21
-156.875
0
LINE
8
0
10
93.15
20
-126.8
11
107.15
21
-126.8
0
LINE
8
0
10
107.15
20
-126.8
11
107.15
21
-112.8
0
LINE
8
0
10
107.15
20
-112.8
11
93.15
21
-112.8
0
LINE
8
0
10
93.15
20
-112.8
11
93.15
21
-126.8
0
ENDSEC
0
EOF