<svg width="76.55mm" height="96.6mm" viewBox="0 0 76.55 96.6" xmlns="http://www.w3.org/2000/svg"><g id="svgGroup" stroke-linecap="round" fill-rule="evenodd" font-size="9pt" stroke="#000" stroke-width="0.25mm" fill="none" style="stroke:#000;stroke-width:0.25mm;fill:none"><path d="M 0 76.267 L 0 1.2 A 1.2 1.2 0 0 1 1.2 0 L 75.35 0 A 1.2 1.2 0 0 1 76.55 1.2 L 76.55 85.833 A 1.2 1.2 0 0 1 75.887 86.907 L 56.753 96.473 A 1.2 1.2 0 0 1 56.217 96.6 L 10.767 96.6 A 1.2 1.2 0 0 1 9.693 95.937 L 0.127 76.803 A 1.2 1.2 0 0 1 0 76.267 Z M 11.225 95.4 L 25.225 95.4 L 25.225 81.4 L 11.225 81.4 L 11.225 95.4 Z M 1.2 75.35 L 15.2 75.35 L 15.2 61.35 L 1.2 61.35 L 1.2 75.35 Z M 1.2 55.3 L 15.2 55.3 L 15.2 41.3 L 1.2 41.3 L 1.2 55.3 Z M 1.2 35.25 L 15.2 35.25 L 15.2 21.25 L 1.2 21.25 L 1.2 35.25 Z M 1.2 15.2 L 15.2 15.2 L 15.2 1.2 L 1.2 1.2 L 1.2 15.2 Z M 21.25 75.35 L 35.25 75.35 L 35.25 61.35 L 21.25 61.35 L 21.25 75.35 Z M 21.25 55.3 L 35.25 55.3 L 35.25 41.3 L 21.25 41.3 L 21.25 55.3 Z M 21.25 35.25 L 35.25 35.25 L 35.25 21.25 L 21.25 21.25 L 21.25 35.25 Z M 21.25 15.2 L 35.25 15.2 L 35.25 1.2 L 21.25 1.2 L 21.25 15.2 Z M 41.3 95.4 L 55.3 95.4 L 55.3 81.4 L 41.3 81.4 L 41.3 95.4 Z M 41.3 75.35 L 55.3 75.35 L 55.3 61.35 L 41.3 61.35 L 41.3 75.35 Z M 41.3 55.3 L 55.3 55.3 L 55.3 41.3 L 41.3 41.3 L 41.3 55.3 Z M 41.3 35.25 L 55.3 35.25 L 55.3 21.25 L 41.3 21.25 L 41.3 35.25 Z M 41.3 15.2 L 55.3 15.2 L 55.3 1.2 L 41.3 1.2 L 41.3 15.2 Z M 75.35 85.375 L 75.35 71.375 L 61.35 71.375 L 61.35 85.375 L 75.35 85.375 Z M 75.35 45.275 L 75.35 31.275 L 61.35 31.275 L 61.35 45.275 L 75.35 45.275 Z M 61.35 15.2 L 75.35 15.2 L 75.35 1.2 L 61.35 1.2 L 61.35 15.2 Z M 26.655 96.4 L 33.655 96.4 L 33.655 80.4 L 26.655 80.4 L 26.655 96.4 Z M 76.35 69.945 L 76.35 62.945 L 60.35 62.945 L 60.35 69.945 L 76.35 69.945 Z M 76.35 29.845 L 76.35 22.845 L 60.35 22.845 L 60.35 29.845 L 76.35 29.845 Z M 2.795 96.4 L 9.795 96.4 L 9.795 80.4 L 2.795 80.4 L 2.795 96.4 Z M 76.35 93.805 L 76.35 86.805 L 60.35 86.805 L 60.35 93.805 L 76.35 93.805 Z M 76.35 53.705 L 76.35 46.705 L 60.35 46.705 L 60.35 53.705 L 76.35 53.705 Z" vector-effect="non-scaling-stroke"/></g></svg>