<svg width="84.2mm" height="136.563mm" viewBox="0 0 84.2 136.563" xmlns="http://www.w3.org/2000/svg"><g id="svgGroup" stroke-linecap="round" fill-rule="evenodd" font-size="9pt" stroke="#000" stroke-width="0.25mm" fill="none" style="stroke:#000;stroke-width:0.25mm;fill:none"><path d="M 3 3 m -3 0 a 3 3 0 0 1 6 0 a 3 3 0 0 1 -6 0 z M 81.2 3 m -3 0 a 3 3 0 0 1 6 0 a 3 3 0 0 1 -6 0 z M 81.2 133.563 m -3 0 a 3 3 0 0 1 6 0 a 3 3 0 0 1 -6 0 z M 3 133.563 m -3 0 a 3 3 0 0 1 6 0 a 3 3 0 0 1 -6 0 z" vector-effect="non-scaling-stroke"/></g></svg>