%TF.GenerationSoftware,KiCad,Pcbnew,8.0.3-8.0.3-0~ubuntu22.04.1*%
%TF.CreationDate,2024-06-24T23:45:44-04:00*%
%TF.ProjectId,travis_num2024-routed2,74726176-6973-45f6-9e75-6d323032342d,2024.06.23*%
%TF.SameCoordinates,Original*%
%TF.FileFunction,Drillmap*%
%TF.FilePolarity,Positive*%
%FSLAX45Y45*%
G04 Gerber Fmt 4.5, Leading zero omitted, Abs format (unit mm)*
G04 Created by KiCad (PCBNEW 8.0.3-8.0.3-0~ubuntu22.04.1) date 2024-06-24 23:45:44*
%MOMM*%
%LPD*%
G01*
G04 APERTURE LIST*
%ADD10C,0.150000*%
%ADD11C,0.120000*%
%ADD12C,0.200000*%
%ADD13C,0.170180*%
%ADD14C,0.300000*%
%ADD15C,0.304800*%
%ADD16C,0.398780*%
G04 APERTURE END LIST*
D10*
X3247500Y-7475000D02*
X10767500Y-7475000D01*
X11267500Y-7975000D02*
X11267500Y-20752500D01*
X10767500Y-21252500D02*
X3247500Y-21252500D01*
X2747500Y-20752500D02*
X2747500Y-7975000D01*
X3247500Y-21252500D02*
G75*
G02*
X2747500Y-20752500I0J500000D01*
G01*
X2747500Y-7975000D02*
G75*
G02*
X3247500Y-7475000I500000J0D01*
G01*
X10767500Y-7475000D02*
G75*
G02*
X11267500Y-7975000I0J-500000D01*
G01*
X11267500Y-20752500D02*
G75*
G02*
X10767500Y-21252500I-500000J0D01*
G01*
D11*
X3820000Y-10193750D02*
X3820000Y-10503750D01*
X3820000Y-10503750D02*
X4180000Y-10503750D01*
X4180000Y-10193750D02*
X3820000Y-10193750D01*
X4180000Y-10503750D02*
X4180000Y-10193750D01*
X7830000Y-15339000D02*
X7830000Y-15649000D01*
X7830000Y-15649000D02*
X8190000Y-15649000D01*
X8190000Y-15339000D02*
X7830000Y-15339000D01*
X8190000Y-15649000D02*
X8190000Y-15339000D01*
X7830000Y-11329000D02*
X7830000Y-11639000D01*
X7830000Y-11639000D02*
X8190000Y-11639000D01*
X8190000Y-11329000D02*
X7830000Y-11329000D01*
X8190000Y-11639000D02*
X8190000Y-11329000D01*
X7830000Y-17344000D02*
X7830000Y-17654000D01*
X7830000Y-17654000D02*
X8190000Y-17654000D01*
X8190000Y-17344000D02*
X7830000Y-17344000D01*
X8190000Y-17654000D02*
X8190000Y-17344000D01*
X9835000Y-10193750D02*
X9835000Y-10503750D01*
X9835000Y-10503750D02*
X10195000Y-10503750D01*
X10195000Y-10193750D02*
X9835000Y-10193750D01*
X10195000Y-10503750D02*
X10195000Y-10193750D01*
X3820000Y-17344000D02*
X3820000Y-17654000D01*
X3820000Y-17654000D02*
X4180000Y-17654000D01*
X4180000Y-17344000D02*
X3820000Y-17344000D01*
X4180000Y-17654000D02*
X4180000Y-17344000D01*
X7830000Y-10193750D02*
X7830000Y-10503750D01*
X7830000Y-10503750D02*
X8190000Y-10503750D01*
X8190000Y-10193750D02*
X7830000Y-10193750D01*
X8190000Y-10503750D02*
X8190000Y-10193750D01*
X5825000Y-10193750D02*
X5825000Y-10503750D01*
X5825000Y-10503750D02*
X6185000Y-10503750D01*
X6185000Y-10193750D02*
X5825000Y-10193750D01*
X6185000Y-10503750D02*
X6185000Y-10193750D01*
X3820000Y-11329000D02*
X3820000Y-11639000D01*
X3820000Y-11639000D02*
X4180000Y-11639000D01*
X4180000Y-11329000D02*
X3820000Y-11329000D01*
X4180000Y-11639000D02*
X4180000Y-11329000D01*
X7830000Y-19349000D02*
X7830000Y-19659000D01*
X7830000Y-19659000D02*
X8190000Y-19659000D01*
X8190000Y-19349000D02*
X7830000Y-19349000D01*
X8190000Y-19659000D02*
X8190000Y-19349000D01*
X9364000Y-18817500D02*
X9364000Y-19177500D01*
X9364000Y-19177500D02*
X9674000Y-19177500D01*
X9674000Y-18817500D02*
X9364000Y-18817500D01*
X9674000Y-19177500D02*
X9674000Y-18817500D01*
X3820000Y-13334000D02*
X3820000Y-13644000D01*
X3820000Y-13644000D02*
X4180000Y-13644000D01*
X4180000Y-13334000D02*
X3820000Y-13334000D01*
X4180000Y-13644000D02*
X4180000Y-13334000D01*
X5825000Y-15339000D02*
X5825000Y-15649000D01*
X5825000Y-15649000D02*
X6185000Y-15649000D01*
X6185000Y-15339000D02*
X5825000Y-15339000D01*
X6185000Y-15649000D02*
X6185000Y-15339000D01*
X9835000Y-11329000D02*
X9835000Y-11639000D01*
X9835000Y-11639000D02*
X10195000Y-11639000D01*
X10195000Y-11329000D02*
X9835000Y-11329000D01*
X10195000Y-11639000D02*
X10195000Y-11329000D01*
X5825000Y-11329000D02*
X5825000Y-11639000D01*
X5825000Y-11639000D02*
X6185000Y-11639000D01*
X6185000Y-11329000D02*
X5825000Y-11329000D01*
X6185000Y-11639000D02*
X6185000Y-11329000D01*
X5825000Y-17344000D02*
X5825000Y-17654000D01*
X5825000Y-17654000D02*
X6185000Y-17654000D01*
X6185000Y-17344000D02*
X5825000Y-17344000D01*
X6185000Y-17654000D02*
X6185000Y-17344000D01*
X5825000Y-13334000D02*
X5825000Y-13644000D01*
X5825000Y-13644000D02*
X6185000Y-13644000D01*
X6185000Y-13334000D02*
X5825000Y-13334000D01*
X6185000Y-13644000D02*
X6185000Y-13334000D01*
X4822500Y-19349000D02*
X4822500Y-19659000D01*
X4822500Y-19659000D02*
X5182500Y-19659000D01*
X5182500Y-19349000D02*
X4822500Y-19349000D01*
X5182500Y-19659000D02*
X5182500Y-19349000D01*
X7830000Y-13334000D02*
X7830000Y-13644000D01*
X7830000Y-13644000D02*
X8190000Y-13644000D01*
X8190000Y-13334000D02*
X7830000Y-13334000D01*
X8190000Y-13644000D02*
X8190000Y-13334000D01*
X3820000Y-15339000D02*
X3820000Y-15649000D01*
X3820000Y-15649000D02*
X4180000Y-15649000D01*
X4180000Y-15339000D02*
X3820000Y-15339000D01*
X4180000Y-15649000D02*
X4180000Y-15339000D01*
X9364000Y-14807500D02*
X9364000Y-15167500D01*
X9364000Y-15167500D02*
X9674000Y-15167500D01*
X9674000Y-14807500D02*
X9364000Y-14807500D01*
X9674000Y-15167500D02*
X9674000Y-14807500D01*
D12*
D13*
X3406910Y-11894910D02*
X3577090Y-12065090D01*
X3577090Y-11894910D02*
X3406910Y-12065090D01*
X3406910Y-13899910D02*
X3577090Y-14070090D01*
X3577090Y-13899910D02*
X3406910Y-14070090D01*
X3406910Y-15904910D02*
X3577090Y-16075090D01*
X3577090Y-15904910D02*
X3406910Y-16075090D01*
X3406910Y-17909910D02*
X3577090Y-18080090D01*
X3577090Y-17909910D02*
X3406910Y-18080090D01*
X4409410Y-19914910D02*
X4579590Y-20085090D01*
X4579590Y-19914910D02*
X4409410Y-20085090D01*
X4422910Y-11894910D02*
X4593090Y-12065090D01*
X4593090Y-11894910D02*
X4422910Y-12065090D01*
X4422910Y-13899910D02*
X4593090Y-14070090D01*
X4593090Y-13899910D02*
X4422910Y-14070090D01*
X4422910Y-15904910D02*
X4593090Y-16075090D01*
X4593090Y-15904910D02*
X4422910Y-16075090D01*
X4422910Y-17909910D02*
X4593090Y-18080090D01*
X4593090Y-17909910D02*
X4422910Y-18080090D01*
X5411910Y-11894910D02*
X5582090Y-12065090D01*
X5582090Y-11894910D02*
X5411910Y-12065090D01*
X5411910Y-13899910D02*
X5582090Y-14070090D01*
X5582090Y-13899910D02*
X5411910Y-14070090D01*
X5411910Y-15904910D02*
X5582090Y-16075090D01*
X5582090Y-15904910D02*
X5411910Y-16075090D01*
X5411910Y-17909910D02*
X5582090Y-18080090D01*
X5582090Y-17909910D02*
X5411910Y-18080090D01*
X5425410Y-19914910D02*
X5595590Y-20085090D01*
X5595590Y-19914910D02*
X5425410Y-20085090D01*
X6427910Y-11894910D02*
X6598090Y-12065090D01*
X6598090Y-11894910D02*
X6427910Y-12065090D01*
X6427910Y-13899910D02*
X6598090Y-14070090D01*
X6598090Y-13899910D02*
X6427910Y-14070090D01*
X6427910Y-15904910D02*
X6598090Y-16075090D01*
X6598090Y-15904910D02*
X6427910Y-16075090D01*
X6427910Y-17909910D02*
X6598090Y-18080090D01*
X6598090Y-17909910D02*
X6427910Y-18080090D01*
X7416910Y-11894910D02*
X7587090Y-12065090D01*
X7587090Y-11894910D02*
X7416910Y-12065090D01*
X7416910Y-13899910D02*
X7587090Y-14070090D01*
X7587090Y-13899910D02*
X7416910Y-14070090D01*
X7416910Y-15904910D02*
X7587090Y-16075090D01*
X7587090Y-15904910D02*
X7416910Y-16075090D01*
X7416910Y-17909910D02*
X7587090Y-18080090D01*
X7587090Y-17909910D02*
X7416910Y-18080090D01*
X7416910Y-19914910D02*
X7587090Y-20085090D01*
X7587090Y-19914910D02*
X7416910Y-20085090D01*
X8432910Y-11894910D02*
X8603090Y-12065090D01*
X8603090Y-11894910D02*
X8432910Y-12065090D01*
X8432910Y-13899910D02*
X8603090Y-14070090D01*
X8603090Y-13899910D02*
X8432910Y-14070090D01*
X8432910Y-15904910D02*
X8603090Y-16075090D01*
X8603090Y-15904910D02*
X8432910Y-16075090D01*
X8432910Y-17909910D02*
X8603090Y-18080090D01*
X8603090Y-17909910D02*
X8432910Y-18080090D01*
X8432910Y-19914910D02*
X8603090Y-20085090D01*
X8603090Y-19914910D02*
X8432910Y-20085090D01*
X9421910Y-11894910D02*
X9592090Y-12065090D01*
X9592090Y-11894910D02*
X9421910Y-12065090D01*
X9929910Y-14394410D02*
X10100090Y-14564590D01*
X10100090Y-14394410D02*
X9929910Y-14564590D01*
X9929910Y-15410410D02*
X10100090Y-15580590D01*
X10100090Y-15410410D02*
X9929910Y-15580590D01*
X9929910Y-18404410D02*
X10100090Y-18574590D01*
X10100090Y-18404410D02*
X9929910Y-18574590D01*
X9929910Y-19420410D02*
X10100090Y-19590590D01*
X10100090Y-19420410D02*
X9929910Y-19590590D01*
X10437910Y-11894910D02*
X10608090Y-12065090D01*
X10608090Y-11894910D02*
X10437910Y-12065090D01*
D14*
X3896000Y-12488000D02*
G75*
G02*
X3596000Y-12488000I-150000J0D01*
G01*
X3596000Y-12488000D02*
G75*
G02*
X3896000Y-12488000I150000J0D01*
G01*
X3896000Y-14493000D02*
G75*
G02*
X3596000Y-14493000I-150000J0D01*
G01*
X3596000Y-14493000D02*
G75*
G02*
X3896000Y-14493000I150000J0D01*
G01*
X3896000Y-16498000D02*
G75*
G02*
X3596000Y-16498000I-150000J0D01*
G01*
X3596000Y-16498000D02*
G75*
G02*
X3896000Y-16498000I150000J0D01*
G01*
X3896000Y-18503000D02*
G75*
G02*
X3596000Y-18503000I-150000J0D01*
G01*
X3596000Y-18503000D02*
G75*
G02*
X3896000Y-18503000I150000J0D01*
G01*
X4531000Y-12234000D02*
G75*
G02*
X4231000Y-12234000I-150000J0D01*
G01*
X4231000Y-12234000D02*
G75*
G02*
X4531000Y-12234000I150000J0D01*
G01*
X4531000Y-14239000D02*
G75*
G02*
X4231000Y-14239000I-150000J0D01*
G01*
X4231000Y-14239000D02*
G75*
G02*
X4531000Y-14239000I150000J0D01*
G01*
X4531000Y-16244000D02*
G75*
G02*
X4231000Y-16244000I-150000J0D01*
G01*
X4231000Y-16244000D02*
G75*
G02*
X4531000Y-16244000I150000J0D01*
G01*
X4531000Y-18249000D02*
G75*
G02*
X4231000Y-18249000I-150000J0D01*
G01*
X4231000Y-18249000D02*
G75*
G02*
X4531000Y-18249000I150000J0D01*
G01*
X4898500Y-20508000D02*
G75*
G02*
X4598500Y-20508000I-150000J0D01*
G01*
X4598500Y-20508000D02*
G75*
G02*
X4898500Y-20508000I150000J0D01*
G01*
X5533500Y-20254000D02*
G75*
G02*
X5233500Y-20254000I-150000J0D01*
G01*
X5233500Y-20254000D02*
G75*
G02*
X5533500Y-20254000I150000J0D01*
G01*
X5901000Y-12488000D02*
G75*
G02*
X5601000Y-12488000I-150000J0D01*
G01*
X5601000Y-12488000D02*
G75*
G02*
X5901000Y-12488000I150000J0D01*
G01*
X5901000Y-14493000D02*
G75*
G02*
X5601000Y-14493000I-150000J0D01*
G01*
X5601000Y-14493000D02*
G75*
G02*
X5901000Y-14493000I150000J0D01*
G01*
X5901000Y-16498000D02*
G75*
G02*
X5601000Y-16498000I-150000J0D01*
G01*
X5601000Y-16498000D02*
G75*
G02*
X5901000Y-16498000I150000J0D01*
G01*
X5901000Y-18503000D02*
G75*
G02*
X5601000Y-18503000I-150000J0D01*
G01*
X5601000Y-18503000D02*
G75*
G02*
X5901000Y-18503000I150000J0D01*
G01*
X6536000Y-12234000D02*
G75*
G02*
X6236000Y-12234000I-150000J0D01*
G01*
X6236000Y-12234000D02*
G75*
G02*
X6536000Y-12234000I150000J0D01*
G01*
X6536000Y-14239000D02*
G75*
G02*
X6236000Y-14239000I-150000J0D01*
G01*
X6236000Y-14239000D02*
G75*
G02*
X6536000Y-14239000I150000J0D01*
G01*
X6536000Y-16244000D02*
G75*
G02*
X6236000Y-16244000I-150000J0D01*
G01*
X6236000Y-16244000D02*
G75*
G02*
X6536000Y-16244000I150000J0D01*
G01*
X6536000Y-18249000D02*
G75*
G02*
X6236000Y-18249000I-150000J0D01*
G01*
X6236000Y-18249000D02*
G75*
G02*
X6536000Y-18249000I150000J0D01*
G01*
X7906000Y-12488000D02*
G75*
G02*
X7606000Y-12488000I-150000J0D01*
G01*
X7606000Y-12488000D02*
G75*
G02*
X7906000Y-12488000I150000J0D01*
G01*
X7906000Y-14493000D02*
G75*
G02*
X7606000Y-14493000I-150000J0D01*
G01*
X7606000Y-14493000D02*
G75*
G02*
X7906000Y-14493000I150000J0D01*
G01*
X7906000Y-16498000D02*
G75*
G02*
X7606000Y-16498000I-150000J0D01*
G01*
X7606000Y-16498000D02*
G75*
G02*
X7906000Y-16498000I150000J0D01*
G01*
X7906000Y-18503000D02*
G75*
G02*
X7606000Y-18503000I-150000J0D01*
G01*
X7606000Y-18503000D02*
G75*
G02*
X7906000Y-18503000I150000J0D01*
G01*
X7906000Y-20508000D02*
G75*
G02*
X7606000Y-20508000I-150000J0D01*
G01*
X7606000Y-20508000D02*
G75*
G02*
X7906000Y-20508000I150000J0D01*
G01*
X8541000Y-12234000D02*
G75*
G02*
X8241000Y-12234000I-150000J0D01*
G01*
X8241000Y-12234000D02*
G75*
G02*
X8541000Y-12234000I150000J0D01*
G01*
X8541000Y-14239000D02*
G75*
G02*
X8241000Y-14239000I-150000J0D01*
G01*
X8241000Y-14239000D02*
G75*
G02*
X8541000Y-14239000I150000J0D01*
G01*
X8541000Y-16244000D02*
G75*
G02*
X8241000Y-16244000I-150000J0D01*
G01*
X8241000Y-16244000D02*
G75*
G02*
X8541000Y-16244000I150000J0D01*
G01*
X8541000Y-18249000D02*
G75*
G02*
X8241000Y-18249000I-150000J0D01*
G01*
X8241000Y-18249000D02*
G75*
G02*
X8541000Y-18249000I150000J0D01*
G01*
X8541000Y-20254000D02*
G75*
G02*
X8241000Y-20254000I-150000J0D01*
G01*
X8241000Y-20254000D02*
G75*
G02*
X8541000Y-20254000I150000J0D01*
G01*
X9911000Y-12488000D02*
G75*
G02*
X9611000Y-12488000I-150000J0D01*
G01*
X9611000Y-12488000D02*
G75*
G02*
X9911000Y-12488000I150000J0D01*
G01*
X10419000Y-14606500D02*
G75*
G02*
X10119000Y-14606500I-150000J0D01*
G01*
X10119000Y-14606500D02*
G75*
G02*
X10419000Y-14606500I150000J0D01*
G01*
X10419000Y-18616500D02*
G75*
G02*
X10119000Y-18616500I-150000J0D01*
G01*
X10119000Y-18616500D02*
G75*
G02*
X10419000Y-18616500I150000J0D01*
G01*
X10546000Y-12234000D02*
G75*
G02*
X10246000Y-12234000I-150000J0D01*
G01*
X10246000Y-12234000D02*
G75*
G02*
X10546000Y-12234000I150000J0D01*
G01*
X10673000Y-15241500D02*
G75*
G02*
X10373000Y-15241500I-150000J0D01*
G01*
X10373000Y-15241500D02*
G75*
G02*
X10673000Y-15241500I150000J0D01*
G01*
X10673000Y-19251500D02*
G75*
G02*
X10373000Y-19251500I-150000J0D01*
G01*
X10373000Y-19251500D02*
G75*
G02*
X10673000Y-19251500I150000J0D01*
G01*
D15*
X3808700Y-19149100D02*
X3808700Y-19453900D01*
X3656300Y-19301500D02*
X3961100Y-19301500D01*
X6196300Y-19149100D02*
X6196300Y-19453900D01*
X6043900Y-19301500D02*
X6348700Y-19301500D01*
X9316500Y-13641300D02*
X9316500Y-13946100D01*
X9164100Y-13793700D02*
X9468900Y-13793700D01*
X9316500Y-16028900D02*
X9316500Y-16333700D01*
X9164100Y-16181300D02*
X9468900Y-16181300D01*
X9316500Y-17651300D02*
X9316500Y-17956100D01*
X9164100Y-17803700D02*
X9468900Y-17803700D01*
X9316500Y-20038900D02*
X9316500Y-20343700D01*
X9164100Y-20191300D02*
X9468900Y-20191300D01*
D16*
X3949691Y-20963491D02*
X3949691Y-20681509D01*
X3667709Y-20681509D01*
X3667709Y-20963491D01*
X3949691Y-20963491D01*
X4140991Y-12120991D02*
X4140991Y-11839009D01*
X3859009Y-11839009D01*
X3859009Y-12120991D01*
X4140991Y-12120991D01*
X4140991Y-14125991D02*
X4140991Y-13844009D01*
X3859009Y-13844009D01*
X3859009Y-14125991D01*
X4140991Y-14125991D01*
X4140991Y-16130991D02*
X4140991Y-15849009D01*
X3859009Y-15849009D01*
X3859009Y-16130991D01*
X4140991Y-16130991D01*
X4140991Y-18135991D02*
X4140991Y-17854009D01*
X3859009Y-17854009D01*
X3859009Y-18135991D01*
X4140991Y-18135991D01*
X5143491Y-20140991D02*
X5143491Y-19859009D01*
X4861509Y-19859009D01*
X4861509Y-20140991D01*
X5143491Y-20140991D01*
X6145991Y-12120991D02*
X6145991Y-11839009D01*
X5864009Y-11839009D01*
X5864009Y-12120991D01*
X6145991Y-12120991D01*
X6145991Y-14125991D02*
X6145991Y-13844009D01*
X5864009Y-13844009D01*
X5864009Y-14125991D01*
X6145991Y-14125991D01*
X6145991Y-16130991D02*
X6145991Y-15849009D01*
X5864009Y-15849009D01*
X5864009Y-16130991D01*
X6145991Y-16130991D01*
X6145991Y-18135991D02*
X6145991Y-17854009D01*
X5864009Y-17854009D01*
X5864009Y-18135991D01*
X6145991Y-18135991D01*
X6337291Y-20963491D02*
X6337291Y-20681509D01*
X6055309Y-20681509D01*
X6055309Y-20963491D01*
X6337291Y-20963491D01*
X8150991Y-12120991D02*
X8150991Y-11839009D01*
X7869009Y-11839009D01*
X7869009Y-12120991D01*
X8150991Y-12120991D01*
X8150991Y-14125991D02*
X8150991Y-13844009D01*
X7869009Y-13844009D01*
X7869009Y-14125991D01*
X8150991Y-14125991D01*
X8150991Y-16130991D02*
X8150991Y-15849009D01*
X7869009Y-15849009D01*
X7869009Y-16130991D01*
X8150991Y-16130991D01*
X8150991Y-18135991D02*
X8150991Y-17854009D01*
X7869009Y-17854009D01*
X7869009Y-18135991D01*
X8150991Y-18135991D01*
X8150991Y-20140991D02*
X8150991Y-19859009D01*
X7869009Y-19859009D01*
X7869009Y-20140991D01*
X8150991Y-20140991D01*
X10155991Y-12120991D02*
X10155991Y-11839009D01*
X9874009Y-11839009D01*
X9874009Y-12120991D01*
X10155991Y-12120991D01*
X10155991Y-15128491D02*
X10155991Y-14846509D01*
X9874009Y-14846509D01*
X9874009Y-15128491D01*
X10155991Y-15128491D01*
X10155991Y-19138491D02*
X10155991Y-18856509D01*
X9874009Y-18856509D01*
X9874009Y-19138491D01*
X10155991Y-19138491D01*
X10978491Y-13934691D02*
X10978491Y-13652709D01*
X10696509Y-13652709D01*
X10696509Y-13934691D01*
X10978491Y-13934691D01*
X10978491Y-16322291D02*
X10978491Y-16040309D01*
X10696509Y-16040309D01*
X10696509Y-16322291D01*
X10978491Y-16322291D01*
X10978491Y-17944691D02*
X10978491Y-17662709D01*
X10696509Y-17662709D01*
X10696509Y-17944691D01*
X10978491Y-17944691D01*
X10978491Y-20332291D02*
X10978491Y-20050309D01*
X10696509Y-20050309D01*
X10696509Y-20332291D01*
X10978491Y-20332291D01*
D12*
X3000777Y-21571484D02*
X3000777Y-21371484D01*
X3000777Y-21371484D02*
X3048396Y-21371484D01*
X3048396Y-21371484D02*
X3076967Y-21381008D01*
X3076967Y-21381008D02*
X3096015Y-21400055D01*
X3096015Y-21400055D02*
X3105539Y-21419103D01*
X3105539Y-21419103D02*
X3115062Y-21457198D01*
X3115062Y-21457198D02*
X3115062Y-21485770D01*
X3115062Y-21485770D02*
X3105539Y-21523865D01*
X3105539Y-21523865D02*
X3096015Y-21542912D01*
X3096015Y-21542912D02*
X3076967Y-21561960D01*
X3076967Y-21561960D02*
X3048396Y-21571484D01*
X3048396Y-21571484D02*
X3000777Y-21571484D01*
X3200777Y-21571484D02*
X3200777Y-21438150D01*
X3200777Y-21476246D02*
X3210301Y-21457198D01*
X3210301Y-21457198D02*
X3219824Y-21447674D01*
X3219824Y-21447674D02*
X3238872Y-21438150D01*
X3238872Y-21438150D02*
X3257920Y-21438150D01*
X3324586Y-21571484D02*
X3324586Y-21438150D01*
X3324586Y-21371484D02*
X3315062Y-21381008D01*
X3315062Y-21381008D02*
X3324586Y-21390531D01*
X3324586Y-21390531D02*
X3334110Y-21381008D01*
X3334110Y-21381008D02*
X3324586Y-21371484D01*
X3324586Y-21371484D02*
X3324586Y-21390531D01*
X3448396Y-21571484D02*
X3429348Y-21561960D01*
X3429348Y-21561960D02*
X3419824Y-21542912D01*
X3419824Y-21542912D02*
X3419824Y-21371484D01*
X3553158Y-21571484D02*
X3534110Y-21561960D01*
X3534110Y-21561960D02*
X3524586Y-21542912D01*
X3524586Y-21542912D02*
X3524586Y-21371484D01*
X3781729Y-21571484D02*
X3781729Y-21371484D01*
X3781729Y-21371484D02*
X3848396Y-21514341D01*
X3848396Y-21514341D02*
X3915062Y-21371484D01*
X3915062Y-21371484D02*
X3915062Y-21571484D01*
X4096015Y-21571484D02*
X4096015Y-21466722D01*
X4096015Y-21466722D02*
X4086491Y-21447674D01*
X4086491Y-21447674D02*
X4067443Y-21438150D01*
X4067443Y-21438150D02*
X4029348Y-21438150D01*
X4029348Y-21438150D02*
X4010301Y-21447674D01*
X4096015Y-21561960D02*
X4076967Y-21571484D01*
X4076967Y-21571484D02*
X4029348Y-21571484D01*
X4029348Y-21571484D02*
X4010301Y-21561960D01*
X4010301Y-21561960D02*
X4000777Y-21542912D01*
X4000777Y-21542912D02*
X4000777Y-21523865D01*
X4000777Y-21523865D02*
X4010301Y-21504817D01*
X4010301Y-21504817D02*
X4029348Y-21495293D01*
X4029348Y-21495293D02*
X4076967Y-21495293D01*
X4076967Y-21495293D02*
X4096015Y-21485770D01*
X4191253Y-21438150D02*
X4191253Y-21638150D01*
X4191253Y-21447674D02*
X4210301Y-21438150D01*
X4210301Y-21438150D02*
X4248396Y-21438150D01*
X4248396Y-21438150D02*
X4267444Y-21447674D01*
X4267444Y-21447674D02*
X4276967Y-21457198D01*
X4276967Y-21457198D02*
X4286491Y-21476246D01*
X4286491Y-21476246D02*
X4286491Y-21533389D01*
X4286491Y-21533389D02*
X4276967Y-21552436D01*
X4276967Y-21552436D02*
X4267444Y-21561960D01*
X4267444Y-21561960D02*
X4248396Y-21571484D01*
X4248396Y-21571484D02*
X4210301Y-21571484D01*
X4210301Y-21571484D02*
X4191253Y-21561960D01*
X4372205Y-21552436D02*
X4381729Y-21561960D01*
X4381729Y-21561960D02*
X4372205Y-21571484D01*
X4372205Y-21571484D02*
X4362682Y-21561960D01*
X4362682Y-21561960D02*
X4372205Y-21552436D01*
X4372205Y-21552436D02*
X4372205Y-21571484D01*
X4372205Y-21447674D02*
X4381729Y-21457198D01*
X4381729Y-21457198D02*
X4372205Y-21466722D01*
X4372205Y-21466722D02*
X4362682Y-21457198D01*
X4362682Y-21457198D02*
X4372205Y-21447674D01*
X4372205Y-21447674D02*
X4372205Y-21466722D01*
D13*
X2569820Y-21814910D02*
X2740000Y-21985090D01*
X2740000Y-21814910D02*
X2569820Y-21985090D01*
D12*
X3105539Y-21991484D02*
X2991253Y-21991484D01*
X3048396Y-21991484D02*
X3048396Y-21791484D01*
X3048396Y-21791484D02*
X3029348Y-21820055D01*
X3029348Y-21820055D02*
X3010301Y-21839103D01*
X3010301Y-21839103D02*
X2991253Y-21848627D01*
X3191253Y-21972436D02*
X3200777Y-21981960D01*
X3200777Y-21981960D02*
X3191253Y-21991484D01*
X3191253Y-21991484D02*
X3181729Y-21981960D01*
X3181729Y-21981960D02*
X3191253Y-21972436D01*
X3191253Y-21972436D02*
X3191253Y-21991484D01*
X3267443Y-21791484D02*
X3400777Y-21791484D01*
X3400777Y-21791484D02*
X3315062Y-21991484D01*
X3515062Y-21791484D02*
X3534110Y-21791484D01*
X3534110Y-21791484D02*
X3553158Y-21801008D01*
X3553158Y-21801008D02*
X3562682Y-21810531D01*
X3562682Y-21810531D02*
X3572205Y-21829579D01*
X3572205Y-21829579D02*
X3581729Y-21867674D01*
X3581729Y-21867674D02*
X3581729Y-21915293D01*
X3581729Y-21915293D02*
X3572205Y-21953389D01*
X3572205Y-21953389D02*
X3562682Y-21972436D01*
X3562682Y-21972436D02*
X3553158Y-21981960D01*
X3553158Y-21981960D02*
X3534110Y-21991484D01*
X3534110Y-21991484D02*
X3515062Y-21991484D01*
X3515062Y-21991484D02*
X3496015Y-21981960D01*
X3496015Y-21981960D02*
X3486491Y-21972436D01*
X3486491Y-21972436D02*
X3476967Y-21953389D01*
X3476967Y-21953389D02*
X3467443Y-21915293D01*
X3467443Y-21915293D02*
X3467443Y-21867674D01*
X3467443Y-21867674D02*
X3476967Y-21829579D01*
X3476967Y-21829579D02*
X3486491Y-21810531D01*
X3486491Y-21810531D02*
X3496015Y-21801008D01*
X3496015Y-21801008D02*
X3515062Y-21791484D01*
X3657920Y-21810531D02*
X3667443Y-21801008D01*
X3667443Y-21801008D02*
X3686491Y-21791484D01*
X3686491Y-21791484D02*
X3734110Y-21791484D01*
X3734110Y-21791484D02*
X3753158Y-21801008D01*
X3753158Y-21801008D02*
X3762682Y-21810531D01*
X3762682Y-21810531D02*
X3772205Y-21829579D01*
X3772205Y-21829579D02*
X3772205Y-21848627D01*
X3772205Y-21848627D02*
X3762682Y-21877198D01*
X3762682Y-21877198D02*
X3648396Y-21991484D01*
X3648396Y-21991484D02*
X3772205Y-21991484D01*
X3857920Y-21991484D02*
X3857920Y-21858150D01*
X3857920Y-21877198D02*
X3867443Y-21867674D01*
X3867443Y-21867674D02*
X3886491Y-21858150D01*
X3886491Y-21858150D02*
X3915063Y-21858150D01*
X3915063Y-21858150D02*
X3934110Y-21867674D01*
X3934110Y-21867674D02*
X3943634Y-21886722D01*
X3943634Y-21886722D02*
X3943634Y-21991484D01*
X3943634Y-21886722D02*
X3953158Y-21867674D01*
X3953158Y-21867674D02*
X3972205Y-21858150D01*
X3972205Y-21858150D02*
X4000777Y-21858150D01*
X4000777Y-21858150D02*
X4019824Y-21867674D01*
X4019824Y-21867674D02*
X4029348Y-21886722D01*
X4029348Y-21886722D02*
X4029348Y-21991484D01*
X4124586Y-21991484D02*
X4124586Y-21858150D01*
X4124586Y-21877198D02*
X4134110Y-21867674D01*
X4134110Y-21867674D02*
X4153158Y-21858150D01*
X4153158Y-21858150D02*
X4181729Y-21858150D01*
X4181729Y-21858150D02*
X4200777Y-21867674D01*
X4200777Y-21867674D02*
X4210301Y-21886722D01*
X4210301Y-21886722D02*
X4210301Y-21991484D01*
X4210301Y-21886722D02*
X4219825Y-21867674D01*
X4219825Y-21867674D02*
X4238872Y-21858150D01*
X4238872Y-21858150D02*
X4267444Y-21858150D01*
X4267444Y-21858150D02*
X4286491Y-21867674D01*
X4286491Y-21867674D02*
X4296015Y-21886722D01*
X4296015Y-21886722D02*
X4296015Y-21991484D01*
X4686491Y-21781960D02*
X4515063Y-22039103D01*
X4943634Y-21791484D02*
X4962682Y-21791484D01*
X4962682Y-21791484D02*
X4981729Y-21801008D01*
X4981729Y-21801008D02*
X4991253Y-21810531D01*
X4991253Y-21810531D02*
X5000777Y-21829579D01*
X5000777Y-21829579D02*
X5010301Y-21867674D01*
X5010301Y-21867674D02*
X5010301Y-21915293D01*
X5010301Y-21915293D02*
X5000777Y-21953389D01*
X5000777Y-21953389D02*
X4991253Y-21972436D01*
X4991253Y-21972436D02*
X4981729Y-21981960D01*
X4981729Y-21981960D02*
X4962682Y-21991484D01*
X4962682Y-21991484D02*
X4943634Y-21991484D01*
X4943634Y-21991484D02*
X4924587Y-21981960D01*
X4924587Y-21981960D02*
X4915063Y-21972436D01*
X4915063Y-21972436D02*
X4905539Y-21953389D01*
X4905539Y-21953389D02*
X4896015Y-21915293D01*
X4896015Y-21915293D02*
X4896015Y-21867674D01*
X4896015Y-21867674D02*
X4905539Y-21829579D01*
X4905539Y-21829579D02*
X4915063Y-21810531D01*
X4915063Y-21810531D02*
X4924587Y-21801008D01*
X4924587Y-21801008D02*
X4943634Y-21791484D01*
X5096015Y-21972436D02*
X5105539Y-21981960D01*
X5105539Y-21981960D02*
X5096015Y-21991484D01*
X5096015Y-21991484D02*
X5086491Y-21981960D01*
X5086491Y-21981960D02*
X5096015Y-21972436D01*
X5096015Y-21972436D02*
X5096015Y-21991484D01*
X5229348Y-21791484D02*
X5248396Y-21791484D01*
X5248396Y-21791484D02*
X5267444Y-21801008D01*
X5267444Y-21801008D02*
X5276968Y-21810531D01*
X5276968Y-21810531D02*
X5286491Y-21829579D01*
X5286491Y-21829579D02*
X5296015Y-21867674D01*
X5296015Y-21867674D02*
X5296015Y-21915293D01*
X5296015Y-21915293D02*
X5286491Y-21953389D01*
X5286491Y-21953389D02*
X5276968Y-21972436D01*
X5276968Y-21972436D02*
X5267444Y-21981960D01*
X5267444Y-21981960D02*
X5248396Y-21991484D01*
X5248396Y-21991484D02*
X5229348Y-21991484D01*
X5229348Y-21991484D02*
X5210301Y-21981960D01*
X5210301Y-21981960D02*
X5200777Y-21972436D01*
X5200777Y-21972436D02*
X5191253Y-21953389D01*
X5191253Y-21953389D02*
X5181729Y-21915293D01*
X5181729Y-21915293D02*
X5181729Y-21867674D01*
X5181729Y-21867674D02*
X5191253Y-21829579D01*
X5191253Y-21829579D02*
X5200777Y-21810531D01*
X5200777Y-21810531D02*
X5210301Y-21801008D01*
X5210301Y-21801008D02*
X5229348Y-21791484D01*
X5467444Y-21791484D02*
X5429348Y-21791484D01*
X5429348Y-21791484D02*
X5410301Y-21801008D01*
X5410301Y-21801008D02*
X5400777Y-21810531D01*
X5400777Y-21810531D02*
X5381729Y-21839103D01*
X5381729Y-21839103D02*
X5372206Y-21877198D01*
X5372206Y-21877198D02*
X5372206Y-21953389D01*
X5372206Y-21953389D02*
X5381729Y-21972436D01*
X5381729Y-21972436D02*
X5391253Y-21981960D01*
X5391253Y-21981960D02*
X5410301Y-21991484D01*
X5410301Y-21991484D02*
X5448396Y-21991484D01*
X5448396Y-21991484D02*
X5467444Y-21981960D01*
X5467444Y-21981960D02*
X5476968Y-21972436D01*
X5476968Y-21972436D02*
X5486491Y-21953389D01*
X5486491Y-21953389D02*
X5486491Y-21905770D01*
X5486491Y-21905770D02*
X5476968Y-21886722D01*
X5476968Y-21886722D02*
X5467444Y-21877198D01*
X5467444Y-21877198D02*
X5448396Y-21867674D01*
X5448396Y-21867674D02*
X5410301Y-21867674D01*
X5410301Y-21867674D02*
X5391253Y-21877198D01*
X5391253Y-21877198D02*
X5381729Y-21886722D01*
X5381729Y-21886722D02*
X5372206Y-21905770D01*
X5553158Y-21791484D02*
X5686491Y-21791484D01*
X5686491Y-21791484D02*
X5600777Y-21991484D01*
X5800777Y-21791484D02*
X5819825Y-21791484D01*
X5819825Y-21791484D02*
X5838872Y-21801008D01*
X5838872Y-21801008D02*
X5848396Y-21810531D01*
X5848396Y-21810531D02*
X5857920Y-21829579D01*
X5857920Y-21829579D02*
X5867444Y-21867674D01*
X5867444Y-21867674D02*
X5867444Y-21915293D01*
X5867444Y-21915293D02*
X5857920Y-21953389D01*
X5857920Y-21953389D02*
X5848396Y-21972436D01*
X5848396Y-21972436D02*
X5838872Y-21981960D01*
X5838872Y-21981960D02*
X5819825Y-21991484D01*
X5819825Y-21991484D02*
X5800777Y-21991484D01*
X5800777Y-21991484D02*
X5781729Y-21981960D01*
X5781729Y-21981960D02*
X5772206Y-21972436D01*
X5772206Y-21972436D02*
X5762682Y-21953389D01*
X5762682Y-21953389D02*
X5753158Y-21915293D01*
X5753158Y-21915293D02*
X5753158Y-21867674D01*
X5753158Y-21867674D02*
X5762682Y-21829579D01*
X5762682Y-21829579D02*
X5772206Y-21810531D01*
X5772206Y-21810531D02*
X5781729Y-21801008D01*
X5781729Y-21801008D02*
X5800777Y-21791484D01*
X5943634Y-21791484D02*
X5943634Y-21829579D01*
X6019825Y-21791484D02*
X6019825Y-21829579D01*
X6315063Y-22067674D02*
X6305539Y-22058150D01*
X6305539Y-22058150D02*
X6286491Y-22029579D01*
X6286491Y-22029579D02*
X6276968Y-22010531D01*
X6276968Y-22010531D02*
X6267444Y-21981960D01*
X6267444Y-21981960D02*
X6257920Y-21934341D01*
X6257920Y-21934341D02*
X6257920Y-21896246D01*
X6257920Y-21896246D02*
X6267444Y-21848627D01*
X6267444Y-21848627D02*
X6276968Y-21820055D01*
X6276968Y-21820055D02*
X6286491Y-21801008D01*
X6286491Y-21801008D02*
X6305539Y-21772436D01*
X6305539Y-21772436D02*
X6315063Y-21762912D01*
X6372206Y-21791484D02*
X6496015Y-21791484D01*
X6496015Y-21791484D02*
X6429348Y-21867674D01*
X6429348Y-21867674D02*
X6457920Y-21867674D01*
X6457920Y-21867674D02*
X6476968Y-21877198D01*
X6476968Y-21877198D02*
X6486491Y-21886722D01*
X6486491Y-21886722D02*
X6496015Y-21905770D01*
X6496015Y-21905770D02*
X6496015Y-21953389D01*
X6496015Y-21953389D02*
X6486491Y-21972436D01*
X6486491Y-21972436D02*
X6476968Y-21981960D01*
X6476968Y-21981960D02*
X6457920Y-21991484D01*
X6457920Y-21991484D02*
X6400777Y-21991484D01*
X6400777Y-21991484D02*
X6381729Y-21981960D01*
X6381729Y-21981960D02*
X6372206Y-21972436D01*
X6667444Y-21858150D02*
X6667444Y-21991484D01*
X6619825Y-21781960D02*
X6572206Y-21924817D01*
X6572206Y-21924817D02*
X6696015Y-21924817D01*
X6924587Y-21991484D02*
X6924587Y-21791484D01*
X7010301Y-21991484D02*
X7010301Y-21886722D01*
X7010301Y-21886722D02*
X7000777Y-21867674D01*
X7000777Y-21867674D02*
X6981730Y-21858150D01*
X6981730Y-21858150D02*
X6953158Y-21858150D01*
X6953158Y-21858150D02*
X6934110Y-21867674D01*
X6934110Y-21867674D02*
X6924587Y-21877198D01*
X7134110Y-21991484D02*
X7115063Y-21981960D01*
X7115063Y-21981960D02*
X7105539Y-21972436D01*
X7105539Y-21972436D02*
X7096015Y-21953389D01*
X7096015Y-21953389D02*
X7096015Y-21896246D01*
X7096015Y-21896246D02*
X7105539Y-21877198D01*
X7105539Y-21877198D02*
X7115063Y-21867674D01*
X7115063Y-21867674D02*
X7134110Y-21858150D01*
X7134110Y-21858150D02*
X7162682Y-21858150D01*
X7162682Y-21858150D02*
X7181730Y-21867674D01*
X7181730Y-21867674D02*
X7191253Y-21877198D01*
X7191253Y-21877198D02*
X7200777Y-21896246D01*
X7200777Y-21896246D02*
X7200777Y-21953389D01*
X7200777Y-21953389D02*
X7191253Y-21972436D01*
X7191253Y-21972436D02*
X7181730Y-21981960D01*
X7181730Y-21981960D02*
X7162682Y-21991484D01*
X7162682Y-21991484D02*
X7134110Y-21991484D01*
X7315063Y-21991484D02*
X7296015Y-21981960D01*
X7296015Y-21981960D02*
X7286491Y-21962912D01*
X7286491Y-21962912D02*
X7286491Y-21791484D01*
X7467444Y-21981960D02*
X7448396Y-21991484D01*
X7448396Y-21991484D02*
X7410301Y-21991484D01*
X7410301Y-21991484D02*
X7391253Y-21981960D01*
X7391253Y-21981960D02*
X7381730Y-21962912D01*
X7381730Y-21962912D02*
X7381730Y-21886722D01*
X7381730Y-21886722D02*
X7391253Y-21867674D01*
X7391253Y-21867674D02*
X7410301Y-21858150D01*
X7410301Y-21858150D02*
X7448396Y-21858150D01*
X7448396Y-21858150D02*
X7467444Y-21867674D01*
X7467444Y-21867674D02*
X7476968Y-21886722D01*
X7476968Y-21886722D02*
X7476968Y-21905770D01*
X7476968Y-21905770D02*
X7381730Y-21924817D01*
X7553158Y-21981960D02*
X7572206Y-21991484D01*
X7572206Y-21991484D02*
X7610301Y-21991484D01*
X7610301Y-21991484D02*
X7629349Y-21981960D01*
X7629349Y-21981960D02*
X7638872Y-21962912D01*
X7638872Y-21962912D02*
X7638872Y-21953389D01*
X7638872Y-21953389D02*
X7629349Y-21934341D01*
X7629349Y-21934341D02*
X7610301Y-21924817D01*
X7610301Y-21924817D02*
X7581730Y-21924817D01*
X7581730Y-21924817D02*
X7562682Y-21915293D01*
X7562682Y-21915293D02*
X7553158Y-21896246D01*
X7553158Y-21896246D02*
X7553158Y-21886722D01*
X7553158Y-21886722D02*
X7562682Y-21867674D01*
X7562682Y-21867674D02*
X7581730Y-21858150D01*
X7581730Y-21858150D02*
X7610301Y-21858150D01*
X7610301Y-21858150D02*
X7629349Y-21867674D01*
X7705539Y-22067674D02*
X7715063Y-22058150D01*
X7715063Y-22058150D02*
X7734111Y-22029579D01*
X7734111Y-22029579D02*
X7743634Y-22010531D01*
X7743634Y-22010531D02*
X7753158Y-21981960D01*
X7753158Y-21981960D02*
X7762682Y-21934341D01*
X7762682Y-21934341D02*
X7762682Y-21896246D01*
X7762682Y-21896246D02*
X7753158Y-21848627D01*
X7753158Y-21848627D02*
X7743634Y-21820055D01*
X7743634Y-21820055D02*
X7734111Y-21801008D01*
X7734111Y-21801008D02*
X7715063Y-21772436D01*
X7715063Y-21772436D02*
X7705539Y-21762912D01*
X8067444Y-22067674D02*
X8057920Y-22058150D01*
X8057920Y-22058150D02*
X8038872Y-22029579D01*
X8038872Y-22029579D02*
X8029349Y-22010531D01*
X8029349Y-22010531D02*
X8019825Y-21981960D01*
X8019825Y-21981960D02*
X8010301Y-21934341D01*
X8010301Y-21934341D02*
X8010301Y-21896246D01*
X8010301Y-21896246D02*
X8019825Y-21848627D01*
X8019825Y-21848627D02*
X8029349Y-21820055D01*
X8029349Y-21820055D02*
X8038872Y-21801008D01*
X8038872Y-21801008D02*
X8057920Y-21772436D01*
X8057920Y-21772436D02*
X8067444Y-21762912D01*
X8143634Y-21858150D02*
X8143634Y-21991484D01*
X8143634Y-21877198D02*
X8153158Y-21867674D01*
X8153158Y-21867674D02*
X8172206Y-21858150D01*
X8172206Y-21858150D02*
X8200777Y-21858150D01*
X8200777Y-21858150D02*
X8219825Y-21867674D01*
X8219825Y-21867674D02*
X8229349Y-21886722D01*
X8229349Y-21886722D02*
X8229349Y-21991484D01*
X8353158Y-21991484D02*
X8334111Y-21981960D01*
X8334111Y-21981960D02*
X8324587Y-21972436D01*
X8324587Y-21972436D02*
X8315063Y-21953389D01*
X8315063Y-21953389D02*
X8315063Y-21896246D01*
X8315063Y-21896246D02*
X8324587Y-21877198D01*
X8324587Y-21877198D02*
X8334111Y-21867674D01*
X8334111Y-21867674D02*
X8353158Y-21858150D01*
X8353158Y-21858150D02*
X8381730Y-21858150D01*
X8381730Y-21858150D02*
X8400777Y-21867674D01*
X8400777Y-21867674D02*
X8410301Y-21877198D01*
X8410301Y-21877198D02*
X8419825Y-21896246D01*
X8419825Y-21896246D02*
X8419825Y-21953389D01*
X8419825Y-21953389D02*
X8410301Y-21972436D01*
X8410301Y-21972436D02*
X8400777Y-21981960D01*
X8400777Y-21981960D02*
X8381730Y-21991484D01*
X8381730Y-21991484D02*
X8353158Y-21991484D01*
X8476968Y-21858150D02*
X8553158Y-21858150D01*
X8505539Y-21791484D02*
X8505539Y-21962912D01*
X8505539Y-21962912D02*
X8515063Y-21981960D01*
X8515063Y-21981960D02*
X8534111Y-21991484D01*
X8534111Y-21991484D02*
X8553158Y-21991484D01*
X8772206Y-21858150D02*
X8772206Y-22058150D01*
X8772206Y-21867674D02*
X8791254Y-21858150D01*
X8791254Y-21858150D02*
X8829349Y-21858150D01*
X8829349Y-21858150D02*
X8848396Y-21867674D01*
X8848396Y-21867674D02*
X8857920Y-21877198D01*
X8857920Y-21877198D02*
X8867444Y-21896246D01*
X8867444Y-21896246D02*
X8867444Y-21953389D01*
X8867444Y-21953389D02*
X8857920Y-21972436D01*
X8857920Y-21972436D02*
X8848396Y-21981960D01*
X8848396Y-21981960D02*
X8829349Y-21991484D01*
X8829349Y-21991484D02*
X8791254Y-21991484D01*
X8791254Y-21991484D02*
X8772206Y-21981960D01*
X8981730Y-21991484D02*
X8962682Y-21981960D01*
X8962682Y-21981960D02*
X8953158Y-21962912D01*
X8953158Y-21962912D02*
X8953158Y-21791484D01*
X9143635Y-21991484D02*
X9143635Y-21886722D01*
X9143635Y-21886722D02*
X9134111Y-21867674D01*
X9134111Y-21867674D02*
X9115063Y-21858150D01*
X9115063Y-21858150D02*
X9076968Y-21858150D01*
X9076968Y-21858150D02*
X9057920Y-21867674D01*
X9143635Y-21981960D02*
X9124587Y-21991484D01*
X9124587Y-21991484D02*
X9076968Y-21991484D01*
X9076968Y-21991484D02*
X9057920Y-21981960D01*
X9057920Y-21981960D02*
X9048396Y-21962912D01*
X9048396Y-21962912D02*
X9048396Y-21943865D01*
X9048396Y-21943865D02*
X9057920Y-21924817D01*
X9057920Y-21924817D02*
X9076968Y-21915293D01*
X9076968Y-21915293D02*
X9124587Y-21915293D01*
X9124587Y-21915293D02*
X9143635Y-21905770D01*
X9210301Y-21858150D02*
X9286492Y-21858150D01*
X9238873Y-21791484D02*
X9238873Y-21962912D01*
X9238873Y-21962912D02*
X9248396Y-21981960D01*
X9248396Y-21981960D02*
X9267444Y-21991484D01*
X9267444Y-21991484D02*
X9286492Y-21991484D01*
X9429349Y-21981960D02*
X9410301Y-21991484D01*
X9410301Y-21991484D02*
X9372206Y-21991484D01*
X9372206Y-21991484D02*
X9353158Y-21981960D01*
X9353158Y-21981960D02*
X9343635Y-21962912D01*
X9343635Y-21962912D02*
X9343635Y-21886722D01*
X9343635Y-21886722D02*
X9353158Y-21867674D01*
X9353158Y-21867674D02*
X9372206Y-21858150D01*
X9372206Y-21858150D02*
X9410301Y-21858150D01*
X9410301Y-21858150D02*
X9429349Y-21867674D01*
X9429349Y-21867674D02*
X9438873Y-21886722D01*
X9438873Y-21886722D02*
X9438873Y-21905770D01*
X9438873Y-21905770D02*
X9343635Y-21924817D01*
X9610301Y-21991484D02*
X9610301Y-21791484D01*
X9610301Y-21981960D02*
X9591254Y-21991484D01*
X9591254Y-21991484D02*
X9553158Y-21991484D01*
X9553158Y-21991484D02*
X9534111Y-21981960D01*
X9534111Y-21981960D02*
X9524587Y-21972436D01*
X9524587Y-21972436D02*
X9515063Y-21953389D01*
X9515063Y-21953389D02*
X9515063Y-21896246D01*
X9515063Y-21896246D02*
X9524587Y-21877198D01*
X9524587Y-21877198D02*
X9534111Y-21867674D01*
X9534111Y-21867674D02*
X9553158Y-21858150D01*
X9553158Y-21858150D02*
X9591254Y-21858150D01*
X9591254Y-21858150D02*
X9610301Y-21867674D01*
X9686492Y-22067674D02*
X9696016Y-22058150D01*
X9696016Y-22058150D02*
X9715063Y-22029579D01*
X9715063Y-22029579D02*
X9724587Y-22010531D01*
X9724587Y-22010531D02*
X9734111Y-21981960D01*
X9734111Y-21981960D02*
X9743635Y-21934341D01*
X9743635Y-21934341D02*
X9743635Y-21896246D01*
X9743635Y-21896246D02*
X9734111Y-21848627D01*
X9734111Y-21848627D02*
X9724587Y-21820055D01*
X9724587Y-21820055D02*
X9715063Y-21801008D01*
X9715063Y-21801008D02*
X9696016Y-21772436D01*
X9696016Y-21772436D02*
X9686492Y-21762912D01*
X2740000Y-22190180D02*
G75*
G02*
X2540000Y-22190180I-100000J0D01*
G01*
X2540000Y-22190180D02*
G75*
G02*
X2740000Y-22190180I100000J0D01*
G01*
X2981729Y-22081664D02*
X3105539Y-22081664D01*
X3105539Y-22081664D02*
X3038872Y-22157854D01*
X3038872Y-22157854D02*
X3067443Y-22157854D01*
X3067443Y-22157854D02*
X3086491Y-22167378D01*
X3086491Y-22167378D02*
X3096015Y-22176902D01*
X3096015Y-22176902D02*
X3105539Y-22195950D01*
X3105539Y-22195950D02*
X3105539Y-22243569D01*
X3105539Y-22243569D02*
X3096015Y-22262616D01*
X3096015Y-22262616D02*
X3086491Y-22272140D01*
X3086491Y-22272140D02*
X3067443Y-22281664D01*
X3067443Y-22281664D02*
X3010301Y-22281664D01*
X3010301Y-22281664D02*
X2991253Y-22272140D01*
X2991253Y-22272140D02*
X2981729Y-22262616D01*
X3191253Y-22262616D02*
X3200777Y-22272140D01*
X3200777Y-22272140D02*
X3191253Y-22281664D01*
X3191253Y-22281664D02*
X3181729Y-22272140D01*
X3181729Y-22272140D02*
X3191253Y-22262616D01*
X3191253Y-22262616D02*
X3191253Y-22281664D01*
X3324586Y-22081664D02*
X3343634Y-22081664D01*
X3343634Y-22081664D02*
X3362682Y-22091188D01*
X3362682Y-22091188D02*
X3372205Y-22100711D01*
X3372205Y-22100711D02*
X3381729Y-22119759D01*
X3381729Y-22119759D02*
X3391253Y-22157854D01*
X3391253Y-22157854D02*
X3391253Y-22205473D01*
X3391253Y-22205473D02*
X3381729Y-22243569D01*
X3381729Y-22243569D02*
X3372205Y-22262616D01*
X3372205Y-22262616D02*
X3362682Y-22272140D01*
X3362682Y-22272140D02*
X3343634Y-22281664D01*
X3343634Y-22281664D02*
X3324586Y-22281664D01*
X3324586Y-22281664D02*
X3305539Y-22272140D01*
X3305539Y-22272140D02*
X3296015Y-22262616D01*
X3296015Y-22262616D02*
X3286491Y-22243569D01*
X3286491Y-22243569D02*
X3276967Y-22205473D01*
X3276967Y-22205473D02*
X3276967Y-22157854D01*
X3276967Y-22157854D02*
X3286491Y-22119759D01*
X3286491Y-22119759D02*
X3296015Y-22100711D01*
X3296015Y-22100711D02*
X3305539Y-22091188D01*
X3305539Y-22091188D02*
X3324586Y-22081664D01*
X3515062Y-22081664D02*
X3534110Y-22081664D01*
X3534110Y-22081664D02*
X3553158Y-22091188D01*
X3553158Y-22091188D02*
X3562682Y-22100711D01*
X3562682Y-22100711D02*
X3572205Y-22119759D01*
X3572205Y-22119759D02*
X3581729Y-22157854D01*
X3581729Y-22157854D02*
X3581729Y-22205473D01*
X3581729Y-22205473D02*
X3572205Y-22243569D01*
X3572205Y-22243569D02*
X3562682Y-22262616D01*
X3562682Y-22262616D02*
X3553158Y-22272140D01*
X3553158Y-22272140D02*
X3534110Y-22281664D01*
X3534110Y-22281664D02*
X3515062Y-22281664D01*
X3515062Y-22281664D02*
X3496015Y-22272140D01*
X3496015Y-22272140D02*
X3486491Y-22262616D01*
X3486491Y-22262616D02*
X3476967Y-22243569D01*
X3476967Y-22243569D02*
X3467443Y-22205473D01*
X3467443Y-22205473D02*
X3467443Y-22157854D01*
X3467443Y-22157854D02*
X3476967Y-22119759D01*
X3476967Y-22119759D02*
X3486491Y-22100711D01*
X3486491Y-22100711D02*
X3496015Y-22091188D01*
X3496015Y-22091188D02*
X3515062Y-22081664D01*
X3705539Y-22081664D02*
X3724586Y-22081664D01*
X3724586Y-22081664D02*
X3743634Y-22091188D01*
X3743634Y-22091188D02*
X3753158Y-22100711D01*
X3753158Y-22100711D02*
X3762682Y-22119759D01*
X3762682Y-22119759D02*
X3772205Y-22157854D01*
X3772205Y-22157854D02*
X3772205Y-22205473D01*
X3772205Y-22205473D02*
X3762682Y-22243569D01*
X3762682Y-22243569D02*
X3753158Y-22262616D01*
X3753158Y-22262616D02*
X3743634Y-22272140D01*
X3743634Y-22272140D02*
X3724586Y-22281664D01*
X3724586Y-22281664D02*
X3705539Y-22281664D01*
X3705539Y-22281664D02*
X3686491Y-22272140D01*
X3686491Y-22272140D02*
X3676967Y-22262616D01*
X3676967Y-22262616D02*
X3667443Y-22243569D01*
X3667443Y-22243569D02*
X3657920Y-22205473D01*
X3657920Y-22205473D02*
X3657920Y-22157854D01*
X3657920Y-22157854D02*
X3667443Y-22119759D01*
X3667443Y-22119759D02*
X3676967Y-22100711D01*
X3676967Y-22100711D02*
X3686491Y-22091188D01*
X3686491Y-22091188D02*
X3705539Y-22081664D01*
X3857920Y-22281664D02*
X3857920Y-22148330D01*
X3857920Y-22167378D02*
X3867443Y-22157854D01*
X3867443Y-22157854D02*
X3886491Y-22148330D01*
X3886491Y-22148330D02*
X3915063Y-22148330D01*
X3915063Y-22148330D02*
X3934110Y-22157854D01*
X3934110Y-22157854D02*
X3943634Y-22176902D01*
X3943634Y-22176902D02*
X3943634Y-22281664D01*
X3943634Y-22176902D02*
X3953158Y-22157854D01*
X3953158Y-22157854D02*
X3972205Y-22148330D01*
X3972205Y-22148330D02*
X4000777Y-22148330D01*
X4000777Y-22148330D02*
X4019824Y-22157854D01*
X4019824Y-22157854D02*
X4029348Y-22176902D01*
X4029348Y-22176902D02*
X4029348Y-22281664D01*
X4124586Y-22281664D02*
X4124586Y-22148330D01*
X4124586Y-22167378D02*
X4134110Y-22157854D01*
X4134110Y-22157854D02*
X4153158Y-22148330D01*
X4153158Y-22148330D02*
X4181729Y-22148330D01*
X4181729Y-22148330D02*
X4200777Y-22157854D01*
X4200777Y-22157854D02*
X4210301Y-22176902D01*
X4210301Y-22176902D02*
X4210301Y-22281664D01*
X4210301Y-22176902D02*
X4219825Y-22157854D01*
X4219825Y-22157854D02*
X4238872Y-22148330D01*
X4238872Y-22148330D02*
X4267444Y-22148330D01*
X4267444Y-22148330D02*
X4286491Y-22157854D01*
X4286491Y-22157854D02*
X4296015Y-22176902D01*
X4296015Y-22176902D02*
X4296015Y-22281664D01*
X4686491Y-22072140D02*
X4515063Y-22329283D01*
X4943634Y-22081664D02*
X4962682Y-22081664D01*
X4962682Y-22081664D02*
X4981729Y-22091188D01*
X4981729Y-22091188D02*
X4991253Y-22100711D01*
X4991253Y-22100711D02*
X5000777Y-22119759D01*
X5000777Y-22119759D02*
X5010301Y-22157854D01*
X5010301Y-22157854D02*
X5010301Y-22205473D01*
X5010301Y-22205473D02*
X5000777Y-22243569D01*
X5000777Y-22243569D02*
X4991253Y-22262616D01*
X4991253Y-22262616D02*
X4981729Y-22272140D01*
X4981729Y-22272140D02*
X4962682Y-22281664D01*
X4962682Y-22281664D02*
X4943634Y-22281664D01*
X4943634Y-22281664D02*
X4924587Y-22272140D01*
X4924587Y-22272140D02*
X4915063Y-22262616D01*
X4915063Y-22262616D02*
X4905539Y-22243569D01*
X4905539Y-22243569D02*
X4896015Y-22205473D01*
X4896015Y-22205473D02*
X4896015Y-22157854D01*
X4896015Y-22157854D02*
X4905539Y-22119759D01*
X4905539Y-22119759D02*
X4915063Y-22100711D01*
X4915063Y-22100711D02*
X4924587Y-22091188D01*
X4924587Y-22091188D02*
X4943634Y-22081664D01*
X5096015Y-22262616D02*
X5105539Y-22272140D01*
X5105539Y-22272140D02*
X5096015Y-22281664D01*
X5096015Y-22281664D02*
X5086491Y-22272140D01*
X5086491Y-22272140D02*
X5096015Y-22262616D01*
X5096015Y-22262616D02*
X5096015Y-22281664D01*
X5296015Y-22281664D02*
X5181729Y-22281664D01*
X5238872Y-22281664D02*
X5238872Y-22081664D01*
X5238872Y-22081664D02*
X5219825Y-22110235D01*
X5219825Y-22110235D02*
X5200777Y-22129283D01*
X5200777Y-22129283D02*
X5181729Y-22138807D01*
X5486491Y-22281664D02*
X5372206Y-22281664D01*
X5429348Y-22281664D02*
X5429348Y-22081664D01*
X5429348Y-22081664D02*
X5410301Y-22110235D01*
X5410301Y-22110235D02*
X5391253Y-22129283D01*
X5391253Y-22129283D02*
X5372206Y-22138807D01*
X5600777Y-22167378D02*
X5581729Y-22157854D01*
X5581729Y-22157854D02*
X5572206Y-22148330D01*
X5572206Y-22148330D02*
X5562682Y-22129283D01*
X5562682Y-22129283D02*
X5562682Y-22119759D01*
X5562682Y-22119759D02*
X5572206Y-22100711D01*
X5572206Y-22100711D02*
X5581729Y-22091188D01*
X5581729Y-22091188D02*
X5600777Y-22081664D01*
X5600777Y-22081664D02*
X5638872Y-22081664D01*
X5638872Y-22081664D02*
X5657920Y-22091188D01*
X5657920Y-22091188D02*
X5667444Y-22100711D01*
X5667444Y-22100711D02*
X5676967Y-22119759D01*
X5676967Y-22119759D02*
X5676967Y-22129283D01*
X5676967Y-22129283D02*
X5667444Y-22148330D01*
X5667444Y-22148330D02*
X5657920Y-22157854D01*
X5657920Y-22157854D02*
X5638872Y-22167378D01*
X5638872Y-22167378D02*
X5600777Y-22167378D01*
X5600777Y-22167378D02*
X5581729Y-22176902D01*
X5581729Y-22176902D02*
X5572206Y-22186426D01*
X5572206Y-22186426D02*
X5562682Y-22205473D01*
X5562682Y-22205473D02*
X5562682Y-22243569D01*
X5562682Y-22243569D02*
X5572206Y-22262616D01*
X5572206Y-22262616D02*
X5581729Y-22272140D01*
X5581729Y-22272140D02*
X5600777Y-22281664D01*
X5600777Y-22281664D02*
X5638872Y-22281664D01*
X5638872Y-22281664D02*
X5657920Y-22272140D01*
X5657920Y-22272140D02*
X5667444Y-22262616D01*
X5667444Y-22262616D02*
X5676967Y-22243569D01*
X5676967Y-22243569D02*
X5676967Y-22205473D01*
X5676967Y-22205473D02*
X5667444Y-22186426D01*
X5667444Y-22186426D02*
X5657920Y-22176902D01*
X5657920Y-22176902D02*
X5638872Y-22167378D01*
X5867444Y-22281664D02*
X5753158Y-22281664D01*
X5810301Y-22281664D02*
X5810301Y-22081664D01*
X5810301Y-22081664D02*
X5791253Y-22110235D01*
X5791253Y-22110235D02*
X5772206Y-22129283D01*
X5772206Y-22129283D02*
X5753158Y-22138807D01*
X5943634Y-22081664D02*
X5943634Y-22119759D01*
X6019825Y-22081664D02*
X6019825Y-22119759D01*
X6315063Y-22357854D02*
X6305539Y-22348330D01*
X6305539Y-22348330D02*
X6286491Y-22319759D01*
X6286491Y-22319759D02*
X6276968Y-22300711D01*
X6276968Y-22300711D02*
X6267444Y-22272140D01*
X6267444Y-22272140D02*
X6257920Y-22224521D01*
X6257920Y-22224521D02*
X6257920Y-22186426D01*
X6257920Y-22186426D02*
X6267444Y-22138807D01*
X6267444Y-22138807D02*
X6276968Y-22110235D01*
X6276968Y-22110235D02*
X6286491Y-22091188D01*
X6286491Y-22091188D02*
X6305539Y-22062616D01*
X6305539Y-22062616D02*
X6315063Y-22053092D01*
X6372206Y-22081664D02*
X6496015Y-22081664D01*
X6496015Y-22081664D02*
X6429348Y-22157854D01*
X6429348Y-22157854D02*
X6457920Y-22157854D01*
X6457920Y-22157854D02*
X6476968Y-22167378D01*
X6476968Y-22167378D02*
X6486491Y-22176902D01*
X6486491Y-22176902D02*
X6496015Y-22195950D01*
X6496015Y-22195950D02*
X6496015Y-22243569D01*
X6496015Y-22243569D02*
X6486491Y-22262616D01*
X6486491Y-22262616D02*
X6476968Y-22272140D01*
X6476968Y-22272140D02*
X6457920Y-22281664D01*
X6457920Y-22281664D02*
X6400777Y-22281664D01*
X6400777Y-22281664D02*
X6381729Y-22272140D01*
X6381729Y-22272140D02*
X6372206Y-22262616D01*
X6667444Y-22148330D02*
X6667444Y-22281664D01*
X6619825Y-22072140D02*
X6572206Y-22214997D01*
X6572206Y-22214997D02*
X6696015Y-22214997D01*
X6924587Y-22281664D02*
X6924587Y-22081664D01*
X7010301Y-22281664D02*
X7010301Y-22176902D01*
X7010301Y-22176902D02*
X7000777Y-22157854D01*
X7000777Y-22157854D02*
X6981730Y-22148330D01*
X6981730Y-22148330D02*
X6953158Y-22148330D01*
X6953158Y-22148330D02*
X6934110Y-22157854D01*
X6934110Y-22157854D02*
X6924587Y-22167378D01*
X7134110Y-22281664D02*
X7115063Y-22272140D01*
X7115063Y-22272140D02*
X7105539Y-22262616D01*
X7105539Y-22262616D02*
X7096015Y-22243569D01*
X7096015Y-22243569D02*
X7096015Y-22186426D01*
X7096015Y-22186426D02*
X7105539Y-22167378D01*
X7105539Y-22167378D02*
X7115063Y-22157854D01*
X7115063Y-22157854D02*
X7134110Y-22148330D01*
X7134110Y-22148330D02*
X7162682Y-22148330D01*
X7162682Y-22148330D02*
X7181730Y-22157854D01*
X7181730Y-22157854D02*
X7191253Y-22167378D01*
X7191253Y-22167378D02*
X7200777Y-22186426D01*
X7200777Y-22186426D02*
X7200777Y-22243569D01*
X7200777Y-22243569D02*
X7191253Y-22262616D01*
X7191253Y-22262616D02*
X7181730Y-22272140D01*
X7181730Y-22272140D02*
X7162682Y-22281664D01*
X7162682Y-22281664D02*
X7134110Y-22281664D01*
X7315063Y-22281664D02*
X7296015Y-22272140D01*
X7296015Y-22272140D02*
X7286491Y-22253092D01*
X7286491Y-22253092D02*
X7286491Y-22081664D01*
X7467444Y-22272140D02*
X7448396Y-22281664D01*
X7448396Y-22281664D02*
X7410301Y-22281664D01*
X7410301Y-22281664D02*
X7391253Y-22272140D01*
X7391253Y-22272140D02*
X7381730Y-22253092D01*
X7381730Y-22253092D02*
X7381730Y-22176902D01*
X7381730Y-22176902D02*
X7391253Y-22157854D01*
X7391253Y-22157854D02*
X7410301Y-22148330D01*
X7410301Y-22148330D02*
X7448396Y-22148330D01*
X7448396Y-22148330D02*
X7467444Y-22157854D01*
X7467444Y-22157854D02*
X7476968Y-22176902D01*
X7476968Y-22176902D02*
X7476968Y-22195950D01*
X7476968Y-22195950D02*
X7381730Y-22214997D01*
X7553158Y-22272140D02*
X7572206Y-22281664D01*
X7572206Y-22281664D02*
X7610301Y-22281664D01*
X7610301Y-22281664D02*
X7629349Y-22272140D01*
X7629349Y-22272140D02*
X7638872Y-22253092D01*
X7638872Y-22253092D02*
X7638872Y-22243569D01*
X7638872Y-22243569D02*
X7629349Y-22224521D01*
X7629349Y-22224521D02*
X7610301Y-22214997D01*
X7610301Y-22214997D02*
X7581730Y-22214997D01*
X7581730Y-22214997D02*
X7562682Y-22205473D01*
X7562682Y-22205473D02*
X7553158Y-22186426D01*
X7553158Y-22186426D02*
X7553158Y-22176902D01*
X7553158Y-22176902D02*
X7562682Y-22157854D01*
X7562682Y-22157854D02*
X7581730Y-22148330D01*
X7581730Y-22148330D02*
X7610301Y-22148330D01*
X7610301Y-22148330D02*
X7629349Y-22157854D01*
X7705539Y-22357854D02*
X7715063Y-22348330D01*
X7715063Y-22348330D02*
X7734111Y-22319759D01*
X7734111Y-22319759D02*
X7743634Y-22300711D01*
X7743634Y-22300711D02*
X7753158Y-22272140D01*
X7753158Y-22272140D02*
X7762682Y-22224521D01*
X7762682Y-22224521D02*
X7762682Y-22186426D01*
X7762682Y-22186426D02*
X7753158Y-22138807D01*
X7753158Y-22138807D02*
X7743634Y-22110235D01*
X7743634Y-22110235D02*
X7734111Y-22091188D01*
X7734111Y-22091188D02*
X7715063Y-22062616D01*
X7715063Y-22062616D02*
X7705539Y-22053092D01*
X8067444Y-22357854D02*
X8057920Y-22348330D01*
X8057920Y-22348330D02*
X8038872Y-22319759D01*
X8038872Y-22319759D02*
X8029349Y-22300711D01*
X8029349Y-22300711D02*
X8019825Y-22272140D01*
X8019825Y-22272140D02*
X8010301Y-22224521D01*
X8010301Y-22224521D02*
X8010301Y-22186426D01*
X8010301Y-22186426D02*
X8019825Y-22138807D01*
X8019825Y-22138807D02*
X8029349Y-22110235D01*
X8029349Y-22110235D02*
X8038872Y-22091188D01*
X8038872Y-22091188D02*
X8057920Y-22062616D01*
X8057920Y-22062616D02*
X8067444Y-22053092D01*
X8143634Y-22148330D02*
X8143634Y-22281664D01*
X8143634Y-22167378D02*
X8153158Y-22157854D01*
X8153158Y-22157854D02*
X8172206Y-22148330D01*
X8172206Y-22148330D02*
X8200777Y-22148330D01*
X8200777Y-22148330D02*
X8219825Y-22157854D01*
X8219825Y-22157854D02*
X8229349Y-22176902D01*
X8229349Y-22176902D02*
X8229349Y-22281664D01*
X8353158Y-22281664D02*
X8334111Y-22272140D01*
X8334111Y-22272140D02*
X8324587Y-22262616D01*
X8324587Y-22262616D02*
X8315063Y-22243569D01*
X8315063Y-22243569D02*
X8315063Y-22186426D01*
X8315063Y-22186426D02*
X8324587Y-22167378D01*
X8324587Y-22167378D02*
X8334111Y-22157854D01*
X8334111Y-22157854D02*
X8353158Y-22148330D01*
X8353158Y-22148330D02*
X8381730Y-22148330D01*
X8381730Y-22148330D02*
X8400777Y-22157854D01*
X8400777Y-22157854D02*
X8410301Y-22167378D01*
X8410301Y-22167378D02*
X8419825Y-22186426D01*
X8419825Y-22186426D02*
X8419825Y-22243569D01*
X8419825Y-22243569D02*
X8410301Y-22262616D01*
X8410301Y-22262616D02*
X8400777Y-22272140D01*
X8400777Y-22272140D02*
X8381730Y-22281664D01*
X8381730Y-22281664D02*
X8353158Y-22281664D01*
X8476968Y-22148330D02*
X8553158Y-22148330D01*
X8505539Y-22081664D02*
X8505539Y-22253092D01*
X8505539Y-22253092D02*
X8515063Y-22272140D01*
X8515063Y-22272140D02*
X8534111Y-22281664D01*
X8534111Y-22281664D02*
X8553158Y-22281664D01*
X8772206Y-22148330D02*
X8772206Y-22348330D01*
X8772206Y-22157854D02*
X8791254Y-22148330D01*
X8791254Y-22148330D02*
X8829349Y-22148330D01*
X8829349Y-22148330D02*
X8848396Y-22157854D01*
X8848396Y-22157854D02*
X8857920Y-22167378D01*
X8857920Y-22167378D02*
X8867444Y-22186426D01*
X8867444Y-22186426D02*
X8867444Y-22243569D01*
X8867444Y-22243569D02*
X8857920Y-22262616D01*
X8857920Y-22262616D02*
X8848396Y-22272140D01*
X8848396Y-22272140D02*
X8829349Y-22281664D01*
X8829349Y-22281664D02*
X8791254Y-22281664D01*
X8791254Y-22281664D02*
X8772206Y-22272140D01*
X8981730Y-22281664D02*
X8962682Y-22272140D01*
X8962682Y-22272140D02*
X8953158Y-22253092D01*
X8953158Y-22253092D02*
X8953158Y-22081664D01*
X9143635Y-22281664D02*
X9143635Y-22176902D01*
X9143635Y-22176902D02*
X9134111Y-22157854D01*
X9134111Y-22157854D02*
X9115063Y-22148330D01*
X9115063Y-22148330D02*
X9076968Y-22148330D01*
X9076968Y-22148330D02*
X9057920Y-22157854D01*
X9143635Y-22272140D02*
X9124587Y-22281664D01*
X9124587Y-22281664D02*
X9076968Y-22281664D01*
X9076968Y-22281664D02*
X9057920Y-22272140D01*
X9057920Y-22272140D02*
X9048396Y-22253092D01*
X9048396Y-22253092D02*
X9048396Y-22234045D01*
X9048396Y-22234045D02*
X9057920Y-22214997D01*
X9057920Y-22214997D02*
X9076968Y-22205473D01*
X9076968Y-22205473D02*
X9124587Y-22205473D01*
X9124587Y-22205473D02*
X9143635Y-22195950D01*
X9210301Y-22148330D02*
X9286492Y-22148330D01*
X9238873Y-22081664D02*
X9238873Y-22253092D01*
X9238873Y-22253092D02*
X9248396Y-22272140D01*
X9248396Y-22272140D02*
X9267444Y-22281664D01*
X9267444Y-22281664D02*
X9286492Y-22281664D01*
X9429349Y-22272140D02*
X9410301Y-22281664D01*
X9410301Y-22281664D02*
X9372206Y-22281664D01*
X9372206Y-22281664D02*
X9353158Y-22272140D01*
X9353158Y-22272140D02*
X9343635Y-22253092D01*
X9343635Y-22253092D02*
X9343635Y-22176902D01*
X9343635Y-22176902D02*
X9353158Y-22157854D01*
X9353158Y-22157854D02*
X9372206Y-22148330D01*
X9372206Y-22148330D02*
X9410301Y-22148330D01*
X9410301Y-22148330D02*
X9429349Y-22157854D01*
X9429349Y-22157854D02*
X9438873Y-22176902D01*
X9438873Y-22176902D02*
X9438873Y-22195950D01*
X9438873Y-22195950D02*
X9343635Y-22214997D01*
X9610301Y-22281664D02*
X9610301Y-22081664D01*
X9610301Y-22272140D02*
X9591254Y-22281664D01*
X9591254Y-22281664D02*
X9553158Y-22281664D01*
X9553158Y-22281664D02*
X9534111Y-22272140D01*
X9534111Y-22272140D02*
X9524587Y-22262616D01*
X9524587Y-22262616D02*
X9515063Y-22243569D01*
X9515063Y-22243569D02*
X9515063Y-22186426D01*
X9515063Y-22186426D02*
X9524587Y-22167378D01*
X9524587Y-22167378D02*
X9534111Y-22157854D01*
X9534111Y-22157854D02*
X9553158Y-22148330D01*
X9553158Y-22148330D02*
X9591254Y-22148330D01*
X9591254Y-22148330D02*
X9610301Y-22157854D01*
X9686492Y-22357854D02*
X9696016Y-22348330D01*
X9696016Y-22348330D02*
X9715063Y-22319759D01*
X9715063Y-22319759D02*
X9724587Y-22300711D01*
X9724587Y-22300711D02*
X9734111Y-22272140D01*
X9734111Y-22272140D02*
X9743635Y-22224521D01*
X9743635Y-22224521D02*
X9743635Y-22186426D01*
X9743635Y-22186426D02*
X9734111Y-22138807D01*
X9734111Y-22138807D02*
X9724587Y-22110235D01*
X9724587Y-22110235D02*
X9715063Y-22091188D01*
X9715063Y-22091188D02*
X9696016Y-22062616D01*
X9696016Y-22062616D02*
X9686492Y-22053092D01*
X2640000Y-22410180D02*
X2640000Y-22610180D01*
X2540000Y-22510180D02*
X2740000Y-22510180D01*
X2981729Y-22401664D02*
X3105539Y-22401664D01*
X3105539Y-22401664D02*
X3038872Y-22477854D01*
X3038872Y-22477854D02*
X3067443Y-22477854D01*
X3067443Y-22477854D02*
X3086491Y-22487378D01*
X3086491Y-22487378D02*
X3096015Y-22496902D01*
X3096015Y-22496902D02*
X3105539Y-22515949D01*
X3105539Y-22515949D02*
X3105539Y-22563568D01*
X3105539Y-22563568D02*
X3096015Y-22582616D01*
X3096015Y-22582616D02*
X3086491Y-22592140D01*
X3086491Y-22592140D02*
X3067443Y-22601664D01*
X3067443Y-22601664D02*
X3010301Y-22601664D01*
X3010301Y-22601664D02*
X2991253Y-22592140D01*
X2991253Y-22592140D02*
X2981729Y-22582616D01*
X3191253Y-22582616D02*
X3200777Y-22592140D01*
X3200777Y-22592140D02*
X3191253Y-22601664D01*
X3191253Y-22601664D02*
X3181729Y-22592140D01*
X3181729Y-22592140D02*
X3191253Y-22582616D01*
X3191253Y-22582616D02*
X3191253Y-22601664D01*
X3324586Y-22401664D02*
X3343634Y-22401664D01*
X3343634Y-22401664D02*
X3362682Y-22411188D01*
X3362682Y-22411188D02*
X3372205Y-22420711D01*
X3372205Y-22420711D02*
X3381729Y-22439759D01*
X3381729Y-22439759D02*
X3391253Y-22477854D01*
X3391253Y-22477854D02*
X3391253Y-22525473D01*
X3391253Y-22525473D02*
X3381729Y-22563568D01*
X3381729Y-22563568D02*
X3372205Y-22582616D01*
X3372205Y-22582616D02*
X3362682Y-22592140D01*
X3362682Y-22592140D02*
X3343634Y-22601664D01*
X3343634Y-22601664D02*
X3324586Y-22601664D01*
X3324586Y-22601664D02*
X3305539Y-22592140D01*
X3305539Y-22592140D02*
X3296015Y-22582616D01*
X3296015Y-22582616D02*
X3286491Y-22563568D01*
X3286491Y-22563568D02*
X3276967Y-22525473D01*
X3276967Y-22525473D02*
X3276967Y-22477854D01*
X3276967Y-22477854D02*
X3286491Y-22439759D01*
X3286491Y-22439759D02*
X3296015Y-22420711D01*
X3296015Y-22420711D02*
X3305539Y-22411188D01*
X3305539Y-22411188D02*
X3324586Y-22401664D01*
X3562682Y-22468330D02*
X3562682Y-22601664D01*
X3515062Y-22392140D02*
X3467443Y-22534997D01*
X3467443Y-22534997D02*
X3591253Y-22534997D01*
X3696015Y-22487378D02*
X3676967Y-22477854D01*
X3676967Y-22477854D02*
X3667443Y-22468330D01*
X3667443Y-22468330D02*
X3657920Y-22449283D01*
X3657920Y-22449283D02*
X3657920Y-22439759D01*
X3657920Y-22439759D02*
X3667443Y-22420711D01*
X3667443Y-22420711D02*
X3676967Y-22411188D01*
X3676967Y-22411188D02*
X3696015Y-22401664D01*
X3696015Y-22401664D02*
X3734110Y-22401664D01*
X3734110Y-22401664D02*
X3753158Y-22411188D01*
X3753158Y-22411188D02*
X3762682Y-22420711D01*
X3762682Y-22420711D02*
X3772205Y-22439759D01*
X3772205Y-22439759D02*
X3772205Y-22449283D01*
X3772205Y-22449283D02*
X3762682Y-22468330D01*
X3762682Y-22468330D02*
X3753158Y-22477854D01*
X3753158Y-22477854D02*
X3734110Y-22487378D01*
X3734110Y-22487378D02*
X3696015Y-22487378D01*
X3696015Y-22487378D02*
X3676967Y-22496902D01*
X3676967Y-22496902D02*
X3667443Y-22506426D01*
X3667443Y-22506426D02*
X3657920Y-22525473D01*
X3657920Y-22525473D02*
X3657920Y-22563568D01*
X3657920Y-22563568D02*
X3667443Y-22582616D01*
X3667443Y-22582616D02*
X3676967Y-22592140D01*
X3676967Y-22592140D02*
X3696015Y-22601664D01*
X3696015Y-22601664D02*
X3734110Y-22601664D01*
X3734110Y-22601664D02*
X3753158Y-22592140D01*
X3753158Y-22592140D02*
X3762682Y-22582616D01*
X3762682Y-22582616D02*
X3772205Y-22563568D01*
X3772205Y-22563568D02*
X3772205Y-22525473D01*
X3772205Y-22525473D02*
X3762682Y-22506426D01*
X3762682Y-22506426D02*
X3753158Y-22496902D01*
X3753158Y-22496902D02*
X3734110Y-22487378D01*
X3857920Y-22601664D02*
X3857920Y-22468330D01*
X3857920Y-22487378D02*
X3867443Y-22477854D01*
X3867443Y-22477854D02*
X3886491Y-22468330D01*
X3886491Y-22468330D02*
X3915063Y-22468330D01*
X3915063Y-22468330D02*
X3934110Y-22477854D01*
X3934110Y-22477854D02*
X3943634Y-22496902D01*
X3943634Y-22496902D02*
X3943634Y-22601664D01*
X3943634Y-22496902D02*
X3953158Y-22477854D01*
X3953158Y-22477854D02*
X3972205Y-22468330D01*
X3972205Y-22468330D02*
X4000777Y-22468330D01*
X4000777Y-22468330D02*
X4019824Y-22477854D01*
X4019824Y-22477854D02*
X4029348Y-22496902D01*
X4029348Y-22496902D02*
X4029348Y-22601664D01*
X4124586Y-22601664D02*
X4124586Y-22468330D01*
X4124586Y-22487378D02*
X4134110Y-22477854D01*
X4134110Y-22477854D02*
X4153158Y-22468330D01*
X4153158Y-22468330D02*
X4181729Y-22468330D01*
X4181729Y-22468330D02*
X4200777Y-22477854D01*
X4200777Y-22477854D02*
X4210301Y-22496902D01*
X4210301Y-22496902D02*
X4210301Y-22601664D01*
X4210301Y-22496902D02*
X4219825Y-22477854D01*
X4219825Y-22477854D02*
X4238872Y-22468330D01*
X4238872Y-22468330D02*
X4267444Y-22468330D01*
X4267444Y-22468330D02*
X4286491Y-22477854D01*
X4286491Y-22477854D02*
X4296015Y-22496902D01*
X4296015Y-22496902D02*
X4296015Y-22601664D01*
X4686491Y-22392140D02*
X4515063Y-22649283D01*
X4943634Y-22401664D02*
X4962682Y-22401664D01*
X4962682Y-22401664D02*
X4981729Y-22411188D01*
X4981729Y-22411188D02*
X4991253Y-22420711D01*
X4991253Y-22420711D02*
X5000777Y-22439759D01*
X5000777Y-22439759D02*
X5010301Y-22477854D01*
X5010301Y-22477854D02*
X5010301Y-22525473D01*
X5010301Y-22525473D02*
X5000777Y-22563568D01*
X5000777Y-22563568D02*
X4991253Y-22582616D01*
X4991253Y-22582616D02*
X4981729Y-22592140D01*
X4981729Y-22592140D02*
X4962682Y-22601664D01*
X4962682Y-22601664D02*
X4943634Y-22601664D01*
X4943634Y-22601664D02*
X4924587Y-22592140D01*
X4924587Y-22592140D02*
X4915063Y-22582616D01*
X4915063Y-22582616D02*
X4905539Y-22563568D01*
X4905539Y-22563568D02*
X4896015Y-22525473D01*
X4896015Y-22525473D02*
X4896015Y-22477854D01*
X4896015Y-22477854D02*
X4905539Y-22439759D01*
X4905539Y-22439759D02*
X4915063Y-22420711D01*
X4915063Y-22420711D02*
X4924587Y-22411188D01*
X4924587Y-22411188D02*
X4943634Y-22401664D01*
X5096015Y-22582616D02*
X5105539Y-22592140D01*
X5105539Y-22592140D02*
X5096015Y-22601664D01*
X5096015Y-22601664D02*
X5086491Y-22592140D01*
X5086491Y-22592140D02*
X5096015Y-22582616D01*
X5096015Y-22582616D02*
X5096015Y-22601664D01*
X5296015Y-22601664D02*
X5181729Y-22601664D01*
X5238872Y-22601664D02*
X5238872Y-22401664D01*
X5238872Y-22401664D02*
X5219825Y-22430235D01*
X5219825Y-22430235D02*
X5200777Y-22449283D01*
X5200777Y-22449283D02*
X5181729Y-22458807D01*
X5372206Y-22420711D02*
X5381729Y-22411188D01*
X5381729Y-22411188D02*
X5400777Y-22401664D01*
X5400777Y-22401664D02*
X5448396Y-22401664D01*
X5448396Y-22401664D02*
X5467444Y-22411188D01*
X5467444Y-22411188D02*
X5476968Y-22420711D01*
X5476968Y-22420711D02*
X5486491Y-22439759D01*
X5486491Y-22439759D02*
X5486491Y-22458807D01*
X5486491Y-22458807D02*
X5476968Y-22487378D01*
X5476968Y-22487378D02*
X5362682Y-22601664D01*
X5362682Y-22601664D02*
X5486491Y-22601664D01*
X5610301Y-22401664D02*
X5629348Y-22401664D01*
X5629348Y-22401664D02*
X5648396Y-22411188D01*
X5648396Y-22411188D02*
X5657920Y-22420711D01*
X5657920Y-22420711D02*
X5667444Y-22439759D01*
X5667444Y-22439759D02*
X5676967Y-22477854D01*
X5676967Y-22477854D02*
X5676967Y-22525473D01*
X5676967Y-22525473D02*
X5667444Y-22563568D01*
X5667444Y-22563568D02*
X5657920Y-22582616D01*
X5657920Y-22582616D02*
X5648396Y-22592140D01*
X5648396Y-22592140D02*
X5629348Y-22601664D01*
X5629348Y-22601664D02*
X5610301Y-22601664D01*
X5610301Y-22601664D02*
X5591253Y-22592140D01*
X5591253Y-22592140D02*
X5581729Y-22582616D01*
X5581729Y-22582616D02*
X5572206Y-22563568D01*
X5572206Y-22563568D02*
X5562682Y-22525473D01*
X5562682Y-22525473D02*
X5562682Y-22477854D01*
X5562682Y-22477854D02*
X5572206Y-22439759D01*
X5572206Y-22439759D02*
X5581729Y-22420711D01*
X5581729Y-22420711D02*
X5591253Y-22411188D01*
X5591253Y-22411188D02*
X5610301Y-22401664D01*
X5800777Y-22401664D02*
X5819825Y-22401664D01*
X5819825Y-22401664D02*
X5838872Y-22411188D01*
X5838872Y-22411188D02*
X5848396Y-22420711D01*
X5848396Y-22420711D02*
X5857920Y-22439759D01*
X5857920Y-22439759D02*
X5867444Y-22477854D01*
X5867444Y-22477854D02*
X5867444Y-22525473D01*
X5867444Y-22525473D02*
X5857920Y-22563568D01*
X5857920Y-22563568D02*
X5848396Y-22582616D01*
X5848396Y-22582616D02*
X5838872Y-22592140D01*
X5838872Y-22592140D02*
X5819825Y-22601664D01*
X5819825Y-22601664D02*
X5800777Y-22601664D01*
X5800777Y-22601664D02*
X5781729Y-22592140D01*
X5781729Y-22592140D02*
X5772206Y-22582616D01*
X5772206Y-22582616D02*
X5762682Y-22563568D01*
X5762682Y-22563568D02*
X5753158Y-22525473D01*
X5753158Y-22525473D02*
X5753158Y-22477854D01*
X5753158Y-22477854D02*
X5762682Y-22439759D01*
X5762682Y-22439759D02*
X5772206Y-22420711D01*
X5772206Y-22420711D02*
X5781729Y-22411188D01*
X5781729Y-22411188D02*
X5800777Y-22401664D01*
X5943634Y-22401664D02*
X5943634Y-22439759D01*
X6019825Y-22401664D02*
X6019825Y-22439759D01*
X6315063Y-22677854D02*
X6305539Y-22668330D01*
X6305539Y-22668330D02*
X6286491Y-22639759D01*
X6286491Y-22639759D02*
X6276968Y-22620711D01*
X6276968Y-22620711D02*
X6267444Y-22592140D01*
X6267444Y-22592140D02*
X6257920Y-22544521D01*
X6257920Y-22544521D02*
X6257920Y-22506426D01*
X6257920Y-22506426D02*
X6267444Y-22458807D01*
X6267444Y-22458807D02*
X6276968Y-22430235D01*
X6276968Y-22430235D02*
X6286491Y-22411188D01*
X6286491Y-22411188D02*
X6305539Y-22382616D01*
X6305539Y-22382616D02*
X6315063Y-22373092D01*
X6476968Y-22401664D02*
X6438872Y-22401664D01*
X6438872Y-22401664D02*
X6419825Y-22411188D01*
X6419825Y-22411188D02*
X6410301Y-22420711D01*
X6410301Y-22420711D02*
X6391253Y-22449283D01*
X6391253Y-22449283D02*
X6381729Y-22487378D01*
X6381729Y-22487378D02*
X6381729Y-22563568D01*
X6381729Y-22563568D02*
X6391253Y-22582616D01*
X6391253Y-22582616D02*
X6400777Y-22592140D01*
X6400777Y-22592140D02*
X6419825Y-22601664D01*
X6419825Y-22601664D02*
X6457920Y-22601664D01*
X6457920Y-22601664D02*
X6476968Y-22592140D01*
X6476968Y-22592140D02*
X6486491Y-22582616D01*
X6486491Y-22582616D02*
X6496015Y-22563568D01*
X6496015Y-22563568D02*
X6496015Y-22515949D01*
X6496015Y-22515949D02*
X6486491Y-22496902D01*
X6486491Y-22496902D02*
X6476968Y-22487378D01*
X6476968Y-22487378D02*
X6457920Y-22477854D01*
X6457920Y-22477854D02*
X6419825Y-22477854D01*
X6419825Y-22477854D02*
X6400777Y-22487378D01*
X6400777Y-22487378D02*
X6391253Y-22496902D01*
X6391253Y-22496902D02*
X6381729Y-22515949D01*
X6734110Y-22601664D02*
X6734110Y-22401664D01*
X6819825Y-22601664D02*
X6819825Y-22496902D01*
X6819825Y-22496902D02*
X6810301Y-22477854D01*
X6810301Y-22477854D02*
X6791253Y-22468330D01*
X6791253Y-22468330D02*
X6762682Y-22468330D01*
X6762682Y-22468330D02*
X6743634Y-22477854D01*
X6743634Y-22477854D02*
X6734110Y-22487378D01*
X6943634Y-22601664D02*
X6924587Y-22592140D01*
X6924587Y-22592140D02*
X6915063Y-22582616D01*
X6915063Y-22582616D02*
X6905539Y-22563568D01*
X6905539Y-22563568D02*
X6905539Y-22506426D01*
X6905539Y-22506426D02*
X6915063Y-22487378D01*
X6915063Y-22487378D02*
X6924587Y-22477854D01*
X6924587Y-22477854D02*
X6943634Y-22468330D01*
X6943634Y-22468330D02*
X6972206Y-22468330D01*
X6972206Y-22468330D02*
X6991253Y-22477854D01*
X6991253Y-22477854D02*
X7000777Y-22487378D01*
X7000777Y-22487378D02*
X7010301Y-22506426D01*
X7010301Y-22506426D02*
X7010301Y-22563568D01*
X7010301Y-22563568D02*
X7000777Y-22582616D01*
X7000777Y-22582616D02*
X6991253Y-22592140D01*
X6991253Y-22592140D02*
X6972206Y-22601664D01*
X6972206Y-22601664D02*
X6943634Y-22601664D01*
X7124587Y-22601664D02*
X7105539Y-22592140D01*
X7105539Y-22592140D02*
X7096015Y-22573092D01*
X7096015Y-22573092D02*
X7096015Y-22401664D01*
X7276968Y-22592140D02*
X7257920Y-22601664D01*
X7257920Y-22601664D02*
X7219825Y-22601664D01*
X7219825Y-22601664D02*
X7200777Y-22592140D01*
X7200777Y-22592140D02*
X7191253Y-22573092D01*
X7191253Y-22573092D02*
X7191253Y-22496902D01*
X7191253Y-22496902D02*
X7200777Y-22477854D01*
X7200777Y-22477854D02*
X7219825Y-22468330D01*
X7219825Y-22468330D02*
X7257920Y-22468330D01*
X7257920Y-22468330D02*
X7276968Y-22477854D01*
X7276968Y-22477854D02*
X7286491Y-22496902D01*
X7286491Y-22496902D02*
X7286491Y-22515949D01*
X7286491Y-22515949D02*
X7191253Y-22534997D01*
X7362682Y-22592140D02*
X7381730Y-22601664D01*
X7381730Y-22601664D02*
X7419825Y-22601664D01*
X7419825Y-22601664D02*
X7438872Y-22592140D01*
X7438872Y-22592140D02*
X7448396Y-22573092D01*
X7448396Y-22573092D02*
X7448396Y-22563568D01*
X7448396Y-22563568D02*
X7438872Y-22544521D01*
X7438872Y-22544521D02*
X7419825Y-22534997D01*
X7419825Y-22534997D02*
X7391253Y-22534997D01*
X7391253Y-22534997D02*
X7372206Y-22525473D01*
X7372206Y-22525473D02*
X7362682Y-22506426D01*
X7362682Y-22506426D02*
X7362682Y-22496902D01*
X7362682Y-22496902D02*
X7372206Y-22477854D01*
X7372206Y-22477854D02*
X7391253Y-22468330D01*
X7391253Y-22468330D02*
X7419825Y-22468330D01*
X7419825Y-22468330D02*
X7438872Y-22477854D01*
X7515063Y-22677854D02*
X7524587Y-22668330D01*
X7524587Y-22668330D02*
X7543634Y-22639759D01*
X7543634Y-22639759D02*
X7553158Y-22620711D01*
X7553158Y-22620711D02*
X7562682Y-22592140D01*
X7562682Y-22592140D02*
X7572206Y-22544521D01*
X7572206Y-22544521D02*
X7572206Y-22506426D01*
X7572206Y-22506426D02*
X7562682Y-22458807D01*
X7562682Y-22458807D02*
X7553158Y-22430235D01*
X7553158Y-22430235D02*
X7543634Y-22411188D01*
X7543634Y-22411188D02*
X7524587Y-22382616D01*
X7524587Y-22382616D02*
X7515063Y-22373092D01*
X7876968Y-22677854D02*
X7867444Y-22668330D01*
X7867444Y-22668330D02*
X7848396Y-22639759D01*
X7848396Y-22639759D02*
X7838872Y-22620711D01*
X7838872Y-22620711D02*
X7829349Y-22592140D01*
X7829349Y-22592140D02*
X7819825Y-22544521D01*
X7819825Y-22544521D02*
X7819825Y-22506426D01*
X7819825Y-22506426D02*
X7829349Y-22458807D01*
X7829349Y-22458807D02*
X7838872Y-22430235D01*
X7838872Y-22430235D02*
X7848396Y-22411188D01*
X7848396Y-22411188D02*
X7867444Y-22382616D01*
X7867444Y-22382616D02*
X7876968Y-22373092D01*
X7953158Y-22468330D02*
X7953158Y-22601664D01*
X7953158Y-22487378D02*
X7962682Y-22477854D01*
X7962682Y-22477854D02*
X7981730Y-22468330D01*
X7981730Y-22468330D02*
X8010301Y-22468330D01*
X8010301Y-22468330D02*
X8029349Y-22477854D01*
X8029349Y-22477854D02*
X8038872Y-22496902D01*
X8038872Y-22496902D02*
X8038872Y-22601664D01*
X8162682Y-22601664D02*
X8143634Y-22592140D01*
X8143634Y-22592140D02*
X8134111Y-22582616D01*
X8134111Y-22582616D02*
X8124587Y-22563568D01*
X8124587Y-22563568D02*
X8124587Y-22506426D01*
X8124587Y-22506426D02*
X8134111Y-22487378D01*
X8134111Y-22487378D02*
X8143634Y-22477854D01*
X8143634Y-22477854D02*
X8162682Y-22468330D01*
X8162682Y-22468330D02*
X8191253Y-22468330D01*
X8191253Y-22468330D02*
X8210301Y-22477854D01*
X8210301Y-22477854D02*
X8219825Y-22487378D01*
X8219825Y-22487378D02*
X8229349Y-22506426D01*
X8229349Y-22506426D02*
X8229349Y-22563568D01*
X8229349Y-22563568D02*
X8219825Y-22582616D01*
X8219825Y-22582616D02*
X8210301Y-22592140D01*
X8210301Y-22592140D02*
X8191253Y-22601664D01*
X8191253Y-22601664D02*
X8162682Y-22601664D01*
X8286492Y-22468330D02*
X8362682Y-22468330D01*
X8315063Y-22401664D02*
X8315063Y-22573092D01*
X8315063Y-22573092D02*
X8324587Y-22592140D01*
X8324587Y-22592140D02*
X8343634Y-22601664D01*
X8343634Y-22601664D02*
X8362682Y-22601664D01*
X8581730Y-22468330D02*
X8581730Y-22668330D01*
X8581730Y-22477854D02*
X8600777Y-22468330D01*
X8600777Y-22468330D02*
X8638873Y-22468330D01*
X8638873Y-22468330D02*
X8657920Y-22477854D01*
X8657920Y-22477854D02*
X8667444Y-22487378D01*
X8667444Y-22487378D02*
X8676968Y-22506426D01*
X8676968Y-22506426D02*
X8676968Y-22563568D01*
X8676968Y-22563568D02*
X8667444Y-22582616D01*
X8667444Y-22582616D02*
X8657920Y-22592140D01*
X8657920Y-22592140D02*
X8638873Y-22601664D01*
X8638873Y-22601664D02*
X8600777Y-22601664D01*
X8600777Y-22601664D02*
X8581730Y-22592140D01*
X8791254Y-22601664D02*
X8772206Y-22592140D01*
X8772206Y-22592140D02*
X8762682Y-22573092D01*
X8762682Y-22573092D02*
X8762682Y-22401664D01*
X8953158Y-22601664D02*
X8953158Y-22496902D01*
X8953158Y-22496902D02*
X8943635Y-22477854D01*
X8943635Y-22477854D02*
X8924587Y-22468330D01*
X8924587Y-22468330D02*
X8886492Y-22468330D01*
X8886492Y-22468330D02*
X8867444Y-22477854D01*
X8953158Y-22592140D02*
X8934111Y-22601664D01*
X8934111Y-22601664D02*
X8886492Y-22601664D01*
X8886492Y-22601664D02*
X8867444Y-22592140D01*
X8867444Y-22592140D02*
X8857920Y-22573092D01*
X8857920Y-22573092D02*
X8857920Y-22554045D01*
X8857920Y-22554045D02*
X8867444Y-22534997D01*
X8867444Y-22534997D02*
X8886492Y-22525473D01*
X8886492Y-22525473D02*
X8934111Y-22525473D01*
X8934111Y-22525473D02*
X8953158Y-22515949D01*
X9019825Y-22468330D02*
X9096015Y-22468330D01*
X9048396Y-22401664D02*
X9048396Y-22573092D01*
X9048396Y-22573092D02*
X9057920Y-22592140D01*
X9057920Y-22592140D02*
X9076968Y-22601664D01*
X9076968Y-22601664D02*
X9096015Y-22601664D01*
X9238873Y-22592140D02*
X9219825Y-22601664D01*
X9219825Y-22601664D02*
X9181730Y-22601664D01*
X9181730Y-22601664D02*
X9162682Y-22592140D01*
X9162682Y-22592140D02*
X9153158Y-22573092D01*
X9153158Y-22573092D02*
X9153158Y-22496902D01*
X9153158Y-22496902D02*
X9162682Y-22477854D01*
X9162682Y-22477854D02*
X9181730Y-22468330D01*
X9181730Y-22468330D02*
X9219825Y-22468330D01*
X9219825Y-22468330D02*
X9238873Y-22477854D01*
X9238873Y-22477854D02*
X9248396Y-22496902D01*
X9248396Y-22496902D02*
X9248396Y-22515949D01*
X9248396Y-22515949D02*
X9153158Y-22534997D01*
X9419825Y-22601664D02*
X9419825Y-22401664D01*
X9419825Y-22592140D02*
X9400777Y-22601664D01*
X9400777Y-22601664D02*
X9362682Y-22601664D01*
X9362682Y-22601664D02*
X9343635Y-22592140D01*
X9343635Y-22592140D02*
X9334111Y-22582616D01*
X9334111Y-22582616D02*
X9324587Y-22563568D01*
X9324587Y-22563568D02*
X9324587Y-22506426D01*
X9324587Y-22506426D02*
X9334111Y-22487378D01*
X9334111Y-22487378D02*
X9343635Y-22477854D01*
X9343635Y-22477854D02*
X9362682Y-22468330D01*
X9362682Y-22468330D02*
X9400777Y-22468330D01*
X9400777Y-22468330D02*
X9419825Y-22477854D01*
X9496016Y-22677854D02*
X9505539Y-22668330D01*
X9505539Y-22668330D02*
X9524587Y-22639759D01*
X9524587Y-22639759D02*
X9534111Y-22620711D01*
X9534111Y-22620711D02*
X9543635Y-22592140D01*
X9543635Y-22592140D02*
X9553158Y-22544521D01*
X9553158Y-22544521D02*
X9553158Y-22506426D01*
X9553158Y-22506426D02*
X9543635Y-22458807D01*
X9543635Y-22458807D02*
X9534111Y-22430235D01*
X9534111Y-22430235D02*
X9524587Y-22411188D01*
X9524587Y-22411188D02*
X9505539Y-22382616D01*
X9505539Y-22382616D02*
X9496016Y-22373092D01*
X2710711Y-22900891D02*
X2710711Y-22759469D01*
X2569289Y-22759469D01*
X2569289Y-22900891D01*
X2710711Y-22900891D01*
X2981729Y-22721664D02*
X3105539Y-22721664D01*
X3105539Y-22721664D02*
X3038872Y-22797854D01*
X3038872Y-22797854D02*
X3067443Y-22797854D01*
X3067443Y-22797854D02*
X3086491Y-22807378D01*
X3086491Y-22807378D02*
X3096015Y-22816902D01*
X3096015Y-22816902D02*
X3105539Y-22835949D01*
X3105539Y-22835949D02*
X3105539Y-22883568D01*
X3105539Y-22883568D02*
X3096015Y-22902616D01*
X3096015Y-22902616D02*
X3086491Y-22912140D01*
X3086491Y-22912140D02*
X3067443Y-22921664D01*
X3067443Y-22921664D02*
X3010301Y-22921664D01*
X3010301Y-22921664D02*
X2991253Y-22912140D01*
X2991253Y-22912140D02*
X2981729Y-22902616D01*
X3191253Y-22902616D02*
X3200777Y-22912140D01*
X3200777Y-22912140D02*
X3191253Y-22921664D01*
X3191253Y-22921664D02*
X3181729Y-22912140D01*
X3181729Y-22912140D02*
X3191253Y-22902616D01*
X3191253Y-22902616D02*
X3191253Y-22921664D01*
X3296015Y-22921664D02*
X3334110Y-22921664D01*
X3334110Y-22921664D02*
X3353158Y-22912140D01*
X3353158Y-22912140D02*
X3362682Y-22902616D01*
X3362682Y-22902616D02*
X3381729Y-22874045D01*
X3381729Y-22874045D02*
X3391253Y-22835949D01*
X3391253Y-22835949D02*
X3391253Y-22759759D01*
X3391253Y-22759759D02*
X3381729Y-22740711D01*
X3381729Y-22740711D02*
X3372205Y-22731188D01*
X3372205Y-22731188D02*
X3353158Y-22721664D01*
X3353158Y-22721664D02*
X3315062Y-22721664D01*
X3315062Y-22721664D02*
X3296015Y-22731188D01*
X3296015Y-22731188D02*
X3286491Y-22740711D01*
X3286491Y-22740711D02*
X3276967Y-22759759D01*
X3276967Y-22759759D02*
X3276967Y-22807378D01*
X3276967Y-22807378D02*
X3286491Y-22826426D01*
X3286491Y-22826426D02*
X3296015Y-22835949D01*
X3296015Y-22835949D02*
X3315062Y-22845473D01*
X3315062Y-22845473D02*
X3353158Y-22845473D01*
X3353158Y-22845473D02*
X3372205Y-22835949D01*
X3372205Y-22835949D02*
X3381729Y-22826426D01*
X3381729Y-22826426D02*
X3391253Y-22807378D01*
X3505539Y-22807378D02*
X3486491Y-22797854D01*
X3486491Y-22797854D02*
X3476967Y-22788330D01*
X3476967Y-22788330D02*
X3467443Y-22769283D01*
X3467443Y-22769283D02*
X3467443Y-22759759D01*
X3467443Y-22759759D02*
X3476967Y-22740711D01*
X3476967Y-22740711D02*
X3486491Y-22731188D01*
X3486491Y-22731188D02*
X3505539Y-22721664D01*
X3505539Y-22721664D02*
X3543634Y-22721664D01*
X3543634Y-22721664D02*
X3562682Y-22731188D01*
X3562682Y-22731188D02*
X3572205Y-22740711D01*
X3572205Y-22740711D02*
X3581729Y-22759759D01*
X3581729Y-22759759D02*
X3581729Y-22769283D01*
X3581729Y-22769283D02*
X3572205Y-22788330D01*
X3572205Y-22788330D02*
X3562682Y-22797854D01*
X3562682Y-22797854D02*
X3543634Y-22807378D01*
X3543634Y-22807378D02*
X3505539Y-22807378D01*
X3505539Y-22807378D02*
X3486491Y-22816902D01*
X3486491Y-22816902D02*
X3476967Y-22826426D01*
X3476967Y-22826426D02*
X3467443Y-22845473D01*
X3467443Y-22845473D02*
X3467443Y-22883568D01*
X3467443Y-22883568D02*
X3476967Y-22902616D01*
X3476967Y-22902616D02*
X3486491Y-22912140D01*
X3486491Y-22912140D02*
X3505539Y-22921664D01*
X3505539Y-22921664D02*
X3543634Y-22921664D01*
X3543634Y-22921664D02*
X3562682Y-22912140D01*
X3562682Y-22912140D02*
X3572205Y-22902616D01*
X3572205Y-22902616D02*
X3581729Y-22883568D01*
X3581729Y-22883568D02*
X3581729Y-22845473D01*
X3581729Y-22845473D02*
X3572205Y-22826426D01*
X3572205Y-22826426D02*
X3562682Y-22816902D01*
X3562682Y-22816902D02*
X3543634Y-22807378D01*
X3696015Y-22807378D02*
X3676967Y-22797854D01*
X3676967Y-22797854D02*
X3667443Y-22788330D01*
X3667443Y-22788330D02*
X3657920Y-22769283D01*
X3657920Y-22769283D02*
X3657920Y-22759759D01*
X3657920Y-22759759D02*
X3667443Y-22740711D01*
X3667443Y-22740711D02*
X3676967Y-22731188D01*
X3676967Y-22731188D02*
X3696015Y-22721664D01*
X3696015Y-22721664D02*
X3734110Y-22721664D01*
X3734110Y-22721664D02*
X3753158Y-22731188D01*
X3753158Y-22731188D02*
X3762682Y-22740711D01*
X3762682Y-22740711D02*
X3772205Y-22759759D01*
X3772205Y-22759759D02*
X3772205Y-22769283D01*
X3772205Y-22769283D02*
X3762682Y-22788330D01*
X3762682Y-22788330D02*
X3753158Y-22797854D01*
X3753158Y-22797854D02*
X3734110Y-22807378D01*
X3734110Y-22807378D02*
X3696015Y-22807378D01*
X3696015Y-22807378D02*
X3676967Y-22816902D01*
X3676967Y-22816902D02*
X3667443Y-22826426D01*
X3667443Y-22826426D02*
X3657920Y-22845473D01*
X3657920Y-22845473D02*
X3657920Y-22883568D01*
X3657920Y-22883568D02*
X3667443Y-22902616D01*
X3667443Y-22902616D02*
X3676967Y-22912140D01*
X3676967Y-22912140D02*
X3696015Y-22921664D01*
X3696015Y-22921664D02*
X3734110Y-22921664D01*
X3734110Y-22921664D02*
X3753158Y-22912140D01*
X3753158Y-22912140D02*
X3762682Y-22902616D01*
X3762682Y-22902616D02*
X3772205Y-22883568D01*
X3772205Y-22883568D02*
X3772205Y-22845473D01*
X3772205Y-22845473D02*
X3762682Y-22826426D01*
X3762682Y-22826426D02*
X3753158Y-22816902D01*
X3753158Y-22816902D02*
X3734110Y-22807378D01*
X3857920Y-22921664D02*
X3857920Y-22788330D01*
X3857920Y-22807378D02*
X3867443Y-22797854D01*
X3867443Y-22797854D02*
X3886491Y-22788330D01*
X3886491Y-22788330D02*
X3915063Y-22788330D01*
X3915063Y-22788330D02*
X3934110Y-22797854D01*
X3934110Y-22797854D02*
X3943634Y-22816902D01*
X3943634Y-22816902D02*
X3943634Y-22921664D01*
X3943634Y-22816902D02*
X3953158Y-22797854D01*
X3953158Y-22797854D02*
X3972205Y-22788330D01*
X3972205Y-22788330D02*
X4000777Y-22788330D01*
X4000777Y-22788330D02*
X4019824Y-22797854D01*
X4019824Y-22797854D02*
X4029348Y-22816902D01*
X4029348Y-22816902D02*
X4029348Y-22921664D01*
X4124586Y-22921664D02*
X4124586Y-22788330D01*
X4124586Y-22807378D02*
X4134110Y-22797854D01*
X4134110Y-22797854D02*
X4153158Y-22788330D01*
X4153158Y-22788330D02*
X4181729Y-22788330D01*
X4181729Y-22788330D02*
X4200777Y-22797854D01*
X4200777Y-22797854D02*
X4210301Y-22816902D01*
X4210301Y-22816902D02*
X4210301Y-22921664D01*
X4210301Y-22816902D02*
X4219825Y-22797854D01*
X4219825Y-22797854D02*
X4238872Y-22788330D01*
X4238872Y-22788330D02*
X4267444Y-22788330D01*
X4267444Y-22788330D02*
X4286491Y-22797854D01*
X4286491Y-22797854D02*
X4296015Y-22816902D01*
X4296015Y-22816902D02*
X4296015Y-22921664D01*
X4686491Y-22712140D02*
X4515063Y-22969283D01*
X4943634Y-22721664D02*
X4962682Y-22721664D01*
X4962682Y-22721664D02*
X4981729Y-22731188D01*
X4981729Y-22731188D02*
X4991253Y-22740711D01*
X4991253Y-22740711D02*
X5000777Y-22759759D01*
X5000777Y-22759759D02*
X5010301Y-22797854D01*
X5010301Y-22797854D02*
X5010301Y-22845473D01*
X5010301Y-22845473D02*
X5000777Y-22883568D01*
X5000777Y-22883568D02*
X4991253Y-22902616D01*
X4991253Y-22902616D02*
X4981729Y-22912140D01*
X4981729Y-22912140D02*
X4962682Y-22921664D01*
X4962682Y-22921664D02*
X4943634Y-22921664D01*
X4943634Y-22921664D02*
X4924587Y-22912140D01*
X4924587Y-22912140D02*
X4915063Y-22902616D01*
X4915063Y-22902616D02*
X4905539Y-22883568D01*
X4905539Y-22883568D02*
X4896015Y-22845473D01*
X4896015Y-22845473D02*
X4896015Y-22797854D01*
X4896015Y-22797854D02*
X4905539Y-22759759D01*
X4905539Y-22759759D02*
X4915063Y-22740711D01*
X4915063Y-22740711D02*
X4924587Y-22731188D01*
X4924587Y-22731188D02*
X4943634Y-22721664D01*
X5096015Y-22902616D02*
X5105539Y-22912140D01*
X5105539Y-22912140D02*
X5096015Y-22921664D01*
X5096015Y-22921664D02*
X5086491Y-22912140D01*
X5086491Y-22912140D02*
X5096015Y-22902616D01*
X5096015Y-22902616D02*
X5096015Y-22921664D01*
X5296015Y-22921664D02*
X5181729Y-22921664D01*
X5238872Y-22921664D02*
X5238872Y-22721664D01*
X5238872Y-22721664D02*
X5219825Y-22750235D01*
X5219825Y-22750235D02*
X5200777Y-22769283D01*
X5200777Y-22769283D02*
X5181729Y-22778807D01*
X5476968Y-22721664D02*
X5381729Y-22721664D01*
X5381729Y-22721664D02*
X5372206Y-22816902D01*
X5372206Y-22816902D02*
X5381729Y-22807378D01*
X5381729Y-22807378D02*
X5400777Y-22797854D01*
X5400777Y-22797854D02*
X5448396Y-22797854D01*
X5448396Y-22797854D02*
X5467444Y-22807378D01*
X5467444Y-22807378D02*
X5476968Y-22816902D01*
X5476968Y-22816902D02*
X5486491Y-22835949D01*
X5486491Y-22835949D02*
X5486491Y-22883568D01*
X5486491Y-22883568D02*
X5476968Y-22902616D01*
X5476968Y-22902616D02*
X5467444Y-22912140D01*
X5467444Y-22912140D02*
X5448396Y-22921664D01*
X5448396Y-22921664D02*
X5400777Y-22921664D01*
X5400777Y-22921664D02*
X5381729Y-22912140D01*
X5381729Y-22912140D02*
X5372206Y-22902616D01*
X5553158Y-22721664D02*
X5686491Y-22721664D01*
X5686491Y-22721664D02*
X5600777Y-22921664D01*
X5800777Y-22721664D02*
X5819825Y-22721664D01*
X5819825Y-22721664D02*
X5838872Y-22731188D01*
X5838872Y-22731188D02*
X5848396Y-22740711D01*
X5848396Y-22740711D02*
X5857920Y-22759759D01*
X5857920Y-22759759D02*
X5867444Y-22797854D01*
X5867444Y-22797854D02*
X5867444Y-22845473D01*
X5867444Y-22845473D02*
X5857920Y-22883568D01*
X5857920Y-22883568D02*
X5848396Y-22902616D01*
X5848396Y-22902616D02*
X5838872Y-22912140D01*
X5838872Y-22912140D02*
X5819825Y-22921664D01*
X5819825Y-22921664D02*
X5800777Y-22921664D01*
X5800777Y-22921664D02*
X5781729Y-22912140D01*
X5781729Y-22912140D02*
X5772206Y-22902616D01*
X5772206Y-22902616D02*
X5762682Y-22883568D01*
X5762682Y-22883568D02*
X5753158Y-22845473D01*
X5753158Y-22845473D02*
X5753158Y-22797854D01*
X5753158Y-22797854D02*
X5762682Y-22759759D01*
X5762682Y-22759759D02*
X5772206Y-22740711D01*
X5772206Y-22740711D02*
X5781729Y-22731188D01*
X5781729Y-22731188D02*
X5800777Y-22721664D01*
X5943634Y-22721664D02*
X5943634Y-22759759D01*
X6019825Y-22721664D02*
X6019825Y-22759759D01*
X6315063Y-22997854D02*
X6305539Y-22988330D01*
X6305539Y-22988330D02*
X6286491Y-22959759D01*
X6286491Y-22959759D02*
X6276968Y-22940711D01*
X6276968Y-22940711D02*
X6267444Y-22912140D01*
X6267444Y-22912140D02*
X6257920Y-22864521D01*
X6257920Y-22864521D02*
X6257920Y-22826426D01*
X6257920Y-22826426D02*
X6267444Y-22778807D01*
X6267444Y-22778807D02*
X6276968Y-22750235D01*
X6276968Y-22750235D02*
X6286491Y-22731188D01*
X6286491Y-22731188D02*
X6305539Y-22702616D01*
X6305539Y-22702616D02*
X6315063Y-22693092D01*
X6381729Y-22740711D02*
X6391253Y-22731188D01*
X6391253Y-22731188D02*
X6410301Y-22721664D01*
X6410301Y-22721664D02*
X6457920Y-22721664D01*
X6457920Y-22721664D02*
X6476968Y-22731188D01*
X6476968Y-22731188D02*
X6486491Y-22740711D01*
X6486491Y-22740711D02*
X6496015Y-22759759D01*
X6496015Y-22759759D02*
X6496015Y-22778807D01*
X6496015Y-22778807D02*
X6486491Y-22807378D01*
X6486491Y-22807378D02*
X6372206Y-22921664D01*
X6372206Y-22921664D02*
X6496015Y-22921664D01*
X6562682Y-22721664D02*
X6686491Y-22721664D01*
X6686491Y-22721664D02*
X6619825Y-22797854D01*
X6619825Y-22797854D02*
X6648396Y-22797854D01*
X6648396Y-22797854D02*
X6667444Y-22807378D01*
X6667444Y-22807378D02*
X6676968Y-22816902D01*
X6676968Y-22816902D02*
X6686491Y-22835949D01*
X6686491Y-22835949D02*
X6686491Y-22883568D01*
X6686491Y-22883568D02*
X6676968Y-22902616D01*
X6676968Y-22902616D02*
X6667444Y-22912140D01*
X6667444Y-22912140D02*
X6648396Y-22921664D01*
X6648396Y-22921664D02*
X6591253Y-22921664D01*
X6591253Y-22921664D02*
X6572206Y-22912140D01*
X6572206Y-22912140D02*
X6562682Y-22902616D01*
X6924587Y-22921664D02*
X6924587Y-22721664D01*
X7010301Y-22921664D02*
X7010301Y-22816902D01*
X7010301Y-22816902D02*
X7000777Y-22797854D01*
X7000777Y-22797854D02*
X6981730Y-22788330D01*
X6981730Y-22788330D02*
X6953158Y-22788330D01*
X6953158Y-22788330D02*
X6934110Y-22797854D01*
X6934110Y-22797854D02*
X6924587Y-22807378D01*
X7134110Y-22921664D02*
X7115063Y-22912140D01*
X7115063Y-22912140D02*
X7105539Y-22902616D01*
X7105539Y-22902616D02*
X7096015Y-22883568D01*
X7096015Y-22883568D02*
X7096015Y-22826426D01*
X7096015Y-22826426D02*
X7105539Y-22807378D01*
X7105539Y-22807378D02*
X7115063Y-22797854D01*
X7115063Y-22797854D02*
X7134110Y-22788330D01*
X7134110Y-22788330D02*
X7162682Y-22788330D01*
X7162682Y-22788330D02*
X7181730Y-22797854D01*
X7181730Y-22797854D02*
X7191253Y-22807378D01*
X7191253Y-22807378D02*
X7200777Y-22826426D01*
X7200777Y-22826426D02*
X7200777Y-22883568D01*
X7200777Y-22883568D02*
X7191253Y-22902616D01*
X7191253Y-22902616D02*
X7181730Y-22912140D01*
X7181730Y-22912140D02*
X7162682Y-22921664D01*
X7162682Y-22921664D02*
X7134110Y-22921664D01*
X7315063Y-22921664D02*
X7296015Y-22912140D01*
X7296015Y-22912140D02*
X7286491Y-22893092D01*
X7286491Y-22893092D02*
X7286491Y-22721664D01*
X7467444Y-22912140D02*
X7448396Y-22921664D01*
X7448396Y-22921664D02*
X7410301Y-22921664D01*
X7410301Y-22921664D02*
X7391253Y-22912140D01*
X7391253Y-22912140D02*
X7381730Y-22893092D01*
X7381730Y-22893092D02*
X7381730Y-22816902D01*
X7381730Y-22816902D02*
X7391253Y-22797854D01*
X7391253Y-22797854D02*
X7410301Y-22788330D01*
X7410301Y-22788330D02*
X7448396Y-22788330D01*
X7448396Y-22788330D02*
X7467444Y-22797854D01*
X7467444Y-22797854D02*
X7476968Y-22816902D01*
X7476968Y-22816902D02*
X7476968Y-22835949D01*
X7476968Y-22835949D02*
X7381730Y-22854997D01*
X7553158Y-22912140D02*
X7572206Y-22921664D01*
X7572206Y-22921664D02*
X7610301Y-22921664D01*
X7610301Y-22921664D02*
X7629349Y-22912140D01*
X7629349Y-22912140D02*
X7638872Y-22893092D01*
X7638872Y-22893092D02*
X7638872Y-22883568D01*
X7638872Y-22883568D02*
X7629349Y-22864521D01*
X7629349Y-22864521D02*
X7610301Y-22854997D01*
X7610301Y-22854997D02*
X7581730Y-22854997D01*
X7581730Y-22854997D02*
X7562682Y-22845473D01*
X7562682Y-22845473D02*
X7553158Y-22826426D01*
X7553158Y-22826426D02*
X7553158Y-22816902D01*
X7553158Y-22816902D02*
X7562682Y-22797854D01*
X7562682Y-22797854D02*
X7581730Y-22788330D01*
X7581730Y-22788330D02*
X7610301Y-22788330D01*
X7610301Y-22788330D02*
X7629349Y-22797854D01*
X7705539Y-22997854D02*
X7715063Y-22988330D01*
X7715063Y-22988330D02*
X7734111Y-22959759D01*
X7734111Y-22959759D02*
X7743634Y-22940711D01*
X7743634Y-22940711D02*
X7753158Y-22912140D01*
X7753158Y-22912140D02*
X7762682Y-22864521D01*
X7762682Y-22864521D02*
X7762682Y-22826426D01*
X7762682Y-22826426D02*
X7753158Y-22778807D01*
X7753158Y-22778807D02*
X7743634Y-22750235D01*
X7743634Y-22750235D02*
X7734111Y-22731188D01*
X7734111Y-22731188D02*
X7715063Y-22702616D01*
X7715063Y-22702616D02*
X7705539Y-22693092D01*
X8067444Y-22997854D02*
X8057920Y-22988330D01*
X8057920Y-22988330D02*
X8038872Y-22959759D01*
X8038872Y-22959759D02*
X8029349Y-22940711D01*
X8029349Y-22940711D02*
X8019825Y-22912140D01*
X8019825Y-22912140D02*
X8010301Y-22864521D01*
X8010301Y-22864521D02*
X8010301Y-22826426D01*
X8010301Y-22826426D02*
X8019825Y-22778807D01*
X8019825Y-22778807D02*
X8029349Y-22750235D01*
X8029349Y-22750235D02*
X8038872Y-22731188D01*
X8038872Y-22731188D02*
X8057920Y-22702616D01*
X8057920Y-22702616D02*
X8067444Y-22693092D01*
X8143634Y-22788330D02*
X8143634Y-22921664D01*
X8143634Y-22807378D02*
X8153158Y-22797854D01*
X8153158Y-22797854D02*
X8172206Y-22788330D01*
X8172206Y-22788330D02*
X8200777Y-22788330D01*
X8200777Y-22788330D02*
X8219825Y-22797854D01*
X8219825Y-22797854D02*
X8229349Y-22816902D01*
X8229349Y-22816902D02*
X8229349Y-22921664D01*
X8353158Y-22921664D02*
X8334111Y-22912140D01*
X8334111Y-22912140D02*
X8324587Y-22902616D01*
X8324587Y-22902616D02*
X8315063Y-22883568D01*
X8315063Y-22883568D02*
X8315063Y-22826426D01*
X8315063Y-22826426D02*
X8324587Y-22807378D01*
X8324587Y-22807378D02*
X8334111Y-22797854D01*
X8334111Y-22797854D02*
X8353158Y-22788330D01*
X8353158Y-22788330D02*
X8381730Y-22788330D01*
X8381730Y-22788330D02*
X8400777Y-22797854D01*
X8400777Y-22797854D02*
X8410301Y-22807378D01*
X8410301Y-22807378D02*
X8419825Y-22826426D01*
X8419825Y-22826426D02*
X8419825Y-22883568D01*
X8419825Y-22883568D02*
X8410301Y-22902616D01*
X8410301Y-22902616D02*
X8400777Y-22912140D01*
X8400777Y-22912140D02*
X8381730Y-22921664D01*
X8381730Y-22921664D02*
X8353158Y-22921664D01*
X8476968Y-22788330D02*
X8553158Y-22788330D01*
X8505539Y-22721664D02*
X8505539Y-22893092D01*
X8505539Y-22893092D02*
X8515063Y-22912140D01*
X8515063Y-22912140D02*
X8534111Y-22921664D01*
X8534111Y-22921664D02*
X8553158Y-22921664D01*
X8772206Y-22788330D02*
X8772206Y-22988330D01*
X8772206Y-22797854D02*
X8791254Y-22788330D01*
X8791254Y-22788330D02*
X8829349Y-22788330D01*
X8829349Y-22788330D02*
X8848396Y-22797854D01*
X8848396Y-22797854D02*
X8857920Y-22807378D01*
X8857920Y-22807378D02*
X8867444Y-22826426D01*
X8867444Y-22826426D02*
X8867444Y-22883568D01*
X8867444Y-22883568D02*
X8857920Y-22902616D01*
X8857920Y-22902616D02*
X8848396Y-22912140D01*
X8848396Y-22912140D02*
X8829349Y-22921664D01*
X8829349Y-22921664D02*
X8791254Y-22921664D01*
X8791254Y-22921664D02*
X8772206Y-22912140D01*
X8981730Y-22921664D02*
X8962682Y-22912140D01*
X8962682Y-22912140D02*
X8953158Y-22893092D01*
X8953158Y-22893092D02*
X8953158Y-22721664D01*
X9143635Y-22921664D02*
X9143635Y-22816902D01*
X9143635Y-22816902D02*
X9134111Y-22797854D01*
X9134111Y-22797854D02*
X9115063Y-22788330D01*
X9115063Y-22788330D02*
X9076968Y-22788330D01*
X9076968Y-22788330D02*
X9057920Y-22797854D01*
X9143635Y-22912140D02*
X9124587Y-22921664D01*
X9124587Y-22921664D02*
X9076968Y-22921664D01*
X9076968Y-22921664D02*
X9057920Y-22912140D01*
X9057920Y-22912140D02*
X9048396Y-22893092D01*
X9048396Y-22893092D02*
X9048396Y-22874045D01*
X9048396Y-22874045D02*
X9057920Y-22854997D01*
X9057920Y-22854997D02*
X9076968Y-22845473D01*
X9076968Y-22845473D02*
X9124587Y-22845473D01*
X9124587Y-22845473D02*
X9143635Y-22835949D01*
X9210301Y-22788330D02*
X9286492Y-22788330D01*
X9238873Y-22721664D02*
X9238873Y-22893092D01*
X9238873Y-22893092D02*
X9248396Y-22912140D01*
X9248396Y-22912140D02*
X9267444Y-22921664D01*
X9267444Y-22921664D02*
X9286492Y-22921664D01*
X9429349Y-22912140D02*
X9410301Y-22921664D01*
X9410301Y-22921664D02*
X9372206Y-22921664D01*
X9372206Y-22921664D02*
X9353158Y-22912140D01*
X9353158Y-22912140D02*
X9343635Y-22893092D01*
X9343635Y-22893092D02*
X9343635Y-22816902D01*
X9343635Y-22816902D02*
X9353158Y-22797854D01*
X9353158Y-22797854D02*
X9372206Y-22788330D01*
X9372206Y-22788330D02*
X9410301Y-22788330D01*
X9410301Y-22788330D02*
X9429349Y-22797854D01*
X9429349Y-22797854D02*
X9438873Y-22816902D01*
X9438873Y-22816902D02*
X9438873Y-22835949D01*
X9438873Y-22835949D02*
X9343635Y-22854997D01*
X9610301Y-22921664D02*
X9610301Y-22721664D01*
X9610301Y-22912140D02*
X9591254Y-22921664D01*
X9591254Y-22921664D02*
X9553158Y-22921664D01*
X9553158Y-22921664D02*
X9534111Y-22912140D01*
X9534111Y-22912140D02*
X9524587Y-22902616D01*
X9524587Y-22902616D02*
X9515063Y-22883568D01*
X9515063Y-22883568D02*
X9515063Y-22826426D01*
X9515063Y-22826426D02*
X9524587Y-22807378D01*
X9524587Y-22807378D02*
X9534111Y-22797854D01*
X9534111Y-22797854D02*
X9553158Y-22788330D01*
X9553158Y-22788330D02*
X9591254Y-22788330D01*
X9591254Y-22788330D02*
X9610301Y-22797854D01*
X9686492Y-22997854D02*
X9696016Y-22988330D01*
X9696016Y-22988330D02*
X9715063Y-22959759D01*
X9715063Y-22959759D02*
X9724587Y-22940711D01*
X9724587Y-22940711D02*
X9734111Y-22912140D01*
X9734111Y-22912140D02*
X9743635Y-22864521D01*
X9743635Y-22864521D02*
X9743635Y-22826426D01*
X9743635Y-22826426D02*
X9734111Y-22778807D01*
X9734111Y-22778807D02*
X9724587Y-22750235D01*
X9724587Y-22750235D02*
X9715063Y-22731188D01*
X9715063Y-22731188D02*
X9696016Y-22702616D01*
X9696016Y-22702616D02*
X9686492Y-22693092D01*
M02*
