%TF.GenerationSoftware,KiCad,Pcbnew,8.0.3-8.0.3-0~ubuntu22.04.1*%
%TF.CreationDate,2024-06-24T23:45:44-04:00*%
%TF.ProjectId,travis_num2024-routed2,74726176-6973-45f6-9e75-6d323032342d,2024.06.23*%
%TF.SameCoordinates,Original*%
%TF.FileFunction,Drillmap*%
%TF.FilePolarity,Positive*%
%FSLAX45Y45*%
G04 Gerber Fmt 4.5, Leading zero omitted, Abs format (unit mm)*
G04 Created by KiCad (PCBNEW 8.0.3-8.0.3-0~ubuntu22.04.1) date 2024-06-24 23:45:44*
%MOMM*%
%LPD*%
G01*
G04 APERTURE LIST*
%ADD10C,0.150000*%
%ADD11C,0.120000*%
%ADD12C,0.200000*%
%ADD13C,0.100000*%
%ADD14C,0.109220*%
%ADD15C,0.220000*%
G04 APERTURE END LIST*
D10*
X3247500Y-7475000D02*
X10767500Y-7475000D01*
X11267500Y-7975000D02*
X11267500Y-20752500D01*
X10767500Y-21252500D02*
X3247500Y-21252500D01*
X2747500Y-20752500D02*
X2747500Y-7975000D01*
X3247500Y-21252500D02*
G75*
G02*
X2747500Y-20752500I0J500000D01*
G01*
X2747500Y-7975000D02*
G75*
G02*
X3247500Y-7475000I500000J0D01*
G01*
X10767500Y-7475000D02*
G75*
G02*
X11267500Y-7975000I0J-500000D01*
G01*
X11267500Y-20752500D02*
G75*
G02*
X10767500Y-21252500I-500000J0D01*
G01*
D11*
X3820000Y-10193750D02*
X3820000Y-10503750D01*
X3820000Y-10503750D02*
X4180000Y-10503750D01*
X4180000Y-10193750D02*
X3820000Y-10193750D01*
X4180000Y-10503750D02*
X4180000Y-10193750D01*
X7830000Y-15339000D02*
X7830000Y-15649000D01*
X7830000Y-15649000D02*
X8190000Y-15649000D01*
X8190000Y-15339000D02*
X7830000Y-15339000D01*
X8190000Y-15649000D02*
X8190000Y-15339000D01*
X7830000Y-11329000D02*
X7830000Y-11639000D01*
X7830000Y-11639000D02*
X8190000Y-11639000D01*
X8190000Y-11329000D02*
X7830000Y-11329000D01*
X8190000Y-11639000D02*
X8190000Y-11329000D01*
X7830000Y-17344000D02*
X7830000Y-17654000D01*
X7830000Y-17654000D02*
X8190000Y-17654000D01*
X8190000Y-17344000D02*
X7830000Y-17344000D01*
X8190000Y-17654000D02*
X8190000Y-17344000D01*
X9835000Y-10193750D02*
X9835000Y-10503750D01*
X9835000Y-10503750D02*
X10195000Y-10503750D01*
X10195000Y-10193750D02*
X9835000Y-10193750D01*
X10195000Y-10503750D02*
X10195000Y-10193750D01*
X3820000Y-17344000D02*
X3820000Y-17654000D01*
X3820000Y-17654000D02*
X4180000Y-17654000D01*
X4180000Y-17344000D02*
X3820000Y-17344000D01*
X4180000Y-17654000D02*
X4180000Y-17344000D01*
X7830000Y-10193750D02*
X7830000Y-10503750D01*
X7830000Y-10503750D02*
X8190000Y-10503750D01*
X8190000Y-10193750D02*
X7830000Y-10193750D01*
X8190000Y-10503750D02*
X8190000Y-10193750D01*
X5825000Y-10193750D02*
X5825000Y-10503750D01*
X5825000Y-10503750D02*
X6185000Y-10503750D01*
X6185000Y-10193750D02*
X5825000Y-10193750D01*
X6185000Y-10503750D02*
X6185000Y-10193750D01*
X3820000Y-11329000D02*
X3820000Y-11639000D01*
X3820000Y-11639000D02*
X4180000Y-11639000D01*
X4180000Y-11329000D02*
X3820000Y-11329000D01*
X4180000Y-11639000D02*
X4180000Y-11329000D01*
X7830000Y-19349000D02*
X7830000Y-19659000D01*
X7830000Y-19659000D02*
X8190000Y-19659000D01*
X8190000Y-19349000D02*
X7830000Y-19349000D01*
X8190000Y-19659000D02*
X8190000Y-19349000D01*
X9364000Y-18817500D02*
X9364000Y-19177500D01*
X9364000Y-19177500D02*
X9674000Y-19177500D01*
X9674000Y-18817500D02*
X9364000Y-18817500D01*
X9674000Y-19177500D02*
X9674000Y-18817500D01*
X3820000Y-13334000D02*
X3820000Y-13644000D01*
X3820000Y-13644000D02*
X4180000Y-13644000D01*
X4180000Y-13334000D02*
X3820000Y-13334000D01*
X4180000Y-13644000D02*
X4180000Y-13334000D01*
X5825000Y-15339000D02*
X5825000Y-15649000D01*
X5825000Y-15649000D02*
X6185000Y-15649000D01*
X6185000Y-15339000D02*
X5825000Y-15339000D01*
X6185000Y-15649000D02*
X6185000Y-15339000D01*
X9835000Y-11329000D02*
X9835000Y-11639000D01*
X9835000Y-11639000D02*
X10195000Y-11639000D01*
X10195000Y-11329000D02*
X9835000Y-11329000D01*
X10195000Y-11639000D02*
X10195000Y-11329000D01*
X5825000Y-11329000D02*
X5825000Y-11639000D01*
X5825000Y-11639000D02*
X6185000Y-11639000D01*
X6185000Y-11329000D02*
X5825000Y-11329000D01*
X6185000Y-11639000D02*
X6185000Y-11329000D01*
X5825000Y-17344000D02*
X5825000Y-17654000D01*
X5825000Y-17654000D02*
X6185000Y-17654000D01*
X6185000Y-17344000D02*
X5825000Y-17344000D01*
X6185000Y-17654000D02*
X6185000Y-17344000D01*
X5825000Y-13334000D02*
X5825000Y-13644000D01*
X5825000Y-13644000D02*
X6185000Y-13644000D01*
X6185000Y-13334000D02*
X5825000Y-13334000D01*
X6185000Y-13644000D02*
X6185000Y-13334000D01*
X4822500Y-19349000D02*
X4822500Y-19659000D01*
X4822500Y-19659000D02*
X5182500Y-19659000D01*
X5182500Y-19349000D02*
X4822500Y-19349000D01*
X5182500Y-19659000D02*
X5182500Y-19349000D01*
X7830000Y-13334000D02*
X7830000Y-13644000D01*
X7830000Y-13644000D02*
X8190000Y-13644000D01*
X8190000Y-13334000D02*
X7830000Y-13334000D01*
X8190000Y-13644000D02*
X8190000Y-13334000D01*
X3820000Y-15339000D02*
X3820000Y-15649000D01*
X3820000Y-15649000D02*
X4180000Y-15649000D01*
X4180000Y-15339000D02*
X3820000Y-15339000D01*
X4180000Y-15649000D02*
X4180000Y-15339000D01*
X9364000Y-14807500D02*
X9364000Y-15167500D01*
X9364000Y-15167500D02*
X9674000Y-15167500D01*
X9674000Y-14807500D02*
X9364000Y-14807500D01*
X9674000Y-15167500D02*
X9674000Y-14807500D01*
D12*
D13*
X3019000Y-18591000D02*
X3049000Y-18621000D01*
X3049000Y-18591000D02*
X3019000Y-18621000D01*
X3037000Y-11563000D02*
X3067000Y-11593000D01*
X3067000Y-11563000D02*
X3037000Y-11593000D01*
X3038000Y-14582000D02*
X3068000Y-14612000D01*
X3068000Y-14582000D02*
X3038000Y-14612000D01*
X3060000Y-12579000D02*
X3090000Y-12609000D01*
X3090000Y-12579000D02*
X3060000Y-12609000D01*
X3145000Y-13446000D02*
X3175000Y-13476000D01*
X3175000Y-13446000D02*
X3145000Y-13476000D01*
X3146000Y-16589000D02*
X3176000Y-16619000D01*
X3176000Y-16589000D02*
X3146000Y-16619000D01*
X3149000Y-17340000D02*
X3179000Y-17370000D01*
X3179000Y-17340000D02*
X3149000Y-17370000D01*
X3154000Y-10976000D02*
X3184000Y-11006000D01*
X3184000Y-10976000D02*
X3154000Y-11006000D01*
X3324000Y-12915000D02*
X3354000Y-12945000D01*
X3354000Y-12915000D02*
X3324000Y-12945000D01*
X3325000Y-15395000D02*
X3355000Y-15425000D01*
X3355000Y-15395000D02*
X3325000Y-15425000D01*
X3515000Y-16981000D02*
X3545000Y-17011000D01*
X3545000Y-16981000D02*
X3515000Y-17011000D01*
X3568000Y-16659000D02*
X3598000Y-16689000D01*
X3598000Y-16659000D02*
X3568000Y-16689000D01*
X3570000Y-12653000D02*
X3600000Y-12683000D01*
X3600000Y-12653000D02*
X3570000Y-12683000D01*
X3575000Y-14653000D02*
X3605000Y-14683000D01*
X3605000Y-14653000D02*
X3575000Y-14683000D01*
X3582000Y-18657000D02*
X3612000Y-18687000D01*
X3612000Y-18657000D02*
X3582000Y-18687000D01*
X3682000Y-18922000D02*
X3712000Y-18952000D01*
X3712000Y-18922000D02*
X3682000Y-18952000D01*
X3700000Y-10134000D02*
X3730000Y-10164000D01*
X3730000Y-10134000D02*
X3700000Y-10164000D01*
X3988000Y-14297000D02*
X4018000Y-14327000D01*
X4018000Y-14297000D02*
X3988000Y-14327000D01*
X4512000Y-8560000D02*
X4542000Y-8590000D01*
X4542000Y-8560000D02*
X4512000Y-8590000D01*
X4556000Y-9995000D02*
X4586000Y-10025000D01*
X4586000Y-9995000D02*
X4556000Y-10025000D01*
X4576000Y-20670000D02*
X4606000Y-20700000D01*
X4606000Y-20670000D02*
X4576000Y-20700000D01*
X4639000Y-15330000D02*
X4669000Y-15360000D01*
X4669000Y-15330000D02*
X4639000Y-15360000D01*
X4689000Y-11968000D02*
X4719000Y-11998000D01*
X4719000Y-11968000D02*
X4689000Y-11998000D01*
X4689000Y-15977000D02*
X4719000Y-16007000D01*
X4719000Y-15977000D02*
X4689000Y-16007000D01*
X4696000Y-13977000D02*
X4726000Y-14007000D01*
X4726000Y-13977000D02*
X4696000Y-14007000D01*
X4698000Y-18522000D02*
X4728000Y-18552000D01*
X4728000Y-18522000D02*
X4698000Y-18552000D01*
X4703000Y-12589000D02*
X4733000Y-12619000D01*
X4733000Y-12589000D02*
X4703000Y-12619000D01*
X4703000Y-17989000D02*
X4733000Y-18019000D01*
X4733000Y-17989000D02*
X4703000Y-18019000D01*
X4710000Y-14581000D02*
X4740000Y-14611000D01*
X4740000Y-14581000D02*
X4710000Y-14611000D01*
X4710000Y-16518000D02*
X4740000Y-16548000D01*
X4740000Y-16518000D02*
X4710000Y-16548000D01*
X4759000Y-8555000D02*
X4789000Y-8585000D01*
X4789000Y-8555000D02*
X4759000Y-8585000D01*
X4787000Y-9985000D02*
X4817000Y-10015000D01*
X4817000Y-9985000D02*
X4787000Y-10015000D01*
X4790000Y-10170000D02*
X4820000Y-10200000D01*
X4820000Y-10170000D02*
X4790000Y-10200000D01*
X5040000Y-11322000D02*
X5070000Y-11352000D01*
X5070000Y-11322000D02*
X5040000Y-11352000D01*
X5043000Y-9987000D02*
X5073000Y-10017000D01*
X5073000Y-9987000D02*
X5043000Y-10017000D01*
X5045000Y-10173000D02*
X5075000Y-10203000D01*
X5075000Y-10173000D02*
X5045000Y-10203000D01*
X5298000Y-9987000D02*
X5328000Y-10017000D01*
X5328000Y-9987000D02*
X5298000Y-10017000D01*
X5299000Y-10166000D02*
X5329000Y-10196000D01*
X5329000Y-10166000D02*
X5299000Y-10196000D01*
X5327000Y-12716000D02*
X5357000Y-12746000D01*
X5357000Y-12716000D02*
X5327000Y-12746000D01*
X5338000Y-14722500D02*
X5368000Y-14752500D01*
X5368000Y-14722500D02*
X5338000Y-14752500D01*
X5341000Y-16727500D02*
X5371000Y-16757500D01*
X5371000Y-16727500D02*
X5341000Y-16757500D01*
X5377000Y-18732500D02*
X5407000Y-18762500D01*
X5407000Y-18732500D02*
X5377000Y-18762500D01*
X5462000Y-19631000D02*
X5492000Y-19661000D01*
X5492000Y-19631000D02*
X5462000Y-19661000D01*
X5552000Y-9987000D02*
X5582000Y-10017000D01*
X5582000Y-9987000D02*
X5552000Y-10017000D01*
X5554000Y-10173000D02*
X5584000Y-10203000D01*
X5584000Y-10173000D02*
X5554000Y-10203000D01*
X5571000Y-14649000D02*
X5601000Y-14679000D01*
X5601000Y-14649000D02*
X5571000Y-14679000D01*
X5572000Y-16657000D02*
X5602000Y-16687000D01*
X5602000Y-16657000D02*
X5572000Y-16687000D01*
X5587000Y-12646000D02*
X5617000Y-12676000D01*
X5617000Y-12646000D02*
X5587000Y-12676000D01*
X5595000Y-18652000D02*
X5625000Y-18682000D01*
X5625000Y-18652000D02*
X5595000Y-18682000D01*
X5695000Y-19967000D02*
X5725000Y-19997000D01*
X5725000Y-19967000D02*
X5695000Y-19997000D01*
X5814000Y-19280000D02*
X5844000Y-19310000D01*
X5844000Y-19280000D02*
X5814000Y-19310000D01*
X5816000Y-10086000D02*
X5846000Y-10116000D01*
X5846000Y-10086000D02*
X5816000Y-10116000D01*
X6061000Y-9390000D02*
X6091000Y-9420000D01*
X6091000Y-9390000D02*
X6061000Y-9420000D01*
X6526000Y-20573110D02*
X6556000Y-20603110D01*
X6556000Y-20573110D02*
X6526000Y-20603110D01*
X6695000Y-11969000D02*
X6725000Y-11999000D01*
X6725000Y-11969000D02*
X6695000Y-11999000D01*
X6702000Y-12561000D02*
X6732000Y-12591000D01*
X6732000Y-12561000D02*
X6702000Y-12591000D01*
X6702000Y-13964000D02*
X6732000Y-13994000D01*
X6732000Y-13964000D02*
X6702000Y-13994000D01*
X6702000Y-15966000D02*
X6732000Y-15996000D01*
X6732000Y-15966000D02*
X6702000Y-15996000D01*
X6702000Y-17981000D02*
X6732000Y-18011000D01*
X6732000Y-17981000D02*
X6702000Y-18011000D01*
X6714000Y-14503000D02*
X6744000Y-14533000D01*
X6744000Y-14503000D02*
X6714000Y-14533000D01*
X6714000Y-16518000D02*
X6744000Y-16548000D01*
X6744000Y-16518000D02*
X6714000Y-16548000D01*
X6940000Y-15334000D02*
X6970000Y-15364000D01*
X6970000Y-15334000D02*
X6940000Y-15364000D01*
X7045000Y-19392000D02*
X7075000Y-19422000D01*
X7075000Y-19392000D02*
X7045000Y-19422000D01*
X7047000Y-11321000D02*
X7077000Y-11351000D01*
X7077000Y-11321000D02*
X7047000Y-11351000D01*
X7161000Y-20593000D02*
X7191000Y-20623000D01*
X7191000Y-20593000D02*
X7161000Y-20623000D01*
X7579000Y-20671000D02*
X7609000Y-20701000D01*
X7609000Y-20671000D02*
X7579000Y-20701000D01*
X7588000Y-16658000D02*
X7618000Y-16688000D01*
X7618000Y-16658000D02*
X7588000Y-16688000D01*
X7589000Y-14653000D02*
X7619000Y-14683000D01*
X7619000Y-14653000D02*
X7589000Y-14683000D01*
X7598000Y-12643000D02*
X7628000Y-12673000D01*
X7628000Y-12643000D02*
X7598000Y-12673000D01*
X8272000Y-13905000D02*
X8302000Y-13935000D01*
X8302000Y-13905000D02*
X8272000Y-13935000D01*
X8371000Y-14019000D02*
X8401000Y-14049000D01*
X8401000Y-14019000D02*
X8371000Y-14049000D01*
X8693000Y-15023000D02*
X8723000Y-15053000D01*
X8723000Y-15023000D02*
X8693000Y-15053000D01*
X8699000Y-11557000D02*
X8729000Y-11587000D01*
X8729000Y-11557000D02*
X8699000Y-11587000D01*
X8699000Y-12449000D02*
X8729000Y-12479000D01*
X8729000Y-12449000D02*
X8699000Y-12479000D01*
X8699000Y-13969000D02*
X8729000Y-13999000D01*
X8729000Y-13969000D02*
X8699000Y-13999000D01*
X8700000Y-19567000D02*
X8730000Y-19597000D01*
X8730000Y-19567000D02*
X8700000Y-19597000D01*
X8703000Y-15558000D02*
X8733000Y-15588000D01*
X8733000Y-15558000D02*
X8703000Y-15588000D01*
X8703000Y-16492000D02*
X8733000Y-16522000D01*
X8733000Y-16492000D02*
X8703000Y-16522000D01*
X8704000Y-19037000D02*
X8734000Y-19067000D01*
X8734000Y-19037000D02*
X8704000Y-19067000D01*
X8711000Y-17991000D02*
X8741000Y-18021000D01*
X8741000Y-17991000D02*
X8711000Y-18021000D01*
X8930000Y-9889000D02*
X8960000Y-9919000D01*
X8960000Y-9889000D02*
X8930000Y-9919000D01*
X8941000Y-12718000D02*
X8971000Y-12748000D01*
X8971000Y-12718000D02*
X8941000Y-12748000D01*
X8948000Y-19342000D02*
X8978000Y-19372000D01*
X8978000Y-19342000D02*
X8948000Y-19372000D01*
X8975000Y-13623000D02*
X9005000Y-13653000D01*
X9005000Y-13623000D02*
X8975000Y-13653000D01*
X9051000Y-15332000D02*
X9081000Y-15362000D01*
X9081000Y-15332000D02*
X9051000Y-15362000D01*
X9052000Y-11323000D02*
X9082000Y-11353000D01*
X9082000Y-11323000D02*
X9052000Y-11353000D01*
X10598000Y-15878000D02*
X10628000Y-15908000D01*
X10628000Y-15878000D02*
X10598000Y-15908000D01*
X2952500Y-7846250D02*
G75*
G02*
X2912500Y-7846250I-20000J0D01*
G01*
X2912500Y-7846250D02*
G75*
G02*
X2952500Y-7846250I20000J0D01*
G01*
X2952500Y-20902500D02*
G75*
G02*
X2912500Y-20902500I-20000J0D01*
G01*
X2912500Y-20902500D02*
G75*
G02*
X2952500Y-20902500I20000J0D01*
G01*
X3000827Y-7729577D02*
G75*
G02*
X2960827Y-7729577I-20000J0D01*
G01*
X2960827Y-7729577D02*
G75*
G02*
X3000827Y-7729577I20000J0D01*
G01*
X3000827Y-7962923D02*
G75*
G02*
X2960827Y-7962923I-20000J0D01*
G01*
X2960827Y-7962923D02*
G75*
G02*
X3000827Y-7962923I20000J0D01*
G01*
X3000827Y-20785827D02*
G75*
G02*
X2960827Y-20785827I-20000J0D01*
G01*
X2960827Y-20785827D02*
G75*
G02*
X3000827Y-20785827I20000J0D01*
G01*
X3000827Y-21019173D02*
G75*
G02*
X2960827Y-21019173I-20000J0D01*
G01*
X2960827Y-21019173D02*
G75*
G02*
X3000827Y-21019173I20000J0D01*
G01*
X3117500Y-7681250D02*
G75*
G02*
X3077500Y-7681250I-20000J0D01*
G01*
X3077500Y-7681250D02*
G75*
G02*
X3117500Y-7681250I20000J0D01*
G01*
X3117500Y-8011250D02*
G75*
G02*
X3077500Y-8011250I-20000J0D01*
G01*
X3077500Y-8011250D02*
G75*
G02*
X3117500Y-8011250I20000J0D01*
G01*
X3117500Y-20737500D02*
G75*
G02*
X3077500Y-20737500I-20000J0D01*
G01*
X3077500Y-20737500D02*
G75*
G02*
X3117500Y-20737500I20000J0D01*
G01*
X3117500Y-21067500D02*
G75*
G02*
X3077500Y-21067500I-20000J0D01*
G01*
X3077500Y-21067500D02*
G75*
G02*
X3117500Y-21067500I20000J0D01*
G01*
X3234173Y-7729577D02*
G75*
G02*
X3194173Y-7729577I-20000J0D01*
G01*
X3194173Y-7729577D02*
G75*
G02*
X3234173Y-7729577I20000J0D01*
G01*
X3234173Y-7962923D02*
G75*
G02*
X3194173Y-7962923I-20000J0D01*
G01*
X3194173Y-7962923D02*
G75*
G02*
X3234173Y-7962923I20000J0D01*
G01*
X3234173Y-20785827D02*
G75*
G02*
X3194173Y-20785827I-20000J0D01*
G01*
X3194173Y-20785827D02*
G75*
G02*
X3234173Y-20785827I20000J0D01*
G01*
X3234173Y-21019173D02*
G75*
G02*
X3194173Y-21019173I-20000J0D01*
G01*
X3194173Y-21019173D02*
G75*
G02*
X3234173Y-21019173I20000J0D01*
G01*
X3282500Y-7846250D02*
G75*
G02*
X3242500Y-7846250I-20000J0D01*
G01*
X3242500Y-7846250D02*
G75*
G02*
X3282500Y-7846250I20000J0D01*
G01*
X3282500Y-20902500D02*
G75*
G02*
X3242500Y-20902500I-20000J0D01*
G01*
X3242500Y-20902500D02*
G75*
G02*
X3282500Y-20902500I20000J0D01*
G01*
X10772500Y-7846250D02*
G75*
G02*
X10732500Y-7846250I-20000J0D01*
G01*
X10732500Y-7846250D02*
G75*
G02*
X10772500Y-7846250I20000J0D01*
G01*
X10772500Y-20902500D02*
G75*
G02*
X10732500Y-20902500I-20000J0D01*
G01*
X10732500Y-20902500D02*
G75*
G02*
X10772500Y-20902500I20000J0D01*
G01*
X10820827Y-7729577D02*
G75*
G02*
X10780827Y-7729577I-20000J0D01*
G01*
X10780827Y-7729577D02*
G75*
G02*
X10820827Y-7729577I20000J0D01*
G01*
X10820827Y-7962923D02*
G75*
G02*
X10780827Y-7962923I-20000J0D01*
G01*
X10780827Y-7962923D02*
G75*
G02*
X10820827Y-7962923I20000J0D01*
G01*
X10820827Y-20785827D02*
G75*
G02*
X10780827Y-20785827I-20000J0D01*
G01*
X10780827Y-20785827D02*
G75*
G02*
X10820827Y-20785827I20000J0D01*
G01*
X10820827Y-21019173D02*
G75*
G02*
X10780827Y-21019173I-20000J0D01*
G01*
X10780827Y-21019173D02*
G75*
G02*
X10820827Y-21019173I20000J0D01*
G01*
X10937500Y-7681250D02*
G75*
G02*
X10897500Y-7681250I-20000J0D01*
G01*
X10897500Y-7681250D02*
G75*
G02*
X10937500Y-7681250I20000J0D01*
G01*
X10937500Y-8011250D02*
G75*
G02*
X10897500Y-8011250I-20000J0D01*
G01*
X10897500Y-8011250D02*
G75*
G02*
X10937500Y-8011250I20000J0D01*
G01*
X10937500Y-20737500D02*
G75*
G02*
X10897500Y-20737500I-20000J0D01*
G01*
X10897500Y-20737500D02*
G75*
G02*
X10937500Y-20737500I20000J0D01*
G01*
X10937500Y-21067500D02*
G75*
G02*
X10897500Y-21067500I-20000J0D01*
G01*
X10897500Y-21067500D02*
G75*
G02*
X10937500Y-21067500I20000J0D01*
G01*
X11054173Y-7729577D02*
G75*
G02*
X11014173Y-7729577I-20000J0D01*
G01*
X11014173Y-7729577D02*
G75*
G02*
X11054173Y-7729577I20000J0D01*
G01*
X11054173Y-7962923D02*
G75*
G02*
X11014173Y-7962923I-20000J0D01*
G01*
X11014173Y-7962923D02*
G75*
G02*
X11054173Y-7962923I20000J0D01*
G01*
X11054173Y-20785827D02*
G75*
G02*
X11014173Y-20785827I-20000J0D01*
G01*
X11014173Y-20785827D02*
G75*
G02*
X11054173Y-20785827I20000J0D01*
G01*
X11054173Y-21019173D02*
G75*
G02*
X11014173Y-21019173I-20000J0D01*
G01*
X11014173Y-21019173D02*
G75*
G02*
X11054173Y-21019173I20000J0D01*
G01*
X11102500Y-7846250D02*
G75*
G02*
X11062500Y-7846250I-20000J0D01*
G01*
X11062500Y-7846250D02*
G75*
G02*
X11102500Y-7846250I20000J0D01*
G01*
X11102500Y-20902500D02*
G75*
G02*
X11062500Y-20902500I-20000J0D01*
G01*
X11062500Y-20902500D02*
G75*
G02*
X11102500Y-20902500I20000J0D01*
G01*
X3700000Y-8945500D02*
X3700000Y-9025500D01*
X3660000Y-8985500D02*
X3740000Y-8985500D01*
X3700000Y-9195500D02*
X3700000Y-9275500D01*
X3660000Y-9235500D02*
X3740000Y-9235500D01*
X6280356Y-8804106D02*
X6280356Y-8733394D01*
X6209644Y-8733394D01*
X6209644Y-8804106D01*
X6280356Y-8804106D01*
X6280356Y-9058106D02*
X6280356Y-8987394D01*
X6209644Y-8987394D01*
X6209644Y-9058106D01*
X6280356Y-9058106D01*
X6280356Y-9312106D02*
X6280356Y-9241394D01*
X6209644Y-9241394D01*
X6209644Y-9312106D01*
X6280356Y-9312106D01*
X6280356Y-9566106D02*
X6280356Y-9495394D01*
X6209644Y-9495394D01*
X6209644Y-9566106D01*
X6280356Y-9566106D01*
X9804356Y-8469606D02*
X9804356Y-8398894D01*
X9733644Y-8398894D01*
X9733644Y-8469606D01*
X9804356Y-8469606D01*
X9804356Y-9919606D02*
X9804356Y-9848894D01*
X9733644Y-9848894D01*
X9733644Y-9919606D01*
X9804356Y-9919606D01*
X10054356Y-8469606D02*
X10054356Y-8398894D01*
X9983644Y-8398894D01*
X9983644Y-8469606D01*
X10054356Y-8469606D01*
X10304356Y-8469606D02*
X10304356Y-8398894D01*
X10233644Y-8398894D01*
X10233644Y-8469606D01*
X10304356Y-8469606D01*
X10304356Y-9919606D02*
X10304356Y-9848894D01*
X10233644Y-9848894D01*
X10233644Y-9919606D01*
X10304356Y-9919606D01*
D14*
X3153000Y-8403110D02*
X3207610Y-8348500D01*
X3153000Y-8293890D01*
X3098390Y-8348500D01*
X3153000Y-8403110D01*
X3153000Y-9927110D02*
X3207610Y-9872500D01*
X3153000Y-9817890D01*
X3098390Y-9872500D01*
X3153000Y-9927110D01*
X3407000Y-8403110D02*
X3461610Y-8348500D01*
X3407000Y-8293890D01*
X3352390Y-8348500D01*
X3407000Y-8403110D01*
X3407000Y-9927110D02*
X3461610Y-9872500D01*
X3407000Y-9817890D01*
X3352390Y-9872500D01*
X3407000Y-9927110D01*
X3661000Y-8403110D02*
X3715610Y-8348500D01*
X3661000Y-8293890D01*
X3606390Y-8348500D01*
X3661000Y-8403110D01*
X3661000Y-9927110D02*
X3715610Y-9872500D01*
X3661000Y-9817890D01*
X3606390Y-9872500D01*
X3661000Y-9927110D01*
X3915000Y-8403110D02*
X3969610Y-8348500D01*
X3915000Y-8293890D01*
X3860390Y-8348500D01*
X3915000Y-8403110D01*
X3915000Y-9927110D02*
X3969610Y-9872500D01*
X3915000Y-9817890D01*
X3860390Y-9872500D01*
X3915000Y-9927110D01*
X4169000Y-8403110D02*
X4223610Y-8348500D01*
X4169000Y-8293890D01*
X4114390Y-8348500D01*
X4169000Y-8403110D01*
X4169000Y-9927110D02*
X4223610Y-9872500D01*
X4169000Y-9817890D01*
X4114390Y-9872500D01*
X4169000Y-9927110D01*
X4423000Y-8403110D02*
X4477610Y-8348500D01*
X4423000Y-8293890D01*
X4368390Y-8348500D01*
X4423000Y-8403110D01*
X4423000Y-9927110D02*
X4477610Y-9872500D01*
X4423000Y-9817890D01*
X4368390Y-9872500D01*
X4423000Y-9927110D01*
X4677000Y-8403110D02*
X4731610Y-8348500D01*
X4677000Y-8293890D01*
X4622390Y-8348500D01*
X4677000Y-8403110D01*
X4677000Y-9927110D02*
X4731610Y-9872500D01*
X4677000Y-9817890D01*
X4622390Y-9872500D01*
X4677000Y-9927110D01*
X4931000Y-8403110D02*
X4985610Y-8348500D01*
X4931000Y-8293890D01*
X4876390Y-8348500D01*
X4931000Y-8403110D01*
X4931000Y-9927110D02*
X4985610Y-9872500D01*
X4931000Y-9817890D01*
X4876390Y-9872500D01*
X4931000Y-9927110D01*
X5185000Y-8403110D02*
X5239610Y-8348500D01*
X5185000Y-8293890D01*
X5130390Y-8348500D01*
X5185000Y-8403110D01*
X5185000Y-9927110D02*
X5239610Y-9872500D01*
X5185000Y-9817890D01*
X5130390Y-9872500D01*
X5185000Y-9927110D01*
X5439000Y-8403110D02*
X5493610Y-8348500D01*
X5439000Y-8293890D01*
X5384390Y-8348500D01*
X5439000Y-8403110D01*
X5439000Y-9927110D02*
X5493610Y-9872500D01*
X5439000Y-9817890D01*
X5384390Y-9872500D01*
X5439000Y-9927110D01*
X5693000Y-8403110D02*
X5747610Y-8348500D01*
X5693000Y-8293890D01*
X5638390Y-8348500D01*
X5693000Y-8403110D01*
X5693000Y-9927110D02*
X5747610Y-9872500D01*
X5693000Y-9817890D01*
X5638390Y-9872500D01*
X5693000Y-9927110D01*
X5947000Y-8403110D02*
X6001610Y-8348500D01*
X5947000Y-8293890D01*
X5892390Y-8348500D01*
X5947000Y-8403110D01*
X5947000Y-9927110D02*
X6001610Y-9872500D01*
X5947000Y-9817890D01*
X5892390Y-9872500D01*
X5947000Y-9927110D01*
D10*
X9384000Y-9109250D02*
X9534000Y-9259250D01*
X9534000Y-9109250D02*
X9384000Y-9259250D01*
X9534000Y-9184250D02*
G75*
G02*
X9384000Y-9184250I-75000J0D01*
G01*
X9384000Y-9184250D02*
G75*
G02*
X9534000Y-9184250I75000J0D01*
G01*
D13*
X9384000Y-9119250D02*
X9384000Y-9249250D01*
X9534000Y-9249250D02*
G75*
G02*
X9384000Y-9249250I-75000J0D01*
G01*
X9534000Y-9249250D02*
X9534000Y-9119250D01*
X9534000Y-9119250D02*
G75*
G03*
X9384000Y-9119250I-75000J0D01*
G01*
D10*
X10504000Y-9109250D02*
X10654000Y-9259250D01*
X10654000Y-9109250D02*
X10504000Y-9259250D01*
X10654000Y-9184250D02*
G75*
G02*
X10504000Y-9184250I-75000J0D01*
G01*
X10504000Y-9184250D02*
G75*
G02*
X10654000Y-9184250I75000J0D01*
G01*
D13*
X10504000Y-9119250D02*
X10504000Y-9249250D01*
X10654000Y-9249250D02*
G75*
G02*
X10504000Y-9249250I-75000J0D01*
G01*
X10654000Y-9249250D02*
X10654000Y-9119250D01*
X10654000Y-9119250D02*
G75*
G03*
X10504000Y-9119250I-75000J0D01*
G01*
D15*
X2987500Y-7736250D02*
X3207500Y-7956250D01*
X3207500Y-7736250D02*
X2987500Y-7956250D01*
X3097500Y-7736250D02*
X3097500Y-7956250D01*
X2987500Y-7846250D02*
X3207500Y-7846250D01*
X2987500Y-20792500D02*
X3207500Y-21012500D01*
X3207500Y-20792500D02*
X2987500Y-21012500D01*
X3097500Y-20792500D02*
X3097500Y-21012500D01*
X2987500Y-20902500D02*
X3207500Y-20902500D01*
X10807500Y-7736250D02*
X11027500Y-7956250D01*
X11027500Y-7736250D02*
X10807500Y-7956250D01*
X10917500Y-7736250D02*
X10917500Y-7956250D01*
X10807500Y-7846250D02*
X11027500Y-7846250D01*
X10807500Y-20792500D02*
X11027500Y-21012500D01*
X11027500Y-20792500D02*
X10807500Y-21012500D01*
X10917500Y-20792500D02*
X10917500Y-21012500D01*
X10807500Y-20902500D02*
X11027500Y-20902500D01*
D12*
X3000777Y-21571484D02*
X3000777Y-21371484D01*
X3000777Y-21371484D02*
X3048396Y-21371484D01*
X3048396Y-21371484D02*
X3076967Y-21381008D01*
X3076967Y-21381008D02*
X3096015Y-21400055D01*
X3096015Y-21400055D02*
X3105539Y-21419103D01*
X3105539Y-21419103D02*
X3115062Y-21457198D01*
X3115062Y-21457198D02*
X3115062Y-21485770D01*
X3115062Y-21485770D02*
X3105539Y-21523865D01*
X3105539Y-21523865D02*
X3096015Y-21542912D01*
X3096015Y-21542912D02*
X3076967Y-21561960D01*
X3076967Y-21561960D02*
X3048396Y-21571484D01*
X3048396Y-21571484D02*
X3000777Y-21571484D01*
X3200777Y-21571484D02*
X3200777Y-21438150D01*
X3200777Y-21476246D02*
X3210301Y-21457198D01*
X3210301Y-21457198D02*
X3219824Y-21447674D01*
X3219824Y-21447674D02*
X3238872Y-21438150D01*
X3238872Y-21438150D02*
X3257920Y-21438150D01*
X3324586Y-21571484D02*
X3324586Y-21438150D01*
X3324586Y-21371484D02*
X3315062Y-21381008D01*
X3315062Y-21381008D02*
X3324586Y-21390531D01*
X3324586Y-21390531D02*
X3334110Y-21381008D01*
X3334110Y-21381008D02*
X3324586Y-21371484D01*
X3324586Y-21371484D02*
X3324586Y-21390531D01*
X3448396Y-21571484D02*
X3429348Y-21561960D01*
X3429348Y-21561960D02*
X3419824Y-21542912D01*
X3419824Y-21542912D02*
X3419824Y-21371484D01*
X3553158Y-21571484D02*
X3534110Y-21561960D01*
X3534110Y-21561960D02*
X3524586Y-21542912D01*
X3524586Y-21542912D02*
X3524586Y-21371484D01*
X3781729Y-21571484D02*
X3781729Y-21371484D01*
X3781729Y-21371484D02*
X3848396Y-21514341D01*
X3848396Y-21514341D02*
X3915062Y-21371484D01*
X3915062Y-21371484D02*
X3915062Y-21571484D01*
X4096015Y-21571484D02*
X4096015Y-21466722D01*
X4096015Y-21466722D02*
X4086491Y-21447674D01*
X4086491Y-21447674D02*
X4067443Y-21438150D01*
X4067443Y-21438150D02*
X4029348Y-21438150D01*
X4029348Y-21438150D02*
X4010301Y-21447674D01*
X4096015Y-21561960D02*
X4076967Y-21571484D01*
X4076967Y-21571484D02*
X4029348Y-21571484D01*
X4029348Y-21571484D02*
X4010301Y-21561960D01*
X4010301Y-21561960D02*
X4000777Y-21542912D01*
X4000777Y-21542912D02*
X4000777Y-21523865D01*
X4000777Y-21523865D02*
X4010301Y-21504817D01*
X4010301Y-21504817D02*
X4029348Y-21495293D01*
X4029348Y-21495293D02*
X4076967Y-21495293D01*
X4076967Y-21495293D02*
X4096015Y-21485770D01*
X4191253Y-21438150D02*
X4191253Y-21638150D01*
X4191253Y-21447674D02*
X4210301Y-21438150D01*
X4210301Y-21438150D02*
X4248396Y-21438150D01*
X4248396Y-21438150D02*
X4267444Y-21447674D01*
X4267444Y-21447674D02*
X4276967Y-21457198D01*
X4276967Y-21457198D02*
X4286491Y-21476246D01*
X4286491Y-21476246D02*
X4286491Y-21533389D01*
X4286491Y-21533389D02*
X4276967Y-21552436D01*
X4276967Y-21552436D02*
X4267444Y-21561960D01*
X4267444Y-21561960D02*
X4248396Y-21571484D01*
X4248396Y-21571484D02*
X4210301Y-21571484D01*
X4210301Y-21571484D02*
X4191253Y-21561960D01*
X4372205Y-21552436D02*
X4381729Y-21561960D01*
X4381729Y-21561960D02*
X4372205Y-21571484D01*
X4372205Y-21571484D02*
X4362682Y-21561960D01*
X4362682Y-21561960D02*
X4372205Y-21552436D01*
X4372205Y-21552436D02*
X4372205Y-21571484D01*
X4372205Y-21447674D02*
X4381729Y-21457198D01*
X4381729Y-21457198D02*
X4372205Y-21466722D01*
X4372205Y-21466722D02*
X4362682Y-21457198D01*
X4362682Y-21457198D02*
X4372205Y-21447674D01*
X4372205Y-21447674D02*
X4372205Y-21466722D01*
D13*
X2710000Y-21885000D02*
X2740000Y-21915000D01*
X2740000Y-21885000D02*
X2710000Y-21915000D01*
D12*
X3038872Y-21791484D02*
X3057920Y-21791484D01*
X3057920Y-21791484D02*
X3076967Y-21801008D01*
X3076967Y-21801008D02*
X3086491Y-21810531D01*
X3086491Y-21810531D02*
X3096015Y-21829579D01*
X3096015Y-21829579D02*
X3105539Y-21867674D01*
X3105539Y-21867674D02*
X3105539Y-21915293D01*
X3105539Y-21915293D02*
X3096015Y-21953389D01*
X3096015Y-21953389D02*
X3086491Y-21972436D01*
X3086491Y-21972436D02*
X3076967Y-21981960D01*
X3076967Y-21981960D02*
X3057920Y-21991484D01*
X3057920Y-21991484D02*
X3038872Y-21991484D01*
X3038872Y-21991484D02*
X3019824Y-21981960D01*
X3019824Y-21981960D02*
X3010301Y-21972436D01*
X3010301Y-21972436D02*
X3000777Y-21953389D01*
X3000777Y-21953389D02*
X2991253Y-21915293D01*
X2991253Y-21915293D02*
X2991253Y-21867674D01*
X2991253Y-21867674D02*
X3000777Y-21829579D01*
X3000777Y-21829579D02*
X3010301Y-21810531D01*
X3010301Y-21810531D02*
X3019824Y-21801008D01*
X3019824Y-21801008D02*
X3038872Y-21791484D01*
X3191253Y-21972436D02*
X3200777Y-21981960D01*
X3200777Y-21981960D02*
X3191253Y-21991484D01*
X3191253Y-21991484D02*
X3181729Y-21981960D01*
X3181729Y-21981960D02*
X3191253Y-21972436D01*
X3191253Y-21972436D02*
X3191253Y-21991484D01*
X3267443Y-21791484D02*
X3391253Y-21791484D01*
X3391253Y-21791484D02*
X3324586Y-21867674D01*
X3324586Y-21867674D02*
X3353158Y-21867674D01*
X3353158Y-21867674D02*
X3372205Y-21877198D01*
X3372205Y-21877198D02*
X3381729Y-21886722D01*
X3381729Y-21886722D02*
X3391253Y-21905770D01*
X3391253Y-21905770D02*
X3391253Y-21953389D01*
X3391253Y-21953389D02*
X3381729Y-21972436D01*
X3381729Y-21972436D02*
X3372205Y-21981960D01*
X3372205Y-21981960D02*
X3353158Y-21991484D01*
X3353158Y-21991484D02*
X3296015Y-21991484D01*
X3296015Y-21991484D02*
X3276967Y-21981960D01*
X3276967Y-21981960D02*
X3267443Y-21972436D01*
X3515062Y-21791484D02*
X3534110Y-21791484D01*
X3534110Y-21791484D02*
X3553158Y-21801008D01*
X3553158Y-21801008D02*
X3562682Y-21810531D01*
X3562682Y-21810531D02*
X3572205Y-21829579D01*
X3572205Y-21829579D02*
X3581729Y-21867674D01*
X3581729Y-21867674D02*
X3581729Y-21915293D01*
X3581729Y-21915293D02*
X3572205Y-21953389D01*
X3572205Y-21953389D02*
X3562682Y-21972436D01*
X3562682Y-21972436D02*
X3553158Y-21981960D01*
X3553158Y-21981960D02*
X3534110Y-21991484D01*
X3534110Y-21991484D02*
X3515062Y-21991484D01*
X3515062Y-21991484D02*
X3496015Y-21981960D01*
X3496015Y-21981960D02*
X3486491Y-21972436D01*
X3486491Y-21972436D02*
X3476967Y-21953389D01*
X3476967Y-21953389D02*
X3467443Y-21915293D01*
X3467443Y-21915293D02*
X3467443Y-21867674D01*
X3467443Y-21867674D02*
X3476967Y-21829579D01*
X3476967Y-21829579D02*
X3486491Y-21810531D01*
X3486491Y-21810531D02*
X3496015Y-21801008D01*
X3496015Y-21801008D02*
X3515062Y-21791484D01*
X3705539Y-21791484D02*
X3724586Y-21791484D01*
X3724586Y-21791484D02*
X3743634Y-21801008D01*
X3743634Y-21801008D02*
X3753158Y-21810531D01*
X3753158Y-21810531D02*
X3762682Y-21829579D01*
X3762682Y-21829579D02*
X3772205Y-21867674D01*
X3772205Y-21867674D02*
X3772205Y-21915293D01*
X3772205Y-21915293D02*
X3762682Y-21953389D01*
X3762682Y-21953389D02*
X3753158Y-21972436D01*
X3753158Y-21972436D02*
X3743634Y-21981960D01*
X3743634Y-21981960D02*
X3724586Y-21991484D01*
X3724586Y-21991484D02*
X3705539Y-21991484D01*
X3705539Y-21991484D02*
X3686491Y-21981960D01*
X3686491Y-21981960D02*
X3676967Y-21972436D01*
X3676967Y-21972436D02*
X3667443Y-21953389D01*
X3667443Y-21953389D02*
X3657920Y-21915293D01*
X3657920Y-21915293D02*
X3657920Y-21867674D01*
X3657920Y-21867674D02*
X3667443Y-21829579D01*
X3667443Y-21829579D02*
X3676967Y-21810531D01*
X3676967Y-21810531D02*
X3686491Y-21801008D01*
X3686491Y-21801008D02*
X3705539Y-21791484D01*
X3857920Y-21991484D02*
X3857920Y-21858150D01*
X3857920Y-21877198D02*
X3867443Y-21867674D01*
X3867443Y-21867674D02*
X3886491Y-21858150D01*
X3886491Y-21858150D02*
X3915063Y-21858150D01*
X3915063Y-21858150D02*
X3934110Y-21867674D01*
X3934110Y-21867674D02*
X3943634Y-21886722D01*
X3943634Y-21886722D02*
X3943634Y-21991484D01*
X3943634Y-21886722D02*
X3953158Y-21867674D01*
X3953158Y-21867674D02*
X3972205Y-21858150D01*
X3972205Y-21858150D02*
X4000777Y-21858150D01*
X4000777Y-21858150D02*
X4019824Y-21867674D01*
X4019824Y-21867674D02*
X4029348Y-21886722D01*
X4029348Y-21886722D02*
X4029348Y-21991484D01*
X4124586Y-21991484D02*
X4124586Y-21858150D01*
X4124586Y-21877198D02*
X4134110Y-21867674D01*
X4134110Y-21867674D02*
X4153158Y-21858150D01*
X4153158Y-21858150D02*
X4181729Y-21858150D01*
X4181729Y-21858150D02*
X4200777Y-21867674D01*
X4200777Y-21867674D02*
X4210301Y-21886722D01*
X4210301Y-21886722D02*
X4210301Y-21991484D01*
X4210301Y-21886722D02*
X4219825Y-21867674D01*
X4219825Y-21867674D02*
X4238872Y-21858150D01*
X4238872Y-21858150D02*
X4267444Y-21858150D01*
X4267444Y-21858150D02*
X4286491Y-21867674D01*
X4286491Y-21867674D02*
X4296015Y-21886722D01*
X4296015Y-21886722D02*
X4296015Y-21991484D01*
X4686491Y-21781960D02*
X4515063Y-22039103D01*
X4943634Y-21791484D02*
X4962682Y-21791484D01*
X4962682Y-21791484D02*
X4981729Y-21801008D01*
X4981729Y-21801008D02*
X4991253Y-21810531D01*
X4991253Y-21810531D02*
X5000777Y-21829579D01*
X5000777Y-21829579D02*
X5010301Y-21867674D01*
X5010301Y-21867674D02*
X5010301Y-21915293D01*
X5010301Y-21915293D02*
X5000777Y-21953389D01*
X5000777Y-21953389D02*
X4991253Y-21972436D01*
X4991253Y-21972436D02*
X4981729Y-21981960D01*
X4981729Y-21981960D02*
X4962682Y-21991484D01*
X4962682Y-21991484D02*
X4943634Y-21991484D01*
X4943634Y-21991484D02*
X4924587Y-21981960D01*
X4924587Y-21981960D02*
X4915063Y-21972436D01*
X4915063Y-21972436D02*
X4905539Y-21953389D01*
X4905539Y-21953389D02*
X4896015Y-21915293D01*
X4896015Y-21915293D02*
X4896015Y-21867674D01*
X4896015Y-21867674D02*
X4905539Y-21829579D01*
X4905539Y-21829579D02*
X4915063Y-21810531D01*
X4915063Y-21810531D02*
X4924587Y-21801008D01*
X4924587Y-21801008D02*
X4943634Y-21791484D01*
X5096015Y-21972436D02*
X5105539Y-21981960D01*
X5105539Y-21981960D02*
X5096015Y-21991484D01*
X5096015Y-21991484D02*
X5086491Y-21981960D01*
X5086491Y-21981960D02*
X5096015Y-21972436D01*
X5096015Y-21972436D02*
X5096015Y-21991484D01*
X5229348Y-21791484D02*
X5248396Y-21791484D01*
X5248396Y-21791484D02*
X5267444Y-21801008D01*
X5267444Y-21801008D02*
X5276968Y-21810531D01*
X5276968Y-21810531D02*
X5286491Y-21829579D01*
X5286491Y-21829579D02*
X5296015Y-21867674D01*
X5296015Y-21867674D02*
X5296015Y-21915293D01*
X5296015Y-21915293D02*
X5286491Y-21953389D01*
X5286491Y-21953389D02*
X5276968Y-21972436D01*
X5276968Y-21972436D02*
X5267444Y-21981960D01*
X5267444Y-21981960D02*
X5248396Y-21991484D01*
X5248396Y-21991484D02*
X5229348Y-21991484D01*
X5229348Y-21991484D02*
X5210301Y-21981960D01*
X5210301Y-21981960D02*
X5200777Y-21972436D01*
X5200777Y-21972436D02*
X5191253Y-21953389D01*
X5191253Y-21953389D02*
X5181729Y-21915293D01*
X5181729Y-21915293D02*
X5181729Y-21867674D01*
X5181729Y-21867674D02*
X5191253Y-21829579D01*
X5191253Y-21829579D02*
X5200777Y-21810531D01*
X5200777Y-21810531D02*
X5210301Y-21801008D01*
X5210301Y-21801008D02*
X5229348Y-21791484D01*
X5486491Y-21991484D02*
X5372206Y-21991484D01*
X5429348Y-21991484D02*
X5429348Y-21791484D01*
X5429348Y-21791484D02*
X5410301Y-21820055D01*
X5410301Y-21820055D02*
X5391253Y-21839103D01*
X5391253Y-21839103D02*
X5372206Y-21848627D01*
X5676967Y-21991484D02*
X5562682Y-21991484D01*
X5619825Y-21991484D02*
X5619825Y-21791484D01*
X5619825Y-21791484D02*
X5600777Y-21820055D01*
X5600777Y-21820055D02*
X5581729Y-21839103D01*
X5581729Y-21839103D02*
X5562682Y-21848627D01*
X5791253Y-21877198D02*
X5772206Y-21867674D01*
X5772206Y-21867674D02*
X5762682Y-21858150D01*
X5762682Y-21858150D02*
X5753158Y-21839103D01*
X5753158Y-21839103D02*
X5753158Y-21829579D01*
X5753158Y-21829579D02*
X5762682Y-21810531D01*
X5762682Y-21810531D02*
X5772206Y-21801008D01*
X5772206Y-21801008D02*
X5791253Y-21791484D01*
X5791253Y-21791484D02*
X5829348Y-21791484D01*
X5829348Y-21791484D02*
X5848396Y-21801008D01*
X5848396Y-21801008D02*
X5857920Y-21810531D01*
X5857920Y-21810531D02*
X5867444Y-21829579D01*
X5867444Y-21829579D02*
X5867444Y-21839103D01*
X5867444Y-21839103D02*
X5857920Y-21858150D01*
X5857920Y-21858150D02*
X5848396Y-21867674D01*
X5848396Y-21867674D02*
X5829348Y-21877198D01*
X5829348Y-21877198D02*
X5791253Y-21877198D01*
X5791253Y-21877198D02*
X5772206Y-21886722D01*
X5772206Y-21886722D02*
X5762682Y-21896246D01*
X5762682Y-21896246D02*
X5753158Y-21915293D01*
X5753158Y-21915293D02*
X5753158Y-21953389D01*
X5753158Y-21953389D02*
X5762682Y-21972436D01*
X5762682Y-21972436D02*
X5772206Y-21981960D01*
X5772206Y-21981960D02*
X5791253Y-21991484D01*
X5791253Y-21991484D02*
X5829348Y-21991484D01*
X5829348Y-21991484D02*
X5848396Y-21981960D01*
X5848396Y-21981960D02*
X5857920Y-21972436D01*
X5857920Y-21972436D02*
X5867444Y-21953389D01*
X5867444Y-21953389D02*
X5867444Y-21915293D01*
X5867444Y-21915293D02*
X5857920Y-21896246D01*
X5857920Y-21896246D02*
X5848396Y-21886722D01*
X5848396Y-21886722D02*
X5829348Y-21877198D01*
X5943634Y-21791484D02*
X5943634Y-21829579D01*
X6019825Y-21791484D02*
X6019825Y-21829579D01*
X6315063Y-22067674D02*
X6305539Y-22058150D01*
X6305539Y-22058150D02*
X6286491Y-22029579D01*
X6286491Y-22029579D02*
X6276968Y-22010531D01*
X6276968Y-22010531D02*
X6267444Y-21981960D01*
X6267444Y-21981960D02*
X6257920Y-21934341D01*
X6257920Y-21934341D02*
X6257920Y-21896246D01*
X6257920Y-21896246D02*
X6267444Y-21848627D01*
X6267444Y-21848627D02*
X6276968Y-21820055D01*
X6276968Y-21820055D02*
X6286491Y-21801008D01*
X6286491Y-21801008D02*
X6305539Y-21772436D01*
X6305539Y-21772436D02*
X6315063Y-21762912D01*
X6419825Y-21877198D02*
X6400777Y-21867674D01*
X6400777Y-21867674D02*
X6391253Y-21858150D01*
X6391253Y-21858150D02*
X6381729Y-21839103D01*
X6381729Y-21839103D02*
X6381729Y-21829579D01*
X6381729Y-21829579D02*
X6391253Y-21810531D01*
X6391253Y-21810531D02*
X6400777Y-21801008D01*
X6400777Y-21801008D02*
X6419825Y-21791484D01*
X6419825Y-21791484D02*
X6457920Y-21791484D01*
X6457920Y-21791484D02*
X6476968Y-21801008D01*
X6476968Y-21801008D02*
X6486491Y-21810531D01*
X6486491Y-21810531D02*
X6496015Y-21829579D01*
X6496015Y-21829579D02*
X6496015Y-21839103D01*
X6496015Y-21839103D02*
X6486491Y-21858150D01*
X6486491Y-21858150D02*
X6476968Y-21867674D01*
X6476968Y-21867674D02*
X6457920Y-21877198D01*
X6457920Y-21877198D02*
X6419825Y-21877198D01*
X6419825Y-21877198D02*
X6400777Y-21886722D01*
X6400777Y-21886722D02*
X6391253Y-21896246D01*
X6391253Y-21896246D02*
X6381729Y-21915293D01*
X6381729Y-21915293D02*
X6381729Y-21953389D01*
X6381729Y-21953389D02*
X6391253Y-21972436D01*
X6391253Y-21972436D02*
X6400777Y-21981960D01*
X6400777Y-21981960D02*
X6419825Y-21991484D01*
X6419825Y-21991484D02*
X6457920Y-21991484D01*
X6457920Y-21991484D02*
X6476968Y-21981960D01*
X6476968Y-21981960D02*
X6486491Y-21972436D01*
X6486491Y-21972436D02*
X6496015Y-21953389D01*
X6496015Y-21953389D02*
X6496015Y-21915293D01*
X6496015Y-21915293D02*
X6486491Y-21896246D01*
X6486491Y-21896246D02*
X6476968Y-21886722D01*
X6476968Y-21886722D02*
X6457920Y-21877198D01*
X6562682Y-21791484D02*
X6696015Y-21791484D01*
X6696015Y-21791484D02*
X6610301Y-21991484D01*
X6924587Y-21991484D02*
X6924587Y-21791484D01*
X7010301Y-21991484D02*
X7010301Y-21886722D01*
X7010301Y-21886722D02*
X7000777Y-21867674D01*
X7000777Y-21867674D02*
X6981730Y-21858150D01*
X6981730Y-21858150D02*
X6953158Y-21858150D01*
X6953158Y-21858150D02*
X6934110Y-21867674D01*
X6934110Y-21867674D02*
X6924587Y-21877198D01*
X7134110Y-21991484D02*
X7115063Y-21981960D01*
X7115063Y-21981960D02*
X7105539Y-21972436D01*
X7105539Y-21972436D02*
X7096015Y-21953389D01*
X7096015Y-21953389D02*
X7096015Y-21896246D01*
X7096015Y-21896246D02*
X7105539Y-21877198D01*
X7105539Y-21877198D02*
X7115063Y-21867674D01*
X7115063Y-21867674D02*
X7134110Y-21858150D01*
X7134110Y-21858150D02*
X7162682Y-21858150D01*
X7162682Y-21858150D02*
X7181730Y-21867674D01*
X7181730Y-21867674D02*
X7191253Y-21877198D01*
X7191253Y-21877198D02*
X7200777Y-21896246D01*
X7200777Y-21896246D02*
X7200777Y-21953389D01*
X7200777Y-21953389D02*
X7191253Y-21972436D01*
X7191253Y-21972436D02*
X7181730Y-21981960D01*
X7181730Y-21981960D02*
X7162682Y-21991484D01*
X7162682Y-21991484D02*
X7134110Y-21991484D01*
X7315063Y-21991484D02*
X7296015Y-21981960D01*
X7296015Y-21981960D02*
X7286491Y-21962912D01*
X7286491Y-21962912D02*
X7286491Y-21791484D01*
X7467444Y-21981960D02*
X7448396Y-21991484D01*
X7448396Y-21991484D02*
X7410301Y-21991484D01*
X7410301Y-21991484D02*
X7391253Y-21981960D01*
X7391253Y-21981960D02*
X7381730Y-21962912D01*
X7381730Y-21962912D02*
X7381730Y-21886722D01*
X7381730Y-21886722D02*
X7391253Y-21867674D01*
X7391253Y-21867674D02*
X7410301Y-21858150D01*
X7410301Y-21858150D02*
X7448396Y-21858150D01*
X7448396Y-21858150D02*
X7467444Y-21867674D01*
X7467444Y-21867674D02*
X7476968Y-21886722D01*
X7476968Y-21886722D02*
X7476968Y-21905770D01*
X7476968Y-21905770D02*
X7381730Y-21924817D01*
X7553158Y-21981960D02*
X7572206Y-21991484D01*
X7572206Y-21991484D02*
X7610301Y-21991484D01*
X7610301Y-21991484D02*
X7629349Y-21981960D01*
X7629349Y-21981960D02*
X7638872Y-21962912D01*
X7638872Y-21962912D02*
X7638872Y-21953389D01*
X7638872Y-21953389D02*
X7629349Y-21934341D01*
X7629349Y-21934341D02*
X7610301Y-21924817D01*
X7610301Y-21924817D02*
X7581730Y-21924817D01*
X7581730Y-21924817D02*
X7562682Y-21915293D01*
X7562682Y-21915293D02*
X7553158Y-21896246D01*
X7553158Y-21896246D02*
X7553158Y-21886722D01*
X7553158Y-21886722D02*
X7562682Y-21867674D01*
X7562682Y-21867674D02*
X7581730Y-21858150D01*
X7581730Y-21858150D02*
X7610301Y-21858150D01*
X7610301Y-21858150D02*
X7629349Y-21867674D01*
X7705539Y-22067674D02*
X7715063Y-22058150D01*
X7715063Y-22058150D02*
X7734111Y-22029579D01*
X7734111Y-22029579D02*
X7743634Y-22010531D01*
X7743634Y-22010531D02*
X7753158Y-21981960D01*
X7753158Y-21981960D02*
X7762682Y-21934341D01*
X7762682Y-21934341D02*
X7762682Y-21896246D01*
X7762682Y-21896246D02*
X7753158Y-21848627D01*
X7753158Y-21848627D02*
X7743634Y-21820055D01*
X7743634Y-21820055D02*
X7734111Y-21801008D01*
X7734111Y-21801008D02*
X7715063Y-21772436D01*
X7715063Y-21772436D02*
X7705539Y-21762912D01*
D13*
X2740000Y-22164000D02*
G75*
G02*
X2700000Y-22164000I-20000J0D01*
G01*
X2700000Y-22164000D02*
G75*
G02*
X2740000Y-22164000I20000J0D01*
G01*
D12*
X3038872Y-22055484D02*
X3057920Y-22055484D01*
X3057920Y-22055484D02*
X3076967Y-22065008D01*
X3076967Y-22065008D02*
X3086491Y-22074531D01*
X3086491Y-22074531D02*
X3096015Y-22093579D01*
X3096015Y-22093579D02*
X3105539Y-22131674D01*
X3105539Y-22131674D02*
X3105539Y-22179293D01*
X3105539Y-22179293D02*
X3096015Y-22217389D01*
X3096015Y-22217389D02*
X3086491Y-22236436D01*
X3086491Y-22236436D02*
X3076967Y-22245960D01*
X3076967Y-22245960D02*
X3057920Y-22255484D01*
X3057920Y-22255484D02*
X3038872Y-22255484D01*
X3038872Y-22255484D02*
X3019824Y-22245960D01*
X3019824Y-22245960D02*
X3010301Y-22236436D01*
X3010301Y-22236436D02*
X3000777Y-22217389D01*
X3000777Y-22217389D02*
X2991253Y-22179293D01*
X2991253Y-22179293D02*
X2991253Y-22131674D01*
X2991253Y-22131674D02*
X3000777Y-22093579D01*
X3000777Y-22093579D02*
X3010301Y-22074531D01*
X3010301Y-22074531D02*
X3019824Y-22065008D01*
X3019824Y-22065008D02*
X3038872Y-22055484D01*
X3191253Y-22236436D02*
X3200777Y-22245960D01*
X3200777Y-22245960D02*
X3191253Y-22255484D01*
X3191253Y-22255484D02*
X3181729Y-22245960D01*
X3181729Y-22245960D02*
X3191253Y-22236436D01*
X3191253Y-22236436D02*
X3191253Y-22255484D01*
X3372205Y-22122150D02*
X3372205Y-22255484D01*
X3324586Y-22045960D02*
X3276967Y-22188817D01*
X3276967Y-22188817D02*
X3400777Y-22188817D01*
X3515062Y-22055484D02*
X3534110Y-22055484D01*
X3534110Y-22055484D02*
X3553158Y-22065008D01*
X3553158Y-22065008D02*
X3562682Y-22074531D01*
X3562682Y-22074531D02*
X3572205Y-22093579D01*
X3572205Y-22093579D02*
X3581729Y-22131674D01*
X3581729Y-22131674D02*
X3581729Y-22179293D01*
X3581729Y-22179293D02*
X3572205Y-22217389D01*
X3572205Y-22217389D02*
X3562682Y-22236436D01*
X3562682Y-22236436D02*
X3553158Y-22245960D01*
X3553158Y-22245960D02*
X3534110Y-22255484D01*
X3534110Y-22255484D02*
X3515062Y-22255484D01*
X3515062Y-22255484D02*
X3496015Y-22245960D01*
X3496015Y-22245960D02*
X3486491Y-22236436D01*
X3486491Y-22236436D02*
X3476967Y-22217389D01*
X3476967Y-22217389D02*
X3467443Y-22179293D01*
X3467443Y-22179293D02*
X3467443Y-22131674D01*
X3467443Y-22131674D02*
X3476967Y-22093579D01*
X3476967Y-22093579D02*
X3486491Y-22074531D01*
X3486491Y-22074531D02*
X3496015Y-22065008D01*
X3496015Y-22065008D02*
X3515062Y-22055484D01*
X3705539Y-22055484D02*
X3724586Y-22055484D01*
X3724586Y-22055484D02*
X3743634Y-22065008D01*
X3743634Y-22065008D02*
X3753158Y-22074531D01*
X3753158Y-22074531D02*
X3762682Y-22093579D01*
X3762682Y-22093579D02*
X3772205Y-22131674D01*
X3772205Y-22131674D02*
X3772205Y-22179293D01*
X3772205Y-22179293D02*
X3762682Y-22217389D01*
X3762682Y-22217389D02*
X3753158Y-22236436D01*
X3753158Y-22236436D02*
X3743634Y-22245960D01*
X3743634Y-22245960D02*
X3724586Y-22255484D01*
X3724586Y-22255484D02*
X3705539Y-22255484D01*
X3705539Y-22255484D02*
X3686491Y-22245960D01*
X3686491Y-22245960D02*
X3676967Y-22236436D01*
X3676967Y-22236436D02*
X3667443Y-22217389D01*
X3667443Y-22217389D02*
X3657920Y-22179293D01*
X3657920Y-22179293D02*
X3657920Y-22131674D01*
X3657920Y-22131674D02*
X3667443Y-22093579D01*
X3667443Y-22093579D02*
X3676967Y-22074531D01*
X3676967Y-22074531D02*
X3686491Y-22065008D01*
X3686491Y-22065008D02*
X3705539Y-22055484D01*
X3857920Y-22255484D02*
X3857920Y-22122150D01*
X3857920Y-22141198D02*
X3867443Y-22131674D01*
X3867443Y-22131674D02*
X3886491Y-22122150D01*
X3886491Y-22122150D02*
X3915063Y-22122150D01*
X3915063Y-22122150D02*
X3934110Y-22131674D01*
X3934110Y-22131674D02*
X3943634Y-22150722D01*
X3943634Y-22150722D02*
X3943634Y-22255484D01*
X3943634Y-22150722D02*
X3953158Y-22131674D01*
X3953158Y-22131674D02*
X3972205Y-22122150D01*
X3972205Y-22122150D02*
X4000777Y-22122150D01*
X4000777Y-22122150D02*
X4019824Y-22131674D01*
X4019824Y-22131674D02*
X4029348Y-22150722D01*
X4029348Y-22150722D02*
X4029348Y-22255484D01*
X4124586Y-22255484D02*
X4124586Y-22122150D01*
X4124586Y-22141198D02*
X4134110Y-22131674D01*
X4134110Y-22131674D02*
X4153158Y-22122150D01*
X4153158Y-22122150D02*
X4181729Y-22122150D01*
X4181729Y-22122150D02*
X4200777Y-22131674D01*
X4200777Y-22131674D02*
X4210301Y-22150722D01*
X4210301Y-22150722D02*
X4210301Y-22255484D01*
X4210301Y-22150722D02*
X4219825Y-22131674D01*
X4219825Y-22131674D02*
X4238872Y-22122150D01*
X4238872Y-22122150D02*
X4267444Y-22122150D01*
X4267444Y-22122150D02*
X4286491Y-22131674D01*
X4286491Y-22131674D02*
X4296015Y-22150722D01*
X4296015Y-22150722D02*
X4296015Y-22255484D01*
X4686491Y-22045960D02*
X4515063Y-22303103D01*
X4943634Y-22055484D02*
X4962682Y-22055484D01*
X4962682Y-22055484D02*
X4981729Y-22065008D01*
X4981729Y-22065008D02*
X4991253Y-22074531D01*
X4991253Y-22074531D02*
X5000777Y-22093579D01*
X5000777Y-22093579D02*
X5010301Y-22131674D01*
X5010301Y-22131674D02*
X5010301Y-22179293D01*
X5010301Y-22179293D02*
X5000777Y-22217389D01*
X5000777Y-22217389D02*
X4991253Y-22236436D01*
X4991253Y-22236436D02*
X4981729Y-22245960D01*
X4981729Y-22245960D02*
X4962682Y-22255484D01*
X4962682Y-22255484D02*
X4943634Y-22255484D01*
X4943634Y-22255484D02*
X4924587Y-22245960D01*
X4924587Y-22245960D02*
X4915063Y-22236436D01*
X4915063Y-22236436D02*
X4905539Y-22217389D01*
X4905539Y-22217389D02*
X4896015Y-22179293D01*
X4896015Y-22179293D02*
X4896015Y-22131674D01*
X4896015Y-22131674D02*
X4905539Y-22093579D01*
X4905539Y-22093579D02*
X4915063Y-22074531D01*
X4915063Y-22074531D02*
X4924587Y-22065008D01*
X4924587Y-22065008D02*
X4943634Y-22055484D01*
X5096015Y-22236436D02*
X5105539Y-22245960D01*
X5105539Y-22245960D02*
X5096015Y-22255484D01*
X5096015Y-22255484D02*
X5086491Y-22245960D01*
X5086491Y-22245960D02*
X5096015Y-22236436D01*
X5096015Y-22236436D02*
X5096015Y-22255484D01*
X5229348Y-22055484D02*
X5248396Y-22055484D01*
X5248396Y-22055484D02*
X5267444Y-22065008D01*
X5267444Y-22065008D02*
X5276968Y-22074531D01*
X5276968Y-22074531D02*
X5286491Y-22093579D01*
X5286491Y-22093579D02*
X5296015Y-22131674D01*
X5296015Y-22131674D02*
X5296015Y-22179293D01*
X5296015Y-22179293D02*
X5286491Y-22217389D01*
X5286491Y-22217389D02*
X5276968Y-22236436D01*
X5276968Y-22236436D02*
X5267444Y-22245960D01*
X5267444Y-22245960D02*
X5248396Y-22255484D01*
X5248396Y-22255484D02*
X5229348Y-22255484D01*
X5229348Y-22255484D02*
X5210301Y-22245960D01*
X5210301Y-22245960D02*
X5200777Y-22236436D01*
X5200777Y-22236436D02*
X5191253Y-22217389D01*
X5191253Y-22217389D02*
X5181729Y-22179293D01*
X5181729Y-22179293D02*
X5181729Y-22131674D01*
X5181729Y-22131674D02*
X5191253Y-22093579D01*
X5191253Y-22093579D02*
X5200777Y-22074531D01*
X5200777Y-22074531D02*
X5210301Y-22065008D01*
X5210301Y-22065008D02*
X5229348Y-22055484D01*
X5486491Y-22255484D02*
X5372206Y-22255484D01*
X5429348Y-22255484D02*
X5429348Y-22055484D01*
X5429348Y-22055484D02*
X5410301Y-22084055D01*
X5410301Y-22084055D02*
X5391253Y-22103103D01*
X5391253Y-22103103D02*
X5372206Y-22112627D01*
X5667444Y-22055484D02*
X5572206Y-22055484D01*
X5572206Y-22055484D02*
X5562682Y-22150722D01*
X5562682Y-22150722D02*
X5572206Y-22141198D01*
X5572206Y-22141198D02*
X5591253Y-22131674D01*
X5591253Y-22131674D02*
X5638872Y-22131674D01*
X5638872Y-22131674D02*
X5657920Y-22141198D01*
X5657920Y-22141198D02*
X5667444Y-22150722D01*
X5667444Y-22150722D02*
X5676967Y-22169770D01*
X5676967Y-22169770D02*
X5676967Y-22217389D01*
X5676967Y-22217389D02*
X5667444Y-22236436D01*
X5667444Y-22236436D02*
X5657920Y-22245960D01*
X5657920Y-22245960D02*
X5638872Y-22255484D01*
X5638872Y-22255484D02*
X5591253Y-22255484D01*
X5591253Y-22255484D02*
X5572206Y-22245960D01*
X5572206Y-22245960D02*
X5562682Y-22236436D01*
X5743634Y-22055484D02*
X5876967Y-22055484D01*
X5876967Y-22055484D02*
X5791253Y-22255484D01*
X5943634Y-22055484D02*
X5943634Y-22093579D01*
X6019825Y-22055484D02*
X6019825Y-22093579D01*
X6315063Y-22331674D02*
X6305539Y-22322150D01*
X6305539Y-22322150D02*
X6286491Y-22293579D01*
X6286491Y-22293579D02*
X6276968Y-22274531D01*
X6276968Y-22274531D02*
X6267444Y-22245960D01*
X6267444Y-22245960D02*
X6257920Y-22198341D01*
X6257920Y-22198341D02*
X6257920Y-22160246D01*
X6257920Y-22160246D02*
X6267444Y-22112627D01*
X6267444Y-22112627D02*
X6276968Y-22084055D01*
X6276968Y-22084055D02*
X6286491Y-22065008D01*
X6286491Y-22065008D02*
X6305539Y-22036436D01*
X6305539Y-22036436D02*
X6315063Y-22026912D01*
X6372206Y-22055484D02*
X6496015Y-22055484D01*
X6496015Y-22055484D02*
X6429348Y-22131674D01*
X6429348Y-22131674D02*
X6457920Y-22131674D01*
X6457920Y-22131674D02*
X6476968Y-22141198D01*
X6476968Y-22141198D02*
X6486491Y-22150722D01*
X6486491Y-22150722D02*
X6496015Y-22169770D01*
X6496015Y-22169770D02*
X6496015Y-22217389D01*
X6496015Y-22217389D02*
X6486491Y-22236436D01*
X6486491Y-22236436D02*
X6476968Y-22245960D01*
X6476968Y-22245960D02*
X6457920Y-22255484D01*
X6457920Y-22255484D02*
X6400777Y-22255484D01*
X6400777Y-22255484D02*
X6381729Y-22245960D01*
X6381729Y-22245960D02*
X6372206Y-22236436D01*
X6572206Y-22074531D02*
X6581729Y-22065008D01*
X6581729Y-22065008D02*
X6600777Y-22055484D01*
X6600777Y-22055484D02*
X6648396Y-22055484D01*
X6648396Y-22055484D02*
X6667444Y-22065008D01*
X6667444Y-22065008D02*
X6676968Y-22074531D01*
X6676968Y-22074531D02*
X6686491Y-22093579D01*
X6686491Y-22093579D02*
X6686491Y-22112627D01*
X6686491Y-22112627D02*
X6676968Y-22141198D01*
X6676968Y-22141198D02*
X6562682Y-22255484D01*
X6562682Y-22255484D02*
X6686491Y-22255484D01*
X6924587Y-22255484D02*
X6924587Y-22055484D01*
X7010301Y-22255484D02*
X7010301Y-22150722D01*
X7010301Y-22150722D02*
X7000777Y-22131674D01*
X7000777Y-22131674D02*
X6981730Y-22122150D01*
X6981730Y-22122150D02*
X6953158Y-22122150D01*
X6953158Y-22122150D02*
X6934110Y-22131674D01*
X6934110Y-22131674D02*
X6924587Y-22141198D01*
X7134110Y-22255484D02*
X7115063Y-22245960D01*
X7115063Y-22245960D02*
X7105539Y-22236436D01*
X7105539Y-22236436D02*
X7096015Y-22217389D01*
X7096015Y-22217389D02*
X7096015Y-22160246D01*
X7096015Y-22160246D02*
X7105539Y-22141198D01*
X7105539Y-22141198D02*
X7115063Y-22131674D01*
X7115063Y-22131674D02*
X7134110Y-22122150D01*
X7134110Y-22122150D02*
X7162682Y-22122150D01*
X7162682Y-22122150D02*
X7181730Y-22131674D01*
X7181730Y-22131674D02*
X7191253Y-22141198D01*
X7191253Y-22141198D02*
X7200777Y-22160246D01*
X7200777Y-22160246D02*
X7200777Y-22217389D01*
X7200777Y-22217389D02*
X7191253Y-22236436D01*
X7191253Y-22236436D02*
X7181730Y-22245960D01*
X7181730Y-22245960D02*
X7162682Y-22255484D01*
X7162682Y-22255484D02*
X7134110Y-22255484D01*
X7315063Y-22255484D02*
X7296015Y-22245960D01*
X7296015Y-22245960D02*
X7286491Y-22226912D01*
X7286491Y-22226912D02*
X7286491Y-22055484D01*
X7467444Y-22245960D02*
X7448396Y-22255484D01*
X7448396Y-22255484D02*
X7410301Y-22255484D01*
X7410301Y-22255484D02*
X7391253Y-22245960D01*
X7391253Y-22245960D02*
X7381730Y-22226912D01*
X7381730Y-22226912D02*
X7381730Y-22150722D01*
X7381730Y-22150722D02*
X7391253Y-22131674D01*
X7391253Y-22131674D02*
X7410301Y-22122150D01*
X7410301Y-22122150D02*
X7448396Y-22122150D01*
X7448396Y-22122150D02*
X7467444Y-22131674D01*
X7467444Y-22131674D02*
X7476968Y-22150722D01*
X7476968Y-22150722D02*
X7476968Y-22169770D01*
X7476968Y-22169770D02*
X7381730Y-22188817D01*
X7553158Y-22245960D02*
X7572206Y-22255484D01*
X7572206Y-22255484D02*
X7610301Y-22255484D01*
X7610301Y-22255484D02*
X7629349Y-22245960D01*
X7629349Y-22245960D02*
X7638872Y-22226912D01*
X7638872Y-22226912D02*
X7638872Y-22217389D01*
X7638872Y-22217389D02*
X7629349Y-22198341D01*
X7629349Y-22198341D02*
X7610301Y-22188817D01*
X7610301Y-22188817D02*
X7581730Y-22188817D01*
X7581730Y-22188817D02*
X7562682Y-22179293D01*
X7562682Y-22179293D02*
X7553158Y-22160246D01*
X7553158Y-22160246D02*
X7553158Y-22150722D01*
X7553158Y-22150722D02*
X7562682Y-22131674D01*
X7562682Y-22131674D02*
X7581730Y-22122150D01*
X7581730Y-22122150D02*
X7610301Y-22122150D01*
X7610301Y-22122150D02*
X7629349Y-22131674D01*
X7705539Y-22331674D02*
X7715063Y-22322150D01*
X7715063Y-22322150D02*
X7734111Y-22293579D01*
X7734111Y-22293579D02*
X7743634Y-22274531D01*
X7743634Y-22274531D02*
X7753158Y-22245960D01*
X7753158Y-22245960D02*
X7762682Y-22198341D01*
X7762682Y-22198341D02*
X7762682Y-22160246D01*
X7762682Y-22160246D02*
X7753158Y-22112627D01*
X7753158Y-22112627D02*
X7743634Y-22084055D01*
X7743634Y-22084055D02*
X7734111Y-22065008D01*
X7734111Y-22065008D02*
X7715063Y-22036436D01*
X7715063Y-22036436D02*
X7705539Y-22026912D01*
D13*
X2700000Y-22388000D02*
X2700000Y-22468000D01*
X2660000Y-22428000D02*
X2740000Y-22428000D01*
D12*
X3038872Y-22319484D02*
X3057920Y-22319484D01*
X3057920Y-22319484D02*
X3076967Y-22329008D01*
X3076967Y-22329008D02*
X3086491Y-22338531D01*
X3086491Y-22338531D02*
X3096015Y-22357579D01*
X3096015Y-22357579D02*
X3105539Y-22395674D01*
X3105539Y-22395674D02*
X3105539Y-22443293D01*
X3105539Y-22443293D02*
X3096015Y-22481388D01*
X3096015Y-22481388D02*
X3086491Y-22500436D01*
X3086491Y-22500436D02*
X3076967Y-22509960D01*
X3076967Y-22509960D02*
X3057920Y-22519484D01*
X3057920Y-22519484D02*
X3038872Y-22519484D01*
X3038872Y-22519484D02*
X3019824Y-22509960D01*
X3019824Y-22509960D02*
X3010301Y-22500436D01*
X3010301Y-22500436D02*
X3000777Y-22481388D01*
X3000777Y-22481388D02*
X2991253Y-22443293D01*
X2991253Y-22443293D02*
X2991253Y-22395674D01*
X2991253Y-22395674D02*
X3000777Y-22357579D01*
X3000777Y-22357579D02*
X3010301Y-22338531D01*
X3010301Y-22338531D02*
X3019824Y-22329008D01*
X3019824Y-22329008D02*
X3038872Y-22319484D01*
X3191253Y-22500436D02*
X3200777Y-22509960D01*
X3200777Y-22509960D02*
X3191253Y-22519484D01*
X3191253Y-22519484D02*
X3181729Y-22509960D01*
X3181729Y-22509960D02*
X3191253Y-22500436D01*
X3191253Y-22500436D02*
X3191253Y-22519484D01*
X3315062Y-22405198D02*
X3296015Y-22395674D01*
X3296015Y-22395674D02*
X3286491Y-22386150D01*
X3286491Y-22386150D02*
X3276967Y-22367103D01*
X3276967Y-22367103D02*
X3276967Y-22357579D01*
X3276967Y-22357579D02*
X3286491Y-22338531D01*
X3286491Y-22338531D02*
X3296015Y-22329008D01*
X3296015Y-22329008D02*
X3315062Y-22319484D01*
X3315062Y-22319484D02*
X3353158Y-22319484D01*
X3353158Y-22319484D02*
X3372205Y-22329008D01*
X3372205Y-22329008D02*
X3381729Y-22338531D01*
X3381729Y-22338531D02*
X3391253Y-22357579D01*
X3391253Y-22357579D02*
X3391253Y-22367103D01*
X3391253Y-22367103D02*
X3381729Y-22386150D01*
X3381729Y-22386150D02*
X3372205Y-22395674D01*
X3372205Y-22395674D02*
X3353158Y-22405198D01*
X3353158Y-22405198D02*
X3315062Y-22405198D01*
X3315062Y-22405198D02*
X3296015Y-22414722D01*
X3296015Y-22414722D02*
X3286491Y-22424246D01*
X3286491Y-22424246D02*
X3276967Y-22443293D01*
X3276967Y-22443293D02*
X3276967Y-22481388D01*
X3276967Y-22481388D02*
X3286491Y-22500436D01*
X3286491Y-22500436D02*
X3296015Y-22509960D01*
X3296015Y-22509960D02*
X3315062Y-22519484D01*
X3315062Y-22519484D02*
X3353158Y-22519484D01*
X3353158Y-22519484D02*
X3372205Y-22509960D01*
X3372205Y-22509960D02*
X3381729Y-22500436D01*
X3381729Y-22500436D02*
X3391253Y-22481388D01*
X3391253Y-22481388D02*
X3391253Y-22443293D01*
X3391253Y-22443293D02*
X3381729Y-22424246D01*
X3381729Y-22424246D02*
X3372205Y-22414722D01*
X3372205Y-22414722D02*
X3353158Y-22405198D01*
X3515062Y-22319484D02*
X3534110Y-22319484D01*
X3534110Y-22319484D02*
X3553158Y-22329008D01*
X3553158Y-22329008D02*
X3562682Y-22338531D01*
X3562682Y-22338531D02*
X3572205Y-22357579D01*
X3572205Y-22357579D02*
X3581729Y-22395674D01*
X3581729Y-22395674D02*
X3581729Y-22443293D01*
X3581729Y-22443293D02*
X3572205Y-22481388D01*
X3572205Y-22481388D02*
X3562682Y-22500436D01*
X3562682Y-22500436D02*
X3553158Y-22509960D01*
X3553158Y-22509960D02*
X3534110Y-22519484D01*
X3534110Y-22519484D02*
X3515062Y-22519484D01*
X3515062Y-22519484D02*
X3496015Y-22509960D01*
X3496015Y-22509960D02*
X3486491Y-22500436D01*
X3486491Y-22500436D02*
X3476967Y-22481388D01*
X3476967Y-22481388D02*
X3467443Y-22443293D01*
X3467443Y-22443293D02*
X3467443Y-22395674D01*
X3467443Y-22395674D02*
X3476967Y-22357579D01*
X3476967Y-22357579D02*
X3486491Y-22338531D01*
X3486491Y-22338531D02*
X3496015Y-22329008D01*
X3496015Y-22329008D02*
X3515062Y-22319484D01*
X3705539Y-22319484D02*
X3724586Y-22319484D01*
X3724586Y-22319484D02*
X3743634Y-22329008D01*
X3743634Y-22329008D02*
X3753158Y-22338531D01*
X3753158Y-22338531D02*
X3762682Y-22357579D01*
X3762682Y-22357579D02*
X3772205Y-22395674D01*
X3772205Y-22395674D02*
X3772205Y-22443293D01*
X3772205Y-22443293D02*
X3762682Y-22481388D01*
X3762682Y-22481388D02*
X3753158Y-22500436D01*
X3753158Y-22500436D02*
X3743634Y-22509960D01*
X3743634Y-22509960D02*
X3724586Y-22519484D01*
X3724586Y-22519484D02*
X3705539Y-22519484D01*
X3705539Y-22519484D02*
X3686491Y-22509960D01*
X3686491Y-22509960D02*
X3676967Y-22500436D01*
X3676967Y-22500436D02*
X3667443Y-22481388D01*
X3667443Y-22481388D02*
X3657920Y-22443293D01*
X3657920Y-22443293D02*
X3657920Y-22395674D01*
X3657920Y-22395674D02*
X3667443Y-22357579D01*
X3667443Y-22357579D02*
X3676967Y-22338531D01*
X3676967Y-22338531D02*
X3686491Y-22329008D01*
X3686491Y-22329008D02*
X3705539Y-22319484D01*
X3857920Y-22519484D02*
X3857920Y-22386150D01*
X3857920Y-22405198D02*
X3867443Y-22395674D01*
X3867443Y-22395674D02*
X3886491Y-22386150D01*
X3886491Y-22386150D02*
X3915063Y-22386150D01*
X3915063Y-22386150D02*
X3934110Y-22395674D01*
X3934110Y-22395674D02*
X3943634Y-22414722D01*
X3943634Y-22414722D02*
X3943634Y-22519484D01*
X3943634Y-22414722D02*
X3953158Y-22395674D01*
X3953158Y-22395674D02*
X3972205Y-22386150D01*
X3972205Y-22386150D02*
X4000777Y-22386150D01*
X4000777Y-22386150D02*
X4019824Y-22395674D01*
X4019824Y-22395674D02*
X4029348Y-22414722D01*
X4029348Y-22414722D02*
X4029348Y-22519484D01*
X4124586Y-22519484D02*
X4124586Y-22386150D01*
X4124586Y-22405198D02*
X4134110Y-22395674D01*
X4134110Y-22395674D02*
X4153158Y-22386150D01*
X4153158Y-22386150D02*
X4181729Y-22386150D01*
X4181729Y-22386150D02*
X4200777Y-22395674D01*
X4200777Y-22395674D02*
X4210301Y-22414722D01*
X4210301Y-22414722D02*
X4210301Y-22519484D01*
X4210301Y-22414722D02*
X4219825Y-22395674D01*
X4219825Y-22395674D02*
X4238872Y-22386150D01*
X4238872Y-22386150D02*
X4267444Y-22386150D01*
X4267444Y-22386150D02*
X4286491Y-22395674D01*
X4286491Y-22395674D02*
X4296015Y-22414722D01*
X4296015Y-22414722D02*
X4296015Y-22519484D01*
X4686491Y-22309960D02*
X4515063Y-22567103D01*
X4943634Y-22319484D02*
X4962682Y-22319484D01*
X4962682Y-22319484D02*
X4981729Y-22329008D01*
X4981729Y-22329008D02*
X4991253Y-22338531D01*
X4991253Y-22338531D02*
X5000777Y-22357579D01*
X5000777Y-22357579D02*
X5010301Y-22395674D01*
X5010301Y-22395674D02*
X5010301Y-22443293D01*
X5010301Y-22443293D02*
X5000777Y-22481388D01*
X5000777Y-22481388D02*
X4991253Y-22500436D01*
X4991253Y-22500436D02*
X4981729Y-22509960D01*
X4981729Y-22509960D02*
X4962682Y-22519484D01*
X4962682Y-22519484D02*
X4943634Y-22519484D01*
X4943634Y-22519484D02*
X4924587Y-22509960D01*
X4924587Y-22509960D02*
X4915063Y-22500436D01*
X4915063Y-22500436D02*
X4905539Y-22481388D01*
X4905539Y-22481388D02*
X4896015Y-22443293D01*
X4896015Y-22443293D02*
X4896015Y-22395674D01*
X4896015Y-22395674D02*
X4905539Y-22357579D01*
X4905539Y-22357579D02*
X4915063Y-22338531D01*
X4915063Y-22338531D02*
X4924587Y-22329008D01*
X4924587Y-22329008D02*
X4943634Y-22319484D01*
X5096015Y-22500436D02*
X5105539Y-22509960D01*
X5105539Y-22509960D02*
X5096015Y-22519484D01*
X5096015Y-22519484D02*
X5086491Y-22509960D01*
X5086491Y-22509960D02*
X5096015Y-22500436D01*
X5096015Y-22500436D02*
X5096015Y-22519484D01*
X5229348Y-22319484D02*
X5248396Y-22319484D01*
X5248396Y-22319484D02*
X5267444Y-22329008D01*
X5267444Y-22329008D02*
X5276968Y-22338531D01*
X5276968Y-22338531D02*
X5286491Y-22357579D01*
X5286491Y-22357579D02*
X5296015Y-22395674D01*
X5296015Y-22395674D02*
X5296015Y-22443293D01*
X5296015Y-22443293D02*
X5286491Y-22481388D01*
X5286491Y-22481388D02*
X5276968Y-22500436D01*
X5276968Y-22500436D02*
X5267444Y-22509960D01*
X5267444Y-22509960D02*
X5248396Y-22519484D01*
X5248396Y-22519484D02*
X5229348Y-22519484D01*
X5229348Y-22519484D02*
X5210301Y-22509960D01*
X5210301Y-22509960D02*
X5200777Y-22500436D01*
X5200777Y-22500436D02*
X5191253Y-22481388D01*
X5191253Y-22481388D02*
X5181729Y-22443293D01*
X5181729Y-22443293D02*
X5181729Y-22395674D01*
X5181729Y-22395674D02*
X5191253Y-22357579D01*
X5191253Y-22357579D02*
X5200777Y-22338531D01*
X5200777Y-22338531D02*
X5210301Y-22329008D01*
X5210301Y-22329008D02*
X5229348Y-22319484D01*
X5362682Y-22319484D02*
X5486491Y-22319484D01*
X5486491Y-22319484D02*
X5419825Y-22395674D01*
X5419825Y-22395674D02*
X5448396Y-22395674D01*
X5448396Y-22395674D02*
X5467444Y-22405198D01*
X5467444Y-22405198D02*
X5476968Y-22414722D01*
X5476968Y-22414722D02*
X5486491Y-22433769D01*
X5486491Y-22433769D02*
X5486491Y-22481388D01*
X5486491Y-22481388D02*
X5476968Y-22500436D01*
X5476968Y-22500436D02*
X5467444Y-22509960D01*
X5467444Y-22509960D02*
X5448396Y-22519484D01*
X5448396Y-22519484D02*
X5391253Y-22519484D01*
X5391253Y-22519484D02*
X5372206Y-22509960D01*
X5372206Y-22509960D02*
X5362682Y-22500436D01*
X5676967Y-22519484D02*
X5562682Y-22519484D01*
X5619825Y-22519484D02*
X5619825Y-22319484D01*
X5619825Y-22319484D02*
X5600777Y-22348055D01*
X5600777Y-22348055D02*
X5581729Y-22367103D01*
X5581729Y-22367103D02*
X5562682Y-22376627D01*
X5857920Y-22319484D02*
X5762682Y-22319484D01*
X5762682Y-22319484D02*
X5753158Y-22414722D01*
X5753158Y-22414722D02*
X5762682Y-22405198D01*
X5762682Y-22405198D02*
X5781729Y-22395674D01*
X5781729Y-22395674D02*
X5829348Y-22395674D01*
X5829348Y-22395674D02*
X5848396Y-22405198D01*
X5848396Y-22405198D02*
X5857920Y-22414722D01*
X5857920Y-22414722D02*
X5867444Y-22433769D01*
X5867444Y-22433769D02*
X5867444Y-22481388D01*
X5867444Y-22481388D02*
X5857920Y-22500436D01*
X5857920Y-22500436D02*
X5848396Y-22509960D01*
X5848396Y-22509960D02*
X5829348Y-22519484D01*
X5829348Y-22519484D02*
X5781729Y-22519484D01*
X5781729Y-22519484D02*
X5762682Y-22509960D01*
X5762682Y-22509960D02*
X5753158Y-22500436D01*
X5943634Y-22319484D02*
X5943634Y-22357579D01*
X6019825Y-22319484D02*
X6019825Y-22357579D01*
X6315063Y-22595674D02*
X6305539Y-22586150D01*
X6305539Y-22586150D02*
X6286491Y-22557579D01*
X6286491Y-22557579D02*
X6276968Y-22538531D01*
X6276968Y-22538531D02*
X6267444Y-22509960D01*
X6267444Y-22509960D02*
X6257920Y-22462341D01*
X6257920Y-22462341D02*
X6257920Y-22424246D01*
X6257920Y-22424246D02*
X6267444Y-22376627D01*
X6267444Y-22376627D02*
X6276968Y-22348055D01*
X6276968Y-22348055D02*
X6286491Y-22329008D01*
X6286491Y-22329008D02*
X6305539Y-22300436D01*
X6305539Y-22300436D02*
X6315063Y-22290912D01*
X6381729Y-22338531D02*
X6391253Y-22329008D01*
X6391253Y-22329008D02*
X6410301Y-22319484D01*
X6410301Y-22319484D02*
X6457920Y-22319484D01*
X6457920Y-22319484D02*
X6476968Y-22329008D01*
X6476968Y-22329008D02*
X6486491Y-22338531D01*
X6486491Y-22338531D02*
X6496015Y-22357579D01*
X6496015Y-22357579D02*
X6496015Y-22376627D01*
X6496015Y-22376627D02*
X6486491Y-22405198D01*
X6486491Y-22405198D02*
X6372206Y-22519484D01*
X6372206Y-22519484D02*
X6496015Y-22519484D01*
X6734110Y-22519484D02*
X6734110Y-22319484D01*
X6819825Y-22519484D02*
X6819825Y-22414722D01*
X6819825Y-22414722D02*
X6810301Y-22395674D01*
X6810301Y-22395674D02*
X6791253Y-22386150D01*
X6791253Y-22386150D02*
X6762682Y-22386150D01*
X6762682Y-22386150D02*
X6743634Y-22395674D01*
X6743634Y-22395674D02*
X6734110Y-22405198D01*
X6943634Y-22519484D02*
X6924587Y-22509960D01*
X6924587Y-22509960D02*
X6915063Y-22500436D01*
X6915063Y-22500436D02*
X6905539Y-22481388D01*
X6905539Y-22481388D02*
X6905539Y-22424246D01*
X6905539Y-22424246D02*
X6915063Y-22405198D01*
X6915063Y-22405198D02*
X6924587Y-22395674D01*
X6924587Y-22395674D02*
X6943634Y-22386150D01*
X6943634Y-22386150D02*
X6972206Y-22386150D01*
X6972206Y-22386150D02*
X6991253Y-22395674D01*
X6991253Y-22395674D02*
X7000777Y-22405198D01*
X7000777Y-22405198D02*
X7010301Y-22424246D01*
X7010301Y-22424246D02*
X7010301Y-22481388D01*
X7010301Y-22481388D02*
X7000777Y-22500436D01*
X7000777Y-22500436D02*
X6991253Y-22509960D01*
X6991253Y-22509960D02*
X6972206Y-22519484D01*
X6972206Y-22519484D02*
X6943634Y-22519484D01*
X7124587Y-22519484D02*
X7105539Y-22509960D01*
X7105539Y-22509960D02*
X7096015Y-22490912D01*
X7096015Y-22490912D02*
X7096015Y-22319484D01*
X7276968Y-22509960D02*
X7257920Y-22519484D01*
X7257920Y-22519484D02*
X7219825Y-22519484D01*
X7219825Y-22519484D02*
X7200777Y-22509960D01*
X7200777Y-22509960D02*
X7191253Y-22490912D01*
X7191253Y-22490912D02*
X7191253Y-22414722D01*
X7191253Y-22414722D02*
X7200777Y-22395674D01*
X7200777Y-22395674D02*
X7219825Y-22386150D01*
X7219825Y-22386150D02*
X7257920Y-22386150D01*
X7257920Y-22386150D02*
X7276968Y-22395674D01*
X7276968Y-22395674D02*
X7286491Y-22414722D01*
X7286491Y-22414722D02*
X7286491Y-22433769D01*
X7286491Y-22433769D02*
X7191253Y-22452817D01*
X7362682Y-22509960D02*
X7381730Y-22519484D01*
X7381730Y-22519484D02*
X7419825Y-22519484D01*
X7419825Y-22519484D02*
X7438872Y-22509960D01*
X7438872Y-22509960D02*
X7448396Y-22490912D01*
X7448396Y-22490912D02*
X7448396Y-22481388D01*
X7448396Y-22481388D02*
X7438872Y-22462341D01*
X7438872Y-22462341D02*
X7419825Y-22452817D01*
X7419825Y-22452817D02*
X7391253Y-22452817D01*
X7391253Y-22452817D02*
X7372206Y-22443293D01*
X7372206Y-22443293D02*
X7362682Y-22424246D01*
X7362682Y-22424246D02*
X7362682Y-22414722D01*
X7362682Y-22414722D02*
X7372206Y-22395674D01*
X7372206Y-22395674D02*
X7391253Y-22386150D01*
X7391253Y-22386150D02*
X7419825Y-22386150D01*
X7419825Y-22386150D02*
X7438872Y-22395674D01*
X7515063Y-22595674D02*
X7524587Y-22586150D01*
X7524587Y-22586150D02*
X7543634Y-22557579D01*
X7543634Y-22557579D02*
X7553158Y-22538531D01*
X7553158Y-22538531D02*
X7562682Y-22509960D01*
X7562682Y-22509960D02*
X7572206Y-22462341D01*
X7572206Y-22462341D02*
X7572206Y-22424246D01*
X7572206Y-22424246D02*
X7562682Y-22376627D01*
X7562682Y-22376627D02*
X7553158Y-22348055D01*
X7553158Y-22348055D02*
X7543634Y-22329008D01*
X7543634Y-22329008D02*
X7524587Y-22300436D01*
X7524587Y-22300436D02*
X7515063Y-22290912D01*
D13*
X2725356Y-22727356D02*
X2725356Y-22656644D01*
X2654644Y-22656644D01*
X2654644Y-22727356D01*
X2725356Y-22727356D01*
D12*
X3105539Y-22783484D02*
X2991253Y-22783484D01*
X3048396Y-22783484D02*
X3048396Y-22583484D01*
X3048396Y-22583484D02*
X3029348Y-22612055D01*
X3029348Y-22612055D02*
X3010301Y-22631103D01*
X3010301Y-22631103D02*
X2991253Y-22640627D01*
X3191253Y-22764436D02*
X3200777Y-22773960D01*
X3200777Y-22773960D02*
X3191253Y-22783484D01*
X3191253Y-22783484D02*
X3181729Y-22773960D01*
X3181729Y-22773960D02*
X3191253Y-22764436D01*
X3191253Y-22764436D02*
X3191253Y-22783484D01*
X3324586Y-22583484D02*
X3343634Y-22583484D01*
X3343634Y-22583484D02*
X3362682Y-22593008D01*
X3362682Y-22593008D02*
X3372205Y-22602531D01*
X3372205Y-22602531D02*
X3381729Y-22621579D01*
X3381729Y-22621579D02*
X3391253Y-22659674D01*
X3391253Y-22659674D02*
X3391253Y-22707293D01*
X3391253Y-22707293D02*
X3381729Y-22745388D01*
X3381729Y-22745388D02*
X3372205Y-22764436D01*
X3372205Y-22764436D02*
X3362682Y-22773960D01*
X3362682Y-22773960D02*
X3343634Y-22783484D01*
X3343634Y-22783484D02*
X3324586Y-22783484D01*
X3324586Y-22783484D02*
X3305539Y-22773960D01*
X3305539Y-22773960D02*
X3296015Y-22764436D01*
X3296015Y-22764436D02*
X3286491Y-22745388D01*
X3286491Y-22745388D02*
X3276967Y-22707293D01*
X3276967Y-22707293D02*
X3276967Y-22659674D01*
X3276967Y-22659674D02*
X3286491Y-22621579D01*
X3286491Y-22621579D02*
X3296015Y-22602531D01*
X3296015Y-22602531D02*
X3305539Y-22593008D01*
X3305539Y-22593008D02*
X3324586Y-22583484D01*
X3515062Y-22583484D02*
X3534110Y-22583484D01*
X3534110Y-22583484D02*
X3553158Y-22593008D01*
X3553158Y-22593008D02*
X3562682Y-22602531D01*
X3562682Y-22602531D02*
X3572205Y-22621579D01*
X3572205Y-22621579D02*
X3581729Y-22659674D01*
X3581729Y-22659674D02*
X3581729Y-22707293D01*
X3581729Y-22707293D02*
X3572205Y-22745388D01*
X3572205Y-22745388D02*
X3562682Y-22764436D01*
X3562682Y-22764436D02*
X3553158Y-22773960D01*
X3553158Y-22773960D02*
X3534110Y-22783484D01*
X3534110Y-22783484D02*
X3515062Y-22783484D01*
X3515062Y-22783484D02*
X3496015Y-22773960D01*
X3496015Y-22773960D02*
X3486491Y-22764436D01*
X3486491Y-22764436D02*
X3476967Y-22745388D01*
X3476967Y-22745388D02*
X3467443Y-22707293D01*
X3467443Y-22707293D02*
X3467443Y-22659674D01*
X3467443Y-22659674D02*
X3476967Y-22621579D01*
X3476967Y-22621579D02*
X3486491Y-22602531D01*
X3486491Y-22602531D02*
X3496015Y-22593008D01*
X3496015Y-22593008D02*
X3515062Y-22583484D01*
X3705539Y-22583484D02*
X3724586Y-22583484D01*
X3724586Y-22583484D02*
X3743634Y-22593008D01*
X3743634Y-22593008D02*
X3753158Y-22602531D01*
X3753158Y-22602531D02*
X3762682Y-22621579D01*
X3762682Y-22621579D02*
X3772205Y-22659674D01*
X3772205Y-22659674D02*
X3772205Y-22707293D01*
X3772205Y-22707293D02*
X3762682Y-22745388D01*
X3762682Y-22745388D02*
X3753158Y-22764436D01*
X3753158Y-22764436D02*
X3743634Y-22773960D01*
X3743634Y-22773960D02*
X3724586Y-22783484D01*
X3724586Y-22783484D02*
X3705539Y-22783484D01*
X3705539Y-22783484D02*
X3686491Y-22773960D01*
X3686491Y-22773960D02*
X3676967Y-22764436D01*
X3676967Y-22764436D02*
X3667443Y-22745388D01*
X3667443Y-22745388D02*
X3657920Y-22707293D01*
X3657920Y-22707293D02*
X3657920Y-22659674D01*
X3657920Y-22659674D02*
X3667443Y-22621579D01*
X3667443Y-22621579D02*
X3676967Y-22602531D01*
X3676967Y-22602531D02*
X3686491Y-22593008D01*
X3686491Y-22593008D02*
X3705539Y-22583484D01*
X3857920Y-22783484D02*
X3857920Y-22650150D01*
X3857920Y-22669198D02*
X3867443Y-22659674D01*
X3867443Y-22659674D02*
X3886491Y-22650150D01*
X3886491Y-22650150D02*
X3915063Y-22650150D01*
X3915063Y-22650150D02*
X3934110Y-22659674D01*
X3934110Y-22659674D02*
X3943634Y-22678722D01*
X3943634Y-22678722D02*
X3943634Y-22783484D01*
X3943634Y-22678722D02*
X3953158Y-22659674D01*
X3953158Y-22659674D02*
X3972205Y-22650150D01*
X3972205Y-22650150D02*
X4000777Y-22650150D01*
X4000777Y-22650150D02*
X4019824Y-22659674D01*
X4019824Y-22659674D02*
X4029348Y-22678722D01*
X4029348Y-22678722D02*
X4029348Y-22783484D01*
X4124586Y-22783484D02*
X4124586Y-22650150D01*
X4124586Y-22669198D02*
X4134110Y-22659674D01*
X4134110Y-22659674D02*
X4153158Y-22650150D01*
X4153158Y-22650150D02*
X4181729Y-22650150D01*
X4181729Y-22650150D02*
X4200777Y-22659674D01*
X4200777Y-22659674D02*
X4210301Y-22678722D01*
X4210301Y-22678722D02*
X4210301Y-22783484D01*
X4210301Y-22678722D02*
X4219825Y-22659674D01*
X4219825Y-22659674D02*
X4238872Y-22650150D01*
X4238872Y-22650150D02*
X4267444Y-22650150D01*
X4267444Y-22650150D02*
X4286491Y-22659674D01*
X4286491Y-22659674D02*
X4296015Y-22678722D01*
X4296015Y-22678722D02*
X4296015Y-22783484D01*
X4686491Y-22573960D02*
X4515063Y-22831103D01*
X4943634Y-22583484D02*
X4962682Y-22583484D01*
X4962682Y-22583484D02*
X4981729Y-22593008D01*
X4981729Y-22593008D02*
X4991253Y-22602531D01*
X4991253Y-22602531D02*
X5000777Y-22621579D01*
X5000777Y-22621579D02*
X5010301Y-22659674D01*
X5010301Y-22659674D02*
X5010301Y-22707293D01*
X5010301Y-22707293D02*
X5000777Y-22745388D01*
X5000777Y-22745388D02*
X4991253Y-22764436D01*
X4991253Y-22764436D02*
X4981729Y-22773960D01*
X4981729Y-22773960D02*
X4962682Y-22783484D01*
X4962682Y-22783484D02*
X4943634Y-22783484D01*
X4943634Y-22783484D02*
X4924587Y-22773960D01*
X4924587Y-22773960D02*
X4915063Y-22764436D01*
X4915063Y-22764436D02*
X4905539Y-22745388D01*
X4905539Y-22745388D02*
X4896015Y-22707293D01*
X4896015Y-22707293D02*
X4896015Y-22659674D01*
X4896015Y-22659674D02*
X4905539Y-22621579D01*
X4905539Y-22621579D02*
X4915063Y-22602531D01*
X4915063Y-22602531D02*
X4924587Y-22593008D01*
X4924587Y-22593008D02*
X4943634Y-22583484D01*
X5096015Y-22764436D02*
X5105539Y-22773960D01*
X5105539Y-22773960D02*
X5096015Y-22783484D01*
X5096015Y-22783484D02*
X5086491Y-22773960D01*
X5086491Y-22773960D02*
X5096015Y-22764436D01*
X5096015Y-22764436D02*
X5096015Y-22783484D01*
X5229348Y-22583484D02*
X5248396Y-22583484D01*
X5248396Y-22583484D02*
X5267444Y-22593008D01*
X5267444Y-22593008D02*
X5276968Y-22602531D01*
X5276968Y-22602531D02*
X5286491Y-22621579D01*
X5286491Y-22621579D02*
X5296015Y-22659674D01*
X5296015Y-22659674D02*
X5296015Y-22707293D01*
X5296015Y-22707293D02*
X5286491Y-22745388D01*
X5286491Y-22745388D02*
X5276968Y-22764436D01*
X5276968Y-22764436D02*
X5267444Y-22773960D01*
X5267444Y-22773960D02*
X5248396Y-22783484D01*
X5248396Y-22783484D02*
X5229348Y-22783484D01*
X5229348Y-22783484D02*
X5210301Y-22773960D01*
X5210301Y-22773960D02*
X5200777Y-22764436D01*
X5200777Y-22764436D02*
X5191253Y-22745388D01*
X5191253Y-22745388D02*
X5181729Y-22707293D01*
X5181729Y-22707293D02*
X5181729Y-22659674D01*
X5181729Y-22659674D02*
X5191253Y-22621579D01*
X5191253Y-22621579D02*
X5200777Y-22602531D01*
X5200777Y-22602531D02*
X5210301Y-22593008D01*
X5210301Y-22593008D02*
X5229348Y-22583484D01*
X5362682Y-22583484D02*
X5486491Y-22583484D01*
X5486491Y-22583484D02*
X5419825Y-22659674D01*
X5419825Y-22659674D02*
X5448396Y-22659674D01*
X5448396Y-22659674D02*
X5467444Y-22669198D01*
X5467444Y-22669198D02*
X5476968Y-22678722D01*
X5476968Y-22678722D02*
X5486491Y-22697769D01*
X5486491Y-22697769D02*
X5486491Y-22745388D01*
X5486491Y-22745388D02*
X5476968Y-22764436D01*
X5476968Y-22764436D02*
X5467444Y-22773960D01*
X5467444Y-22773960D02*
X5448396Y-22783484D01*
X5448396Y-22783484D02*
X5391253Y-22783484D01*
X5391253Y-22783484D02*
X5372206Y-22773960D01*
X5372206Y-22773960D02*
X5362682Y-22764436D01*
X5581729Y-22783484D02*
X5619825Y-22783484D01*
X5619825Y-22783484D02*
X5638872Y-22773960D01*
X5638872Y-22773960D02*
X5648396Y-22764436D01*
X5648396Y-22764436D02*
X5667444Y-22735865D01*
X5667444Y-22735865D02*
X5676967Y-22697769D01*
X5676967Y-22697769D02*
X5676967Y-22621579D01*
X5676967Y-22621579D02*
X5667444Y-22602531D01*
X5667444Y-22602531D02*
X5657920Y-22593008D01*
X5657920Y-22593008D02*
X5638872Y-22583484D01*
X5638872Y-22583484D02*
X5600777Y-22583484D01*
X5600777Y-22583484D02*
X5581729Y-22593008D01*
X5581729Y-22593008D02*
X5572206Y-22602531D01*
X5572206Y-22602531D02*
X5562682Y-22621579D01*
X5562682Y-22621579D02*
X5562682Y-22669198D01*
X5562682Y-22669198D02*
X5572206Y-22688246D01*
X5572206Y-22688246D02*
X5581729Y-22697769D01*
X5581729Y-22697769D02*
X5600777Y-22707293D01*
X5600777Y-22707293D02*
X5638872Y-22707293D01*
X5638872Y-22707293D02*
X5657920Y-22697769D01*
X5657920Y-22697769D02*
X5667444Y-22688246D01*
X5667444Y-22688246D02*
X5676967Y-22669198D01*
X5848396Y-22650150D02*
X5848396Y-22783484D01*
X5800777Y-22573960D02*
X5753158Y-22716817D01*
X5753158Y-22716817D02*
X5876967Y-22716817D01*
X5943634Y-22583484D02*
X5943634Y-22621579D01*
X6019825Y-22583484D02*
X6019825Y-22621579D01*
X6315063Y-22859674D02*
X6305539Y-22850150D01*
X6305539Y-22850150D02*
X6286491Y-22821579D01*
X6286491Y-22821579D02*
X6276968Y-22802531D01*
X6276968Y-22802531D02*
X6267444Y-22773960D01*
X6267444Y-22773960D02*
X6257920Y-22726341D01*
X6257920Y-22726341D02*
X6257920Y-22688246D01*
X6257920Y-22688246D02*
X6267444Y-22640627D01*
X6267444Y-22640627D02*
X6276968Y-22612055D01*
X6276968Y-22612055D02*
X6286491Y-22593008D01*
X6286491Y-22593008D02*
X6305539Y-22564436D01*
X6305539Y-22564436D02*
X6315063Y-22554912D01*
X6400777Y-22783484D02*
X6438872Y-22783484D01*
X6438872Y-22783484D02*
X6457920Y-22773960D01*
X6457920Y-22773960D02*
X6467444Y-22764436D01*
X6467444Y-22764436D02*
X6486491Y-22735865D01*
X6486491Y-22735865D02*
X6496015Y-22697769D01*
X6496015Y-22697769D02*
X6496015Y-22621579D01*
X6496015Y-22621579D02*
X6486491Y-22602531D01*
X6486491Y-22602531D02*
X6476968Y-22593008D01*
X6476968Y-22593008D02*
X6457920Y-22583484D01*
X6457920Y-22583484D02*
X6419825Y-22583484D01*
X6419825Y-22583484D02*
X6400777Y-22593008D01*
X6400777Y-22593008D02*
X6391253Y-22602531D01*
X6391253Y-22602531D02*
X6381729Y-22621579D01*
X6381729Y-22621579D02*
X6381729Y-22669198D01*
X6381729Y-22669198D02*
X6391253Y-22688246D01*
X6391253Y-22688246D02*
X6400777Y-22697769D01*
X6400777Y-22697769D02*
X6419825Y-22707293D01*
X6419825Y-22707293D02*
X6457920Y-22707293D01*
X6457920Y-22707293D02*
X6476968Y-22697769D01*
X6476968Y-22697769D02*
X6486491Y-22688246D01*
X6486491Y-22688246D02*
X6496015Y-22669198D01*
X6734110Y-22783484D02*
X6734110Y-22583484D01*
X6819825Y-22783484D02*
X6819825Y-22678722D01*
X6819825Y-22678722D02*
X6810301Y-22659674D01*
X6810301Y-22659674D02*
X6791253Y-22650150D01*
X6791253Y-22650150D02*
X6762682Y-22650150D01*
X6762682Y-22650150D02*
X6743634Y-22659674D01*
X6743634Y-22659674D02*
X6734110Y-22669198D01*
X6943634Y-22783484D02*
X6924587Y-22773960D01*
X6924587Y-22773960D02*
X6915063Y-22764436D01*
X6915063Y-22764436D02*
X6905539Y-22745388D01*
X6905539Y-22745388D02*
X6905539Y-22688246D01*
X6905539Y-22688246D02*
X6915063Y-22669198D01*
X6915063Y-22669198D02*
X6924587Y-22659674D01*
X6924587Y-22659674D02*
X6943634Y-22650150D01*
X6943634Y-22650150D02*
X6972206Y-22650150D01*
X6972206Y-22650150D02*
X6991253Y-22659674D01*
X6991253Y-22659674D02*
X7000777Y-22669198D01*
X7000777Y-22669198D02*
X7010301Y-22688246D01*
X7010301Y-22688246D02*
X7010301Y-22745388D01*
X7010301Y-22745388D02*
X7000777Y-22764436D01*
X7000777Y-22764436D02*
X6991253Y-22773960D01*
X6991253Y-22773960D02*
X6972206Y-22783484D01*
X6972206Y-22783484D02*
X6943634Y-22783484D01*
X7124587Y-22783484D02*
X7105539Y-22773960D01*
X7105539Y-22773960D02*
X7096015Y-22754912D01*
X7096015Y-22754912D02*
X7096015Y-22583484D01*
X7276968Y-22773960D02*
X7257920Y-22783484D01*
X7257920Y-22783484D02*
X7219825Y-22783484D01*
X7219825Y-22783484D02*
X7200777Y-22773960D01*
X7200777Y-22773960D02*
X7191253Y-22754912D01*
X7191253Y-22754912D02*
X7191253Y-22678722D01*
X7191253Y-22678722D02*
X7200777Y-22659674D01*
X7200777Y-22659674D02*
X7219825Y-22650150D01*
X7219825Y-22650150D02*
X7257920Y-22650150D01*
X7257920Y-22650150D02*
X7276968Y-22659674D01*
X7276968Y-22659674D02*
X7286491Y-22678722D01*
X7286491Y-22678722D02*
X7286491Y-22697769D01*
X7286491Y-22697769D02*
X7191253Y-22716817D01*
X7362682Y-22773960D02*
X7381730Y-22783484D01*
X7381730Y-22783484D02*
X7419825Y-22783484D01*
X7419825Y-22783484D02*
X7438872Y-22773960D01*
X7438872Y-22773960D02*
X7448396Y-22754912D01*
X7448396Y-22754912D02*
X7448396Y-22745388D01*
X7448396Y-22745388D02*
X7438872Y-22726341D01*
X7438872Y-22726341D02*
X7419825Y-22716817D01*
X7419825Y-22716817D02*
X7391253Y-22716817D01*
X7391253Y-22716817D02*
X7372206Y-22707293D01*
X7372206Y-22707293D02*
X7362682Y-22688246D01*
X7362682Y-22688246D02*
X7362682Y-22678722D01*
X7362682Y-22678722D02*
X7372206Y-22659674D01*
X7372206Y-22659674D02*
X7391253Y-22650150D01*
X7391253Y-22650150D02*
X7419825Y-22650150D01*
X7419825Y-22650150D02*
X7438872Y-22659674D01*
X7515063Y-22859674D02*
X7524587Y-22850150D01*
X7524587Y-22850150D02*
X7543634Y-22821579D01*
X7543634Y-22821579D02*
X7553158Y-22802531D01*
X7553158Y-22802531D02*
X7562682Y-22773960D01*
X7562682Y-22773960D02*
X7572206Y-22726341D01*
X7572206Y-22726341D02*
X7572206Y-22688246D01*
X7572206Y-22688246D02*
X7562682Y-22640627D01*
X7562682Y-22640627D02*
X7553158Y-22612055D01*
X7553158Y-22612055D02*
X7543634Y-22593008D01*
X7543634Y-22593008D02*
X7524587Y-22564436D01*
X7524587Y-22564436D02*
X7515063Y-22554912D01*
D14*
X2685390Y-23010610D02*
X2740000Y-22956000D01*
X2685390Y-22901390D01*
X2630780Y-22956000D01*
X2685390Y-23010610D01*
D12*
X3105539Y-23047484D02*
X2991253Y-23047484D01*
X3048396Y-23047484D02*
X3048396Y-22847484D01*
X3048396Y-22847484D02*
X3029348Y-22876055D01*
X3029348Y-22876055D02*
X3010301Y-22895103D01*
X3010301Y-22895103D02*
X2991253Y-22904627D01*
X3191253Y-23028436D02*
X3200777Y-23037960D01*
X3200777Y-23037960D02*
X3191253Y-23047484D01*
X3191253Y-23047484D02*
X3181729Y-23037960D01*
X3181729Y-23037960D02*
X3191253Y-23028436D01*
X3191253Y-23028436D02*
X3191253Y-23047484D01*
X3324586Y-22847484D02*
X3343634Y-22847484D01*
X3343634Y-22847484D02*
X3362682Y-22857008D01*
X3362682Y-22857008D02*
X3372205Y-22866531D01*
X3372205Y-22866531D02*
X3381729Y-22885579D01*
X3381729Y-22885579D02*
X3391253Y-22923674D01*
X3391253Y-22923674D02*
X3391253Y-22971293D01*
X3391253Y-22971293D02*
X3381729Y-23009388D01*
X3381729Y-23009388D02*
X3372205Y-23028436D01*
X3372205Y-23028436D02*
X3362682Y-23037960D01*
X3362682Y-23037960D02*
X3343634Y-23047484D01*
X3343634Y-23047484D02*
X3324586Y-23047484D01*
X3324586Y-23047484D02*
X3305539Y-23037960D01*
X3305539Y-23037960D02*
X3296015Y-23028436D01*
X3296015Y-23028436D02*
X3286491Y-23009388D01*
X3286491Y-23009388D02*
X3276967Y-22971293D01*
X3276967Y-22971293D02*
X3276967Y-22923674D01*
X3276967Y-22923674D02*
X3286491Y-22885579D01*
X3286491Y-22885579D02*
X3296015Y-22866531D01*
X3296015Y-22866531D02*
X3305539Y-22857008D01*
X3305539Y-22857008D02*
X3324586Y-22847484D01*
X3486491Y-23047484D02*
X3524586Y-23047484D01*
X3524586Y-23047484D02*
X3543634Y-23037960D01*
X3543634Y-23037960D02*
X3553158Y-23028436D01*
X3553158Y-23028436D02*
X3572205Y-22999865D01*
X3572205Y-22999865D02*
X3581729Y-22961769D01*
X3581729Y-22961769D02*
X3581729Y-22885579D01*
X3581729Y-22885579D02*
X3572205Y-22866531D01*
X3572205Y-22866531D02*
X3562682Y-22857008D01*
X3562682Y-22857008D02*
X3543634Y-22847484D01*
X3543634Y-22847484D02*
X3505539Y-22847484D01*
X3505539Y-22847484D02*
X3486491Y-22857008D01*
X3486491Y-22857008D02*
X3476967Y-22866531D01*
X3476967Y-22866531D02*
X3467443Y-22885579D01*
X3467443Y-22885579D02*
X3467443Y-22933198D01*
X3467443Y-22933198D02*
X3476967Y-22952246D01*
X3476967Y-22952246D02*
X3486491Y-22961769D01*
X3486491Y-22961769D02*
X3505539Y-22971293D01*
X3505539Y-22971293D02*
X3543634Y-22971293D01*
X3543634Y-22971293D02*
X3562682Y-22961769D01*
X3562682Y-22961769D02*
X3572205Y-22952246D01*
X3572205Y-22952246D02*
X3581729Y-22933198D01*
X3657920Y-22866531D02*
X3667443Y-22857008D01*
X3667443Y-22857008D02*
X3686491Y-22847484D01*
X3686491Y-22847484D02*
X3734110Y-22847484D01*
X3734110Y-22847484D02*
X3753158Y-22857008D01*
X3753158Y-22857008D02*
X3762682Y-22866531D01*
X3762682Y-22866531D02*
X3772205Y-22885579D01*
X3772205Y-22885579D02*
X3772205Y-22904627D01*
X3772205Y-22904627D02*
X3762682Y-22933198D01*
X3762682Y-22933198D02*
X3648396Y-23047484D01*
X3648396Y-23047484D02*
X3772205Y-23047484D01*
X3857920Y-23047484D02*
X3857920Y-22914150D01*
X3857920Y-22933198D02*
X3867443Y-22923674D01*
X3867443Y-22923674D02*
X3886491Y-22914150D01*
X3886491Y-22914150D02*
X3915063Y-22914150D01*
X3915063Y-22914150D02*
X3934110Y-22923674D01*
X3934110Y-22923674D02*
X3943634Y-22942722D01*
X3943634Y-22942722D02*
X3943634Y-23047484D01*
X3943634Y-22942722D02*
X3953158Y-22923674D01*
X3953158Y-22923674D02*
X3972205Y-22914150D01*
X3972205Y-22914150D02*
X4000777Y-22914150D01*
X4000777Y-22914150D02*
X4019824Y-22923674D01*
X4019824Y-22923674D02*
X4029348Y-22942722D01*
X4029348Y-22942722D02*
X4029348Y-23047484D01*
X4124586Y-23047484D02*
X4124586Y-22914150D01*
X4124586Y-22933198D02*
X4134110Y-22923674D01*
X4134110Y-22923674D02*
X4153158Y-22914150D01*
X4153158Y-22914150D02*
X4181729Y-22914150D01*
X4181729Y-22914150D02*
X4200777Y-22923674D01*
X4200777Y-22923674D02*
X4210301Y-22942722D01*
X4210301Y-22942722D02*
X4210301Y-23047484D01*
X4210301Y-22942722D02*
X4219825Y-22923674D01*
X4219825Y-22923674D02*
X4238872Y-22914150D01*
X4238872Y-22914150D02*
X4267444Y-22914150D01*
X4267444Y-22914150D02*
X4286491Y-22923674D01*
X4286491Y-22923674D02*
X4296015Y-22942722D01*
X4296015Y-22942722D02*
X4296015Y-23047484D01*
X4686491Y-22837960D02*
X4515063Y-23095103D01*
X4943634Y-22847484D02*
X4962682Y-22847484D01*
X4962682Y-22847484D02*
X4981729Y-22857008D01*
X4981729Y-22857008D02*
X4991253Y-22866531D01*
X4991253Y-22866531D02*
X5000777Y-22885579D01*
X5000777Y-22885579D02*
X5010301Y-22923674D01*
X5010301Y-22923674D02*
X5010301Y-22971293D01*
X5010301Y-22971293D02*
X5000777Y-23009388D01*
X5000777Y-23009388D02*
X4991253Y-23028436D01*
X4991253Y-23028436D02*
X4981729Y-23037960D01*
X4981729Y-23037960D02*
X4962682Y-23047484D01*
X4962682Y-23047484D02*
X4943634Y-23047484D01*
X4943634Y-23047484D02*
X4924587Y-23037960D01*
X4924587Y-23037960D02*
X4915063Y-23028436D01*
X4915063Y-23028436D02*
X4905539Y-23009388D01*
X4905539Y-23009388D02*
X4896015Y-22971293D01*
X4896015Y-22971293D02*
X4896015Y-22923674D01*
X4896015Y-22923674D02*
X4905539Y-22885579D01*
X4905539Y-22885579D02*
X4915063Y-22866531D01*
X4915063Y-22866531D02*
X4924587Y-22857008D01*
X4924587Y-22857008D02*
X4943634Y-22847484D01*
X5096015Y-23028436D02*
X5105539Y-23037960D01*
X5105539Y-23037960D02*
X5096015Y-23047484D01*
X5096015Y-23047484D02*
X5086491Y-23037960D01*
X5086491Y-23037960D02*
X5096015Y-23028436D01*
X5096015Y-23028436D02*
X5096015Y-23047484D01*
X5229348Y-22847484D02*
X5248396Y-22847484D01*
X5248396Y-22847484D02*
X5267444Y-22857008D01*
X5267444Y-22857008D02*
X5276968Y-22866531D01*
X5276968Y-22866531D02*
X5286491Y-22885579D01*
X5286491Y-22885579D02*
X5296015Y-22923674D01*
X5296015Y-22923674D02*
X5296015Y-22971293D01*
X5296015Y-22971293D02*
X5286491Y-23009388D01*
X5286491Y-23009388D02*
X5276968Y-23028436D01*
X5276968Y-23028436D02*
X5267444Y-23037960D01*
X5267444Y-23037960D02*
X5248396Y-23047484D01*
X5248396Y-23047484D02*
X5229348Y-23047484D01*
X5229348Y-23047484D02*
X5210301Y-23037960D01*
X5210301Y-23037960D02*
X5200777Y-23028436D01*
X5200777Y-23028436D02*
X5191253Y-23009388D01*
X5191253Y-23009388D02*
X5181729Y-22971293D01*
X5181729Y-22971293D02*
X5181729Y-22923674D01*
X5181729Y-22923674D02*
X5191253Y-22885579D01*
X5191253Y-22885579D02*
X5200777Y-22866531D01*
X5200777Y-22866531D02*
X5210301Y-22857008D01*
X5210301Y-22857008D02*
X5229348Y-22847484D01*
X5467444Y-22914150D02*
X5467444Y-23047484D01*
X5419825Y-22837960D02*
X5372206Y-22980817D01*
X5372206Y-22980817D02*
X5496015Y-22980817D01*
X5553158Y-22847484D02*
X5676967Y-22847484D01*
X5676967Y-22847484D02*
X5610301Y-22923674D01*
X5610301Y-22923674D02*
X5638872Y-22923674D01*
X5638872Y-22923674D02*
X5657920Y-22933198D01*
X5657920Y-22933198D02*
X5667444Y-22942722D01*
X5667444Y-22942722D02*
X5676967Y-22961769D01*
X5676967Y-22961769D02*
X5676967Y-23009388D01*
X5676967Y-23009388D02*
X5667444Y-23028436D01*
X5667444Y-23028436D02*
X5657920Y-23037960D01*
X5657920Y-23037960D02*
X5638872Y-23047484D01*
X5638872Y-23047484D02*
X5581729Y-23047484D01*
X5581729Y-23047484D02*
X5562682Y-23037960D01*
X5562682Y-23037960D02*
X5553158Y-23028436D01*
X5800777Y-22847484D02*
X5819825Y-22847484D01*
X5819825Y-22847484D02*
X5838872Y-22857008D01*
X5838872Y-22857008D02*
X5848396Y-22866531D01*
X5848396Y-22866531D02*
X5857920Y-22885579D01*
X5857920Y-22885579D02*
X5867444Y-22923674D01*
X5867444Y-22923674D02*
X5867444Y-22971293D01*
X5867444Y-22971293D02*
X5857920Y-23009388D01*
X5857920Y-23009388D02*
X5848396Y-23028436D01*
X5848396Y-23028436D02*
X5838872Y-23037960D01*
X5838872Y-23037960D02*
X5819825Y-23047484D01*
X5819825Y-23047484D02*
X5800777Y-23047484D01*
X5800777Y-23047484D02*
X5781729Y-23037960D01*
X5781729Y-23037960D02*
X5772206Y-23028436D01*
X5772206Y-23028436D02*
X5762682Y-23009388D01*
X5762682Y-23009388D02*
X5753158Y-22971293D01*
X5753158Y-22971293D02*
X5753158Y-22923674D01*
X5753158Y-22923674D02*
X5762682Y-22885579D01*
X5762682Y-22885579D02*
X5772206Y-22866531D01*
X5772206Y-22866531D02*
X5781729Y-22857008D01*
X5781729Y-22857008D02*
X5800777Y-22847484D01*
X5943634Y-22847484D02*
X5943634Y-22885579D01*
X6019825Y-22847484D02*
X6019825Y-22885579D01*
X6315063Y-23123674D02*
X6305539Y-23114150D01*
X6305539Y-23114150D02*
X6286491Y-23085579D01*
X6286491Y-23085579D02*
X6276968Y-23066531D01*
X6276968Y-23066531D02*
X6267444Y-23037960D01*
X6267444Y-23037960D02*
X6257920Y-22990341D01*
X6257920Y-22990341D02*
X6257920Y-22952246D01*
X6257920Y-22952246D02*
X6267444Y-22904627D01*
X6267444Y-22904627D02*
X6276968Y-22876055D01*
X6276968Y-22876055D02*
X6286491Y-22857008D01*
X6286491Y-22857008D02*
X6305539Y-22828436D01*
X6305539Y-22828436D02*
X6315063Y-22818912D01*
X6381729Y-22866531D02*
X6391253Y-22857008D01*
X6391253Y-22857008D02*
X6410301Y-22847484D01*
X6410301Y-22847484D02*
X6457920Y-22847484D01*
X6457920Y-22847484D02*
X6476968Y-22857008D01*
X6476968Y-22857008D02*
X6486491Y-22866531D01*
X6486491Y-22866531D02*
X6496015Y-22885579D01*
X6496015Y-22885579D02*
X6496015Y-22904627D01*
X6496015Y-22904627D02*
X6486491Y-22933198D01*
X6486491Y-22933198D02*
X6372206Y-23047484D01*
X6372206Y-23047484D02*
X6496015Y-23047484D01*
X6667444Y-22914150D02*
X6667444Y-23047484D01*
X6619825Y-22837960D02*
X6572206Y-22980817D01*
X6572206Y-22980817D02*
X6696015Y-22980817D01*
X6924587Y-23047484D02*
X6924587Y-22847484D01*
X7010301Y-23047484D02*
X7010301Y-22942722D01*
X7010301Y-22942722D02*
X7000777Y-22923674D01*
X7000777Y-22923674D02*
X6981730Y-22914150D01*
X6981730Y-22914150D02*
X6953158Y-22914150D01*
X6953158Y-22914150D02*
X6934110Y-22923674D01*
X6934110Y-22923674D02*
X6924587Y-22933198D01*
X7134110Y-23047484D02*
X7115063Y-23037960D01*
X7115063Y-23037960D02*
X7105539Y-23028436D01*
X7105539Y-23028436D02*
X7096015Y-23009388D01*
X7096015Y-23009388D02*
X7096015Y-22952246D01*
X7096015Y-22952246D02*
X7105539Y-22933198D01*
X7105539Y-22933198D02*
X7115063Y-22923674D01*
X7115063Y-22923674D02*
X7134110Y-22914150D01*
X7134110Y-22914150D02*
X7162682Y-22914150D01*
X7162682Y-22914150D02*
X7181730Y-22923674D01*
X7181730Y-22923674D02*
X7191253Y-22933198D01*
X7191253Y-22933198D02*
X7200777Y-22952246D01*
X7200777Y-22952246D02*
X7200777Y-23009388D01*
X7200777Y-23009388D02*
X7191253Y-23028436D01*
X7191253Y-23028436D02*
X7181730Y-23037960D01*
X7181730Y-23037960D02*
X7162682Y-23047484D01*
X7162682Y-23047484D02*
X7134110Y-23047484D01*
X7315063Y-23047484D02*
X7296015Y-23037960D01*
X7296015Y-23037960D02*
X7286491Y-23018912D01*
X7286491Y-23018912D02*
X7286491Y-22847484D01*
X7467444Y-23037960D02*
X7448396Y-23047484D01*
X7448396Y-23047484D02*
X7410301Y-23047484D01*
X7410301Y-23047484D02*
X7391253Y-23037960D01*
X7391253Y-23037960D02*
X7381730Y-23018912D01*
X7381730Y-23018912D02*
X7381730Y-22942722D01*
X7381730Y-22942722D02*
X7391253Y-22923674D01*
X7391253Y-22923674D02*
X7410301Y-22914150D01*
X7410301Y-22914150D02*
X7448396Y-22914150D01*
X7448396Y-22914150D02*
X7467444Y-22923674D01*
X7467444Y-22923674D02*
X7476968Y-22942722D01*
X7476968Y-22942722D02*
X7476968Y-22961769D01*
X7476968Y-22961769D02*
X7381730Y-22980817D01*
X7553158Y-23037960D02*
X7572206Y-23047484D01*
X7572206Y-23047484D02*
X7610301Y-23047484D01*
X7610301Y-23047484D02*
X7629349Y-23037960D01*
X7629349Y-23037960D02*
X7638872Y-23018912D01*
X7638872Y-23018912D02*
X7638872Y-23009388D01*
X7638872Y-23009388D02*
X7629349Y-22990341D01*
X7629349Y-22990341D02*
X7610301Y-22980817D01*
X7610301Y-22980817D02*
X7581730Y-22980817D01*
X7581730Y-22980817D02*
X7562682Y-22971293D01*
X7562682Y-22971293D02*
X7553158Y-22952246D01*
X7553158Y-22952246D02*
X7553158Y-22942722D01*
X7553158Y-22942722D02*
X7562682Y-22923674D01*
X7562682Y-22923674D02*
X7581730Y-22914150D01*
X7581730Y-22914150D02*
X7610301Y-22914150D01*
X7610301Y-22914150D02*
X7629349Y-22923674D01*
X7705539Y-23123674D02*
X7715063Y-23114150D01*
X7715063Y-23114150D02*
X7734111Y-23085579D01*
X7734111Y-23085579D02*
X7743634Y-23066531D01*
X7743634Y-23066531D02*
X7753158Y-23037960D01*
X7753158Y-23037960D02*
X7762682Y-22990341D01*
X7762682Y-22990341D02*
X7762682Y-22952246D01*
X7762682Y-22952246D02*
X7753158Y-22904627D01*
X7753158Y-22904627D02*
X7743634Y-22876055D01*
X7743634Y-22876055D02*
X7734111Y-22857008D01*
X7734111Y-22857008D02*
X7715063Y-22828436D01*
X7715063Y-22828436D02*
X7705539Y-22818912D01*
D10*
X2590000Y-23145000D02*
X2740000Y-23295000D01*
X2740000Y-23145000D02*
X2590000Y-23295000D01*
X2740000Y-23220000D02*
G75*
G02*
X2590000Y-23220000I-75000J0D01*
G01*
X2590000Y-23220000D02*
G75*
G02*
X2740000Y-23220000I75000J0D01*
G01*
D12*
X3105539Y-23311484D02*
X2991253Y-23311484D01*
X3048396Y-23311484D02*
X3048396Y-23111484D01*
X3048396Y-23111484D02*
X3029348Y-23140055D01*
X3029348Y-23140055D02*
X3010301Y-23159103D01*
X3010301Y-23159103D02*
X2991253Y-23168627D01*
X3191253Y-23292436D02*
X3200777Y-23301960D01*
X3200777Y-23301960D02*
X3191253Y-23311484D01*
X3191253Y-23311484D02*
X3181729Y-23301960D01*
X3181729Y-23301960D02*
X3191253Y-23292436D01*
X3191253Y-23292436D02*
X3191253Y-23311484D01*
X3381729Y-23111484D02*
X3286491Y-23111484D01*
X3286491Y-23111484D02*
X3276967Y-23206722D01*
X3276967Y-23206722D02*
X3286491Y-23197198D01*
X3286491Y-23197198D02*
X3305539Y-23187674D01*
X3305539Y-23187674D02*
X3353158Y-23187674D01*
X3353158Y-23187674D02*
X3372205Y-23197198D01*
X3372205Y-23197198D02*
X3381729Y-23206722D01*
X3381729Y-23206722D02*
X3391253Y-23225769D01*
X3391253Y-23225769D02*
X3391253Y-23273388D01*
X3391253Y-23273388D02*
X3381729Y-23292436D01*
X3381729Y-23292436D02*
X3372205Y-23301960D01*
X3372205Y-23301960D02*
X3353158Y-23311484D01*
X3353158Y-23311484D02*
X3305539Y-23311484D01*
X3305539Y-23311484D02*
X3286491Y-23301960D01*
X3286491Y-23301960D02*
X3276967Y-23292436D01*
X3515062Y-23111484D02*
X3534110Y-23111484D01*
X3534110Y-23111484D02*
X3553158Y-23121008D01*
X3553158Y-23121008D02*
X3562682Y-23130531D01*
X3562682Y-23130531D02*
X3572205Y-23149579D01*
X3572205Y-23149579D02*
X3581729Y-23187674D01*
X3581729Y-23187674D02*
X3581729Y-23235293D01*
X3581729Y-23235293D02*
X3572205Y-23273388D01*
X3572205Y-23273388D02*
X3562682Y-23292436D01*
X3562682Y-23292436D02*
X3553158Y-23301960D01*
X3553158Y-23301960D02*
X3534110Y-23311484D01*
X3534110Y-23311484D02*
X3515062Y-23311484D01*
X3515062Y-23311484D02*
X3496015Y-23301960D01*
X3496015Y-23301960D02*
X3486491Y-23292436D01*
X3486491Y-23292436D02*
X3476967Y-23273388D01*
X3476967Y-23273388D02*
X3467443Y-23235293D01*
X3467443Y-23235293D02*
X3467443Y-23187674D01*
X3467443Y-23187674D02*
X3476967Y-23149579D01*
X3476967Y-23149579D02*
X3486491Y-23130531D01*
X3486491Y-23130531D02*
X3496015Y-23121008D01*
X3496015Y-23121008D02*
X3515062Y-23111484D01*
X3705539Y-23111484D02*
X3724586Y-23111484D01*
X3724586Y-23111484D02*
X3743634Y-23121008D01*
X3743634Y-23121008D02*
X3753158Y-23130531D01*
X3753158Y-23130531D02*
X3762682Y-23149579D01*
X3762682Y-23149579D02*
X3772205Y-23187674D01*
X3772205Y-23187674D02*
X3772205Y-23235293D01*
X3772205Y-23235293D02*
X3762682Y-23273388D01*
X3762682Y-23273388D02*
X3753158Y-23292436D01*
X3753158Y-23292436D02*
X3743634Y-23301960D01*
X3743634Y-23301960D02*
X3724586Y-23311484D01*
X3724586Y-23311484D02*
X3705539Y-23311484D01*
X3705539Y-23311484D02*
X3686491Y-23301960D01*
X3686491Y-23301960D02*
X3676967Y-23292436D01*
X3676967Y-23292436D02*
X3667443Y-23273388D01*
X3667443Y-23273388D02*
X3657920Y-23235293D01*
X3657920Y-23235293D02*
X3657920Y-23187674D01*
X3657920Y-23187674D02*
X3667443Y-23149579D01*
X3667443Y-23149579D02*
X3676967Y-23130531D01*
X3676967Y-23130531D02*
X3686491Y-23121008D01*
X3686491Y-23121008D02*
X3705539Y-23111484D01*
X3857920Y-23311484D02*
X3857920Y-23178150D01*
X3857920Y-23197198D02*
X3867443Y-23187674D01*
X3867443Y-23187674D02*
X3886491Y-23178150D01*
X3886491Y-23178150D02*
X3915063Y-23178150D01*
X3915063Y-23178150D02*
X3934110Y-23187674D01*
X3934110Y-23187674D02*
X3943634Y-23206722D01*
X3943634Y-23206722D02*
X3943634Y-23311484D01*
X3943634Y-23206722D02*
X3953158Y-23187674D01*
X3953158Y-23187674D02*
X3972205Y-23178150D01*
X3972205Y-23178150D02*
X4000777Y-23178150D01*
X4000777Y-23178150D02*
X4019824Y-23187674D01*
X4019824Y-23187674D02*
X4029348Y-23206722D01*
X4029348Y-23206722D02*
X4029348Y-23311484D01*
X4124586Y-23311484D02*
X4124586Y-23178150D01*
X4124586Y-23197198D02*
X4134110Y-23187674D01*
X4134110Y-23187674D02*
X4153158Y-23178150D01*
X4153158Y-23178150D02*
X4181729Y-23178150D01*
X4181729Y-23178150D02*
X4200777Y-23187674D01*
X4200777Y-23187674D02*
X4210301Y-23206722D01*
X4210301Y-23206722D02*
X4210301Y-23311484D01*
X4210301Y-23206722D02*
X4219825Y-23187674D01*
X4219825Y-23187674D02*
X4238872Y-23178150D01*
X4238872Y-23178150D02*
X4267444Y-23178150D01*
X4267444Y-23178150D02*
X4286491Y-23187674D01*
X4286491Y-23187674D02*
X4296015Y-23206722D01*
X4296015Y-23206722D02*
X4296015Y-23311484D01*
X4686491Y-23101960D02*
X4515063Y-23359103D01*
X4943634Y-23111484D02*
X4962682Y-23111484D01*
X4962682Y-23111484D02*
X4981729Y-23121008D01*
X4981729Y-23121008D02*
X4991253Y-23130531D01*
X4991253Y-23130531D02*
X5000777Y-23149579D01*
X5000777Y-23149579D02*
X5010301Y-23187674D01*
X5010301Y-23187674D02*
X5010301Y-23235293D01*
X5010301Y-23235293D02*
X5000777Y-23273388D01*
X5000777Y-23273388D02*
X4991253Y-23292436D01*
X4991253Y-23292436D02*
X4981729Y-23301960D01*
X4981729Y-23301960D02*
X4962682Y-23311484D01*
X4962682Y-23311484D02*
X4943634Y-23311484D01*
X4943634Y-23311484D02*
X4924587Y-23301960D01*
X4924587Y-23301960D02*
X4915063Y-23292436D01*
X4915063Y-23292436D02*
X4905539Y-23273388D01*
X4905539Y-23273388D02*
X4896015Y-23235293D01*
X4896015Y-23235293D02*
X4896015Y-23187674D01*
X4896015Y-23187674D02*
X4905539Y-23149579D01*
X4905539Y-23149579D02*
X4915063Y-23130531D01*
X4915063Y-23130531D02*
X4924587Y-23121008D01*
X4924587Y-23121008D02*
X4943634Y-23111484D01*
X5096015Y-23292436D02*
X5105539Y-23301960D01*
X5105539Y-23301960D02*
X5096015Y-23311484D01*
X5096015Y-23311484D02*
X5086491Y-23301960D01*
X5086491Y-23301960D02*
X5096015Y-23292436D01*
X5096015Y-23292436D02*
X5096015Y-23311484D01*
X5229348Y-23111484D02*
X5248396Y-23111484D01*
X5248396Y-23111484D02*
X5267444Y-23121008D01*
X5267444Y-23121008D02*
X5276968Y-23130531D01*
X5276968Y-23130531D02*
X5286491Y-23149579D01*
X5286491Y-23149579D02*
X5296015Y-23187674D01*
X5296015Y-23187674D02*
X5296015Y-23235293D01*
X5296015Y-23235293D02*
X5286491Y-23273388D01*
X5286491Y-23273388D02*
X5276968Y-23292436D01*
X5276968Y-23292436D02*
X5267444Y-23301960D01*
X5267444Y-23301960D02*
X5248396Y-23311484D01*
X5248396Y-23311484D02*
X5229348Y-23311484D01*
X5229348Y-23311484D02*
X5210301Y-23301960D01*
X5210301Y-23301960D02*
X5200777Y-23292436D01*
X5200777Y-23292436D02*
X5191253Y-23273388D01*
X5191253Y-23273388D02*
X5181729Y-23235293D01*
X5181729Y-23235293D02*
X5181729Y-23187674D01*
X5181729Y-23187674D02*
X5191253Y-23149579D01*
X5191253Y-23149579D02*
X5200777Y-23130531D01*
X5200777Y-23130531D02*
X5210301Y-23121008D01*
X5210301Y-23121008D02*
X5229348Y-23111484D01*
X5476968Y-23111484D02*
X5381729Y-23111484D01*
X5381729Y-23111484D02*
X5372206Y-23206722D01*
X5372206Y-23206722D02*
X5381729Y-23197198D01*
X5381729Y-23197198D02*
X5400777Y-23187674D01*
X5400777Y-23187674D02*
X5448396Y-23187674D01*
X5448396Y-23187674D02*
X5467444Y-23197198D01*
X5467444Y-23197198D02*
X5476968Y-23206722D01*
X5476968Y-23206722D02*
X5486491Y-23225769D01*
X5486491Y-23225769D02*
X5486491Y-23273388D01*
X5486491Y-23273388D02*
X5476968Y-23292436D01*
X5476968Y-23292436D02*
X5467444Y-23301960D01*
X5467444Y-23301960D02*
X5448396Y-23311484D01*
X5448396Y-23311484D02*
X5400777Y-23311484D01*
X5400777Y-23311484D02*
X5381729Y-23301960D01*
X5381729Y-23301960D02*
X5372206Y-23292436D01*
X5581729Y-23311484D02*
X5619825Y-23311484D01*
X5619825Y-23311484D02*
X5638872Y-23301960D01*
X5638872Y-23301960D02*
X5648396Y-23292436D01*
X5648396Y-23292436D02*
X5667444Y-23263865D01*
X5667444Y-23263865D02*
X5676967Y-23225769D01*
X5676967Y-23225769D02*
X5676967Y-23149579D01*
X5676967Y-23149579D02*
X5667444Y-23130531D01*
X5667444Y-23130531D02*
X5657920Y-23121008D01*
X5657920Y-23121008D02*
X5638872Y-23111484D01*
X5638872Y-23111484D02*
X5600777Y-23111484D01*
X5600777Y-23111484D02*
X5581729Y-23121008D01*
X5581729Y-23121008D02*
X5572206Y-23130531D01*
X5572206Y-23130531D02*
X5562682Y-23149579D01*
X5562682Y-23149579D02*
X5562682Y-23197198D01*
X5562682Y-23197198D02*
X5572206Y-23216246D01*
X5572206Y-23216246D02*
X5581729Y-23225769D01*
X5581729Y-23225769D02*
X5600777Y-23235293D01*
X5600777Y-23235293D02*
X5638872Y-23235293D01*
X5638872Y-23235293D02*
X5657920Y-23225769D01*
X5657920Y-23225769D02*
X5667444Y-23216246D01*
X5667444Y-23216246D02*
X5676967Y-23197198D01*
X5867444Y-23311484D02*
X5753158Y-23311484D01*
X5810301Y-23311484D02*
X5810301Y-23111484D01*
X5810301Y-23111484D02*
X5791253Y-23140055D01*
X5791253Y-23140055D02*
X5772206Y-23159103D01*
X5772206Y-23159103D02*
X5753158Y-23168627D01*
X5943634Y-23111484D02*
X5943634Y-23149579D01*
X6019825Y-23111484D02*
X6019825Y-23149579D01*
X6315063Y-23387674D02*
X6305539Y-23378150D01*
X6305539Y-23378150D02*
X6286491Y-23349579D01*
X6286491Y-23349579D02*
X6276968Y-23330531D01*
X6276968Y-23330531D02*
X6267444Y-23301960D01*
X6267444Y-23301960D02*
X6257920Y-23254341D01*
X6257920Y-23254341D02*
X6257920Y-23216246D01*
X6257920Y-23216246D02*
X6267444Y-23168627D01*
X6267444Y-23168627D02*
X6276968Y-23140055D01*
X6276968Y-23140055D02*
X6286491Y-23121008D01*
X6286491Y-23121008D02*
X6305539Y-23092436D01*
X6305539Y-23092436D02*
X6315063Y-23082912D01*
X6429348Y-23111484D02*
X6448396Y-23111484D01*
X6448396Y-23111484D02*
X6467444Y-23121008D01*
X6467444Y-23121008D02*
X6476968Y-23130531D01*
X6476968Y-23130531D02*
X6486491Y-23149579D01*
X6486491Y-23149579D02*
X6496015Y-23187674D01*
X6496015Y-23187674D02*
X6496015Y-23235293D01*
X6496015Y-23235293D02*
X6486491Y-23273388D01*
X6486491Y-23273388D02*
X6476968Y-23292436D01*
X6476968Y-23292436D02*
X6467444Y-23301960D01*
X6467444Y-23301960D02*
X6448396Y-23311484D01*
X6448396Y-23311484D02*
X6429348Y-23311484D01*
X6429348Y-23311484D02*
X6410301Y-23301960D01*
X6410301Y-23301960D02*
X6400777Y-23292436D01*
X6400777Y-23292436D02*
X6391253Y-23273388D01*
X6391253Y-23273388D02*
X6381729Y-23235293D01*
X6381729Y-23235293D02*
X6381729Y-23187674D01*
X6381729Y-23187674D02*
X6391253Y-23149579D01*
X6391253Y-23149579D02*
X6400777Y-23130531D01*
X6400777Y-23130531D02*
X6410301Y-23121008D01*
X6410301Y-23121008D02*
X6429348Y-23111484D01*
X6734110Y-23311484D02*
X6734110Y-23111484D01*
X6819825Y-23311484D02*
X6819825Y-23206722D01*
X6819825Y-23206722D02*
X6810301Y-23187674D01*
X6810301Y-23187674D02*
X6791253Y-23178150D01*
X6791253Y-23178150D02*
X6762682Y-23178150D01*
X6762682Y-23178150D02*
X6743634Y-23187674D01*
X6743634Y-23187674D02*
X6734110Y-23197198D01*
X6943634Y-23311484D02*
X6924587Y-23301960D01*
X6924587Y-23301960D02*
X6915063Y-23292436D01*
X6915063Y-23292436D02*
X6905539Y-23273388D01*
X6905539Y-23273388D02*
X6905539Y-23216246D01*
X6905539Y-23216246D02*
X6915063Y-23197198D01*
X6915063Y-23197198D02*
X6924587Y-23187674D01*
X6924587Y-23187674D02*
X6943634Y-23178150D01*
X6943634Y-23178150D02*
X6972206Y-23178150D01*
X6972206Y-23178150D02*
X6991253Y-23187674D01*
X6991253Y-23187674D02*
X7000777Y-23197198D01*
X7000777Y-23197198D02*
X7010301Y-23216246D01*
X7010301Y-23216246D02*
X7010301Y-23273388D01*
X7010301Y-23273388D02*
X7000777Y-23292436D01*
X7000777Y-23292436D02*
X6991253Y-23301960D01*
X6991253Y-23301960D02*
X6972206Y-23311484D01*
X6972206Y-23311484D02*
X6943634Y-23311484D01*
X7124587Y-23311484D02*
X7105539Y-23301960D01*
X7105539Y-23301960D02*
X7096015Y-23282912D01*
X7096015Y-23282912D02*
X7096015Y-23111484D01*
X7276968Y-23301960D02*
X7257920Y-23311484D01*
X7257920Y-23311484D02*
X7219825Y-23311484D01*
X7219825Y-23311484D02*
X7200777Y-23301960D01*
X7200777Y-23301960D02*
X7191253Y-23282912D01*
X7191253Y-23282912D02*
X7191253Y-23206722D01*
X7191253Y-23206722D02*
X7200777Y-23187674D01*
X7200777Y-23187674D02*
X7219825Y-23178150D01*
X7219825Y-23178150D02*
X7257920Y-23178150D01*
X7257920Y-23178150D02*
X7276968Y-23187674D01*
X7276968Y-23187674D02*
X7286491Y-23206722D01*
X7286491Y-23206722D02*
X7286491Y-23225769D01*
X7286491Y-23225769D02*
X7191253Y-23244817D01*
X7362682Y-23301960D02*
X7381730Y-23311484D01*
X7381730Y-23311484D02*
X7419825Y-23311484D01*
X7419825Y-23311484D02*
X7438872Y-23301960D01*
X7438872Y-23301960D02*
X7448396Y-23282912D01*
X7448396Y-23282912D02*
X7448396Y-23273388D01*
X7448396Y-23273388D02*
X7438872Y-23254341D01*
X7438872Y-23254341D02*
X7419825Y-23244817D01*
X7419825Y-23244817D02*
X7391253Y-23244817D01*
X7391253Y-23244817D02*
X7372206Y-23235293D01*
X7372206Y-23235293D02*
X7362682Y-23216246D01*
X7362682Y-23216246D02*
X7362682Y-23206722D01*
X7362682Y-23206722D02*
X7372206Y-23187674D01*
X7372206Y-23187674D02*
X7391253Y-23178150D01*
X7391253Y-23178150D02*
X7419825Y-23178150D01*
X7419825Y-23178150D02*
X7438872Y-23187674D01*
X7686492Y-23235293D02*
X7838873Y-23235293D01*
X7762682Y-23311484D02*
X7762682Y-23159103D01*
X8076968Y-23130531D02*
X8086492Y-23121008D01*
X8086492Y-23121008D02*
X8105539Y-23111484D01*
X8105539Y-23111484D02*
X8153158Y-23111484D01*
X8153158Y-23111484D02*
X8172206Y-23121008D01*
X8172206Y-23121008D02*
X8181730Y-23130531D01*
X8181730Y-23130531D02*
X8191253Y-23149579D01*
X8191253Y-23149579D02*
X8191253Y-23168627D01*
X8191253Y-23168627D02*
X8181730Y-23197198D01*
X8181730Y-23197198D02*
X8067444Y-23311484D01*
X8067444Y-23311484D02*
X8191253Y-23311484D01*
X8419825Y-23301960D02*
X8438873Y-23311484D01*
X8438873Y-23311484D02*
X8476968Y-23311484D01*
X8476968Y-23311484D02*
X8496016Y-23301960D01*
X8496016Y-23301960D02*
X8505539Y-23282912D01*
X8505539Y-23282912D02*
X8505539Y-23273388D01*
X8505539Y-23273388D02*
X8496016Y-23254341D01*
X8496016Y-23254341D02*
X8476968Y-23244817D01*
X8476968Y-23244817D02*
X8448396Y-23244817D01*
X8448396Y-23244817D02*
X8429349Y-23235293D01*
X8429349Y-23235293D02*
X8419825Y-23216246D01*
X8419825Y-23216246D02*
X8419825Y-23206722D01*
X8419825Y-23206722D02*
X8429349Y-23187674D01*
X8429349Y-23187674D02*
X8448396Y-23178150D01*
X8448396Y-23178150D02*
X8476968Y-23178150D01*
X8476968Y-23178150D02*
X8496016Y-23187674D01*
X8619825Y-23311484D02*
X8600777Y-23301960D01*
X8600777Y-23301960D02*
X8591254Y-23282912D01*
X8591254Y-23282912D02*
X8591254Y-23111484D01*
X8724587Y-23311484D02*
X8705539Y-23301960D01*
X8705539Y-23301960D02*
X8696016Y-23292436D01*
X8696016Y-23292436D02*
X8686492Y-23273388D01*
X8686492Y-23273388D02*
X8686492Y-23216246D01*
X8686492Y-23216246D02*
X8696016Y-23197198D01*
X8696016Y-23197198D02*
X8705539Y-23187674D01*
X8705539Y-23187674D02*
X8724587Y-23178150D01*
X8724587Y-23178150D02*
X8753158Y-23178150D01*
X8753158Y-23178150D02*
X8772206Y-23187674D01*
X8772206Y-23187674D02*
X8781730Y-23197198D01*
X8781730Y-23197198D02*
X8791254Y-23216246D01*
X8791254Y-23216246D02*
X8791254Y-23273388D01*
X8791254Y-23273388D02*
X8781730Y-23292436D01*
X8781730Y-23292436D02*
X8772206Y-23301960D01*
X8772206Y-23301960D02*
X8753158Y-23311484D01*
X8753158Y-23311484D02*
X8724587Y-23311484D01*
X8848397Y-23178150D02*
X8924587Y-23178150D01*
X8876968Y-23111484D02*
X8876968Y-23282912D01*
X8876968Y-23282912D02*
X8886492Y-23301960D01*
X8886492Y-23301960D02*
X8905539Y-23311484D01*
X8905539Y-23311484D02*
X8924587Y-23311484D01*
X8981730Y-23301960D02*
X9000777Y-23311484D01*
X9000777Y-23311484D02*
X9038873Y-23311484D01*
X9038873Y-23311484D02*
X9057920Y-23301960D01*
X9057920Y-23301960D02*
X9067444Y-23282912D01*
X9067444Y-23282912D02*
X9067444Y-23273388D01*
X9067444Y-23273388D02*
X9057920Y-23254341D01*
X9057920Y-23254341D02*
X9038873Y-23244817D01*
X9038873Y-23244817D02*
X9010301Y-23244817D01*
X9010301Y-23244817D02*
X8991254Y-23235293D01*
X8991254Y-23235293D02*
X8981730Y-23216246D01*
X8981730Y-23216246D02*
X8981730Y-23206722D01*
X8981730Y-23206722D02*
X8991254Y-23187674D01*
X8991254Y-23187674D02*
X9010301Y-23178150D01*
X9010301Y-23178150D02*
X9038873Y-23178150D01*
X9038873Y-23178150D02*
X9057920Y-23187674D01*
X9134111Y-23387674D02*
X9143635Y-23378150D01*
X9143635Y-23378150D02*
X9162682Y-23349579D01*
X9162682Y-23349579D02*
X9172206Y-23330531D01*
X9172206Y-23330531D02*
X9181730Y-23301960D01*
X9181730Y-23301960D02*
X9191254Y-23254341D01*
X9191254Y-23254341D02*
X9191254Y-23216246D01*
X9191254Y-23216246D02*
X9181730Y-23168627D01*
X9181730Y-23168627D02*
X9172206Y-23140055D01*
X9172206Y-23140055D02*
X9162682Y-23121008D01*
X9162682Y-23121008D02*
X9143635Y-23092436D01*
X9143635Y-23092436D02*
X9134111Y-23082912D01*
X2540000Y-23390000D02*
X2740000Y-23590000D01*
X2740000Y-23390000D02*
X2540000Y-23590000D01*
X2640000Y-23390000D02*
X2640000Y-23590000D01*
X2540000Y-23490000D02*
X2740000Y-23490000D01*
X2991253Y-23400531D02*
X3000777Y-23391008D01*
X3000777Y-23391008D02*
X3019824Y-23381484D01*
X3019824Y-23381484D02*
X3067443Y-23381484D01*
X3067443Y-23381484D02*
X3086491Y-23391008D01*
X3086491Y-23391008D02*
X3096015Y-23400531D01*
X3096015Y-23400531D02*
X3105539Y-23419579D01*
X3105539Y-23419579D02*
X3105539Y-23438627D01*
X3105539Y-23438627D02*
X3096015Y-23467198D01*
X3096015Y-23467198D02*
X2981729Y-23581484D01*
X2981729Y-23581484D02*
X3105539Y-23581484D01*
X3191253Y-23562436D02*
X3200777Y-23571960D01*
X3200777Y-23571960D02*
X3191253Y-23581484D01*
X3191253Y-23581484D02*
X3181729Y-23571960D01*
X3181729Y-23571960D02*
X3191253Y-23562436D01*
X3191253Y-23562436D02*
X3191253Y-23581484D01*
X3276967Y-23400531D02*
X3286491Y-23391008D01*
X3286491Y-23391008D02*
X3305539Y-23381484D01*
X3305539Y-23381484D02*
X3353158Y-23381484D01*
X3353158Y-23381484D02*
X3372205Y-23391008D01*
X3372205Y-23391008D02*
X3381729Y-23400531D01*
X3381729Y-23400531D02*
X3391253Y-23419579D01*
X3391253Y-23419579D02*
X3391253Y-23438627D01*
X3391253Y-23438627D02*
X3381729Y-23467198D01*
X3381729Y-23467198D02*
X3267443Y-23581484D01*
X3267443Y-23581484D02*
X3391253Y-23581484D01*
X3515062Y-23381484D02*
X3534110Y-23381484D01*
X3534110Y-23381484D02*
X3553158Y-23391008D01*
X3553158Y-23391008D02*
X3562682Y-23400531D01*
X3562682Y-23400531D02*
X3572205Y-23419579D01*
X3572205Y-23419579D02*
X3581729Y-23457674D01*
X3581729Y-23457674D02*
X3581729Y-23505293D01*
X3581729Y-23505293D02*
X3572205Y-23543388D01*
X3572205Y-23543388D02*
X3562682Y-23562436D01*
X3562682Y-23562436D02*
X3553158Y-23571960D01*
X3553158Y-23571960D02*
X3534110Y-23581484D01*
X3534110Y-23581484D02*
X3515062Y-23581484D01*
X3515062Y-23581484D02*
X3496015Y-23571960D01*
X3496015Y-23571960D02*
X3486491Y-23562436D01*
X3486491Y-23562436D02*
X3476967Y-23543388D01*
X3476967Y-23543388D02*
X3467443Y-23505293D01*
X3467443Y-23505293D02*
X3467443Y-23457674D01*
X3467443Y-23457674D02*
X3476967Y-23419579D01*
X3476967Y-23419579D02*
X3486491Y-23400531D01*
X3486491Y-23400531D02*
X3496015Y-23391008D01*
X3496015Y-23391008D02*
X3515062Y-23381484D01*
X3705539Y-23381484D02*
X3724586Y-23381484D01*
X3724586Y-23381484D02*
X3743634Y-23391008D01*
X3743634Y-23391008D02*
X3753158Y-23400531D01*
X3753158Y-23400531D02*
X3762682Y-23419579D01*
X3762682Y-23419579D02*
X3772205Y-23457674D01*
X3772205Y-23457674D02*
X3772205Y-23505293D01*
X3772205Y-23505293D02*
X3762682Y-23543388D01*
X3762682Y-23543388D02*
X3753158Y-23562436D01*
X3753158Y-23562436D02*
X3743634Y-23571960D01*
X3743634Y-23571960D02*
X3724586Y-23581484D01*
X3724586Y-23581484D02*
X3705539Y-23581484D01*
X3705539Y-23581484D02*
X3686491Y-23571960D01*
X3686491Y-23571960D02*
X3676967Y-23562436D01*
X3676967Y-23562436D02*
X3667443Y-23543388D01*
X3667443Y-23543388D02*
X3657920Y-23505293D01*
X3657920Y-23505293D02*
X3657920Y-23457674D01*
X3657920Y-23457674D02*
X3667443Y-23419579D01*
X3667443Y-23419579D02*
X3676967Y-23400531D01*
X3676967Y-23400531D02*
X3686491Y-23391008D01*
X3686491Y-23391008D02*
X3705539Y-23381484D01*
X3857920Y-23581484D02*
X3857920Y-23448150D01*
X3857920Y-23467198D02*
X3867443Y-23457674D01*
X3867443Y-23457674D02*
X3886491Y-23448150D01*
X3886491Y-23448150D02*
X3915063Y-23448150D01*
X3915063Y-23448150D02*
X3934110Y-23457674D01*
X3934110Y-23457674D02*
X3943634Y-23476722D01*
X3943634Y-23476722D02*
X3943634Y-23581484D01*
X3943634Y-23476722D02*
X3953158Y-23457674D01*
X3953158Y-23457674D02*
X3972205Y-23448150D01*
X3972205Y-23448150D02*
X4000777Y-23448150D01*
X4000777Y-23448150D02*
X4019824Y-23457674D01*
X4019824Y-23457674D02*
X4029348Y-23476722D01*
X4029348Y-23476722D02*
X4029348Y-23581484D01*
X4124586Y-23581484D02*
X4124586Y-23448150D01*
X4124586Y-23467198D02*
X4134110Y-23457674D01*
X4134110Y-23457674D02*
X4153158Y-23448150D01*
X4153158Y-23448150D02*
X4181729Y-23448150D01*
X4181729Y-23448150D02*
X4200777Y-23457674D01*
X4200777Y-23457674D02*
X4210301Y-23476722D01*
X4210301Y-23476722D02*
X4210301Y-23581484D01*
X4210301Y-23476722D02*
X4219825Y-23457674D01*
X4219825Y-23457674D02*
X4238872Y-23448150D01*
X4238872Y-23448150D02*
X4267444Y-23448150D01*
X4267444Y-23448150D02*
X4286491Y-23457674D01*
X4286491Y-23457674D02*
X4296015Y-23476722D01*
X4296015Y-23476722D02*
X4296015Y-23581484D01*
X4686491Y-23371960D02*
X4515063Y-23629103D01*
X4943634Y-23381484D02*
X4962682Y-23381484D01*
X4962682Y-23381484D02*
X4981729Y-23391008D01*
X4981729Y-23391008D02*
X4991253Y-23400531D01*
X4991253Y-23400531D02*
X5000777Y-23419579D01*
X5000777Y-23419579D02*
X5010301Y-23457674D01*
X5010301Y-23457674D02*
X5010301Y-23505293D01*
X5010301Y-23505293D02*
X5000777Y-23543388D01*
X5000777Y-23543388D02*
X4991253Y-23562436D01*
X4991253Y-23562436D02*
X4981729Y-23571960D01*
X4981729Y-23571960D02*
X4962682Y-23581484D01*
X4962682Y-23581484D02*
X4943634Y-23581484D01*
X4943634Y-23581484D02*
X4924587Y-23571960D01*
X4924587Y-23571960D02*
X4915063Y-23562436D01*
X4915063Y-23562436D02*
X4905539Y-23543388D01*
X4905539Y-23543388D02*
X4896015Y-23505293D01*
X4896015Y-23505293D02*
X4896015Y-23457674D01*
X4896015Y-23457674D02*
X4905539Y-23419579D01*
X4905539Y-23419579D02*
X4915063Y-23400531D01*
X4915063Y-23400531D02*
X4924587Y-23391008D01*
X4924587Y-23391008D02*
X4943634Y-23381484D01*
X5096015Y-23562436D02*
X5105539Y-23571960D01*
X5105539Y-23571960D02*
X5096015Y-23581484D01*
X5096015Y-23581484D02*
X5086491Y-23571960D01*
X5086491Y-23571960D02*
X5096015Y-23562436D01*
X5096015Y-23562436D02*
X5096015Y-23581484D01*
X5229348Y-23381484D02*
X5248396Y-23381484D01*
X5248396Y-23381484D02*
X5267444Y-23391008D01*
X5267444Y-23391008D02*
X5276968Y-23400531D01*
X5276968Y-23400531D02*
X5286491Y-23419579D01*
X5286491Y-23419579D02*
X5296015Y-23457674D01*
X5296015Y-23457674D02*
X5296015Y-23505293D01*
X5296015Y-23505293D02*
X5286491Y-23543388D01*
X5286491Y-23543388D02*
X5276968Y-23562436D01*
X5276968Y-23562436D02*
X5267444Y-23571960D01*
X5267444Y-23571960D02*
X5248396Y-23581484D01*
X5248396Y-23581484D02*
X5229348Y-23581484D01*
X5229348Y-23581484D02*
X5210301Y-23571960D01*
X5210301Y-23571960D02*
X5200777Y-23562436D01*
X5200777Y-23562436D02*
X5191253Y-23543388D01*
X5191253Y-23543388D02*
X5181729Y-23505293D01*
X5181729Y-23505293D02*
X5181729Y-23457674D01*
X5181729Y-23457674D02*
X5191253Y-23419579D01*
X5191253Y-23419579D02*
X5200777Y-23400531D01*
X5200777Y-23400531D02*
X5210301Y-23391008D01*
X5210301Y-23391008D02*
X5229348Y-23381484D01*
X5410301Y-23467198D02*
X5391253Y-23457674D01*
X5391253Y-23457674D02*
X5381729Y-23448150D01*
X5381729Y-23448150D02*
X5372206Y-23429103D01*
X5372206Y-23429103D02*
X5372206Y-23419579D01*
X5372206Y-23419579D02*
X5381729Y-23400531D01*
X5381729Y-23400531D02*
X5391253Y-23391008D01*
X5391253Y-23391008D02*
X5410301Y-23381484D01*
X5410301Y-23381484D02*
X5448396Y-23381484D01*
X5448396Y-23381484D02*
X5467444Y-23391008D01*
X5467444Y-23391008D02*
X5476968Y-23400531D01*
X5476968Y-23400531D02*
X5486491Y-23419579D01*
X5486491Y-23419579D02*
X5486491Y-23429103D01*
X5486491Y-23429103D02*
X5476968Y-23448150D01*
X5476968Y-23448150D02*
X5467444Y-23457674D01*
X5467444Y-23457674D02*
X5448396Y-23467198D01*
X5448396Y-23467198D02*
X5410301Y-23467198D01*
X5410301Y-23467198D02*
X5391253Y-23476722D01*
X5391253Y-23476722D02*
X5381729Y-23486246D01*
X5381729Y-23486246D02*
X5372206Y-23505293D01*
X5372206Y-23505293D02*
X5372206Y-23543388D01*
X5372206Y-23543388D02*
X5381729Y-23562436D01*
X5381729Y-23562436D02*
X5391253Y-23571960D01*
X5391253Y-23571960D02*
X5410301Y-23581484D01*
X5410301Y-23581484D02*
X5448396Y-23581484D01*
X5448396Y-23581484D02*
X5467444Y-23571960D01*
X5467444Y-23571960D02*
X5476968Y-23562436D01*
X5476968Y-23562436D02*
X5486491Y-23543388D01*
X5486491Y-23543388D02*
X5486491Y-23505293D01*
X5486491Y-23505293D02*
X5476968Y-23486246D01*
X5476968Y-23486246D02*
X5467444Y-23476722D01*
X5467444Y-23476722D02*
X5448396Y-23467198D01*
X5657920Y-23381484D02*
X5619825Y-23381484D01*
X5619825Y-23381484D02*
X5600777Y-23391008D01*
X5600777Y-23391008D02*
X5591253Y-23400531D01*
X5591253Y-23400531D02*
X5572206Y-23429103D01*
X5572206Y-23429103D02*
X5562682Y-23467198D01*
X5562682Y-23467198D02*
X5562682Y-23543388D01*
X5562682Y-23543388D02*
X5572206Y-23562436D01*
X5572206Y-23562436D02*
X5581729Y-23571960D01*
X5581729Y-23571960D02*
X5600777Y-23581484D01*
X5600777Y-23581484D02*
X5638872Y-23581484D01*
X5638872Y-23581484D02*
X5657920Y-23571960D01*
X5657920Y-23571960D02*
X5667444Y-23562436D01*
X5667444Y-23562436D02*
X5676967Y-23543388D01*
X5676967Y-23543388D02*
X5676967Y-23495769D01*
X5676967Y-23495769D02*
X5667444Y-23476722D01*
X5667444Y-23476722D02*
X5657920Y-23467198D01*
X5657920Y-23467198D02*
X5638872Y-23457674D01*
X5638872Y-23457674D02*
X5600777Y-23457674D01*
X5600777Y-23457674D02*
X5581729Y-23467198D01*
X5581729Y-23467198D02*
X5572206Y-23476722D01*
X5572206Y-23476722D02*
X5562682Y-23495769D01*
X5848396Y-23381484D02*
X5810301Y-23381484D01*
X5810301Y-23381484D02*
X5791253Y-23391008D01*
X5791253Y-23391008D02*
X5781729Y-23400531D01*
X5781729Y-23400531D02*
X5762682Y-23429103D01*
X5762682Y-23429103D02*
X5753158Y-23467198D01*
X5753158Y-23467198D02*
X5753158Y-23543388D01*
X5753158Y-23543388D02*
X5762682Y-23562436D01*
X5762682Y-23562436D02*
X5772206Y-23571960D01*
X5772206Y-23571960D02*
X5791253Y-23581484D01*
X5791253Y-23581484D02*
X5829348Y-23581484D01*
X5829348Y-23581484D02*
X5848396Y-23571960D01*
X5848396Y-23571960D02*
X5857920Y-23562436D01*
X5857920Y-23562436D02*
X5867444Y-23543388D01*
X5867444Y-23543388D02*
X5867444Y-23495769D01*
X5867444Y-23495769D02*
X5857920Y-23476722D01*
X5857920Y-23476722D02*
X5848396Y-23467198D01*
X5848396Y-23467198D02*
X5829348Y-23457674D01*
X5829348Y-23457674D02*
X5791253Y-23457674D01*
X5791253Y-23457674D02*
X5772206Y-23467198D01*
X5772206Y-23467198D02*
X5762682Y-23476722D01*
X5762682Y-23476722D02*
X5753158Y-23495769D01*
X5943634Y-23381484D02*
X5943634Y-23419579D01*
X6019825Y-23381484D02*
X6019825Y-23419579D01*
X6315063Y-23657674D02*
X6305539Y-23648150D01*
X6305539Y-23648150D02*
X6286491Y-23619579D01*
X6286491Y-23619579D02*
X6276968Y-23600531D01*
X6276968Y-23600531D02*
X6267444Y-23571960D01*
X6267444Y-23571960D02*
X6257920Y-23524341D01*
X6257920Y-23524341D02*
X6257920Y-23486246D01*
X6257920Y-23486246D02*
X6267444Y-23438627D01*
X6267444Y-23438627D02*
X6276968Y-23410055D01*
X6276968Y-23410055D02*
X6286491Y-23391008D01*
X6286491Y-23391008D02*
X6305539Y-23362436D01*
X6305539Y-23362436D02*
X6315063Y-23352912D01*
X6476968Y-23448150D02*
X6476968Y-23581484D01*
X6429348Y-23371960D02*
X6381729Y-23514817D01*
X6381729Y-23514817D02*
X6505539Y-23514817D01*
X6734110Y-23581484D02*
X6734110Y-23381484D01*
X6819825Y-23581484D02*
X6819825Y-23476722D01*
X6819825Y-23476722D02*
X6810301Y-23457674D01*
X6810301Y-23457674D02*
X6791253Y-23448150D01*
X6791253Y-23448150D02*
X6762682Y-23448150D01*
X6762682Y-23448150D02*
X6743634Y-23457674D01*
X6743634Y-23457674D02*
X6734110Y-23467198D01*
X6943634Y-23581484D02*
X6924587Y-23571960D01*
X6924587Y-23571960D02*
X6915063Y-23562436D01*
X6915063Y-23562436D02*
X6905539Y-23543388D01*
X6905539Y-23543388D02*
X6905539Y-23486246D01*
X6905539Y-23486246D02*
X6915063Y-23467198D01*
X6915063Y-23467198D02*
X6924587Y-23457674D01*
X6924587Y-23457674D02*
X6943634Y-23448150D01*
X6943634Y-23448150D02*
X6972206Y-23448150D01*
X6972206Y-23448150D02*
X6991253Y-23457674D01*
X6991253Y-23457674D02*
X7000777Y-23467198D01*
X7000777Y-23467198D02*
X7010301Y-23486246D01*
X7010301Y-23486246D02*
X7010301Y-23543388D01*
X7010301Y-23543388D02*
X7000777Y-23562436D01*
X7000777Y-23562436D02*
X6991253Y-23571960D01*
X6991253Y-23571960D02*
X6972206Y-23581484D01*
X6972206Y-23581484D02*
X6943634Y-23581484D01*
X7124587Y-23581484D02*
X7105539Y-23571960D01*
X7105539Y-23571960D02*
X7096015Y-23552912D01*
X7096015Y-23552912D02*
X7096015Y-23381484D01*
X7276968Y-23571960D02*
X7257920Y-23581484D01*
X7257920Y-23581484D02*
X7219825Y-23581484D01*
X7219825Y-23581484D02*
X7200777Y-23571960D01*
X7200777Y-23571960D02*
X7191253Y-23552912D01*
X7191253Y-23552912D02*
X7191253Y-23476722D01*
X7191253Y-23476722D02*
X7200777Y-23457674D01*
X7200777Y-23457674D02*
X7219825Y-23448150D01*
X7219825Y-23448150D02*
X7257920Y-23448150D01*
X7257920Y-23448150D02*
X7276968Y-23457674D01*
X7276968Y-23457674D02*
X7286491Y-23476722D01*
X7286491Y-23476722D02*
X7286491Y-23495769D01*
X7286491Y-23495769D02*
X7191253Y-23514817D01*
X7362682Y-23571960D02*
X7381730Y-23581484D01*
X7381730Y-23581484D02*
X7419825Y-23581484D01*
X7419825Y-23581484D02*
X7438872Y-23571960D01*
X7438872Y-23571960D02*
X7448396Y-23552912D01*
X7448396Y-23552912D02*
X7448396Y-23543388D01*
X7448396Y-23543388D02*
X7438872Y-23524341D01*
X7438872Y-23524341D02*
X7419825Y-23514817D01*
X7419825Y-23514817D02*
X7391253Y-23514817D01*
X7391253Y-23514817D02*
X7372206Y-23505293D01*
X7372206Y-23505293D02*
X7362682Y-23486246D01*
X7362682Y-23486246D02*
X7362682Y-23476722D01*
X7362682Y-23476722D02*
X7372206Y-23457674D01*
X7372206Y-23457674D02*
X7391253Y-23448150D01*
X7391253Y-23448150D02*
X7419825Y-23448150D01*
X7419825Y-23448150D02*
X7438872Y-23457674D01*
X7515063Y-23657674D02*
X7524587Y-23648150D01*
X7524587Y-23648150D02*
X7543634Y-23619579D01*
X7543634Y-23619579D02*
X7553158Y-23600531D01*
X7553158Y-23600531D02*
X7562682Y-23571960D01*
X7562682Y-23571960D02*
X7572206Y-23524341D01*
X7572206Y-23524341D02*
X7572206Y-23486246D01*
X7572206Y-23486246D02*
X7562682Y-23438627D01*
X7562682Y-23438627D02*
X7553158Y-23410055D01*
X7553158Y-23410055D02*
X7543634Y-23391008D01*
X7543634Y-23391008D02*
X7524587Y-23362436D01*
X7524587Y-23362436D02*
X7515063Y-23352912D01*
M02*
