M48
; DRILL file {KiCad 8.0.3-8.0.3-0~ubuntu22.04.1} date 2024-06-24T23:45:41-0400
; FORMAT={-:-/ absolute / inch / decimal}
; #@! TF.CreationDate,2024-06-24T23:45:41-04:00
; #@! TF.GenerationSoftware,Kicad,Pcbnew,8.0.3-8.0.3-0~ubuntu22.04.1
; #@! TF.FileFunction,NonPlated,1,2,NPTH
FMAT,2
INCH
; #@! TA.AperFunction,NonPlated,NPTH,ComponentDrill
T1C0.0670
; #@! TA.AperFunction,NonPlated,NPTH,ComponentDrill
T2C0.1181
; #@! TA.AperFunction,NonPlated,NPTH,ComponentDrill
T3C0.1200
; #@! TA.AperFunction,NonPlated,NPTH,ComponentDrill
T4C0.1570
%
G90
G05
T1
X1.3748Y-4.7165
X1.3748Y-5.5059
X1.3748Y-6.2953
X1.3748Y-7.0846
X1.7695Y-7.874
X1.7748Y-4.7165
X1.7748Y-5.5059
X1.7748Y-6.2953
X1.7748Y-7.0846
X2.1642Y-4.7165
X2.1642Y-5.5059
X2.1642Y-6.2953
X2.1642Y-7.0846
X2.1695Y-7.874
X2.5642Y-4.7165
X2.5642Y-5.5059
X2.5642Y-6.2953
X2.5642Y-7.0846
X2.9535Y-4.7165
X2.9535Y-5.5059
X2.9535Y-6.2953
X2.9535Y-7.0846
X2.9535Y-7.874
X3.3535Y-4.7165
X3.3535Y-5.5059
X3.3535Y-6.2953
X3.3535Y-7.0846
X3.3535Y-7.874
X3.7429Y-4.7165
X3.9429Y-5.7006
X3.9429Y-6.1006
X3.9429Y-7.2793
X3.9429Y-7.6793
X4.1429Y-4.7165
T2
X1.4748Y-4.9165
X1.4748Y-5.7059
X1.4748Y-6.4953
X1.4748Y-7.2846
X1.7248Y-4.8165
X1.7248Y-5.6059
X1.7248Y-6.3953
X1.7248Y-7.1846
X1.8695Y-8.074
X2.1195Y-7.974
X2.2642Y-4.9165
X2.2642Y-5.7059
X2.2642Y-6.4953
X2.2642Y-7.2846
X2.5142Y-4.8165
X2.5142Y-5.6059
X2.5142Y-6.3953
X2.5142Y-7.1846
X3.0535Y-4.9165
X3.0535Y-5.7059
X3.0535Y-6.4953
X3.0535Y-7.2846
X3.0535Y-8.074
X3.3035Y-4.8165
X3.3035Y-5.6059
X3.3035Y-6.3953
X3.3035Y-7.1846
X3.3035Y-7.974
X3.8429Y-4.9165
X4.0429Y-5.7506
X4.0429Y-7.3293
X4.0929Y-4.8165
X4.1429Y-6.0006
X4.1429Y-7.5793
T3
X1.4995Y-7.599
X2.4395Y-7.599
X3.6679Y-5.4306
X3.6679Y-6.3706
X3.6679Y-7.0093
X3.6679Y-7.9493
T4
X1.4995Y-8.1978
X1.5748Y-4.7165
X1.5748Y-5.5059
X1.5748Y-6.2953
X1.5748Y-7.0846
X1.9695Y-7.874
X2.3642Y-4.7165
X2.3642Y-5.5059
X2.3642Y-6.2953
X2.3642Y-7.0846
X2.4395Y-8.1978
X3.1535Y-4.7165
X3.1535Y-5.5059
X3.1535Y-6.2953
X3.1535Y-7.0846
X3.1535Y-7.874
X3.9429Y-4.7165
X3.9429Y-5.9006
X3.9429Y-7.4793
X4.2667Y-5.4306
X4.2667Y-6.3706
X4.2667Y-7.0093
X4.2667Y-7.9493
M30
