M48
; DRILL file {KiCad 8.0.3-8.0.3-0~ubuntu22.04.1} date 2024-06-24T23:45:41-0400
; FORMAT={-:-/ absolute / inch / decimal}
; #@! TF.CreationDate,2024-06-24T23:45:41-04:00
; #@! TF.GenerationSoftware,Kicad,Pcbnew,8.0.3-8.0.3-0~ubuntu22.04.1
; #@! TF.FileFunction,Plated,1,2,PTH
FMAT,2
INCH
; #@! TA.AperFunction,Plated,PTH,ViaDrill
T1C0.0118
; #@! TA.AperFunction,Plated,PTH,ComponentDrill
T2C0.0157
; #@! TA.AperFunction,Plated,PTH,ComponentDrill
T3C0.0315
; #@! TA.AperFunction,Plated,PTH,ComponentDrill
T4C0.0394
; #@! TA.AperFunction,Plated,PTH,ComponentDrill
T5C0.0430
; #@! TA.AperFunction,Plated,PTH,ComponentDrill
T6C0.0591
; #@! TA.AperFunction,Plated,PTH,ComponentDrill
T7C0.0866
%
G90
G05
T1
X1.1945Y-7.3252
X1.2016Y-4.5583
X1.202Y-5.7469
X1.2106Y-4.9583
X1.2441Y-5.2996
X1.2445Y-6.537
X1.2457Y-6.8327
X1.2476Y-4.3272
X1.3146Y-5.0906
X1.315Y-6.0669
X1.3898Y-6.6913
X1.4106Y-6.5646
X1.4114Y-4.9874
X1.4134Y-5.7748
X1.4161Y-7.3512
X1.4555Y-7.4555
X1.4626Y-3.9957
X1.576Y-5.6346
X1.7823Y-3.376
X1.7996Y-3.9409
X1.8075Y-8.1437
X1.8323Y-6.0413
X1.852Y-4.7177
X1.852Y-6.2961
X1.8547Y-5.5087
X1.8555Y-7.298
X1.8575Y-4.9622
X1.8575Y-7.0882
X1.8602Y-5.7465
X1.8602Y-6.5091
X1.8795Y-3.374
X1.8906Y-3.937
X1.8917Y-4.0098
X1.9902Y-4.4634
X1.9913Y-3.9378
X1.9921Y-4.011
X2.0917Y-3.9378
X2.0921Y-4.0083
X2.1031Y-5.0122
X2.1075Y-5.8022
X2.1087Y-6.5915
X2.1228Y-7.3809
X2.1563Y-7.7346
X2.1917Y-3.9378
X2.1925Y-4.011
X2.1992Y-5.7732
X2.1996Y-6.5638
X2.2055Y-4.9846
X2.2087Y-7.3492
X2.248Y-7.8669
X2.2949Y-7.5965
X2.2957Y-3.9768
X2.3921Y-3.7028
X2.5752Y-8.1056
X2.6417Y-4.7181
X2.6445Y-4.9512
X2.6445Y-5.5035
X2.6445Y-6.2917
X2.6445Y-7.085
X2.6492Y-5.7157
X2.6492Y-6.5091
X2.7382Y-6.0429
X2.7795Y-7.6406
X2.7803Y-4.463
X2.8252Y-8.1134
X2.9898Y-8.1441
X2.9933Y-6.5642
X2.9937Y-5.7748
X2.9972Y-4.9835
X3.2626Y-5.4803
X3.3016Y-5.5252
X3.4283Y-5.9205
X3.4307Y-4.5559
X3.4307Y-4.9071
X3.4307Y-5.5055
X3.4311Y-7.7094
X3.4323Y-6.1311
X3.4323Y-6.4988
X3.4327Y-7.5008
X3.4354Y-7.089
X3.5217Y-3.8992
X3.526Y-5.013
X3.5287Y-7.6209
X3.5394Y-5.3693
X3.5693Y-6.0421
X3.5697Y-4.4638
X4.1783Y-6.2571
T2
X1.1545Y-3.0891
X1.1545Y-8.2293
X1.1736Y-3.0431
X1.1736Y-3.135
X1.1736Y-8.1834
X1.1736Y-8.2753
X1.2195Y-3.0241
X1.2195Y-3.154
X1.2195Y-8.1644
X1.2195Y-8.2943
X1.2654Y-3.0431
X1.2654Y-3.135
X1.2654Y-8.1834
X1.2654Y-8.2753
X1.2844Y-3.0891
X1.2844Y-8.2293
X4.2333Y-3.0891
X4.2333Y-8.2293
X4.2523Y-3.0431
X4.2523Y-3.135
X4.2523Y-8.1834
X4.2523Y-8.2753
X4.2982Y-3.0241
X4.2982Y-3.154
X4.2982Y-8.1644
X4.2982Y-8.2943
X4.3442Y-3.0431
X4.3442Y-3.135
X4.3442Y-8.1834
X4.3442Y-8.2753
X4.3632Y-3.0891
X4.3632Y-8.2293
T3
X1.4567Y-3.5376
X1.4567Y-3.636
T4
X2.4587Y-3.4523
X2.4587Y-3.5523
X2.4587Y-3.6523
X2.4587Y-3.7523
X3.8461Y-3.3206
X3.8461Y-3.8914
X3.9445Y-3.3206
X4.0429Y-3.3206
X4.0429Y-3.8914
T5
X1.2413Y-3.2868
X1.2413Y-3.8868
X1.3413Y-3.2868
X1.3413Y-3.8868
X1.4413Y-3.2868
X1.4413Y-3.8868
X1.5413Y-3.2868
X1.5413Y-3.8868
X1.6413Y-3.2868
X1.6413Y-3.8868
X1.7413Y-3.2868
X1.7413Y-3.8868
X1.8413Y-3.2868
X1.8413Y-3.8868
X1.9413Y-3.2868
X1.9413Y-3.8868
X2.0413Y-3.2868
X2.0413Y-3.8868
X2.1413Y-3.2868
X2.1413Y-3.8868
X2.2413Y-3.2868
X2.2413Y-3.8868
X2.3413Y-3.2868
X2.3413Y-3.8868
T7
X1.2195Y-3.0891
X1.2195Y-8.2293
X4.2982Y-3.0891
X4.2982Y-8.2293
T6
G00X3.724Y-3.5903
M15
G01X3.724Y-3.6414
M16
G05
G00X4.165Y-3.5903
M15
G01X4.165Y-3.6414
M16
G05
M30
