0
SECTION
2
HEADER
9
$INSUNITS
70
4
0
ENDSEC
0
SECTION
2
TABLES
0
TABLE
2
LTYPE
0
LTYPE
72
65
70
64
2
CONTINUOUS
3
______
73
0
40
0
0
ENDTAB
0
TABLE
2
LAYER
0
ENDTAB
0
ENDSEC
0
SECTION
2
ENTITIES
0
LINE
8
0
10
30.975
20
-191
11
69.075
21
-191
0
LINE
8
0
10
69.075
20
-191
11
69.075
21
-209
0
LINE
8
0
10
69.075
20
-209
11
30.975
21
-209
0
LINE
8
0
10
30.975
20
-209
11
30.975
21
-191
0
LINE
8
0
10
31
20
-170.95
11
49
21
-170.95
0
LINE
8
0
10
49
20
-170.95
11
49
21
-188.95
0
LINE
8
0
10
49
20
-188.95
11
31
21
-188.95
0
LINE
8
0
10
31
20
-188.95
11
31
21
-170.95
0
LINE
8
0
10
31
20
-150.9
11
49
21
-150.9
0
LINE
8
0
10
49
20
-150.9
11
49
21
-168.9
0
LINE
8
0
10
49
20
-168.9
11
31
21
-168.9
0
LINE
8
0
10
31
20
-168.9
11
31
21
-150.9
0
LINE
8
0
10
31
20
-130.85
11
49
21
-130.85
0
LINE
8
0
10
49
20
-130.85
11
49
21
-148.85
0
LINE
8
0
10
49
20
-148.85
11
31
21
-148.85
0
LINE
8
0
10
31
20
-148.85
11
31
21
-130.85
0
LINE
8
0
10
31
20
-110.8
11
49
21
-110.8
0
LINE
8
0
10
49
20
-110.8
11
49
21
-128.8
0
LINE
8
0
10
49
20
-128.8
11
31
21
-128.8
0
LINE
8
0
10
31
20
-128.8
11
31
21
-110.8
0
LINE
8
0
10
38.4
20
-105.85
11
41.6
21
-105.85
0
LINE
8
0
10
41.6
20
-105.85
11
41.6
21
-108.65
0
LINE
8
0
10
41.6
20
-108.65
11
38.4
21
-108.65
0
LINE
8
0
10
38.4
20
-108.65
11
38.4
21
-105.85
0
LINE
8
0
10
51.05
20
-170.95
11
69.05
21
-170.95
0
LINE
8
0
10
69.05
20
-170.95
11
69.05
21
-188.95
0
LINE
8
0
10
69.05
20
-188.95
11
51.05
21
-188.95
0
LINE
8
0
10
51.05
20
-188.95
11
51.05
21
-170.95
0
LINE
8
0
10
51.05
20
-150.9
11
69.05
21
-150.9
0
LINE
8
0
10
69.05
20
-150.9
11
69.05
21
-168.9
0
LINE
8
0
10
69.05
20
-168.9
11
51.05
21
-168.9
0
LINE
8
0
10
51.05
20
-168.9
11
51.05
21
-150.9
0
LINE
8
0
10
51.05
20
-130.85
11
69.05
21
-130.85
0
LINE
8
0
10
69.05
20
-130.85
11
69.05
21
-148.85
0
LINE
8
0
10
69.05
20
-148.85
11
51.05
21
-148.85
0
LINE
8
0
10
51.05
20
-148.85
11
51.05
21
-130.85
0
LINE
8
0
10
51.05
20
-110.8
11
69.05
21
-110.8
0
LINE
8
0
10
69.05
20
-110.8
11
69.05
21
-128.8
0
LINE
8
0
10
69.05
20
-128.8
11
51.05
21
-128.8
0
LINE
8
0
10
51.05
20
-128.8
11
51.05
21
-110.8
0
LINE
8
0
10
58.45
20
-105.85
11
61.65
21
-105.85
0
LINE
8
0
10
61.65
20
-105.85
11
61.65
21
-108.65
0
LINE
8
0
10
61.65
20
-108.65
11
58.45
21
-108.65
0
LINE
8
0
10
58.45
20
-108.65
11
58.45
21
-105.85
0
LINE
8
0
10
71.1
20
-191
11
89.1
21
-191
0
LINE
8
0
10
89.1
20
-191
11
89.1
21
-209
0
LINE
8
0
10
89.1
20
-209
11
71.1
21
-209
0
LINE
8
0
10
71.1
20
-209
11
71.1
21
-191
0
LINE
8
0
10
71.1
20
-170.95
11
89.1
21
-170.95
0
LINE
8
0
10
89.1
20
-170.95
11
89.1
21
-188.95
0
LINE
8
0
10
89.1
20
-188.95
11
71.1
21
-188.95
0
LINE
8
0
10
71.1
20
-188.95
11
71.1
21
-170.95
0
LINE
8
0
10
71.1
20
-150.9
11
89.1
21
-150.9
0
LINE
8
0
10
89.1
20
-150.9
11
89.1
21
-168.9
0
LINE
8
0
10
89.1
20
-168.9
11
71.1
21
-168.9
0
LINE
8
0
10
71.1
20
-168.9
11
71.1
21
-150.9
0
LINE
8
0
10
71.1
20
-130.85
11
89.1
21
-130.85
0
LINE
8
0
10
89.1
20
-130.85
11
89.1
21
-148.85
0
LINE
8
0
10
89.1
20
-148.85
11
71.1
21
-148.85
0
LINE
8
0
10
71.1
20
-148.85
11
71.1
21
-130.85
0
LINE
8
0
10
71.1
20
-110.8
11
89.1
21
-110.8
0
LINE
8
0
10
89.1
20
-110.8
11
89.1
21
-128.8
0
LINE
8
0
10
89.1
20
-128.8
11
71.1
21
-128.8
0
LINE
8
0
10
71.1
20
-128.8
11
71.1
21
-110.8
0
LINE
8
0
10
78.5
20
-105.85
11
81.7
21
-105.85
0
LINE
8
0
10
81.7
20
-105.85
11
81.7
21
-108.65
0
LINE
8
0
10
81.7
20
-108.65
11
78.5
21
-108.65
0
LINE
8
0
10
78.5
20
-108.65
11
78.5
21
-105.85
0
LINE
8
0
10
91.15
20
-209.025
11
91.15
21
-170.925
0
LINE
8
0
10
91.15
20
-170.925
11
109.15
21
-170.925
0
LINE
8
0
10
109.15
20
-170.925
11
109.15
21
-209.025
0
LINE
8
0
10
109.15
20
-209.025
11
91.15
21
-209.025
0
LINE
8
0
10
91.15
20
-168.925
11
91.15
21
-130.825
0
LINE
8
0
10
91.15
20
-130.825
11
109.15
21
-130.825
0
LINE
8
0
10
109.15
20
-130.825
11
109.15
21
-168.925
0
LINE
8
0
10
109.15
20
-168.925
11
91.15
21
-168.925
0
LINE
8
0
10
91.15
20
-110.8
11
109.15
21
-110.8
0
LINE
8
0
10
109.15
20
-110.8
11
109.15
21
-128.8
0
LINE
8
0
10
109.15
20
-128.8
11
91.15
21
-128.8
0
LINE
8
0
10
91.15
20
-128.8
11
91.15
21
-110.8
0
LINE
8
0
10
98.55
20
-105.85
11
101.75
21
-105.85
0
LINE
8
0
10
101.75
20
-105.85
11
101.75
21
-108.65
0
LINE
8
0
10
101.75
20
-108.65
11
98.55
21
-108.65
0
LINE
8
0
10
98.55
20
-108.65
11
98.55
21
-105.85
0
ENDSEC
0
EOF