<svg width="78.2mm" height="103.175mm" viewBox="0 0 78.2 103.175" xmlns="http://www.w3.org/2000/svg"><g id="svgGroup" stroke-linecap="round" fill-rule="evenodd" font-size="9pt" stroke="#000" stroke-width="0.25mm" fill="none" style="stroke:#000;stroke-width:0.25mm;fill:none"><path d="M 0 85.125 L 38.1 85.125 L 38.1 103.175 L 0 103.175 L 0 85.125 Z M 60.15 103.175 L 60.15 65.075 L 78.2 65.075 L 78.2 103.175 L 60.15 103.175 Z M 60.15 63.075 L 60.15 24.975 L 78.2 24.975 L 78.2 63.075 L 60.15 63.075 Z M 0 65.075 L 18.05 65.075 L 18.05 83.125 L 0 83.125 L 0 65.075 Z M 0 45.025 L 18.05 45.025 L 18.05 63.075 L 0 63.075 L 0 45.025 Z M 0 24.975 L 18.05 24.975 L 18.05 43.025 L 0 43.025 L 0 24.975 Z M 20.05 65.075 L 38.1 65.075 L 38.1 83.125 L 20.05 83.125 L 20.05 65.075 Z M 20.05 45.025 L 38.1 45.025 L 38.1 63.075 L 20.05 63.075 L 20.05 45.025 Z M 20.05 24.975 L 38.1 24.975 L 38.1 43.025 L 20.05 43.025 L 20.05 24.975 Z M 40.1 85.125 L 58.15 85.125 L 58.15 103.175 L 40.1 103.175 L 40.1 85.125 Z M 40.1 65.075 L 58.15 65.075 L 58.15 83.125 L 40.1 83.125 L 40.1 65.075 Z M 40.1 45.025 L 58.15 45.025 L 58.15 63.075 L 40.1 63.075 L 40.1 45.025 Z M 40.1 24.975 L 58.15 24.975 L 58.15 43.025 L 40.1 43.025 L 40.1 24.975 Z M 0 4.925 L 18.05 4.925 L 18.05 22.975 L 0 22.975 L 0 4.925 Z M 20.05 4.925 L 38.1 4.925 L 38.1 22.975 L 20.05 22.975 L 20.05 4.925 Z M 40.1 4.925 L 58.15 4.925 L 58.15 22.975 L 40.1 22.975 L 40.1 4.925 Z M 60.15 4.925 L 78.2 4.925 L 78.2 22.975 L 60.15 22.975 L 60.15 4.925 Z M 7.425 0 L 10.625 0 L 10.625 2.8 L 7.425 2.8 L 7.425 0 Z M 27.475 0 L 30.675 0 L 30.675 2.8 L 27.475 2.8 L 27.475 0 Z M 47.525 0 L 50.725 0 L 50.725 2.8 L 47.525 2.8 L 47.525 0 Z M 67.575 0 L 70.775 0 L 70.775 2.8 L 67.575 2.8 L 67.575 0 Z" vector-effect="non-scaling-stroke"/></g></svg>