<svg width="78.2mm" height="126.088mm" viewBox="0 0 78.2 126.088" xmlns="http://www.w3.org/2000/svg"><g id="svgGroup" stroke-linecap="round" fill-rule="evenodd" font-size="9pt" stroke="#000" stroke-width="0.25mm" fill="none" style="stroke:#000;stroke-width:0.25mm;fill:none"><path d="M 0 108.038 L 38.1 108.038 L 38.1 126.088 L 0 126.088 L 0 108.038 Z M 60.15 126.088 L 60.15 87.988 L 78.2 87.988 L 78.2 126.088 L 60.15 126.088 Z M 60.15 85.988 L 60.15 47.888 L 78.2 47.888 L 78.2 85.988 L 60.15 85.988 Z M 0 87.988 L 18.05 87.988 L 18.05 106.038 L 0 106.038 L 0 87.988 Z M 0 67.938 L 18.05 67.938 L 18.05 85.988 L 0 85.988 L 0 67.938 Z M 0 47.887 L 18.05 47.887 L 18.05 65.938 L 0 65.938 L 0 47.887 Z M 20.05 87.988 L 38.1 87.988 L 38.1 106.038 L 20.05 106.038 L 20.05 87.988 Z M 20.05 67.938 L 38.1 67.938 L 38.1 85.988 L 20.05 85.988 L 20.05 67.938 Z M 20.05 47.887 L 38.1 47.887 L 38.1 65.938 L 20.05 65.938 L 20.05 47.887 Z M 40.1 108.038 L 58.15 108.038 L 58.15 126.088 L 40.1 126.088 L 40.1 108.038 Z M 40.1 87.988 L 58.15 87.988 L 58.15 106.038 L 40.1 106.038 L 40.1 87.988 Z M 40.1 67.938 L 58.15 67.938 L 58.15 85.988 L 40.1 85.988 L 40.1 67.938 Z M 40.1 47.887 L 58.15 47.887 L 58.15 65.938 L 40.1 65.938 L 40.1 47.887 Z M 0 27.837 L 18.05 27.837 L 18.05 45.887 L 0 45.887 L 0 27.837 Z M 20.05 27.837 L 38.1 27.837 L 38.1 45.887 L 20.05 45.887 L 20.05 27.837 Z M 40.1 27.837 L 58.15 27.837 L 58.15 45.887 L 40.1 45.887 L 40.1 27.837 Z M 60.15 27.837 L 78.2 27.837 L 78.2 45.887 L 60.15 45.887 L 60.15 27.837 Z M 60.15 0 L 78.2 0 L 78.2 18.05 L 60.15 18.05 L 60.15 0 Z M 7.425 19.15 L 10.625 19.15 L 10.625 21.95 L 7.425 21.95 L 7.425 19.15 Z M 27.475 19.15 L 30.675 19.15 L 30.675 21.95 L 27.475 21.95 L 27.475 19.15 Z M 47.525 19.15 L 50.725 19.15 L 50.725 21.95 L 47.525 21.95 L 47.525 19.15 Z M 67.575 19.15 L 70.775 19.15 L 70.775 21.95 L 67.575 21.95 L 67.575 19.15 Z" vector-effect="non-scaling-stroke"/></g></svg>