0
SECTION
2
HEADER
9
$INSUNITS
70
4
0
ENDSEC
0
SECTION
2
TABLES
0
TABLE
2
LTYPE
0
LTYPE
72
65
70
64
2
CONTINUOUS
3
______
73
0
40
0
0
ENDTAB
0
TABLE
2
LAYER
0
ENDTAB
0
ENDSEC
0
SECTION
2
ENTITIES
0
LINE
8
0
10
30.975
20
-190.975
11
69.075
21
-190.975
0
LINE
8
0
10
69.075
20
-190.975
11
69.075
21
-209.025
0
LINE
8
0
10
69.075
20
-209.025
11
30.975
21
-209.025
0
LINE
8
0
10
30.975
20
-209.025
11
30.975
21
-190.975
0
LINE
8
0
10
30.975
20
-170.925
11
49.025
21
-170.925
0
LINE
8
0
10
49.025
20
-170.925
11
49.025
21
-188.975
0
LINE
8
0
10
49.025
20
-188.975
11
30.975
21
-188.975
0
LINE
8
0
10
30.975
20
-188.975
11
30.975
21
-170.925
0
LINE
8
0
10
30.975
20
-150.875
11
49.025
21
-150.875
0
LINE
8
0
10
49.025
20
-150.875
11
49.025
21
-168.925
0
LINE
8
0
10
49.025
20
-168.925
11
30.975
21
-168.925
0
LINE
8
0
10
30.975
20
-168.925
11
30.975
21
-150.875
0
LINE
8
0
10
30.975
20
-130.825
11
49.025
21
-130.825
0
LINE
8
0
10
49.025
20
-130.825
11
49.025
21
-148.875
0
LINE
8
0
10
49.025
20
-148.875
11
30.975
21
-148.875
0
LINE
8
0
10
30.975
20
-148.875
11
30.975
21
-130.825
0
LINE
8
0
10
30.975
20
-110.775
11
49.025
21
-110.775
0
LINE
8
0
10
49.025
20
-110.775
11
49.025
21
-128.825
0
LINE
8
0
10
49.025
20
-128.825
11
30.975
21
-128.825
0
LINE
8
0
10
30.975
20
-128.825
11
30.975
21
-110.775
0
LINE
8
0
10
38.4
20
-105.85
11
41.6
21
-105.85
0
LINE
8
0
10
41.6
20
-105.85
11
41.6
21
-108.65
0
LINE
8
0
10
41.6
20
-108.65
11
38.4
21
-108.65
0
LINE
8
0
10
38.4
20
-108.65
11
38.4
21
-105.85
0
LINE
8
0
10
51.025
20
-170.925
11
69.075
21
-170.925
0
LINE
8
0
10
69.075
20
-170.925
11
69.075
21
-188.975
0
LINE
8
0
10
69.075
20
-188.975
11
51.025
21
-188.975
0
LINE
8
0
10
51.025
20
-188.975
11
51.025
21
-170.925
0
LINE
8
0
10
51.025
20
-150.875
11
69.075
21
-150.875
0
LINE
8
0
10
69.075
20
-150.875
11
69.075
21
-168.925
0
LINE
8
0
10
69.075
20
-168.925
11
51.025
21
-168.925
0
LINE
8
0
10
51.025
20
-168.925
11
51.025
21
-150.875
0
LINE
8
0
10
51.025
20
-130.825
11
69.075
21
-130.825
0
LINE
8
0
10
69.075
20
-130.825
11
69.075
21
-148.875
0
LINE
8
0
10
69.075
20
-148.875
11
51.025
21
-148.875
0
LINE
8
0
10
51.025
20
-148.875
11
51.025
21
-130.825
0
LINE
8
0
10
51.025
20
-110.775
11
69.075
21
-110.775
0
LINE
8
0
10
69.075
20
-110.775
11
69.075
21
-128.825
0
LINE
8
0
10
69.075
20
-128.825
11
51.025
21
-128.825
0
LINE
8
0
10
51.025
20
-128.825
11
51.025
21
-110.775
0
LINE
8
0
10
58.45
20
-105.85
11
61.65
21
-105.85
0
LINE
8
0
10
61.65
20
-105.85
11
61.65
21
-108.65
0
LINE
8
0
10
61.65
20
-108.65
11
58.45
21
-108.65
0
LINE
8
0
10
58.45
20
-108.65
11
58.45
21
-105.85
0
LINE
8
0
10
71.075
20
-190.975
11
89.125
21
-190.975
0
LINE
8
0
10
89.125
20
-190.975
11
89.125
21
-209.025
0
LINE
8
0
10
89.125
20
-209.025
11
71.075
21
-209.025
0
LINE
8
0
10
71.075
20
-209.025
11
71.075
21
-190.975
0
LINE
8
0
10
71.075
20
-170.925
11
89.125
21
-170.925
0
LINE
8
0
10
89.125
20
-170.925
11
89.125
21
-188.975
0
LINE
8
0
10
89.125
20
-188.975
11
71.075
21
-188.975
0
LINE
8
0
10
71.075
20
-188.975
11
71.075
21
-170.925
0
LINE
8
0
10
71.075
20
-150.875
11
89.125
21
-150.875
0
LINE
8
0
10
89.125
20
-150.875
11
89.125
21
-168.925
0
LINE
8
0
10
89.125
20
-168.925
11
71.075
21
-168.925
0
LINE
8
0
10
71.075
20
-168.925
11
71.075
21
-150.875
0
LINE
8
0
10
71.075
20
-130.825
11
89.125
21
-130.825
0
LINE
8
0
10
89.125
20
-130.825
11
89.125
21
-148.875
0
LINE
8
0
10
89.125
20
-148.875
11
71.075
21
-148.875
0
LINE
8
0
10
71.075
20
-148.875
11
71.075
21
-130.825
0
LINE
8
0
10
71.075
20
-110.775
11
89.125
21
-110.775
0
LINE
8
0
10
89.125
20
-110.775
11
89.125
21
-128.825
0
LINE
8
0
10
89.125
20
-128.825
11
71.075
21
-128.825
0
LINE
8
0
10
71.075
20
-128.825
11
71.075
21
-110.775
0
LINE
8
0
10
78.5
20
-105.85
11
81.7
21
-105.85
0
LINE
8
0
10
81.7
20
-105.85
11
81.7
21
-108.65
0
LINE
8
0
10
81.7
20
-108.65
11
78.5
21
-108.65
0
LINE
8
0
10
78.5
20
-108.65
11
78.5
21
-105.85
0
LINE
8
0
10
91.125
20
-209.025
11
91.125
21
-170.925
0
LINE
8
0
10
91.125
20
-170.925
11
109.175
21
-170.925
0
LINE
8
0
10
109.175
20
-170.925
11
109.175
21
-209.025
0
LINE
8
0
10
109.175
20
-209.025
11
91.125
21
-209.025
0
LINE
8
0
10
91.125
20
-168.925
11
91.125
21
-130.825
0
LINE
8
0
10
91.125
20
-130.825
11
109.175
21
-130.825
0
LINE
8
0
10
109.175
20
-130.825
11
109.175
21
-168.925
0
LINE
8
0
10
109.175
20
-168.925
11
91.125
21
-168.925
0
LINE
8
0
10
91.125
20
-110.775
11
109.175
21
-110.775
0
LINE
8
0
10
109.175
20
-110.775
11
109.175
21
-128.825
0
LINE
8
0
10
109.175
20
-128.825
11
91.125
21
-128.825
0
LINE
8
0
10
91.125
20
-128.825
11
91.125
21
-110.775
0
LINE
8
0
10
98.55
20
-105.85
11
101.75
21
-105.85
0
LINE
8
0
10
101.75
20
-105.85
11
101.75
21
-108.65
0
LINE
8
0
10
101.75
20
-108.65
11
98.55
21
-108.65
0
LINE
8
0
10
98.55
20
-108.65
11
98.55
21
-105.85
0
ENDSEC
0
EOF