<svg width="78.175mm" height="103.175mm" viewBox="0 0 78.175 103.175" xmlns="http://www.w3.org/2000/svg"><g id="svgGroup" stroke-linecap="round" fill-rule="evenodd" font-size="9pt" stroke="#000" stroke-width="0.25mm" fill="none" style="stroke:#000;stroke-width:0.25mm;fill:none"><path d="M 60.175 103.175 L 60.175 65.075 L 78.175 65.075 L 78.175 103.175 L 60.175 103.175 Z M 60.175 63.075 L 60.175 24.975 L 78.175 24.975 L 78.175 63.075 L 60.175 63.075 Z M 0 85.15 L 38.1 85.15 L 38.1 103.15 L 0 103.15 L 0 85.15 Z M 0.025 65.1 L 18.025 65.1 L 18.025 83.1 L 0.025 83.1 L 0.025 65.1 Z M 0.025 45.05 L 18.025 45.05 L 18.025 63.05 L 0.025 63.05 L 0.025 45.05 Z M 0.025 25 L 18.025 25 L 18.025 43 L 0.025 43 L 0.025 25 Z M 0.025 4.95 L 18.025 4.95 L 18.025 22.95 L 0.025 22.95 L 0.025 4.95 Z M 20.075 65.1 L 38.075 65.1 L 38.075 83.1 L 20.075 83.1 L 20.075 65.1 Z M 20.075 45.05 L 38.075 45.05 L 38.075 63.05 L 20.075 63.05 L 20.075 45.05 Z M 20.075 25 L 38.075 25 L 38.075 43 L 20.075 43 L 20.075 25 Z M 20.075 4.95 L 38.075 4.95 L 38.075 22.95 L 20.075 22.95 L 20.075 4.95 Z M 40.125 85.15 L 58.125 85.15 L 58.125 103.15 L 40.125 103.15 L 40.125 85.15 Z M 40.125 65.1 L 58.125 65.1 L 58.125 83.1 L 40.125 83.1 L 40.125 65.1 Z M 40.125 45.05 L 58.125 45.05 L 58.125 63.05 L 40.125 63.05 L 40.125 45.05 Z M 40.125 25 L 58.125 25 L 58.125 43 L 40.125 43 L 40.125 25 Z M 40.125 4.95 L 58.125 4.95 L 58.125 22.95 L 40.125 22.95 L 40.125 4.95 Z M 60.175 4.95 L 78.175 4.95 L 78.175 22.95 L 60.175 22.95 L 60.175 4.95 Z M 7.425 0 L 10.625 0 L 10.625 2.8 L 7.425 2.8 L 7.425 0 Z M 27.475 0 L 30.675 0 L 30.675 2.8 L 27.475 2.8 L 27.475 0 Z M 47.525 0 L 50.725 0 L 50.725 2.8 L 47.525 2.8 L 47.525 0 Z M 67.575 0 L 70.775 0 L 70.775 2.8 L 67.575 2.8 L 67.575 0 Z" vector-effect="non-scaling-stroke"/></g></svg>