solid csg.js
facet normal 0 0 -1
outer loop
vertex 27.475 -79.75000000000004 0
vertex 27.550961234938967 -78.8817591116653 0
vertex 27.77653689607044 -78.03989928337171 0
endloop
endfacet
facet normal 0 0 -1
outer loop
vertex 27.475 -79.75000000000004 0
vertex 27.77653689607044 -78.03989928337171 0
vertex 28.144872981077846 -77.24999999999993 0
endloop
endfacet
facet normal 0 0 -1
outer loop
vertex 27.475 -79.75000000000004 0
vertex 28.144872981077846 -77.24999999999993 0
vertex 28.644777784405065 -76.53606195156736 0
endloop
endfacet
facet normal 0 0 -1
outer loop
vertex 27.475 -79.75000000000004 0
vertex 28.644777784405065 -76.53606195156736 0
vertex 29.261061951567342 -75.91977778440508 0
endloop
endfacet
facet normal 0 0 -1
outer loop
vertex 27.475 -79.75000000000004 0
vertex 29.261061951567342 -75.91977778440508 0
vertex 29.974999999999994 -75.4198729810778 0
endloop
endfacet
facet normal 0 0 -1
outer loop
vertex 27.475 -79.75000000000004 0
vertex 29.974999999999994 -75.4198729810778 0
vertex 30.76489928337171 -75.05153689607043 0
endloop
endfacet
facet normal 0 0 -1
outer loop
vertex 27.475 -79.75000000000004 0
vertex 30.76489928337171 -75.05153689607043 0
vertex 31.606759111665255 -74.82596123493897 0
endloop
endfacet
facet normal 0 0 -1
outer loop
vertex 27.475 -79.75000000000004 0
vertex 31.606759111665255 -74.82596123493897 0
vertex 32.47500000000001 -74.75 0
endloop
endfacet
facet normal 0 0 -1
outer loop
vertex 27.475 -79.75000000000004 0
vertex 32.47500000000001 -74.75 0
vertex 107.67500000000017 -74.75 0
endloop
endfacet
facet normal 0 0 -1
outer loop
vertex 27.475 -79.75000000000004 0
vertex 107.67500000000017 -74.75 0
vertex 108.54324088833451 -74.82596123493893 0
endloop
endfacet
facet normal 0 0 -1
outer loop
vertex 27.475 -79.75000000000004 0
vertex 108.54324088833451 -74.82596123493893 0
vertex 109.38510071662837 -75.05153689607047 0
endloop
endfacet
facet normal 0 0 -1
outer loop
vertex 27.475 -79.75000000000004 0
vertex 109.38510071662837 -75.05153689607047 0
vertex 110.17499999999994 -75.41987298107777 0
endloop
endfacet
facet normal 0 0 -1
outer loop
vertex 27.475 -79.75000000000004 0
vertex 110.17499999999994 -75.41987298107777 0
vertex 110.88893804843273 -75.91977778440516 0
endloop
endfacet
facet normal 0 0 -1
outer loop
vertex 27.475 -79.75000000000004 0
vertex 110.88893804843273 -75.91977778440516 0
vertex 111.50522221559487 -76.53606195156728 0
endloop
endfacet
facet normal 0 0 -1
outer loop
vertex 27.475 -79.75000000000004 0
vertex 111.50522221559487 -76.53606195156728 0
vertex 112.00512701892215 -77.24999999999994 0
endloop
endfacet
facet normal 0 0 -1
outer loop
vertex 27.475 -79.75000000000004 0
vertex 112.00512701892215 -77.24999999999994 0
vertex 112.3734631039295 -78.03989928337158 0
endloop
endfacet
facet normal 0 0 -1
outer loop
vertex 27.475 -79.75000000000004 0
vertex 112.3734631039295 -78.03989928337158 0
vertex 112.59903876506104 -78.88175911166542 0
endloop
endfacet
facet normal 0 0 -1
outer loop
vertex 27.475 -79.75000000000004 0
vertex 112.59903876506104 -78.88175911166542 0
vertex 112.675 -79.75 0
endloop
endfacet
facet normal 0 0 -1
outer loop
vertex 27.475 -79.75000000000004 0
vertex 112.675 -79.75 0
vertex 112.675 -207.52500000000015 0
endloop
endfacet
facet normal 0 0 -1
outer loop
vertex 27.475 -79.75000000000004 0
vertex 112.675 -207.52500000000015 0
vertex 112.59903876506105 -208.39324088833462 0
endloop
endfacet
facet normal 0 0 -1
outer loop
vertex 27.475 -79.75000000000004 0
vertex 112.59903876506105 -208.39324088833462 0
vertex 112.37346310392954 -209.23510071662835 0
endloop
endfacet
facet normal 0 0 -1
outer loop
vertex 27.475 -79.75000000000004 0
vertex 112.37346310392954 -209.23510071662835 0
vertex 112.00512701892225 -210.0249999999999 0
endloop
endfacet
facet normal 0 0 -1
outer loop
vertex 27.475 -79.75000000000004 0
vertex 112.00512701892225 -210.0249999999999 0
vertex 111.50522221559484 -210.73893804843274 0
endloop
endfacet
facet normal 0 0 -1
outer loop
vertex 27.475 -79.75000000000004 0
vertex 111.50522221559484 -210.73893804843274 0
vertex 110.88893804843266 -211.35522221559492 0
endloop
endfacet
facet normal 0 0 -1
outer loop
vertex 27.475 -79.75000000000004 0
vertex 110.88893804843266 -211.35522221559492 0
vertex 110.17499999999976 -211.85512701892236 0
endloop
endfacet
facet normal 0 0 -1
outer loop
vertex 27.475 -79.75000000000004 0
vertex 110.17499999999976 -211.85512701892236 0
vertex 109.38510071662839 -212.2234631039296 0
endloop
endfacet
facet normal 0 0 -1
outer loop
vertex 27.475 -79.75000000000004 0
vertex 109.38510071662839 -212.2234631039296 0
vertex 108.54324088833488 -212.449038765061 0
endloop
endfacet
facet normal 0 0 -1
outer loop
vertex 27.475 -79.75000000000004 0
vertex 108.54324088833488 -212.449038765061 0
vertex 107.67499999999981 -212.525 0
endloop
endfacet
facet normal 0 0 -1
outer loop
vertex 27.475 -79.75000000000004 0
vertex 107.67499999999981 -212.525 0
vertex 32.47499999999993 -212.525 0
endloop
endfacet
facet normal 0 0 -1
outer loop
vertex 27.475 -79.75000000000004 0
vertex 32.47499999999993 -212.525 0
vertex 31.606759111665284 -212.44903876506103 0
endloop
endfacet
facet normal 0 0 -1
outer loop
vertex 27.475 -79.75000000000004 0
vertex 31.606759111665284 -212.44903876506103 0
vertex 30.76489928337179 -212.22346310392962 0
endloop
endfacet
facet normal 0 0 -1
outer loop
vertex 27.475 -79.75000000000004 0
vertex 30.76489928337179 -212.22346310392962 0
vertex 29.974999999999923 -211.85512701892213 0
endloop
endfacet
facet normal 0 0 -1
outer loop
vertex 27.475 -79.75000000000004 0
vertex 29.974999999999923 -211.85512701892213 0
vertex 29.26106195156744 -211.355222215595 0
endloop
endfacet
facet normal 0 0 -1
outer loop
vertex 27.475 -79.75000000000004 0
vertex 29.26106195156744 -211.355222215595 0
vertex 28.644777784405058 -210.73893804843263 0
endloop
endfacet
facet normal 0 0 -1
outer loop
vertex 27.475 -79.75000000000004 0
vertex 28.644777784405058 -210.73893804843263 0
vertex 28.144872981077732 -210.02499999999986 0
endloop
endfacet
facet normal 0 0 -1
outer loop
vertex 27.475 -79.75000000000004 0
vertex 28.144872981077732 -210.02499999999986 0
vertex 27.776536896070482 -209.2351007166284 0
endloop
endfacet
facet normal 0 0 -1
outer loop
vertex 27.475 -79.75000000000004 0
vertex 27.776536896070482 -209.2351007166284 0
vertex 27.550961234938953 -208.39324088833462 0
endloop
endfacet
facet normal 0 0 -1
outer loop
vertex 27.475 -79.75000000000004 0
vertex 27.550961234938953 -208.39324088833462 0
vertex 27.475 -207.52500000000006 0
endloop
endfacet
facet normal 0 0 1
outer loop
vertex 32.47500000000001 -74.75 5.6
vertex 31.606759111665312 -74.82596123493897 5.6
vertex 30.764899283371776 -75.05153689607043 5.6
endloop
endfacet
facet normal 0 0 1
outer loop
vertex 32.47500000000001 -74.75 5.6
vertex 30.764899283371776 -75.05153689607043 5.6
vertex 29.974999999999966 -75.41987298107784 5.6
endloop
endfacet
facet normal 0 0 1
outer loop
vertex 32.47500000000001 -74.75 5.6
vertex 29.974999999999966 -75.41987298107784 5.6
vertex 29.261061951567257 -75.91977778440517 5.6
endloop
endfacet
facet normal 0 0 1
outer loop
vertex 32.47500000000001 -74.75 5.6
vertex 29.261061951567257 -75.91977778440517 5.6
vertex 28.64477778440505 -76.53606195156736 5.6
endloop
endfacet
facet normal 0 0 1
outer loop
vertex 32.47500000000001 -74.75 5.6
vertex 28.64477778440505 -76.53606195156736 5.6
vertex 28.144872981077853 -77.24999999999991 5.6
endloop
endfacet
facet normal 0 0 1
outer loop
vertex 32.47500000000001 -74.75 5.6
vertex 28.144872981077853 -77.24999999999991 5.6
vertex 27.776536896070432 -78.03989928337172 5.6
endloop
endfacet
facet normal 0 0 1
outer loop
vertex 32.47500000000001 -74.75 5.6
vertex 27.776536896070432 -78.03989928337172 5.6
vertex 27.550961234938967 -78.8817591116653 5.6
endloop
endfacet
facet normal 0 0 1
outer loop
vertex 32.47500000000001 -74.75 5.6
vertex 27.550961234938967 -78.8817591116653 5.6
vertex 27.475 -79.75 5.6
endloop
endfacet
facet normal 0 0 1
outer loop
vertex 32.47500000000001 -74.75 5.6
vertex 27.475 -79.75 5.6
vertex 27.475 -207.52500000000006 5.6
endloop
endfacet
facet normal 0 0 1
outer loop
vertex 32.47500000000001 -74.75 5.6
vertex 27.475 -207.52500000000006 5.6
vertex 27.550961234938953 -208.39324088833462 5.6
endloop
endfacet
facet normal 0 0 1
outer loop
vertex 32.47500000000001 -74.75 5.6
vertex 27.550961234938953 -208.39324088833462 5.6
vertex 27.776536896070482 -209.2351007166284 5.6
endloop
endfacet
facet normal 0 0 1
outer loop
vertex 32.47500000000001 -74.75 5.6
vertex 27.776536896070482 -209.2351007166284 5.6
vertex 28.14487298107779 -210.02499999999998 5.6
endloop
endfacet
facet normal 0 0 1
outer loop
vertex 32.47500000000001 -74.75 5.6
vertex 28.14487298107779 -210.02499999999998 5.6
vertex 28.644777784405107 -210.73893804843271 5.6
endloop
endfacet
facet normal 0 0 1
outer loop
vertex 32.47500000000001 -74.75 5.6
vertex 28.644777784405107 -210.73893804843271 5.6
vertex 29.261061951567264 -211.35522221559484 5.6
endloop
endfacet
facet normal 0 0 1
outer loop
vertex 32.47500000000001 -74.75 5.6
vertex 29.261061951567264 -211.35522221559484 5.6
vertex 29.975000000000122 -211.85512701892225 5.6
endloop
endfacet
facet normal 0 0 1
outer loop
vertex 32.47500000000001 -74.75 5.6
vertex 29.975000000000122 -211.85512701892225 5.6
vertex 30.764899283371804 -212.22346310392962 5.6
endloop
endfacet
facet normal 0 0 1
outer loop
vertex 32.47500000000001 -74.75 5.6
vertex 30.764899283371804 -212.22346310392962 5.6
vertex 31.606759111665163 -212.449038765061 5.6
endloop
endfacet
facet normal 0 0 1
outer loop
vertex 32.47500000000001 -74.75 5.6
vertex 31.606759111665163 -212.449038765061 5.6
vertex 32.47500000000012 -212.525 5.6
endloop
endfacet
facet normal 0 0 1
outer loop
vertex 32.47500000000001 -74.75 5.6
vertex 32.47500000000012 -212.525 5.6
vertex 107.67499999999994 -212.525 5.6
endloop
endfacet
facet normal 0 0 1
outer loop
vertex 32.47500000000001 -74.75 5.6
vertex 107.67499999999994 -212.525 5.6
vertex 108.54324088833476 -212.449038765061 5.6
endloop
endfacet
facet normal 0 0 1
outer loop
vertex 32.47500000000001 -74.75 5.6
vertex 108.54324088833476 -212.449038765061 5.6
vertex 109.38510071662832 -212.2234631039296 5.6
endloop
endfacet
facet normal 0 0 1
outer loop
vertex 32.47500000000001 -74.75 5.6
vertex 109.38510071662832 -212.2234631039296 5.6
vertex 110.17499999999987 -211.85512701892227 5.6
endloop
endfacet
facet normal 0 0 1
outer loop
vertex 32.47500000000001 -74.75 5.6
vertex 110.17499999999987 -211.85512701892227 5.6
vertex 110.88893804843272 -211.35522221559486 5.6
endloop
endfacet
facet normal 0 0 1
outer loop
vertex 32.47500000000001 -74.75 5.6
vertex 110.88893804843272 -211.35522221559486 5.6
vertex 111.50522221559478 -210.73893804843283 5.6
endloop
endfacet
facet normal 0 0 1
outer loop
vertex 32.47500000000001 -74.75 5.6
vertex 111.50522221559478 -210.73893804843283 5.6
vertex 112.00512701892231 -210.0249999999998 5.6
endloop
endfacet
facet normal 0 0 1
outer loop
vertex 32.47500000000001 -74.75 5.6
vertex 112.00512701892231 -210.0249999999998 5.6
vertex 112.37346310392951 -209.23510071662847 5.6
endloop
endfacet
facet normal 0 0 1
outer loop
vertex 32.47500000000001 -74.75 5.6
vertex 112.37346310392951 -209.23510071662847 5.6
vertex 112.59903876506105 -208.39324088833462 5.6
endloop
endfacet
facet normal 0 0 1
outer loop
vertex 32.47500000000001 -74.75 5.6
vertex 112.59903876506105 -208.39324088833462 5.6
vertex 112.675 -207.52500000000015 5.6
endloop
endfacet
facet normal 0 0 1
outer loop
vertex 32.47500000000001 -74.75 5.6
vertex 112.675 -207.52500000000015 5.6
vertex 112.67499999999998 -79.74999999999987 5.6
endloop
endfacet
facet normal 0 0 1
outer loop
vertex 32.47500000000001 -74.75 5.6
vertex 112.67499999999998 -79.74999999999987 5.6
vertex 112.59903876506102 -78.88175911166532 5.6
endloop
endfacet
facet normal 0 0 1
outer loop
vertex 32.47500000000001 -74.75 5.6
vertex 112.59903876506102 -78.88175911166532 5.6
vertex 112.37346310392951 -78.0398992833716 5.6
endloop
endfacet
facet normal 0 0 1
outer loop
vertex 32.47500000000001 -74.75 5.6
vertex 112.37346310392951 -78.0398992833716 5.6
vertex 112.00512701892222 -77.25000000000006 5.6
endloop
endfacet
facet normal 0 0 1
outer loop
vertex 32.47500000000001 -74.75 5.6
vertex 112.00512701892222 -77.25000000000006 5.6
vertex 111.50522221559488 -76.53606195156732 5.6
endloop
endfacet
facet normal 0 0 1
outer loop
vertex 32.47500000000001 -74.75 5.6
vertex 111.50522221559488 -76.53606195156732 5.6
vertex 110.88893804843265 -75.91977778440508 5.6
endloop
endfacet
facet normal 0 0 1
outer loop
vertex 32.47500000000001 -74.75 5.6
vertex 110.88893804843265 -75.91977778440508 5.6
vertex 110.17500000000001 -75.4198729810778 5.6
endloop
endfacet
facet normal 0 0 1
outer loop
vertex 32.47500000000001 -74.75 5.6
vertex 110.17500000000001 -75.4198729810778 5.6
vertex 109.38510071662834 -75.05153689607046 5.6
endloop
endfacet
facet normal 0 0 1
outer loop
vertex 32.47500000000001 -74.75 5.6
vertex 109.38510071662834 -75.05153689607046 5.6
vertex 108.54324088833461 -74.82596123493894 5.6
endloop
endfacet
facet normal 0 0 1
outer loop
vertex 32.47500000000001 -74.75 5.6
vertex 108.54324088833461 -74.82596123493894 5.6
vertex 107.67500000000011 -74.75 5.6
endloop
endfacet
facet normal -0.9961946980917459 -0.08715574274765459 0
outer loop
vertex 27.550961234938953 -208.39324088833462 5.6
vertex 27.475 -207.52500000000006 5.6
vertex 27.475 -207.52500000000006 0
endloop
endfacet
facet normal -0.9961946980917459 -0.08715574274765459 0
outer loop
vertex 27.550961234938953 -208.39324088833462 5.6
vertex 27.475 -207.52500000000006 0
vertex 27.550961234938953 -208.39324088833462 0
endloop
endfacet
facet normal -0.9659258262890666 -0.2588190451025269 0
outer loop
vertex 27.776536896070482 -209.2351007166284 5.6
vertex 27.550961234938953 -208.39324088833462 5.6
vertex 27.550961234938953 -208.39324088833462 0
endloop
endfacet
facet normal -0.9659258262890666 -0.2588190451025269 0
outer loop
vertex 27.776536896070482 -209.2351007166284 5.6
vertex 27.550961234938953 -208.39324088833462 0
vertex 27.776536896070482 -209.2351007166284 0
endloop
endfacet
facet normal -0.9063077870366456 -0.42261826174070904 0
outer loop
vertex 28.14487298107779 -210.02499999999998 5.6
vertex 27.776536896070482 -209.2351007166284 5.6
vertex 27.776536896070482 -209.2351007166284 0
endloop
endfacet
facet normal -0.9063077870366456 -0.42261826174070904 0
outer loop
vertex 28.14487298107779 -210.02499999999998 5.6
vertex 27.776536896070482 -209.2351007166284 0
vertex 28.144872981077732 -210.02499999999986 0
endloop
endfacet
facet normal -0.8191520442889821 -0.5735764363510599 0
outer loop
vertex 28.644777784405107 -210.73893804843271 5.6
vertex 28.14487298107779 -210.02499999999998 5.6
vertex 28.144872981077732 -210.02499999999986 0
endloop
endfacet
facet normal -0.8191520442889821 -0.5735764363510599 0
outer loop
vertex 28.644777784405107 -210.73893804843271 5.6
vertex 28.144872981077732 -210.02499999999986 0
vertex 28.644777784405058 -210.73893804843263 0
endloop
endfacet
facet normal -0.7071067811865476 -0.7071067811865476 0
outer loop
vertex 29.261061951567264 -211.35522221559484 5.6
vertex 28.644777784405107 -210.73893804843271 5.6
vertex 28.644777784405058 -210.73893804843263 0
endloop
endfacet
facet normal -0.7071067811865476 -0.7071067811865476 0
outer loop
vertex 29.261061951567264 -211.35522221559484 5.6
vertex 28.644777784405058 -210.73893804843263 0
vertex 29.26106195156744 -211.355222215595 0
endloop
endfacet
facet normal -0.5735764363510599 -0.8191520442889821 0
outer loop
vertex 29.975000000000122 -211.85512701892225 5.6
vertex 29.261061951567264 -211.35522221559484 5.6
vertex 29.26106195156744 -211.355222215595 0
endloop
endfacet
facet normal -0.5735764363510599 -0.8191520442889821 0
outer loop
vertex 29.975000000000122 -211.85512701892225 5.6
vertex 29.26106195156744 -211.355222215595 0
vertex 29.974999999999923 -211.85512701892213 0
endloop
endfacet
facet normal -0.4226182617407234 -0.9063077870366388 0
outer loop
vertex 30.764899283371804 -212.22346310392962 5.6
vertex 29.975000000000122 -211.85512701892225 5.6
vertex 29.974999999999923 -211.85512701892213 0
endloop
endfacet
facet normal -0.4226182617407234 -0.9063077870366388 0
outer loop
vertex 30.764899283371804 -212.22346310392962 5.6
vertex 29.974999999999923 -211.85512701892213 0
vertex 30.76489928337179 -212.22346310392962 0
endloop
endfacet
facet normal -0.2588190451024838 -0.9659258262890783 0
outer loop
vertex 31.606759111665163 -212.449038765061 5.6
vertex 30.764899283371804 -212.22346310392962 5.6
vertex 30.76489928337179 -212.22346310392962 0
endloop
endfacet
facet normal -0.2588190451024838 -0.9659258262890783 0
outer loop
vertex 31.606759111665163 -212.449038765061 5.6
vertex 30.76489928337179 -212.22346310392962 0
vertex 31.606759111665284 -212.44903876506103 0
endloop
endfacet
facet normal -0.08715574274771135 -0.9961946980917409 0
outer loop
vertex 32.47500000000012 -212.525 5.6
vertex 31.606759111665163 -212.449038765061 5.6
vertex 31.606759111665284 -212.44903876506103 0
endloop
endfacet
facet normal -0.08715574274771135 -0.9961946980917409 0
outer loop
vertex 32.47500000000012 -212.525 5.6
vertex 31.606759111665284 -212.44903876506103 0
vertex 32.47499999999993 -212.525 0
endloop
endfacet
facet normal 0 -1 0
outer loop
vertex 107.67499999999981 -212.525 0
vertex 107.67499999999994 -212.525 5.6
vertex 32.47500000000012 -212.525 5.6
endloop
endfacet
facet normal 0 -1 0
outer loop
vertex 107.67499999999981 -212.525 0
vertex 32.47500000000012 -212.525 5.6
vertex 32.47499999999993 -212.525 0
endloop
endfacet
facet normal 0.08715574274768315 -0.9961946980917434 0
outer loop
vertex 108.54324088833476 -212.449038765061 5.6
vertex 107.67499999999994 -212.525 5.6
vertex 107.67499999999981 -212.525 0
endloop
endfacet
facet normal 0.08715574274768315 -0.9961946980917434 0
outer loop
vertex 108.54324088833476 -212.449038765061 5.6
vertex 107.67499999999981 -212.525 0
vertex 108.54324088833488 -212.449038765061 0
endloop
endfacet
facet normal 0.2588190451024838 -0.9659258262890783 0
outer loop
vertex 109.38510071662832 -212.2234631039296 5.6
vertex 108.54324088833476 -212.449038765061 5.6
vertex 108.54324088833488 -212.449038765061 0
endloop
endfacet
facet normal 0.2588190451024838 -0.9659258262890783 0
outer loop
vertex 109.38510071662832 -212.2234631039296 5.6
vertex 108.54324088833488 -212.449038765061 0
vertex 109.38510071662839 -212.2234631039296 0
endloop
endfacet
facet normal 0.42261826174069467 -0.9063077870366523 0
outer loop
vertex 110.17499999999987 -211.85512701892227 5.6
vertex 109.38510071662832 -212.2234631039296 5.6
vertex 109.38510071662839 -212.2234631039296 0
endloop
endfacet
facet normal 0.42261826174069467 -0.9063077870366523 0
outer loop
vertex 110.17499999999987 -211.85512701892227 5.6
vertex 109.38510071662839 -212.2234631039296 0
vertex 110.17499999999976 -211.85512701892236 0
endloop
endfacet
facet normal 0.5735764363510275 -0.8191520442890048 0
outer loop
vertex 110.88893804843272 -211.35522221559486 5.6
vertex 110.17499999999987 -211.85512701892227 5.6
vertex 110.17499999999976 -211.85512701892236 0
endloop
endfacet
facet normal 0.5735764363510275 -0.8191520442890048 0
outer loop
vertex 110.88893804843272 -211.35522221559486 5.6
vertex 110.17499999999976 -211.85512701892236 0
vertex 110.88893804843266 -211.35522221559492 0
endloop
endfacet
facet normal 0.7071067811865476 -0.7071067811865476 0
outer loop
vertex 111.50522221559478 -210.73893804843283 5.6
vertex 110.88893804843272 -211.35522221559486 5.6
vertex 110.88893804843266 -211.35522221559492 0
endloop
endfacet
facet normal 0.7071067811865476 -0.7071067811865476 0
outer loop
vertex 111.50522221559478 -210.73893804843283 5.6
vertex 110.88893804843266 -211.35522221559492 0
vertex 111.50522221559484 -210.73893804843274 0
endloop
endfacet
facet normal 0.8191520442890001 -0.5735764363510342 0
outer loop
vertex 112.00512701892231 -210.0249999999998 5.6
vertex 111.50522221559478 -210.73893804843283 5.6
vertex 111.50522221559484 -210.73893804843274 0
endloop
endfacet
facet normal 0.8191520442890001 -0.5735764363510342 0
outer loop
vertex 112.00512701892231 -210.0249999999998 5.6
vertex 111.50522221559484 -210.73893804843274 0
vertex 112.00512701892225 -210.0249999999999 0
endloop
endfacet
facet normal 0.9063077870366523 -0.42261826174069467 0
outer loop
vertex 112.37346310392951 -209.23510071662847 5.6
vertex 112.00512701892231 -210.0249999999998 5.6
vertex 112.00512701892225 -210.0249999999999 0
endloop
endfacet
facet normal 0.9063077870366523 -0.42261826174069467 0
outer loop
vertex 112.37346310392951 -209.23510071662847 5.6
vertex 112.00512701892225 -210.0249999999999 0
vertex 112.37346310392954 -209.23510071662835 0
endloop
endfacet
facet normal 0.9659258262890708 -0.25881904510251214 0
outer loop
vertex 112.59903876506105 -208.39324088833462 5.6
vertex 112.37346310392951 -209.23510071662847 5.6
vertex 112.37346310392954 -209.23510071662835 0
endloop
endfacet
facet normal 0.9659258262890708 -0.25881904510251214 0
outer loop
vertex 112.59903876506105 -208.39324088833462 5.6
vertex 112.37346310392954 -209.23510071662835 0
vertex 112.59903876506105 -208.39324088833462 0
endloop
endfacet
facet normal 0.9961946980917459 -0.08715574274765463 0
outer loop
vertex 112.675 -207.52500000000015 5.6
vertex 112.59903876506105 -208.39324088833462 5.6
vertex 112.59903876506105 -208.39324088833462 0
endloop
endfacet
facet normal 0.9961946980917459 -0.08715574274765463 0
outer loop
vertex 112.675 -207.52500000000015 5.6
vertex 112.59903876506105 -208.39324088833462 0
vertex 112.675 -207.52500000000015 0
endloop
endfacet
facet normal 1 0 0
outer loop
vertex 112.675 -79.75 0
vertex 112.67499999999998 -79.74999999999987 5.6
vertex 112.675 -207.52500000000015 5.6
endloop
endfacet
facet normal 1 0 0
outer loop
vertex 112.675 -79.75 0
vertex 112.675 -207.52500000000015 5.6
vertex 112.675 -207.52500000000015 0
endloop
endfacet
facet normal 0.9961946980917459 0.08715574274765463 0
outer loop
vertex 112.59903876506102 -78.88175911166532 5.6
vertex 112.67499999999998 -79.74999999999987 5.6
vertex 112.675 -79.75 0
endloop
endfacet
facet normal 0.9961946980917459 0.08715574274765463 0
outer loop
vertex 112.59903876506102 -78.88175911166532 5.6
vertex 112.675 -79.75 0
vertex 112.59903876506104 -78.88175911166542 0
endloop
endfacet
facet normal 0.9659258262890704 0.25881904510251297 0
outer loop
vertex 112.37346310392951 -78.0398992833716 5.6
vertex 112.59903876506102 -78.88175911166532 5.6
vertex 112.59903876506104 -78.88175911166542 0
endloop
endfacet
facet normal 0.9659258262890704 0.25881904510251297 0
outer loop
vertex 112.37346310392951 -78.0398992833716 5.6
vertex 112.59903876506104 -78.88175911166542 0
vertex 112.3734631039295 -78.03989928337158 0
endloop
endfacet
facet normal 0.9063077870366524 0.4226182617406946 0
outer loop
vertex 112.00512701892222 -77.25000000000006 5.6
vertex 112.37346310392951 -78.0398992833716 5.6
vertex 112.3734631039295 -78.03989928337158 0
endloop
endfacet
facet normal 0.9063077870366524 0.4226182617406946 0
outer loop
vertex 112.00512701892222 -77.25000000000006 5.6
vertex 112.3734631039295 -78.03989928337158 0
vertex 112.00512701892215 -77.24999999999994 0
endloop
endfacet
facet normal 0.8191520442889821 0.5735764363510599 0
outer loop
vertex 111.50522221559488 -76.53606195156732 5.6
vertex 112.00512701892222 -77.25000000000006 5.6
vertex 112.00512701892215 -77.24999999999994 0
endloop
endfacet
facet normal 0.8191520442889821 0.5735764363510599 0
outer loop
vertex 111.50522221559488 -76.53606195156732 5.6
vertex 112.00512701892215 -77.24999999999994 0
vertex 111.50522221559487 -76.53606195156728 0
endloop
endfacet
facet normal 0.7071067811865333 0.7071067811865617 0
outer loop
vertex 110.88893804843265 -75.91977778440508 5.6
vertex 111.50522221559488 -76.53606195156732 5.6
vertex 111.50522221559487 -76.53606195156728 0
endloop
endfacet
facet normal 0.7071067811865333 0.7071067811865617 0
outer loop
vertex 110.88893804843265 -75.91977778440508 5.6
vertex 111.50522221559487 -76.53606195156728 0
vertex 110.88893804843273 -75.91977778440516 0
endloop
endfacet
facet normal 0.5735764363510437 0.8191520442889935 0
outer loop
vertex 110.17500000000001 -75.4198729810778 5.6
vertex 110.88893804843265 -75.91977778440508 5.6
vertex 110.88893804843273 -75.91977778440516 0
endloop
endfacet
facet normal 0.5735764363510437 0.8191520442889935 0
outer loop
vertex 110.17500000000001 -75.4198729810778 5.6
vertex 110.88893804843273 -75.91977778440516 0
vertex 110.17499999999994 -75.41987298107777 0
endloop
endfacet
facet normal 0.4226182617406946 0.9063077870366524 0
outer loop
vertex 109.38510071662834 -75.05153689607046 5.6
vertex 110.17500000000001 -75.4198729810778 5.6
vertex 110.17499999999994 -75.41987298107777 0
endloop
endfacet
facet normal 0.4226182617406946 0.9063077870366524 0
outer loop
vertex 109.38510071662834 -75.05153689607046 5.6
vertex 110.17499999999994 -75.41987298107777 0
vertex 109.38510071662837 -75.05153689607047 0
endloop
endfacet
facet normal 0.2588190451025271 0.9659258262890666 0
outer loop
vertex 108.54324088833461 -74.82596123493894 5.6
vertex 109.38510071662834 -75.05153689607046 5.6
vertex 109.38510071662837 -75.05153689607047 0
endloop
endfacet
facet normal 0.2588190451025271 0.9659258262890666 0
outer loop
vertex 108.54324088833461 -74.82596123493894 5.6
vertex 109.38510071662837 -75.05153689607047 0
vertex 108.54324088833451 -74.82596123493893 0
endloop
endfacet
facet normal 0.08715574274765456 0.996194698091746 0
outer loop
vertex 107.67500000000011 -74.75 5.6
vertex 108.54324088833461 -74.82596123493894 5.6
vertex 108.54324088833451 -74.82596123493893 0
endloop
endfacet
facet normal 0.08715574274765456 0.996194698091746 0
outer loop
vertex 107.67500000000011 -74.75 5.6
vertex 108.54324088833451 -74.82596123493893 0
vertex 107.67500000000017 -74.75 0
endloop
endfacet
facet normal 0 1 0
outer loop
vertex 107.67500000000011 -74.75 5.6
vertex 107.67500000000017 -74.75 0
vertex 32.47500000000001 -74.75 0
endloop
endfacet
facet normal 0 1 0
outer loop
vertex 107.67500000000011 -74.75 5.6
vertex 32.47500000000001 -74.75 0
vertex 32.47500000000001 -74.75 5.6
endloop
endfacet
facet normal -0.08715574274765456 0.996194698091746 0
outer loop
vertex 31.606759111665312 -74.82596123493897 5.6
vertex 32.47500000000001 -74.75 5.6
vertex 32.47500000000001 -74.75 0
endloop
endfacet
facet normal -0.08715574274765456 0.996194698091746 0
outer loop
vertex 31.606759111665312 -74.82596123493897 5.6
vertex 32.47500000000001 -74.75 0
vertex 31.606759111665255 -74.82596123493897 0
endloop
endfacet
facet normal -0.2588190451025271 0.9659258262890666 0
outer loop
vertex 30.764899283371776 -75.05153689607043 5.6
vertex 31.606759111665312 -74.82596123493897 5.6
vertex 31.606759111665255 -74.82596123493897 0
endloop
endfacet
facet normal -0.2588190451025271 0.9659258262890666 0
outer loop
vertex 30.764899283371776 -75.05153689607043 5.6
vertex 31.606759111665255 -74.82596123493897 0
vertex 30.76489928337171 -75.05153689607043 0
endloop
endfacet
facet normal -0.4226182617406946 0.9063077870366524 0
outer loop
vertex 29.974999999999966 -75.41987298107784 5.6
vertex 30.764899283371776 -75.05153689607043 5.6
vertex 30.76489928337171 -75.05153689607043 0
endloop
endfacet
facet normal -0.4226182617406946 0.9063077870366524 0
outer loop
vertex 29.974999999999966 -75.41987298107784 5.6
vertex 30.76489928337171 -75.05153689607043 0
vertex 29.974999999999994 -75.4198729810778 0
endloop
endfacet
facet normal -0.573576436351047 0.8191520442889911 0
outer loop
vertex 29.261061951567257 -75.91977778440517 5.6
vertex 29.974999999999966 -75.41987298107784 5.6
vertex 29.974999999999994 -75.4198729810778 0
endloop
endfacet
facet normal -0.573576436351047 0.8191520442889911 0
outer loop
vertex 29.261061951567257 -75.91977778440517 5.6
vertex 29.974999999999994 -75.4198729810778 0
vertex 29.261061951567342 -75.91977778440508 0
endloop
endfacet
facet normal -0.7071067811865405 0.7071067811865547 0
outer loop
vertex 28.64477778440505 -76.53606195156736 5.6
vertex 29.261061951567257 -75.91977778440517 5.6
vertex 29.261061951567342 -75.91977778440508 0
endloop
endfacet
facet normal -0.7071067811865405 0.7071067811865547 0
outer loop
vertex 28.64477778440505 -76.53606195156736 5.6
vertex 29.261061951567342 -75.91977778440508 0
vertex 28.644777784405065 -76.53606195156736 0
endloop
endfacet
facet normal -0.8191520442889912 0.573576436351047 0
outer loop
vertex 28.144872981077853 -77.24999999999991 5.6
vertex 28.64477778440505 -76.53606195156736 5.6
vertex 28.644777784405065 -76.53606195156736 0
endloop
endfacet
facet normal -0.8191520442889912 0.573576436351047 0
outer loop
vertex 28.144872981077853 -77.24999999999991 5.6
vertex 28.644777784405065 -76.53606195156736 0
vertex 28.144872981077846 -77.24999999999993 0
endloop
endfacet
facet normal -0.9063077870366557 0.42261826174068745 0
outer loop
vertex 27.776536896070432 -78.03989928337172 5.6
vertex 28.144872981077853 -77.24999999999991 5.6
vertex 28.144872981077846 -77.24999999999993 0
endloop
endfacet
facet normal -0.9063077870366557 0.42261826174068745 0
outer loop
vertex 27.776536896070432 -78.03989928337172 5.6
vertex 28.144872981077846 -77.24999999999993 0
vertex 27.77653689607044 -78.03989928337171 0
endloop
endfacet
facet normal -0.9659258262890686 0.25881904510251963 0
outer loop
vertex 27.550961234938967 -78.8817591116653 5.6
vertex 27.776536896070432 -78.03989928337172 5.6
vertex 27.77653689607044 -78.03989928337171 0
endloop
endfacet
facet normal -0.9659258262890686 0.25881904510251963 0
outer loop
vertex 27.550961234938967 -78.8817591116653 5.6
vertex 27.77653689607044 -78.03989928337171 0
vertex 27.550961234938967 -78.8817591116653 0
endloop
endfacet
facet normal -0.996194698091746 0.08715574274765459 0
outer loop
vertex 27.475 -79.75 5.6
vertex 27.550961234938967 -78.8817591116653 5.6
vertex 27.550961234938967 -78.8817591116653 0
endloop
endfacet
facet normal -0.996194698091746 0.08715574274765459 0
outer loop
vertex 27.475 -79.75 5.6
vertex 27.550961234938967 -78.8817591116653 0
vertex 27.475 -79.75000000000004 0
endloop
endfacet
facet normal -1 0 0
outer loop
vertex 27.475 -79.75 5.6
vertex 27.475 -79.75000000000004 0
vertex 27.475 -207.52500000000006 0
endloop
endfacet
facet normal -1 0 0
outer loop
vertex 27.475 -79.75 5.6
vertex 27.475 -207.52500000000006 0
vertex 27.475 -207.52500000000006 5.6
endloop
endfacet
endsolid csg.js
