solid csg.js
facet normal 0 0 -1
outer loop
vertex 27.475 -84.74999999999999 0
vertex 27.55096123493896 -83.88175911166533 0
vertex 27.776536896070454 -83.03989928337167 0
endloop
endfacet
facet normal 0 0 -1
outer loop
vertex 27.475 -84.74999999999999 0
vertex 27.776536896070454 -83.03989928337167 0
vertex 28.144872981077825 -82.24999999999996 0
endloop
endfacet
facet normal 0 0 -1
outer loop
vertex 27.475 -84.74999999999999 0
vertex 28.144872981077825 -82.24999999999996 0
vertex 28.6447777844051 -81.5360619515673 0
endloop
endfacet
facet normal 0 0 -1
outer loop
vertex 27.475 -84.74999999999999 0
vertex 28.6447777844051 -81.5360619515673 0
vertex 29.261061951567314 -80.9197777844051 0
endloop
endfacet
facet normal 0 0 -1
outer loop
vertex 27.475 -84.74999999999999 0
vertex 29.261061951567314 -80.9197777844051 0
vertex 29.974999999999888 -80.41987298107787 0
endloop
endfacet
facet normal 0 0 -1
outer loop
vertex 27.475 -84.74999999999999 0
vertex 29.974999999999888 -80.41987298107787 0
vertex 30.764899283371733 -80.05153689607044 0
endloop
endfacet
facet normal 0 0 -1
outer loop
vertex 27.475 -84.74999999999999 0
vertex 30.764899283371733 -80.05153689607044 0
vertex 31.606759111665347 -79.82596123493896 0
endloop
endfacet
facet normal 0 0 -1
outer loop
vertex 27.475 -84.74999999999999 0
vertex 31.606759111665347 -79.82596123493896 0
vertex 32.475000000000094 -79.75 0
endloop
endfacet
facet normal 0 0 -1
outer loop
vertex 27.475 -84.74999999999999 0
vertex 32.475000000000094 -79.75 0
vertex 107.67499999999993 -79.75 0
endloop
endfacet
facet normal 0 0 -1
outer loop
vertex 27.475 -84.74999999999999 0
vertex 107.67499999999993 -79.75 0
vertex 108.54324088833457 -79.82596123493896 0
endloop
endfacet
facet normal 0 0 -1
outer loop
vertex 27.475 -84.74999999999999 0
vertex 108.54324088833457 -79.82596123493896 0
vertex 109.38510071662843 -80.0515368960705 0
endloop
endfacet
facet normal 0 0 -1
outer loop
vertex 27.475 -84.74999999999999 0
vertex 109.38510071662843 -80.0515368960705 0
vertex 110.17499999999997 -80.41987298107779 0
endloop
endfacet
facet normal 0 0 -1
outer loop
vertex 27.475 -84.74999999999999 0
vertex 110.17499999999997 -80.41987298107779 0
vertex 110.8889380484327 -80.91977778440513 0
endloop
endfacet
facet normal 0 0 -1
outer loop
vertex 27.475 -84.74999999999999 0
vertex 110.8889380484327 -80.91977778440513 0
vertex 111.50522221559488 -81.5360619515673 0
endloop
endfacet
facet normal 0 0 -1
outer loop
vertex 27.475 -84.74999999999999 0
vertex 111.50522221559488 -81.5360619515673 0
vertex 112.00512701892224 -82.25000000000007 0
endloop
endfacet
facet normal 0 0 -1
outer loop
vertex 27.475 -84.74999999999999 0
vertex 112.00512701892224 -82.25000000000007 0
vertex 112.37346310392952 -83.03989928337161 0
endloop
endfacet
facet normal 0 0 -1
outer loop
vertex 27.475 -84.74999999999999 0
vertex 112.37346310392952 -83.03989928337161 0
vertex 112.59903876506104 -83.88175911166537 0
endloop
endfacet
facet normal 0 0 -1
outer loop
vertex 27.475 -84.74999999999999 0
vertex 112.59903876506104 -83.88175911166537 0
vertex 112.675 -84.75000000000004 0
endloop
endfacet
facet normal 0 0 -1
outer loop
vertex 27.475 -84.74999999999999 0
vertex 112.675 -84.75000000000004 0
vertex 112.675 -207.52500000000015 0
endloop
endfacet
facet normal 0 0 -1
outer loop
vertex 27.475 -84.74999999999999 0
vertex 112.675 -207.52500000000015 0
vertex 112.59903876506105 -208.39324088833462 0
endloop
endfacet
facet normal 0 0 -1
outer loop
vertex 27.475 -84.74999999999999 0
vertex 112.59903876506105 -208.39324088833462 0
vertex 112.37346310392954 -209.23510071662835 0
endloop
endfacet
facet normal 0 0 -1
outer loop
vertex 27.475 -84.74999999999999 0
vertex 112.37346310392954 -209.23510071662835 0
vertex 112.00512701892225 -210.0249999999999 0
endloop
endfacet
facet normal 0 0 -1
outer loop
vertex 27.475 -84.74999999999999 0
vertex 112.00512701892225 -210.0249999999999 0
vertex 111.50522221559484 -210.73893804843274 0
endloop
endfacet
facet normal 0 0 -1
outer loop
vertex 27.475 -84.74999999999999 0
vertex 111.50522221559484 -210.73893804843274 0
vertex 110.88893804843266 -211.35522221559492 0
endloop
endfacet
facet normal 0 0 -1
outer loop
vertex 27.475 -84.74999999999999 0
vertex 110.88893804843266 -211.35522221559492 0
vertex 110.17499999999976 -211.85512701892236 0
endloop
endfacet
facet normal 0 0 -1
outer loop
vertex 27.475 -84.74999999999999 0
vertex 110.17499999999976 -211.85512701892236 0
vertex 109.38510071662839 -212.2234631039296 0
endloop
endfacet
facet normal 0 0 -1
outer loop
vertex 27.475 -84.74999999999999 0
vertex 109.38510071662839 -212.2234631039296 0
vertex 108.54324088833488 -212.449038765061 0
endloop
endfacet
facet normal 0 0 -1
outer loop
vertex 27.475 -84.74999999999999 0
vertex 108.54324088833488 -212.449038765061 0
vertex 107.67499999999981 -212.525 0
endloop
endfacet
facet normal 0 0 -1
outer loop
vertex 27.475 -84.74999999999999 0
vertex 107.67499999999981 -212.525 0
vertex 32.47499999999993 -212.525 0
endloop
endfacet
facet normal 0 0 -1
outer loop
vertex 27.475 -84.74999999999999 0
vertex 32.47499999999993 -212.525 0
vertex 31.606759111665284 -212.44903876506103 0
endloop
endfacet
facet normal 0 0 -1
outer loop
vertex 27.475 -84.74999999999999 0
vertex 31.606759111665284 -212.44903876506103 0
vertex 30.76489928337179 -212.22346310392962 0
endloop
endfacet
facet normal 0 0 -1
outer loop
vertex 27.475 -84.74999999999999 0
vertex 30.76489928337179 -212.22346310392962 0
vertex 29.974999999999923 -211.85512701892213 0
endloop
endfacet
facet normal 0 0 -1
outer loop
vertex 27.475 -84.74999999999999 0
vertex 29.974999999999923 -211.85512701892213 0
vertex 29.26106195156744 -211.355222215595 0
endloop
endfacet
facet normal 0 0 -1
outer loop
vertex 27.475 -84.74999999999999 0
vertex 29.26106195156744 -211.355222215595 0
vertex 28.644777784405058 -210.73893804843263 0
endloop
endfacet
facet normal 0 0 -1
outer loop
vertex 27.475 -84.74999999999999 0
vertex 28.644777784405058 -210.73893804843263 0
vertex 28.144872981077732 -210.02499999999986 0
endloop
endfacet
facet normal 0 0 -1
outer loop
vertex 27.475 -84.74999999999999 0
vertex 28.144872981077732 -210.02499999999986 0
vertex 27.776536896070482 -209.2351007166284 0
endloop
endfacet
facet normal 0 0 -1
outer loop
vertex 27.475 -84.74999999999999 0
vertex 27.776536896070482 -209.2351007166284 0
vertex 27.550961234938953 -208.39324088833462 0
endloop
endfacet
facet normal 0 0 -1
outer loop
vertex 27.475 -84.74999999999999 0
vertex 27.550961234938953 -208.39324088833462 0
vertex 27.475 -207.52500000000006 0
endloop
endfacet
facet normal 0 0 1
outer loop
vertex 32.47500000000001 -79.75 5.6
vertex 31.606759111665326 -79.82596123493896 5.6
vertex 30.764899283371797 -80.05153689607042 5.6
endloop
endfacet
facet normal 0 0 1
outer loop
vertex 32.47500000000001 -79.75 5.6
vertex 30.764899283371797 -80.05153689607042 5.6
vertex 29.97499999999988 -80.41987298107789 5.6
endloop
endfacet
facet normal 0 0 1
outer loop
vertex 32.47500000000001 -79.75 5.6
vertex 29.97499999999988 -80.41987298107789 5.6
vertex 29.261061951567285 -80.91977778440513 5.6
endloop
endfacet
facet normal 0 0 1
outer loop
vertex 32.47500000000001 -79.75 5.6
vertex 29.261061951567285 -80.91977778440513 5.6
vertex 28.6447777844051 -81.53606195156732 5.6
endloop
endfacet
facet normal 0 0 1
outer loop
vertex 32.47500000000001 -79.75 5.6
vertex 28.6447777844051 -81.53606195156732 5.6
vertex 28.144872981077803 -82.25 5.6
endloop
endfacet
facet normal 0 0 1
outer loop
vertex 32.47500000000001 -79.75 5.6
vertex 28.144872981077803 -82.25 5.6
vertex 27.776536896070468 -83.03989928337162 5.6
endloop
endfacet
facet normal 0 0 1
outer loop
vertex 32.47500000000001 -79.75 5.6
vertex 27.776536896070468 -83.03989928337162 5.6
vertex 27.55096123493896 -83.88175911166535 5.6
endloop
endfacet
facet normal 0 0 1
outer loop
vertex 32.47500000000001 -79.75 5.6
vertex 27.55096123493896 -83.88175911166535 5.6
vertex 27.475 -84.75 5.6
endloop
endfacet
facet normal 0 0 1
outer loop
vertex 32.47500000000001 -79.75 5.6
vertex 27.475 -84.75 5.6
vertex 27.475 -207.52500000000006 5.6
endloop
endfacet
facet normal 0 0 1
outer loop
vertex 32.47500000000001 -79.75 5.6
vertex 27.475 -207.52500000000006 5.6
vertex 27.550961234938953 -208.39324088833462 5.6
endloop
endfacet
facet normal 0 0 1
outer loop
vertex 32.47500000000001 -79.75 5.6
vertex 27.550961234938953 -208.39324088833462 5.6
vertex 27.776536896070482 -209.2351007166284 5.6
endloop
endfacet
facet normal 0 0 1
outer loop
vertex 32.47500000000001 -79.75 5.6
vertex 27.776536896070482 -209.2351007166284 5.6
vertex 28.14487298107779 -210.02499999999998 5.6
endloop
endfacet
facet normal 0 0 1
outer loop
vertex 32.47500000000001 -79.75 5.6
vertex 28.14487298107779 -210.02499999999998 5.6
vertex 28.644777784405107 -210.73893804843271 5.6
endloop
endfacet
facet normal 0 0 1
outer loop
vertex 32.47500000000001 -79.75 5.6
vertex 28.644777784405107 -210.73893804843271 5.6
vertex 29.261061951567264 -211.35522221559484 5.6
endloop
endfacet
facet normal 0 0 1
outer loop
vertex 32.47500000000001 -79.75 5.6
vertex 29.261061951567264 -211.35522221559484 5.6
vertex 29.975000000000122 -211.85512701892225 5.6
endloop
endfacet
facet normal 0 0 1
outer loop
vertex 32.47500000000001 -79.75 5.6
vertex 29.975000000000122 -211.85512701892225 5.6
vertex 30.764899283371804 -212.22346310392962 5.6
endloop
endfacet
facet normal 0 0 1
outer loop
vertex 32.47500000000001 -79.75 5.6
vertex 30.764899283371804 -212.22346310392962 5.6
vertex 31.606759111665163 -212.449038765061 5.6
endloop
endfacet
facet normal 0 0 1
outer loop
vertex 32.47500000000001 -79.75 5.6
vertex 31.606759111665163 -212.449038765061 5.6
vertex 32.47500000000012 -212.525 5.6
endloop
endfacet
facet normal 0 0 1
outer loop
vertex 32.47500000000001 -79.75 5.6
vertex 32.47500000000012 -212.525 5.6
vertex 107.67499999999994 -212.525 5.6
endloop
endfacet
facet normal 0 0 1
outer loop
vertex 32.47500000000001 -79.75 5.6
vertex 107.67499999999994 -212.525 5.6
vertex 108.54324088833474 -212.44903876506103 5.6
endloop
endfacet
facet normal 0 0 1
outer loop
vertex 32.47500000000001 -79.75 5.6
vertex 108.54324088833474 -212.44903876506103 5.6
vertex 109.38510071662841 -212.22346310392956 5.6
endloop
endfacet
facet normal 0 0 1
outer loop
vertex 32.47500000000001 -79.75 5.6
vertex 109.38510071662841 -212.22346310392956 5.6
vertex 110.1749999999998 -211.8551270189223 5.6
endloop
endfacet
facet normal 0 0 1
outer loop
vertex 32.47500000000001 -79.75 5.6
vertex 110.1749999999998 -211.8551270189223 5.6
vertex 110.8889380484327 -211.35522221559486 5.6
endloop
endfacet
facet normal 0 0 1
outer loop
vertex 32.47500000000001 -79.75 5.6
vertex 110.8889380484327 -211.35522221559486 5.6
vertex 111.50522221559476 -210.73893804843283 5.6
endloop
endfacet
facet normal 0 0 1
outer loop
vertex 32.47500000000001 -79.75 5.6
vertex 111.50522221559476 -210.73893804843283 5.6
vertex 112.00512701892238 -210.0249999999997 5.6
endloop
endfacet
facet normal 0 0 1
outer loop
vertex 32.47500000000001 -79.75 5.6
vertex 112.00512701892238 -210.0249999999997 5.6
vertex 112.37346310392951 -209.2351007166285 5.6
endloop
endfacet
facet normal 0 0 1
outer loop
vertex 32.47500000000001 -79.75 5.6
vertex 112.37346310392951 -209.2351007166285 5.6
vertex 112.59903876506105 -208.39324088833465 5.6
endloop
endfacet
facet normal 0 0 1
outer loop
vertex 32.47500000000001 -79.75 5.6
vertex 112.59903876506105 -208.39324088833465 5.6
vertex 112.675 -207.52500000000015 5.6
endloop
endfacet
facet normal 0 0 1
outer loop
vertex 32.47500000000001 -79.75 5.6
vertex 112.675 -207.52500000000015 5.6
vertex 112.67499999999998 -84.74999999999987 5.6
endloop
endfacet
facet normal 0 0 1
outer loop
vertex 32.47500000000001 -79.75 5.6
vertex 112.67499999999998 -84.74999999999987 5.6
vertex 112.59903876506102 -83.88175911166532 5.6
endloop
endfacet
facet normal 0 0 1
outer loop
vertex 32.47500000000001 -79.75 5.6
vertex 112.59903876506102 -83.88175911166532 5.6
vertex 112.37346310392951 -83.0398992833716 5.6
endloop
endfacet
facet normal 0 0 1
outer loop
vertex 32.47500000000001 -79.75 5.6
vertex 112.37346310392951 -83.0398992833716 5.6
vertex 112.00512701892222 -82.25000000000006 5.6
endloop
endfacet
facet normal 0 0 1
outer loop
vertex 32.47500000000001 -79.75 5.6
vertex 112.00512701892222 -82.25000000000006 5.6
vertex 111.50522221559488 -81.53606195156732 5.6
endloop
endfacet
facet normal 0 0 1
outer loop
vertex 32.47500000000001 -79.75 5.6
vertex 111.50522221559488 -81.53606195156732 5.6
vertex 110.88893804843265 -80.91977778440508 5.6
endloop
endfacet
facet normal 0 0 1
outer loop
vertex 32.47500000000001 -79.75 5.6
vertex 110.88893804843265 -80.91977778440508 5.6
vertex 110.17500000000001 -80.4198729810778 5.6
endloop
endfacet
facet normal 0 0 1
outer loop
vertex 32.47500000000001 -79.75 5.6
vertex 110.17500000000001 -80.4198729810778 5.6
vertex 109.38510071662841 -80.05153689607049 5.6
endloop
endfacet
facet normal 0 0 1
outer loop
vertex 32.47500000000001 -79.75 5.6
vertex 109.38510071662841 -80.05153689607049 5.6
vertex 108.54324088833457 -79.82596123493894 5.6
endloop
endfacet
facet normal 0 0 1
outer loop
vertex 32.47500000000001 -79.75 5.6
vertex 108.54324088833457 -79.82596123493894 5.6
vertex 107.67500000000007 -79.75 5.6
endloop
endfacet
facet normal -0.9961946980917459 -0.08715574274765456 0
outer loop
vertex 27.550961234938953 -208.39324088833462 5.6
vertex 27.475 -207.52500000000006 5.6
vertex 27.475 -207.52500000000006 0
endloop
endfacet
facet normal -0.9961946980917459 -0.08715574274765456 0
outer loop
vertex 27.550961234938953 -208.39324088833462 5.6
vertex 27.475 -207.52500000000006 0
vertex 27.550961234938953 -208.39324088833462 0
endloop
endfacet
facet normal -0.9659258262890666 -0.2588190451025269 0
outer loop
vertex 27.776536896070482 -209.2351007166284 5.6
vertex 27.550961234938953 -208.39324088833462 5.6
vertex 27.550961234938953 -208.39324088833462 0
endloop
endfacet
facet normal -0.9659258262890666 -0.2588190451025269 0
outer loop
vertex 27.776536896070482 -209.2351007166284 5.6
vertex 27.550961234938953 -208.39324088833462 0
vertex 27.776536896070482 -209.2351007166284 0
endloop
endfacet
facet normal -0.9063077870366456 -0.42261826174070904 0
outer loop
vertex 28.14487298107779 -210.02499999999998 5.6
vertex 27.776536896070482 -209.2351007166284 5.6
vertex 27.776536896070482 -209.2351007166284 0
endloop
endfacet
facet normal -0.9063077870366456 -0.42261826174070904 0
outer loop
vertex 28.14487298107779 -210.02499999999998 5.6
vertex 27.776536896070482 -209.2351007166284 0
vertex 28.144872981077732 -210.02499999999986 0
endloop
endfacet
facet normal -0.8191520442889936 -0.5735764363510437 0
outer loop
vertex 28.644777784405107 -210.73893804843271 5.6
vertex 28.14487298107779 -210.02499999999998 5.6
vertex 28.144872981077732 -210.02499999999986 0
endloop
endfacet
facet normal -0.8191520442889936 -0.5735764363510437 0
outer loop
vertex 28.644777784405107 -210.73893804843271 5.6
vertex 28.144872981077732 -210.02499999999986 0
vertex 28.644777784405058 -210.73893804843263 0
endloop
endfacet
facet normal -0.7071067811865476 -0.7071067811865476 0
outer loop
vertex 29.261061951567264 -211.35522221559484 5.6
vertex 28.644777784405107 -210.73893804843271 5.6
vertex 28.644777784405058 -210.73893804843263 0
endloop
endfacet
facet normal -0.7071067811865476 -0.7071067811865476 0
outer loop
vertex 29.261061951567264 -211.35522221559484 5.6
vertex 28.644777784405058 -210.73893804843263 0
vertex 29.26106195156744 -211.355222215595 0
endloop
endfacet
facet normal -0.5735764363510341 -0.8191520442890001 0
outer loop
vertex 29.975000000000122 -211.85512701892225 5.6
vertex 29.261061951567264 -211.35522221559484 5.6
vertex 29.26106195156744 -211.355222215595 0
endloop
endfacet
facet normal -0.5735764363510341 -0.8191520442890001 0
outer loop
vertex 29.975000000000122 -211.85512701892225 5.6
vertex 29.26106195156744 -211.355222215595 0
vertex 29.974999999999923 -211.85512701892213 0
endloop
endfacet
facet normal -0.4226182617407522 -0.9063077870366254 0
outer loop
vertex 30.764899283371804 -212.22346310392962 5.6
vertex 29.975000000000122 -211.85512701892225 5.6
vertex 29.974999999999923 -211.85512701892213 0
endloop
endfacet
facet normal -0.4226182617407522 -0.9063077870366254 0
outer loop
vertex 30.764899283371804 -212.22346310392962 5.6
vertex 29.974999999999923 -211.85512701892213 0
vertex 30.76489928337179 -212.22346310392962 0
endloop
endfacet
facet normal -0.2588190451024838 -0.9659258262890783 0
outer loop
vertex 31.606759111665163 -212.449038765061 5.6
vertex 30.764899283371804 -212.22346310392962 5.6
vertex 30.76489928337179 -212.22346310392962 0
endloop
endfacet
facet normal -0.2588190451024838 -0.9659258262890783 0
outer loop
vertex 31.606759111665163 -212.449038765061 5.6
vertex 30.76489928337179 -212.22346310392962 0
vertex 31.606759111665284 -212.44903876506103 0
endloop
endfacet
facet normal -0.08715574274765463 -0.9961946980917459 0
outer loop
vertex 32.47500000000012 -212.525 5.6
vertex 31.606759111665163 -212.449038765061 5.6
vertex 31.606759111665284 -212.44903876506103 0
endloop
endfacet
facet normal -0.08715574274765463 -0.9961946980917459 0
outer loop
vertex 32.47500000000012 -212.525 5.6
vertex 31.606759111665284 -212.44903876506103 0
vertex 32.47499999999993 -212.525 0
endloop
endfacet
facet normal 0 -1 0
outer loop
vertex 107.67499999999981 -212.525 0
vertex 107.67499999999994 -212.525 5.6
vertex 32.47500000000012 -212.525 5.6
endloop
endfacet
facet normal 0 -1 0
outer loop
vertex 107.67499999999981 -212.525 0
vertex 32.47500000000012 -212.525 5.6
vertex 32.47499999999993 -212.525 0
endloop
endfacet
facet normal 0.08715574274765463 -0.9961946980917459 0
outer loop
vertex 108.54324088833474 -212.44903876506103 5.6
vertex 107.67499999999994 -212.525 5.6
vertex 107.67499999999981 -212.525 0
endloop
endfacet
facet normal 0.08715574274765463 -0.9961946980917459 0
outer loop
vertex 108.54324088833474 -212.44903876506103 5.6
vertex 107.67499999999981 -212.525 0
vertex 108.54324088833488 -212.449038765061 0
endloop
endfacet
facet normal 0.2588190451024838 -0.9659258262890783 0
outer loop
vertex 109.38510071662841 -212.22346310392956 5.6
vertex 108.54324088833474 -212.44903876506103 5.6
vertex 108.54324088833488 -212.449038765061 0
endloop
endfacet
facet normal 0.2588190451024838 -0.9659258262890783 0
outer loop
vertex 109.38510071662841 -212.22346310392956 5.6
vertex 108.54324088833488 -212.449038765061 0
vertex 109.38510071662839 -212.2234631039296 0
endloop
endfacet
facet normal 0.4226182617407522 -0.9063077870366254 0
outer loop
vertex 110.1749999999998 -211.8551270189223 5.6
vertex 109.38510071662841 -212.22346310392956 5.6
vertex 109.38510071662839 -212.2234631039296 0
endloop
endfacet
facet normal 0.4226182617407522 -0.9063077870366254 0
outer loop
vertex 110.1749999999998 -211.8551270189223 5.6
vertex 109.38510071662839 -212.2234631039296 0
vertex 110.17499999999976 -211.85512701892236 0
endloop
endfacet
facet normal 0.5735764363510275 -0.8191520442890048 0
outer loop
vertex 110.8889380484327 -211.35522221559486 5.6
vertex 110.1749999999998 -211.8551270189223 5.6
vertex 110.17499999999976 -211.85512701892236 0
endloop
endfacet
facet normal 0.5735764363510275 -0.8191520442890048 0
outer loop
vertex 110.8889380484327 -211.35522221559486 5.6
vertex 110.17499999999976 -211.85512701892236 0
vertex 110.88893804843266 -211.35522221559492 0
endloop
endfacet
facet normal 0.7071067811865476 -0.7071067811865476 0
outer loop
vertex 111.50522221559476 -210.73893804843283 5.6
vertex 110.8889380484327 -211.35522221559486 5.6
vertex 110.88893804843266 -211.35522221559492 0
endloop
endfacet
facet normal 0.7071067811865476 -0.7071067811865476 0
outer loop
vertex 111.50522221559476 -210.73893804843283 5.6
vertex 110.88893804843266 -211.35522221559492 0
vertex 111.50522221559484 -210.73893804843274 0
endloop
endfacet
facet normal 0.8191520442890001 -0.5735764363510342 0
outer loop
vertex 112.00512701892238 -210.0249999999997 5.6
vertex 111.50522221559476 -210.73893804843283 5.6
vertex 111.50522221559484 -210.73893804843274 0
endloop
endfacet
facet normal 0.8191520442890001 -0.5735764363510342 0
outer loop
vertex 112.00512701892238 -210.0249999999997 5.6
vertex 111.50522221559484 -210.73893804843274 0
vertex 112.00512701892225 -210.0249999999999 0
endloop
endfacet
facet normal 0.9063077870366524 -0.42261826174069467 0
outer loop
vertex 112.37346310392951 -209.2351007166285 5.6
vertex 112.00512701892238 -210.0249999999997 5.6
vertex 112.00512701892225 -210.0249999999999 0
endloop
endfacet
facet normal 0.9063077870366524 -0.42261826174069467 0
outer loop
vertex 112.37346310392951 -209.2351007166285 5.6
vertex 112.00512701892225 -210.0249999999999 0
vertex 112.37346310392954 -209.23510071662835 0
endloop
endfacet
facet normal 0.9659258262890708 -0.25881904510251214 0
outer loop
vertex 112.59903876506105 -208.39324088833465 5.6
vertex 112.37346310392951 -209.2351007166285 5.6
vertex 112.37346310392954 -209.23510071662835 0
endloop
endfacet
facet normal 0.9659258262890708 -0.25881904510251214 0
outer loop
vertex 112.59903876506105 -208.39324088833465 5.6
vertex 112.37346310392954 -209.23510071662835 0
vertex 112.59903876506105 -208.39324088833462 0
endloop
endfacet
facet normal 0.9961946980917459 -0.08715574274765463 0
outer loop
vertex 112.675 -207.52500000000015 5.6
vertex 112.59903876506105 -208.39324088833465 5.6
vertex 112.59903876506105 -208.39324088833462 0
endloop
endfacet
facet normal 0.9961946980917459 -0.08715574274765463 0
outer loop
vertex 112.675 -207.52500000000015 5.6
vertex 112.59903876506105 -208.39324088833462 0
vertex 112.675 -207.52500000000015 0
endloop
endfacet
facet normal 1 0 0
outer loop
vertex 112.675 -84.75000000000004 0
vertex 112.67499999999998 -84.74999999999987 5.6
vertex 112.675 -207.52500000000015 5.6
endloop
endfacet
facet normal 1 0 0
outer loop
vertex 112.675 -84.75000000000004 0
vertex 112.675 -207.52500000000015 5.6
vertex 112.675 -207.52500000000015 0
endloop
endfacet
facet normal 0.9961946980917459 0.08715574274765463 0
outer loop
vertex 112.59903876506102 -83.88175911166532 5.6
vertex 112.67499999999998 -84.74999999999987 5.6
vertex 112.675 -84.75000000000004 0
endloop
endfacet
facet normal 0.9961946980917459 0.08715574274765463 0
outer loop
vertex 112.59903876506102 -83.88175911166532 5.6
vertex 112.675 -84.75000000000004 0
vertex 112.59903876506104 -83.88175911166537 0
endloop
endfacet
facet normal 0.9659258262890666 0.2588190451025271 0
outer loop
vertex 112.37346310392951 -83.0398992833716 5.6
vertex 112.59903876506102 -83.88175911166532 5.6
vertex 112.59903876506104 -83.88175911166537 0
endloop
endfacet
facet normal 0.9659258262890666 0.2588190451025271 0
outer loop
vertex 112.37346310392951 -83.0398992833716 5.6
vertex 112.59903876506104 -83.88175911166537 0
vertex 112.37346310392952 -83.03989928337161 0
endloop
endfacet
facet normal 0.9063077870366557 0.42261826174068745 0
outer loop
vertex 112.00512701892222 -82.25000000000006 5.6
vertex 112.37346310392951 -83.0398992833716 5.6
vertex 112.37346310392952 -83.03989928337161 0
endloop
endfacet
facet normal 0.9063077870366557 0.42261826174068745 0
outer loop
vertex 112.00512701892222 -82.25000000000006 5.6
vertex 112.37346310392952 -83.03989928337161 0
vertex 112.00512701892224 -82.25000000000007 0
endloop
endfacet
facet normal 0.8191520442889957 0.5735764363510406 0
outer loop
vertex 111.50522221559488 -81.53606195156732 5.6
vertex 112.00512701892222 -82.25000000000006 5.6
vertex 112.00512701892224 -82.25000000000007 0
endloop
endfacet
facet normal 0.8191520442889957 0.5735764363510406 0
outer loop
vertex 111.50522221559488 -81.53606195156732 5.6
vertex 112.00512701892224 -82.25000000000007 0
vertex 111.50522221559488 -81.5360619515673 0
endloop
endfacet
facet normal 0.7071067811865405 0.7071067811865547 0
outer loop
vertex 110.88893804843265 -80.91977778440508 5.6
vertex 111.50522221559488 -81.53606195156732 5.6
vertex 111.50522221559488 -81.5360619515673 0
endloop
endfacet
facet normal 0.7071067811865405 0.7071067811865547 0
outer loop
vertex 110.88893804843265 -80.91977778440508 5.6
vertex 111.50522221559488 -81.5360619515673 0
vertex 110.8889380484327 -80.91977778440513 0
endloop
endfacet
facet normal 0.5735764363510599 0.819152044288982 0
outer loop
vertex 110.17500000000001 -80.4198729810778 5.6
vertex 110.88893804843265 -80.91977778440508 5.6
vertex 110.8889380484327 -80.91977778440513 0
endloop
endfacet
facet normal 0.5735764363510599 0.819152044288982 0
outer loop
vertex 110.17500000000001 -80.4198729810778 5.6
vertex 110.8889380484327 -80.91977778440513 0
vertex 110.17499999999997 -80.41987298107779 0
endloop
endfacet
facet normal 0.4226182617406989 0.9063077870366503 0
outer loop
vertex 109.38510071662841 -80.05153689607049 5.6
vertex 110.17500000000001 -80.4198729810778 5.6
vertex 110.17499999999997 -80.41987298107779 0
endloop
endfacet
facet normal 0.4226182617406989 0.9063077870366503 0
outer loop
vertex 109.38510071662841 -80.05153689607049 5.6
vertex 110.17499999999997 -80.41987298107779 0
vertex 109.38510071662843 -80.0515368960705 0
endloop
endfacet
facet normal 0.2588190451025271 0.9659258262890666 0
outer loop
vertex 108.54324088833457 -79.82596123493894 5.6
vertex 109.38510071662841 -80.05153689607049 5.6
vertex 109.38510071662843 -80.0515368960705 0
endloop
endfacet
facet normal 0.2588190451025271 0.9659258262890666 0
outer loop
vertex 108.54324088833457 -79.82596123493894 5.6
vertex 109.38510071662843 -80.0515368960705 0
vertex 108.54324088833457 -79.82596123493896 0
endloop
endfacet
facet normal 0.08715574274765456 0.996194698091746 0
outer loop
vertex 107.67500000000007 -79.75 5.6
vertex 108.54324088833457 -79.82596123493894 5.6
vertex 108.54324088833457 -79.82596123493896 0
endloop
endfacet
facet normal 0.08715574274765456 0.996194698091746 0
outer loop
vertex 107.67500000000007 -79.75 5.6
vertex 108.54324088833457 -79.82596123493896 0
vertex 107.67499999999993 -79.75 0
endloop
endfacet
facet normal 0 1 0
outer loop
vertex 107.67500000000007 -79.75 5.6
vertex 107.67499999999993 -79.75 0
vertex 32.475000000000094 -79.75 0
endloop
endfacet
facet normal 0 1 0
outer loop
vertex 107.67500000000007 -79.75 5.6
vertex 32.475000000000094 -79.75 0
vertex 32.47500000000001 -79.75 5.6
endloop
endfacet
facet normal -0.08715574274765463 0.9961946980917459 0
outer loop
vertex 31.606759111665326 -79.82596123493896 5.6
vertex 32.47500000000001 -79.75 5.6
vertex 32.475000000000094 -79.75 0
endloop
endfacet
facet normal -0.08715574274765463 0.9961946980917459 0
outer loop
vertex 31.606759111665326 -79.82596123493896 5.6
vertex 32.475000000000094 -79.75 0
vertex 31.606759111665347 -79.82596123493896 0
endloop
endfacet
facet normal -0.2588190451025271 0.9659258262890666 0
outer loop
vertex 30.764899283371797 -80.05153689607042 5.6
vertex 31.606759111665326 -79.82596123493896 5.6
vertex 31.606759111665347 -79.82596123493896 0
endloop
endfacet
facet normal -0.2588190451025271 0.9659258262890666 0
outer loop
vertex 30.764899283371797 -80.05153689607042 5.6
vertex 31.606759111665347 -79.82596123493896 0
vertex 30.764899283371733 -80.05153689607044 0
endloop
endfacet
facet normal -0.4226182617406946 0.9063077870366524 0
outer loop
vertex 29.97499999999988 -80.41987298107789 5.6
vertex 30.764899283371797 -80.05153689607042 5.6
vertex 30.764899283371733 -80.05153689607044 0
endloop
endfacet
facet normal -0.4226182617406946 0.9063077870366524 0
outer loop
vertex 29.97499999999988 -80.41987298107789 5.6
vertex 30.764899283371733 -80.05153689607044 0
vertex 29.974999999999888 -80.41987298107787 0
endloop
endfacet
facet normal -0.5735764363510599 0.8191520442889821 0
outer loop
vertex 29.261061951567285 -80.91977778440513 5.6
vertex 29.97499999999988 -80.41987298107789 5.6
vertex 29.974999999999888 -80.41987298107787 0
endloop
endfacet
facet normal -0.5735764363510599 0.8191520442889821 0
outer loop
vertex 29.261061951567285 -80.91977778440513 5.6
vertex 29.974999999999888 -80.41987298107787 0
vertex 29.261061951567314 -80.9197777844051 0
endloop
endfacet
facet normal -0.7071067811865405 0.7071067811865547 0
outer loop
vertex 28.6447777844051 -81.53606195156732 5.6
vertex 29.261061951567285 -80.91977778440513 5.6
vertex 29.261061951567314 -80.9197777844051 0
endloop
endfacet
facet normal -0.7071067811865405 0.7071067811865547 0
outer loop
vertex 28.6447777844051 -81.53606195156732 5.6
vertex 29.261061951567314 -80.9197777844051 0
vertex 28.6447777844051 -81.5360619515673 0
endloop
endfacet
facet normal -0.8191520442889912 0.573576436351047 0
outer loop
vertex 28.144872981077803 -82.25 5.6
vertex 28.6447777844051 -81.53606195156732 5.6
vertex 28.6447777844051 -81.5360619515673 0
endloop
endfacet
facet normal -0.8191520442889912 0.573576436351047 0
outer loop
vertex 28.144872981077803 -82.25 5.6
vertex 28.6447777844051 -81.5360619515673 0
vertex 28.144872981077825 -82.24999999999996 0
endloop
endfacet
facet normal -0.9063077870366456 0.42261826174070904 0
outer loop
vertex 27.776536896070468 -83.03989928337162 5.6
vertex 28.144872981077803 -82.25 5.6
vertex 28.144872981077825 -82.24999999999996 0
endloop
endfacet
facet normal -0.9063077870366456 0.42261826174070904 0
outer loop
vertex 27.776536896070468 -83.03989928337162 5.6
vertex 28.144872981077825 -82.24999999999996 0
vertex 27.776536896070454 -83.03989928337167 0
endloop
endfacet
facet normal -0.9659258262890685 0.25881904510252 0
outer loop
vertex 27.55096123493896 -83.88175911166535 5.6
vertex 27.776536896070468 -83.03989928337162 5.6
vertex 27.776536896070454 -83.03989928337167 0
endloop
endfacet
facet normal -0.9659258262890685 0.25881904510252 0
outer loop
vertex 27.55096123493896 -83.88175911166535 5.6
vertex 27.776536896070454 -83.03989928337167 0
vertex 27.55096123493896 -83.88175911166533 0
endloop
endfacet
facet normal -0.996194698091746 0.0871557427476546 0
outer loop
vertex 27.475 -84.75 5.6
vertex 27.55096123493896 -83.88175911166535 5.6
vertex 27.55096123493896 -83.88175911166533 0
endloop
endfacet
facet normal -0.996194698091746 0.0871557427476546 0
outer loop
vertex 27.475 -84.75 5.6
vertex 27.55096123493896 -83.88175911166533 0
vertex 27.475 -84.74999999999999 0
endloop
endfacet
facet normal -1 0 0
outer loop
vertex 27.475 -84.75 5.6
vertex 27.475 -84.74999999999999 0
vertex 27.475 -207.52500000000006 0
endloop
endfacet
facet normal -1 0 0
outer loop
vertex 27.475 -84.75 5.6
vertex 27.475 -207.52500000000006 0
vertex 27.475 -207.52500000000006 5.6
endloop
endfacet
endsolid csg.js
