solid csg.js
facet normal 0 0 -1
outer loop
vertex 25.475 -84.74999999999997 0
vertex 25.581345728914542 -83.53446275633151 0
vertex 25.897151654498657 -82.35585899672026 0
endloop
endfacet
facet normal 0 0 -1
outer loop
vertex 25.475 -84.74999999999997 0
vertex 25.897151654498657 -82.35585899672026 0
vertex 26.4128221735089 -81.25000000000004 0
endloop
endfacet
facet normal 0 0 -1
outer loop
vertex 25.475 -84.74999999999997 0
vertex 26.4128221735089 -81.25000000000004 0
vertex 27.11268889816718 -80.2504867321942 0
endloop
endfacet
facet normal 0 0 -1
outer loop
vertex 25.475 -84.74999999999997 0
vertex 27.11268889816718 -80.2504867321942 0
vertex 27.975486732194184 -79.3876888981672 0
endloop
endfacet
facet normal 0 0 -1
outer loop
vertex 25.475 -84.74999999999997 0
vertex 27.975486732194184 -79.3876888981672 0
vertex 28.97500000000006 -78.6878221735089 0
endloop
endfacet
facet normal 0 0 -1
outer loop
vertex 25.475 -84.74999999999997 0
vertex 28.97500000000006 -78.6878221735089 0
vertex 30.080858996720387 -78.1721516544986 0
endloop
endfacet
facet normal 0 0 -1
outer loop
vertex 25.475 -84.74999999999997 0
vertex 30.080858996720387 -78.1721516544986 0
vertex 31.259462756331466 -77.85634572891455 0
endloop
endfacet
facet normal 0 0 -1
outer loop
vertex 25.475 -84.74999999999997 0
vertex 31.259462756331466 -77.85634572891455 0
vertex 32.47500000000001 -77.75 0
endloop
endfacet
facet normal 0 0 -1
outer loop
vertex 25.475 -84.74999999999997 0
vertex 32.47500000000001 -77.75 0
vertex 107.6750000000001 -77.75 0
endloop
endfacet
facet normal 0 0 -1
outer loop
vertex 25.475 -84.74999999999997 0
vertex 107.6750000000001 -77.75 0
vertex 108.89053724366845 -77.85634572891453 0
endloop
endfacet
facet normal 0 0 -1
outer loop
vertex 25.475 -84.74999999999997 0
vertex 108.89053724366845 -77.85634572891453 0
vertex 110.06914100327964 -78.17215165449863 0
endloop
endfacet
facet normal 0 0 -1
outer loop
vertex 25.475 -84.74999999999997 0
vertex 110.06914100327964 -78.17215165449863 0
vertex 111.17500000000003 -78.68782217350896 0
endloop
endfacet
facet normal 0 0 -1
outer loop
vertex 25.475 -84.74999999999997 0
vertex 111.17500000000003 -78.68782217350896 0
vertex 112.17451326780584 -79.3876888981672 0
endloop
endfacet
facet normal 0 0 -1
outer loop
vertex 25.475 -84.74999999999997 0
vertex 112.17451326780584 -79.3876888981672 0
vertex 113.03731110183284 -80.2504867321942 0
endloop
endfacet
facet normal 0 0 -1
outer loop
vertex 25.475 -84.74999999999997 0
vertex 113.03731110183284 -80.2504867321942 0
vertex 113.73717782649106 -81.24999999999999 0
endloop
endfacet
facet normal 0 0 -1
outer loop
vertex 25.475 -84.74999999999997 0
vertex 113.73717782649106 -81.24999999999999 0
vertex 114.25284834550135 -82.3558589967203 0
endloop
endfacet
facet normal 0 0 -1
outer loop
vertex 25.475 -84.74999999999997 0
vertex 114.25284834550135 -82.3558589967203 0
vertex 114.56865427108545 -83.5344627563315 0
endloop
endfacet
facet normal 0 0 -1
outer loop
vertex 25.475 -84.74999999999997 0
vertex 114.56865427108545 -83.5344627563315 0
vertex 114.675 -84.75000000000004 0
endloop
endfacet
facet normal 0 0 -1
outer loop
vertex 25.475 -84.74999999999997 0
vertex 114.675 -84.75000000000004 0
vertex 114.675 -207.5250000000001 0
endloop
endfacet
facet normal 0 0 -1
outer loop
vertex 25.475 -84.74999999999997 0
vertex 114.675 -207.5250000000001 0
vertex 114.56865427108545 -208.7405372436686 0
endloop
endfacet
facet normal 0 0 -1
outer loop
vertex 25.475 -84.74999999999997 0
vertex 114.56865427108545 -208.7405372436686 0
vertex 114.25284834550138 -209.91914100327966 0
endloop
endfacet
facet normal 0 0 -1
outer loop
vertex 25.475 -84.74999999999997 0
vertex 114.25284834550138 -209.91914100327966 0
vertex 113.73717782649113 -211.0249999999999 0
endloop
endfacet
facet normal 0 0 -1
outer loop
vertex 25.475 -84.74999999999997 0
vertex 113.73717782649113 -211.0249999999999 0
vertex 113.03731110183291 -212.02451326780567 0
endloop
endfacet
facet normal 0 0 -1
outer loop
vertex 25.475 -84.74999999999997 0
vertex 113.03731110183291 -212.02451326780567 0
vertex 112.1745132678056 -212.887311101833 0
endloop
endfacet
facet normal 0 0 -1
outer loop
vertex 25.475 -84.74999999999997 0
vertex 112.1745132678056 -212.887311101833 0
vertex 111.17500000000027 -213.58717782649092 0
endloop
endfacet
facet normal 0 0 -1
outer loop
vertex 25.475 -84.74999999999997 0
vertex 111.17500000000027 -213.58717782649092 0
vertex 110.06914100327961 -214.10284834550137 0
endloop
endfacet
facet normal 0 0 -1
outer loop
vertex 25.475 -84.74999999999997 0
vertex 110.06914100327961 -214.10284834550137 0
vertex 108.89053724366843 -214.41865427108547 0
endloop
endfacet
facet normal 0 0 -1
outer loop
vertex 25.475 -84.74999999999997 0
vertex 108.89053724366843 -214.41865427108547 0
vertex 107.67499999999995 -214.525 0
endloop
endfacet
facet normal 0 0 -1
outer loop
vertex 25.475 -84.74999999999997 0
vertex 107.67499999999995 -214.525 0
vertex 32.47500000000023 -214.525 0
endloop
endfacet
facet normal 0 0 -1
outer loop
vertex 25.475 -84.74999999999997 0
vertex 32.47500000000023 -214.525 0
vertex 31.259462756331416 -214.41865427108544 0
endloop
endfacet
facet normal 0 0 -1
outer loop
vertex 25.475 -84.74999999999997 0
vertex 31.259462756331416 -214.41865427108544 0
vertex 30.080858996720323 -214.10284834550137 0
endloop
endfacet
facet normal 0 0 -1
outer loop
vertex 25.475 -84.74999999999997 0
vertex 30.080858996720323 -214.10284834550137 0
vertex 28.975000000000094 -213.58717782649114 0
endloop
endfacet
facet normal 0 0 -1
outer loop
vertex 25.475 -84.74999999999997 0
vertex 28.975000000000094 -213.58717782649114 0
vertex 27.9754867321942 -212.88731110183284 0
endloop
endfacet
facet normal 0 0 -1
outer loop
vertex 25.475 -84.74999999999997 0
vertex 27.9754867321942 -212.88731110183284 0
vertex 27.112688898167228 -212.02451326780587 0
endloop
endfacet
facet normal 0 0 -1
outer loop
vertex 25.475 -84.74999999999997 0
vertex 27.112688898167228 -212.02451326780587 0
vertex 26.412822173508978 -211.02500000000006 0
endloop
endfacet
facet normal 0 0 -1
outer loop
vertex 25.475 -84.74999999999997 0
vertex 26.412822173508978 -211.02500000000006 0
vertex 25.897151654498636 -209.91914100327963 0
endloop
endfacet
facet normal 0 0 -1
outer loop
vertex 25.475 -84.74999999999997 0
vertex 25.897151654498636 -209.91914100327963 0
vertex 25.581345728914542 -208.74053724366848 0
endloop
endfacet
facet normal 0 0 -1
outer loop
vertex 25.475 -84.74999999999997 0
vertex 25.581345728914542 -208.74053724366848 0
vertex 25.475 -207.52499999999998 0
endloop
endfacet
facet normal 0 0 1
outer loop
vertex 32.475000000000016 -77.75 1
vertex 31.259462756331487 -77.85634572891455 1
vertex 30.080858996720373 -78.17215165449862 1
endloop
endfacet
facet normal 0 0 1
outer loop
vertex 32.475000000000016 -77.75 1
vertex 30.080858996720373 -78.17215165449862 1
vertex 28.97499999999998 -78.68782217350895 1
endloop
endfacet
facet normal 0 0 1
outer loop
vertex 32.475000000000016 -77.75 1
vertex 28.97499999999998 -78.68782217350895 1
vertex 27.975486732194213 -79.38768889816717 1
endloop
endfacet
facet normal 0 0 1
outer loop
vertex 32.475000000000016 -77.75 1
vertex 27.975486732194213 -79.38768889816717 1
vertex 27.112688898167157 -80.25048673219422 1
endloop
endfacet
facet normal 0 0 1
outer loop
vertex 32.475000000000016 -77.75 1
vertex 27.112688898167157 -80.25048673219422 1
vertex 26.4128221735089 -81.25000000000004 1
endloop
endfacet
facet normal 0 0 1
outer loop
vertex 32.475000000000016 -77.75 1
vertex 26.4128221735089 -81.25000000000004 1
vertex 25.89715165449867 -82.35585899672024 1
endloop
endfacet
facet normal 0 0 1
outer loop
vertex 32.475000000000016 -77.75 1
vertex 25.89715165449867 -82.35585899672024 1
vertex 25.581345728914542 -83.53446275633155 1
endloop
endfacet
facet normal 0 0 1
outer loop
vertex 32.475000000000016 -77.75 1
vertex 25.581345728914542 -83.53446275633155 1
vertex 25.475 -84.74999999999997 1
endloop
endfacet
facet normal 0 0 1
outer loop
vertex 32.475000000000016 -77.75 1
vertex 25.475 -84.74999999999997 1
vertex 25.475 -207.52499999999998 1
endloop
endfacet
facet normal 0 0 1
outer loop
vertex 32.475000000000016 -77.75 1
vertex 25.475 -207.52499999999998 1
vertex 25.58134572891455 -208.7405372436685 1
endloop
endfacet
facet normal 0 0 1
outer loop
vertex 32.475000000000016 -77.75 1
vertex 25.58134572891455 -208.7405372436685 1
vertex 25.897151654498643 -209.91914100327966 1
endloop
endfacet
facet normal 0 0 1
outer loop
vertex 32.475000000000016 -77.75 1
vertex 25.897151654498643 -209.91914100327966 1
vertex 26.41282217350893 -211.02499999999998 1
endloop
endfacet
facet normal 0 0 1
outer loop
vertex 32.475000000000016 -77.75 1
vertex 26.41282217350893 -211.02499999999998 1
vertex 27.11268889816717 -212.0245132678058 1
endloop
endfacet
facet normal 0 0 1
outer loop
vertex 32.475000000000016 -77.75 1
vertex 27.11268889816717 -212.0245132678058 1
vertex 27.975486732194263 -212.8873111018329 1
endloop
endfacet
facet normal 0 0 1
outer loop
vertex 32.475000000000016 -77.75 1
vertex 27.975486732194263 -212.8873111018329 1
vertex 28.974999999999966 -213.58717782649106 1
endloop
endfacet
facet normal 0 0 1
outer loop
vertex 32.475000000000016 -77.75 1
vertex 28.974999999999966 -213.58717782649106 1
vertex 30.08085899672058 -214.10284834550149 1
endloop
endfacet
facet normal 0 0 1
outer loop
vertex 32.475000000000016 -77.75 1
vertex 30.08085899672058 -214.10284834550149 1
vertex 31.25946275633123 -214.41865427108544 1
endloop
endfacet
facet normal 0 0 1
outer loop
vertex 32.475000000000016 -77.75 1
vertex 31.25946275633123 -214.41865427108544 1
vertex 32.475000000000065 -214.525 1
endloop
endfacet
facet normal 0 0 1
outer loop
vertex 32.475000000000016 -77.75 1
vertex 32.475000000000065 -214.525 1
vertex 107.67499999999993 -214.525 1
endloop
endfacet
facet normal 0 0 1
outer loop
vertex 32.475000000000016 -77.75 1
vertex 107.67499999999993 -214.525 1
vertex 108.8905372436685 -214.41865427108547 1
endloop
endfacet
facet normal 0 0 1
outer loop
vertex 32.475000000000016 -77.75 1
vertex 108.8905372436685 -214.41865427108547 1
vertex 110.06914100327954 -214.1028483455014 1
endloop
endfacet
facet normal 0 0 1
outer loop
vertex 32.475000000000016 -77.75 1
vertex 110.06914100327954 -214.1028483455014 1
vertex 111.17500000000017 -213.58717782649097 1
endloop
endfacet
facet normal 0 0 1
outer loop
vertex 32.475000000000016 -77.75 1
vertex 111.17500000000017 -213.58717782649097 1
vertex 112.17451326780571 -212.88731110183292 1
endloop
endfacet
facet normal 0 0 1
outer loop
vertex 32.475000000000016 -77.75 1
vertex 112.17451326780571 -212.88731110183292 1
vertex 113.03731110183293 -212.02451326780567 1
endloop
endfacet
facet normal 0 0 1
outer loop
vertex 32.475000000000016 -77.75 1
vertex 113.03731110183293 -212.02451326780567 1
vertex 113.73717782649108 -211.02499999999998 1
endloop
endfacet
facet normal 0 0 1
outer loop
vertex 32.475000000000016 -77.75 1
vertex 113.73717782649108 -211.02499999999998 1
vertex 114.25284834550138 -209.91914100327963 1
endloop
endfacet
facet normal 0 0 1
outer loop
vertex 32.475000000000016 -77.75 1
vertex 114.25284834550138 -209.91914100327963 1
vertex 114.56865427108545 -208.74053724366857 1
endloop
endfacet
facet normal 0 0 1
outer loop
vertex 32.475000000000016 -77.75 1
vertex 114.56865427108545 -208.74053724366857 1
vertex 114.675 -207.52500000000003 1
endloop
endfacet
facet normal 0 0 1
outer loop
vertex 32.475000000000016 -77.75 1
vertex 114.675 -207.52500000000003 1
vertex 114.67499999999998 -84.74999999999984 1
endloop
endfacet
facet normal 0 0 1
outer loop
vertex 32.475000000000016 -77.75 1
vertex 114.67499999999998 -84.74999999999984 1
vertex 114.56865427108545 -83.5344627563315 1
endloop
endfacet
facet normal 0 0 1
outer loop
vertex 32.475000000000016 -77.75 1
vertex 114.56865427108545 -83.5344627563315 1
vertex 114.25284834550135 -82.35585899672034 1
endloop
endfacet
facet normal 0 0 1
outer loop
vertex 32.475000000000016 -77.75 1
vertex 114.25284834550135 -82.35585899672034 1
vertex 113.73717782649103 -81.24999999999997 1
endloop
endfacet
facet normal 0 0 1
outer loop
vertex 32.475000000000016 -77.75 1
vertex 113.73717782649103 -81.24999999999997 1
vertex 113.03731110183276 -80.25048673219412 1
endloop
endfacet
facet normal 0 0 1
outer loop
vertex 32.475000000000016 -77.75 1
vertex 113.03731110183276 -80.25048673219412 1
vertex 112.17451326780582 -79.38768889816718 1
endloop
endfacet
facet normal 0 0 1
outer loop
vertex 32.475000000000016 -77.75 1
vertex 112.17451326780582 -79.38768889816718 1
vertex 111.17500000000004 -78.68782217350896 1
endloop
endfacet
facet normal 0 0 1
outer loop
vertex 32.475000000000016 -77.75 1
vertex 111.17500000000004 -78.68782217350896 1
vertex 110.06914100327965 -78.17215165449863 1
endloop
endfacet
facet normal 0 0 1
outer loop
vertex 32.475000000000016 -77.75 1
vertex 110.06914100327965 -78.17215165449863 1
vertex 108.89053724366849 -77.85634572891455 1
endloop
endfacet
facet normal 0 0 1
outer loop
vertex 32.475000000000016 -77.75 1
vertex 108.89053724366849 -77.85634572891455 1
vertex 107.67499999999997 -77.75 1
endloop
endfacet
facet normal -0.9961946980917453 -0.08715574274766082 0
outer loop
vertex 25.58134572891455 -208.7405372436685 1
vertex 25.475 -207.52499999999998 1
vertex 25.475 -207.52499999999998 0
endloop
endfacet
facet normal -0.9961946980917453 -0.08715574274766082 0
outer loop
vertex 25.58134572891455 -208.7405372436685 1
vertex 25.475 -207.52499999999998 0
vertex 25.581345728914542 -208.74053724366848 0
endloop
endfacet
facet normal -0.9659258262890666 -0.2588190451025269 0
outer loop
vertex 25.897151654498643 -209.91914100327966 1
vertex 25.58134572891455 -208.7405372436685 1
vertex 25.581345728914542 -208.74053724366848 0
endloop
endfacet
facet normal -0.9659258262890666 -0.2588190451025269 0
outer loop
vertex 25.897151654498643 -209.91914100327966 1
vertex 25.581345728914542 -208.74053724366848 0
vertex 25.897151654498636 -209.91914100327963 0
endloop
endfacet
facet normal -0.9063077870366422 -0.4226182617407162 0
outer loop
vertex 26.41282217350893 -211.02499999999998 1
vertex 25.897151654498643 -209.91914100327966 1
vertex 25.897151654498636 -209.91914100327963 0
endloop
endfacet
facet normal -0.9063077870366422 -0.4226182617407162 0
outer loop
vertex 26.41282217350893 -211.02499999999998 1
vertex 25.897151654498636 -209.91914100327963 0
vertex 26.412822173508978 -211.02500000000006 0
endloop
endfacet
facet normal -0.8191520442889708 -0.5735764363510761 0
outer loop
vertex 27.11268889816717 -212.0245132678058 1
vertex 26.41282217350893 -211.02499999999998 1
vertex 26.412822173508978 -211.02500000000006 0
endloop
endfacet
facet normal -0.8191520442889708 -0.5735764363510761 0
outer loop
vertex 27.11268889816717 -212.0245132678058 1
vertex 26.412822173508978 -211.02500000000006 0
vertex 27.112688898167228 -212.02451326780587 0
endloop
endfacet
facet normal -0.7071067811865547 -0.7071067811865405 0
outer loop
vertex 27.975486732194263 -212.8873111018329 1
vertex 27.11268889816717 -212.0245132678058 1
vertex 27.112688898167228 -212.02451326780587 0
endloop
endfacet
facet normal -0.7071067811865547 -0.7071067811865405 0
outer loop
vertex 27.975486732194263 -212.8873111018329 1
vertex 27.112688898167228 -212.02451326780587 0
vertex 27.9754867321942 -212.88731110183284 0
endloop
endfacet
facet normal -0.5735764363510342 -0.8191520442890001 0
outer loop
vertex 28.974999999999966 -213.58717782649106 1
vertex 27.975486732194263 -212.8873111018329 1
vertex 27.9754867321942 -212.88731110183284 0
endloop
endfacet
facet normal -0.5735764363510342 -0.8191520442890001 0
outer loop
vertex 28.974999999999966 -213.58717782649106 1
vertex 27.9754867321942 -212.88731110183284 0
vertex 28.975000000000094 -213.58717782649114 0
endloop
endfacet
facet normal -0.4226182617406946 -0.9063077870366524 0
outer loop
vertex 30.08085899672058 -214.10284834550149 1
vertex 28.974999999999966 -213.58717782649106 1
vertex 28.975000000000094 -213.58717782649114 0
endloop
endfacet
facet normal -0.4226182617406946 -0.9063077870366524 0
outer loop
vertex 30.08085899672058 -214.10284834550149 1
vertex 28.975000000000094 -213.58717782649114 0
vertex 30.080858996720323 -214.10284834550137 0
endloop
endfacet
facet normal -0.25881904510251214 -0.9659258262890708 0
outer loop
vertex 31.25946275633123 -214.41865427108544 1
vertex 30.08085899672058 -214.10284834550149 1
vertex 30.080858996720323 -214.10284834550137 0
endloop
endfacet
facet normal -0.25881904510251214 -0.9659258262890708 0
outer loop
vertex 31.25946275633123 -214.41865427108544 1
vertex 30.080858996720323 -214.10284834550137 0
vertex 31.259462756331416 -214.41865427108544 0
endloop
endfacet
facet normal -0.08715574274765463 -0.9961946980917459 0
outer loop
vertex 32.475000000000065 -214.525 1
vertex 31.25946275633123 -214.41865427108544 1
vertex 31.259462756331416 -214.41865427108544 0
endloop
endfacet
facet normal -0.08715574274765463 -0.9961946980917459 0
outer loop
vertex 32.475000000000065 -214.525 1
vertex 31.259462756331416 -214.41865427108544 0
vertex 32.47500000000023 -214.525 0
endloop
endfacet
facet normal 0 -1 0
outer loop
vertex 107.67499999999995 -214.525 0
vertex 107.67499999999993 -214.525 1
vertex 32.475000000000065 -214.525 1
endloop
endfacet
facet normal 0 -1 0
outer loop
vertex 107.67499999999995 -214.525 0
vertex 32.475000000000065 -214.525 1
vertex 32.47500000000023 -214.525 0
endloop
endfacet
facet normal 0.08715574274765463 -0.9961946980917459 0
outer loop
vertex 108.8905372436685 -214.41865427108547 1
vertex 107.67499999999993 -214.525 1
vertex 107.67499999999995 -214.525 0
endloop
endfacet
facet normal 0.08715574274765463 -0.9961946980917459 0
outer loop
vertex 108.8905372436685 -214.41865427108547 1
vertex 107.67499999999995 -214.525 0
vertex 108.89053724366843 -214.41865427108547 0
endloop
endfacet
facet normal 0.25881904510251214 -0.9659258262890708 0
outer loop
vertex 110.06914100327954 -214.1028483455014 1
vertex 108.8905372436685 -214.41865427108547 1
vertex 108.89053724366843 -214.41865427108547 0
endloop
endfacet
facet normal 0.25881904510251214 -0.9659258262890708 0
outer loop
vertex 110.06914100327954 -214.1028483455014 1
vertex 108.89053724366843 -214.41865427108547 0
vertex 110.06914100327961 -214.10284834550137 0
endloop
endfacet
facet normal 0.4226182617406946 -0.9063077870366524 0
outer loop
vertex 111.17500000000017 -213.58717782649097 1
vertex 110.06914100327954 -214.1028483455014 1
vertex 110.06914100327961 -214.10284834550137 0
endloop
endfacet
facet normal 0.4226182617406946 -0.9063077870366524 0
outer loop
vertex 111.17500000000017 -213.58717782649097 1
vertex 110.06914100327961 -214.10284834550137 0
vertex 111.17500000000027 -213.58717782649092 0
endloop
endfacet
facet normal 0.5735764363510599 -0.8191520442889821 0
outer loop
vertex 112.17451326780571 -212.88731110183292 1
vertex 111.17500000000017 -213.58717782649097 1
vertex 111.17500000000027 -213.58717782649092 0
endloop
endfacet
facet normal 0.5735764363510599 -0.8191520442889821 0
outer loop
vertex 112.17451326780571 -212.88731110183292 1
vertex 111.17500000000027 -213.58717782649092 0
vertex 112.1745132678056 -212.887311101833 0
endloop
endfacet
facet normal 0.7071067811865476 -0.7071067811865476 0
outer loop
vertex 113.03731110183293 -212.02451326780567 1
vertex 112.17451326780571 -212.88731110183292 1
vertex 112.1745132678056 -212.887311101833 0
endloop
endfacet
facet normal 0.7071067811865476 -0.7071067811865476 0
outer loop
vertex 113.03731110183293 -212.02451326780567 1
vertex 112.1745132678056 -212.887311101833 0
vertex 113.03731110183291 -212.02451326780567 0
endloop
endfacet
facet normal 0.8191520442890001 -0.5735764363510341 0
outer loop
vertex 113.73717782649108 -211.02499999999998 1
vertex 113.03731110183293 -212.02451326780567 1
vertex 113.03731110183291 -212.02451326780567 0
endloop
endfacet
facet normal 0.8191520442890001 -0.5735764363510341 0
outer loop
vertex 113.73717782649108 -211.02499999999998 1
vertex 113.03731110183291 -212.02451326780567 0
vertex 113.73717782649113 -211.0249999999999 0
endloop
endfacet
facet normal 0.9063077870366524 -0.42261826174069467 0
outer loop
vertex 114.25284834550138 -209.91914100327963 1
vertex 113.73717782649108 -211.02499999999998 1
vertex 113.73717782649113 -211.0249999999999 0
endloop
endfacet
facet normal 0.9063077870366524 -0.42261826174069467 0
outer loop
vertex 114.25284834550138 -209.91914100327963 1
vertex 113.73717782649113 -211.0249999999999 0
vertex 114.25284834550138 -209.91914100327966 0
endloop
endfacet
facet normal 0.9659258262890708 -0.25881904510251214 0
outer loop
vertex 114.56865427108545 -208.74053724366857 1
vertex 114.25284834550138 -209.91914100327963 1
vertex 114.25284834550138 -209.91914100327966 0
endloop
endfacet
facet normal 0.9659258262890708 -0.25881904510251214 0
outer loop
vertex 114.56865427108545 -208.74053724366857 1
vertex 114.25284834550138 -209.91914100327966 0
vertex 114.56865427108545 -208.7405372436686 0
endloop
endfacet
facet normal 0.9961946980917459 -0.08715574274765463 0
outer loop
vertex 114.675 -207.52500000000003 1
vertex 114.56865427108545 -208.74053724366857 1
vertex 114.56865427108545 -208.7405372436686 0
endloop
endfacet
facet normal 0.9961946980917459 -0.08715574274765463 0
outer loop
vertex 114.675 -207.52500000000003 1
vertex 114.56865427108545 -208.7405372436686 0
vertex 114.675 -207.5250000000001 0
endloop
endfacet
facet normal 1 0 0
outer loop
vertex 114.675 -84.75000000000004 0
vertex 114.67499999999998 -84.74999999999984 1
vertex 114.675 -207.52500000000003 1
endloop
endfacet
facet normal 1 0 0
outer loop
vertex 114.675 -84.75000000000004 0
vertex 114.675 -207.52500000000003 1
vertex 114.675 -207.5250000000001 0
endloop
endfacet
facet normal 0.9961946980917448 0.08715574274766874 0
outer loop
vertex 114.56865427108545 -83.5344627563315 1
vertex 114.67499999999998 -84.74999999999984 1
vertex 114.675 -84.75000000000004 0
endloop
endfacet
facet normal 0.9961946980917448 0.08715574274766874 0
outer loop
vertex 114.56865427108545 -83.5344627563315 1
vertex 114.675 -84.75000000000004 0
vertex 114.56865427108545 -83.5344627563315 0
endloop
endfacet
facet normal 0.9659258262890708 0.25881904510251214 0
outer loop
vertex 114.25284834550135 -82.35585899672034 1
vertex 114.56865427108545 -83.5344627563315 1
vertex 114.56865427108545 -83.5344627563315 0
endloop
endfacet
facet normal 0.9659258262890708 0.25881904510251214 0
outer loop
vertex 114.25284834550135 -82.35585899672034 1
vertex 114.56865427108545 -83.5344627563315 0
vertex 114.25284834550135 -82.3558589967203 0
endloop
endfacet
facet normal 0.9063077870366489 0.42261826174070183 0
outer loop
vertex 113.73717782649103 -81.24999999999997 1
vertex 114.25284834550135 -82.35585899672034 1
vertex 114.25284834550135 -82.3558589967203 0
endloop
endfacet
facet normal 0.9063077870366489 0.42261826174070183 0
outer loop
vertex 113.73717782649103 -81.24999999999997 1
vertex 114.25284834550135 -82.3558589967203 0
vertex 113.73717782649106 -81.24999999999999 0
endloop
endfacet
facet normal 0.8191520442890059 0.5735764363510261 0
outer loop
vertex 113.03731110183276 -80.25048673219412 1
vertex 113.73717782649103 -81.24999999999997 1
vertex 113.73717782649106 -81.24999999999999 0
endloop
endfacet
facet normal 0.8191520442890059 0.5735764363510261 0
outer loop
vertex 113.03731110183276 -80.25048673219412 1
vertex 113.73717782649106 -81.24999999999999 0
vertex 113.03731110183284 -80.2504867321942 0
endloop
endfacet
facet normal 0.7071067811865485 0.7071067811865467 0
outer loop
vertex 112.17451326780582 -79.38768889816718 1
vertex 113.03731110183276 -80.25048673219412 1
vertex 113.03731110183284 -80.2504867321942 0
endloop
endfacet
facet normal 0.7071067811865485 0.7071067811865467 0
outer loop
vertex 112.17451326780582 -79.38768889816718 1
vertex 113.03731110183284 -80.2504867321942 0
vertex 112.17451326780584 -79.3876888981672 0
endloop
endfacet
facet normal 0.5735764363510598 0.8191520442889821 0
outer loop
vertex 111.17500000000004 -78.68782217350896 1
vertex 112.17451326780582 -79.38768889816718 1
vertex 112.17451326780584 -79.3876888981672 0
endloop
endfacet
facet normal 0.5735764363510598 0.8191520442889821 0
outer loop
vertex 111.17500000000004 -78.68782217350896 1
vertex 112.17451326780584 -79.3876888981672 0
vertex 111.17500000000003 -78.68782217350896 0
endloop
endfacet
facet normal 0.42261826174068806 0.9063077870366553 0
outer loop
vertex 110.06914100327965 -78.17215165449863 1
vertex 111.17500000000004 -78.68782217350896 1
vertex 111.17500000000003 -78.68782217350896 0
endloop
endfacet
facet normal 0.42261826174068806 0.9063077870366553 0
outer loop
vertex 110.06914100327965 -78.17215165449863 1
vertex 111.17500000000003 -78.68782217350896 0
vertex 110.06914100327964 -78.17215165449863 0
endloop
endfacet
facet normal 0.25881904510251297 0.9659258262890704 0
outer loop
vertex 108.89053724366849 -77.85634572891455 1
vertex 110.06914100327965 -78.17215165449863 1
vertex 110.06914100327964 -78.17215165449863 0
endloop
endfacet
facet normal 0.25881904510251297 0.9659258262890704 0
outer loop
vertex 108.89053724366849 -77.85634572891455 1
vertex 110.06914100327964 -78.17215165449863 0
vertex 108.89053724366845 -77.85634572891453 0
endloop
endfacet
facet normal 0.08715574274766881 0.9961946980917447 0
outer loop
vertex 107.67499999999997 -77.75 1
vertex 108.89053724366849 -77.85634572891455 1
vertex 108.89053724366845 -77.85634572891453 0
endloop
endfacet
facet normal 0.08715574274766881 0.9961946980917447 0
outer loop
vertex 107.67499999999997 -77.75 1
vertex 108.89053724366845 -77.85634572891453 0
vertex 107.6750000000001 -77.75 0
endloop
endfacet
facet normal 0 1 0
outer loop
vertex 107.67499999999997 -77.75 1
vertex 107.6750000000001 -77.75 0
vertex 32.47500000000001 -77.75 0
endloop
endfacet
facet normal 0 1 0
outer loop
vertex 107.67499999999997 -77.75 1
vertex 32.47500000000001 -77.75 0
vertex 32.475000000000016 -77.75 1
endloop
endfacet
facet normal -0.08715574274765456 0.996194698091746 0
outer loop
vertex 31.259462756331487 -77.85634572891455 1
vertex 32.475000000000016 -77.75 1
vertex 32.47500000000001 -77.75 0
endloop
endfacet
facet normal -0.08715574274765456 0.996194698091746 0
outer loop
vertex 31.259462756331487 -77.85634572891455 1
vertex 32.47500000000001 -77.75 0
vertex 31.259462756331466 -77.85634572891455 0
endloop
endfacet
facet normal -0.25881904510251297 0.9659258262890704 0
outer loop
vertex 30.080858996720373 -78.17215165449862 1
vertex 31.259462756331487 -77.85634572891455 1
vertex 31.259462756331466 -77.85634572891455 0
endloop
endfacet
facet normal -0.25881904510251297 0.9659258262890704 0
outer loop
vertex 30.080858996720373 -78.17215165449862 1
vertex 31.259462756331466 -77.85634572891455 0
vertex 30.080858996720387 -78.1721516544986 0
endloop
endfacet
facet normal -0.42261826174070904 0.9063077870366456 0
outer loop
vertex 28.97499999999998 -78.68782217350895 1
vertex 30.080858996720373 -78.17215165449862 1
vertex 30.080858996720387 -78.1721516544986 0
endloop
endfacet
facet normal -0.42261826174070904 0.9063077870366456 0
outer loop
vertex 28.97499999999998 -78.68782217350895 1
vertex 30.080858996720387 -78.1721516544986 0
vertex 28.97500000000006 -78.6878221735089 0
endloop
endfacet
facet normal -0.573576436351047 0.8191520442889911 0
outer loop
vertex 27.975486732194213 -79.38768889816717 1
vertex 28.97499999999998 -78.68782217350895 1
vertex 28.97500000000006 -78.6878221735089 0
endloop
endfacet
facet normal -0.573576436351047 0.8191520442889911 0
outer loop
vertex 27.975486732194213 -79.38768889816717 1
vertex 28.97500000000006 -78.6878221735089 0
vertex 27.975486732194184 -79.3876888981672 0
endloop
endfacet
facet normal -0.7071067811865405 0.7071067811865547 0
outer loop
vertex 27.112688898167157 -80.25048673219422 1
vertex 27.975486732194213 -79.38768889816717 1
vertex 27.975486732194184 -79.3876888981672 0
endloop
endfacet
facet normal -0.7071067811865405 0.7071067811865547 0
outer loop
vertex 27.112688898167157 -80.25048673219422 1
vertex 27.975486732194184 -79.3876888981672 0
vertex 27.11268889816718 -80.2504867321942 0
endloop
endfacet
facet normal -0.8191520442889912 0.573576436351047 0
outer loop
vertex 26.4128221735089 -81.25000000000004 1
vertex 27.112688898167157 -80.25048673219422 1
vertex 27.11268889816718 -80.2504867321942 0
endloop
endfacet
facet normal -0.8191520442889912 0.573576436351047 0
outer loop
vertex 26.4128221735089 -81.25000000000004 1
vertex 27.11268889816718 -80.2504867321942 0
vertex 26.4128221735089 -81.25000000000004 0
endloop
endfacet
facet normal -0.9063077870366456 0.42261826174070904 0
outer loop
vertex 25.89715165449867 -82.35585899672024 1
vertex 26.4128221735089 -81.25000000000004 1
vertex 26.4128221735089 -81.25000000000004 0
endloop
endfacet
facet normal -0.9063077870366456 0.42261826174070904 0
outer loop
vertex 25.89715165449867 -82.35585899672024 1
vertex 26.4128221735089 -81.25000000000004 0
vertex 25.897151654498657 -82.35585899672026 0
endloop
endfacet
facet normal -0.9659258262890685 0.25881904510252 0
outer loop
vertex 25.581345728914542 -83.53446275633155 1
vertex 25.89715165449867 -82.35585899672024 1
vertex 25.897151654498657 -82.35585899672026 0
endloop
endfacet
facet normal -0.9659258262890685 0.25881904510252 0
outer loop
vertex 25.581345728914542 -83.53446275633155 1
vertex 25.897151654498657 -82.35585899672026 0
vertex 25.581345728914542 -83.53446275633151 0
endloop
endfacet
facet normal -0.9961946980917453 0.08715574274766169 0
outer loop
vertex 25.475 -84.74999999999997 1
vertex 25.581345728914542 -83.53446275633155 1
vertex 25.581345728914542 -83.53446275633151 0
endloop
endfacet
facet normal -0.9961946980917453 0.08715574274766169 0
outer loop
vertex 25.475 -84.74999999999997 1
vertex 25.581345728914542 -83.53446275633151 0
vertex 25.475 -84.74999999999997 0
endloop
endfacet
facet normal -1 0 0
outer loop
vertex 25.475 -84.74999999999997 1
vertex 25.475 -84.74999999999997 0
vertex 25.475 -207.52499999999998 0
endloop
endfacet
facet normal -1 0 0
outer loop
vertex 25.475 -84.74999999999997 1
vertex 25.475 -207.52499999999998 0
vertex 25.475 -207.52499999999998 1
endloop
endfacet
endsolid csg.js
